<svg width="98" height="34" viewBox="0 0 98 34" fill="none" xmlns="http://www.w3.org/2000/svg">
<rect y="0.875" width="98" height="30" rx="6" fill="black"/>
<path d="M19.6779 21.015C18.7352 21.015 17.9839 20.7537 17.4239 20.231C16.8732 19.699 16.5979 18.971 16.5979 18.047V13.469C16.5979 12.5543 16.8732 11.8357 17.4239 11.313C17.9839 10.781 18.7352 10.515 19.6779 10.515C20.6112 10.515 21.3532 10.781 21.9039 11.313C22.4639 11.845 22.7439 12.5637 22.7439 13.469H21.3579C21.3579 12.9183 21.2085 12.4937 20.9099 12.195C20.6112 11.8963 20.2005 11.747 19.6779 11.747C19.1459 11.747 18.7305 11.8963 18.4319 12.195C18.1332 12.4937 17.9839 12.9183 17.9839 13.469V18.047C17.9839 18.607 18.1332 19.0363 18.4319 19.335C18.7305 19.6337 19.1459 19.783 19.6779 19.783C20.2005 19.783 20.6112 19.6337 20.9099 19.335C21.2085 19.0363 21.3579 18.607 21.3579 18.047H22.7439C22.7439 18.9617 22.4639 19.685 21.9039 20.217C21.3532 20.749 20.6112 21.015 19.6779 21.015ZM28.0164 20.987C27.0737 20.987 26.3271 20.7257 25.7764 20.203C25.2257 19.671 24.9504 18.9477 24.9504 18.033V16.017C24.9504 15.1023 25.2257 14.3837 25.7764 13.861C26.3271 13.329 27.0737 13.063 28.0164 13.063C28.9591 13.063 29.7057 13.329 30.2564 13.861C30.8071 14.3837 31.0824 15.0977 31.0824 16.003V18.033C31.0824 18.9477 30.8071 19.671 30.2564 20.203C29.7057 20.7257 28.9591 20.987 28.0164 20.987ZM28.0164 19.769C28.5391 19.769 28.9497 19.6243 29.2484 19.335C29.5471 19.0363 29.6964 18.6023 29.6964 18.033V16.017C29.6964 15.4477 29.5471 15.0183 29.2484 14.729C28.9497 14.4303 28.5391 14.281 28.0164 14.281C27.4937 14.281 27.0831 14.4303 26.7844 14.729C26.4857 15.0183 26.3364 15.4477 26.3364 16.017V18.033C26.3364 18.6023 26.4857 19.0363 26.7844 19.335C27.0831 19.6243 27.4937 19.769 28.0164 19.769ZM33.4569 23.395V13.175H34.8289V14.617H34.8429C34.9363 14.1223 35.1649 13.735 35.5289 13.455C35.9023 13.175 36.3736 13.035 36.9429 13.035C37.7083 13.035 38.3243 13.2963 38.7909 13.819C39.2576 14.3323 39.4909 15.0323 39.4909 15.919V18.117C39.4909 19.013 39.2576 19.7223 38.7909 20.245C38.3336 20.7583 37.7176 21.015 36.9429 21.015C36.3829 21.015 35.9163 20.875 35.5429 20.595C35.1696 20.3057 34.9363 19.9137 34.8429 19.419H34.8149L34.8429 21.169V23.395H33.4569ZM36.4669 19.811C36.9803 19.811 37.3816 19.6617 37.6709 19.363C37.9603 19.055 38.1049 18.6163 38.1049 18.047V15.989C38.1049 15.429 37.9603 14.9997 37.6709 14.701C37.3816 14.393 36.9803 14.239 36.4669 14.239C35.9629 14.239 35.5663 14.393 35.2769 14.701C34.9876 15.009 34.8429 15.443 34.8429 16.003V18.047C34.8429 18.607 34.9876 19.041 35.2769 19.349C35.5663 19.657 35.9629 19.811 36.4669 19.811ZM43.0695 23.395L44.1895 20.413L41.2355 13.175H42.7475L44.5395 17.725C44.6048 17.9023 44.6701 18.1123 44.7355 18.355C44.8008 18.5883 44.8521 18.7843 44.8895 18.943C44.9268 18.7843 44.9781 18.5883 45.0435 18.355C45.1181 18.1123 45.1881 17.9023 45.2535 17.725L46.9195 13.175H48.3755L44.5115 23.395H43.0695ZM61.5945 21.015C60.6332 21.015 59.8912 20.749 59.3685 20.217C58.8552 19.685 58.5985 18.9617 58.5985 18.047V10.655H59.9845V18.047C59.9845 18.5883 60.1152 19.013 60.3765 19.321C60.6472 19.629 61.0532 19.783 61.5945 19.783C62.1265 19.783 62.5279 19.629 62.7985 19.321C63.0785 19.013 63.2185 18.5883 63.2185 18.047V10.655H64.6045V18.047C64.6045 18.971 64.3432 19.699 63.8205 20.231C63.3072 20.7537 62.5652 21.015 61.5945 21.015ZM67.0211 20.875V10.655H70.1991C70.8244 10.655 71.3704 10.781 71.8371 11.033C72.3037 11.2757 72.6677 11.621 72.9291 12.069C73.1904 12.5077 73.3211 13.0257 73.3211 13.623C73.3211 14.3137 73.1437 14.9063 72.7891 15.401C72.4344 15.8957 71.9537 16.241 71.3471 16.437L73.4611 20.875H71.8511L69.9471 16.605H68.4071V20.875H67.0211ZM68.4071 15.373H70.1991C70.7217 15.373 71.1324 15.2143 71.4311 14.897C71.7391 14.5797 71.8931 14.1597 71.8931 13.637C71.8931 13.105 71.7391 12.6803 71.4311 12.363C71.1231 12.0457 70.7124 11.887 70.1991 11.887H68.4071V15.373ZM75.9756 20.875V10.655H77.3616V19.615H81.9116V20.875H75.9756Z" fill="white"/>
<path d="M49.8274 33.4332C49.4154 34.0222 48.5846 34.0223 48.1726 33.4332L46.2049 30.6204C45.7002 29.8988 46.1855 28.875 47.0324 28.875L50.9676 28.875C51.8145 28.875 52.2998 29.8988 51.7951 30.6204L49.8274 33.4332Z" fill="black"/>
</svg>
