<svg width="114" height="34" viewBox="0 0 114 34" fill="none" xmlns="http://www.w3.org/2000/svg">
<rect y="0.875" width="114" height="30" rx="6" fill="black"/>
<path d="M16.2593 20.875V10.655H19.4373C20.0627 10.655 20.6087 10.781 21.0753 11.033C21.542 11.2757 21.906 11.621 22.1673 12.069C22.4287 12.5077 22.5593 13.0257 22.5593 13.623C22.5593 14.3137 22.382 14.9063 22.0273 15.401C21.6727 15.8957 21.192 16.241 20.5853 16.437L22.6993 20.875H21.0893L19.1853 16.605H17.6453V20.875H16.2593ZM17.6453 15.373H19.4373C19.96 15.373 20.3707 15.2143 20.6693 14.897C20.9773 14.5797 21.1313 14.1597 21.1313 13.637C21.1313 13.105 20.9773 12.6803 20.6693 12.363C20.3613 12.0457 19.9507 11.887 19.4373 11.887H17.6453V15.373ZM27.6219 21.015C27.0059 21.015 26.4645 20.8937 25.9979 20.651C25.5405 20.399 25.1859 20.0537 24.9339 19.615C24.6819 19.167 24.5559 18.6443 24.5559 18.047V15.989C24.5559 15.401 24.6819 14.8877 24.9339 14.449C25.1859 14.001 25.5405 13.6557 25.9979 13.413C26.4645 13.161 27.0059 13.035 27.6219 13.035C28.2379 13.035 28.7745 13.161 29.2319 13.413C29.6985 13.6557 30.0579 14.001 30.3099 14.449C30.5619 14.8877 30.6879 15.401 30.6879 15.989V17.361H25.9139V18.047C25.9139 18.6443 26.0585 19.097 26.3479 19.405C26.6465 19.713 27.0712 19.867 27.6219 19.867C28.0885 19.867 28.4619 19.7877 28.7419 19.629C29.0219 19.461 29.1992 19.2137 29.2739 18.887H30.6459C30.5525 19.5403 30.2259 20.0583 29.6659 20.441C29.1152 20.8237 28.4339 21.015 27.6219 21.015ZM25.9139 15.989V16.367H29.3439V15.989C29.3439 15.401 29.1945 14.953 28.8959 14.645C28.6065 14.3277 28.1819 14.169 27.6219 14.169C27.0619 14.169 26.6372 14.3277 26.3479 14.645C26.0585 14.953 25.9139 15.401 25.9139 15.989ZM34.0424 23.395V22.163H36.4504C37.2157 22.163 37.5984 21.799 37.5984 21.071V20.189L37.6264 18.789H37.5984C37.5424 19.2837 37.3324 19.6757 36.9684 19.965C36.6044 20.2543 36.1331 20.399 35.5544 20.399C34.7611 20.399 34.1357 20.1377 33.6784 19.615C33.2211 19.0923 32.9924 18.3877 32.9924 17.501V15.919C32.9924 15.0323 33.2211 14.3323 33.6784 13.819C34.1357 13.2963 34.7611 13.035 35.5544 13.035C36.1331 13.035 36.6044 13.1797 36.9684 13.469C37.3324 13.749 37.5424 14.141 37.5984 14.645H37.6124L37.5984 13.175H38.9704V21.085C38.9704 21.8037 38.7464 22.3683 38.2984 22.779C37.8504 23.1897 37.2344 23.395 36.4504 23.395H34.0424ZM35.9884 19.195C36.4831 19.195 36.8751 19.041 37.1644 18.733C37.4537 18.425 37.5984 17.991 37.5984 17.431V15.989C37.5984 15.4383 37.4537 15.009 37.1644 14.701C36.8751 14.393 36.4831 14.239 35.9884 14.239C35.4751 14.239 35.0784 14.393 34.7984 14.701C34.5184 14.9997 34.3784 15.429 34.3784 15.989V17.431C34.3784 18.0003 34.5184 18.439 34.7984 18.747C35.0784 19.0457 35.4751 19.195 35.9884 19.195ZM44.4109 21.015C43.7949 21.015 43.2536 20.8937 42.7869 20.651C42.3296 20.399 41.9749 20.0537 41.7229 19.615C41.4709 19.167 41.3449 18.6443 41.3449 18.047V15.989C41.3449 15.401 41.4709 14.8877 41.7229 14.449C41.9749 14.001 42.3296 13.6557 42.7869 13.413C43.2536 13.161 43.7949 13.035 44.4109 13.035C45.0269 13.035 45.5636 13.161 46.0209 13.413C46.4876 13.6557 46.8469 14.001 47.0989 14.449C47.3509 14.8877 47.4769 15.401 47.4769 15.989V17.361H42.7029V18.047C42.7029 18.6443 42.8476 19.097 43.1369 19.405C43.4356 19.713 43.8603 19.867 44.4109 19.867C44.8776 19.867 45.2509 19.7877 45.5309 19.629C45.8109 19.461 45.9883 19.2137 46.0629 18.887H47.4349C47.3416 19.5403 47.0149 20.0583 46.4549 20.441C45.9043 20.8237 45.2229 21.015 44.4109 21.015ZM42.7029 15.989V16.367H46.1329V15.989C46.1329 15.401 45.9836 14.953 45.6849 14.645C45.3956 14.3277 44.9709 14.169 44.4109 14.169C43.8509 14.169 43.4263 14.3277 43.1369 14.645C42.8476 14.953 42.7029 15.401 42.7029 15.989ZM49.8375 20.875V13.175H51.2095V14.645H51.2375C51.3028 14.1317 51.5128 13.735 51.8675 13.455C52.2221 13.175 52.6935 13.035 53.2815 13.035C54.0468 13.035 54.6581 13.2777 55.1155 13.763C55.5728 14.2483 55.8015 14.9017 55.8015 15.723V20.875H54.4155V15.877C54.4155 15.3543 54.2755 14.953 53.9955 14.673C53.7155 14.3837 53.3328 14.239 52.8475 14.239C52.3435 14.239 51.9468 14.393 51.6575 14.701C51.3681 14.9997 51.2235 15.429 51.2235 15.989V20.875H49.8375ZM61.2 21.015C60.584 21.015 60.0427 20.8937 59.576 20.651C59.1187 20.399 58.764 20.0537 58.512 19.615C58.26 19.167 58.134 18.6443 58.134 18.047V15.989C58.134 15.401 58.26 14.8877 58.512 14.449C58.764 14.001 59.1187 13.6557 59.576 13.413C60.0427 13.161 60.584 13.035 61.2 13.035C61.816 13.035 62.3527 13.161 62.81 13.413C63.2767 13.6557 63.636 14.001 63.888 14.449C64.14 14.8877 64.266 15.401 64.266 15.989V17.361H59.492V18.047C59.492 18.6443 59.6367 19.097 59.926 19.405C60.2247 19.713 60.6493 19.867 61.2 19.867C61.6667 19.867 62.04 19.7877 62.32 19.629C62.6 19.461 62.7773 19.2137 62.852 18.887H64.224C64.1307 19.5403 63.804 20.0583 63.244 20.441C62.6933 20.8237 62.012 21.015 61.2 21.015ZM59.492 15.989V16.367H62.922V15.989C62.922 15.401 62.7727 14.953 62.474 14.645C62.1847 14.3277 61.76 14.169 61.2 14.169C60.64 14.169 60.2153 14.3277 59.926 14.645C59.6367 14.953 59.492 15.401 59.492 15.989ZM66.8645 20.875V13.175H68.2365V14.645H68.2645C68.3299 14.1317 68.5399 13.735 68.8945 13.455C69.2585 13.175 69.7345 13.035 70.3225 13.035C71.1159 13.035 71.7505 13.2917 72.2265 13.805C72.7025 14.3183 72.9405 15.009 72.9405 15.877V16.437H71.5405V15.989C71.5405 15.4383 71.3959 15.009 71.1065 14.701C70.8265 14.393 70.4112 14.239 69.8605 14.239C68.7872 14.239 68.2505 14.8317 68.2505 16.017V20.875H66.8645ZM77.2751 21.015C76.4631 21.015 75.8237 20.8097 75.3571 20.399C74.8997 19.979 74.6711 19.4143 74.6711 18.705C74.6711 17.977 74.9091 17.4077 75.3851 16.997C75.8704 16.577 76.5284 16.367 77.3591 16.367H79.5991V15.639C79.5991 15.191 79.4591 14.8457 79.1791 14.603C78.9084 14.351 78.5304 14.225 78.0451 14.225C77.6064 14.225 77.2377 14.323 76.9391 14.519C76.6497 14.7057 76.4724 14.953 76.4071 15.261H75.0491C75.0864 14.813 75.2404 14.4257 75.5111 14.099C75.7817 13.763 76.1364 13.5017 76.5751 13.315C77.0137 13.1283 77.5084 13.035 78.0591 13.035C78.9551 13.035 79.6644 13.2683 80.1871 13.735C80.7191 14.1923 80.9851 14.813 80.9851 15.597V20.875H79.6271V19.447H79.6131C79.5477 19.9323 79.3051 20.315 78.8851 20.595C78.4651 20.875 77.9284 21.015 77.2751 21.015ZM77.6531 19.937C78.2131 19.937 78.6751 19.797 79.0391 19.517C79.4124 19.2277 79.5991 18.859 79.5991 18.411V17.361H77.3871C76.9764 17.361 76.6497 17.473 76.4071 17.697C76.1737 17.921 76.0571 18.2243 76.0571 18.607C76.0571 19.027 76.1971 19.3537 76.4771 19.587C76.7571 19.8203 77.1491 19.937 77.6531 19.937ZM87.2236 20.875C86.5609 20.875 86.0336 20.6837 85.6416 20.301C85.2589 19.9183 85.0676 19.4097 85.0676 18.775V14.435H82.9116V13.175H85.0676V11.005H86.4536V13.175H89.4916V14.435H86.4536V18.761C86.4536 19.013 86.5236 19.2183 86.6636 19.377C86.8129 19.5357 87.0089 19.615 87.2516 19.615H89.3516V20.875H87.2236ZM94.7781 21.015C94.1621 21.015 93.6208 20.8937 93.1541 20.651C92.6968 20.399 92.3421 20.0537 92.0901 19.615C91.8381 19.167 91.7121 18.6443 91.7121 18.047V15.989C91.7121 15.401 91.8381 14.8877 92.0901 14.449C92.3421 14.001 92.6968 13.6557 93.1541 13.413C93.6208 13.161 94.1621 13.035 94.7781 13.035C95.3941 13.035 95.9308 13.161 96.3881 13.413C96.8548 13.6557 97.2141 14.001 97.4661 14.449C97.7181 14.8877 97.8441 15.401 97.8441 15.989V17.361H93.0701V18.047C93.0701 18.6443 93.2148 19.097 93.5041 19.405C93.8028 19.713 94.2275 19.867 94.7781 19.867C95.2448 19.867 95.6181 19.7877 95.8981 19.629C96.1781 19.461 96.3555 19.2137 96.4301 18.887H97.8021C97.7088 19.5403 97.3821 20.0583 96.8221 20.441C96.2715 20.8237 95.5901 21.015 94.7781 21.015ZM93.0701 15.989V16.367H96.5001V15.989C96.5001 15.401 96.3508 14.953 96.0521 14.645C95.7628 14.3277 95.3381 14.169 94.7781 14.169C94.2181 14.169 93.7935 14.3277 93.5041 14.645C93.2148 14.953 93.0701 15.401 93.0701 15.989Z" fill="white"/>
<path d="M57.8274 33.4332C57.4154 34.0222 56.5846 34.0223 56.1726 33.4332L54.2049 30.6204C53.7002 29.8988 54.1855 28.875 55.0324 28.875L58.9676 28.875C59.8145 28.875 60.2998 29.8988 59.7951 30.6204L57.8274 33.4332Z" fill="black"/>
</svg>
