<svg width="24" height="16" viewBox="0 0 24 16" fill="none" xmlns="http://www.w3.org/2000/svg">
<path d="M20.6654 0.416016C21.5273 0.416016 22.354 0.758425 22.9635 1.36792C23.573 1.97741 23.9154 2.80406 23.9154 3.66602V12.3327C23.9154 13.1946 23.573 14.0213 22.9635 14.6308C22.354 15.2403 21.5273 15.5827 20.6654 15.5827H3.33203C2.47008 15.5827 1.64343 15.2403 1.03393 14.6308C0.424441 14.0213 0.0820313 13.1946 0.0820312 12.3327V3.66602C0.0820313 2.80406 0.424441 1.97741 1.03393 1.36792C1.64343 0.758425 2.47008 0.416016 3.33203 0.416016H20.6654ZM5.4987 9.08268C5.21138 9.08268 4.93583 9.19682 4.73267 9.39998C4.5295 9.60315 4.41536 9.8787 4.41536 10.166V10.1768C4.41536 10.4642 4.5295 10.7397 4.73267 10.9429C4.93583 11.146 5.21138 11.2602 5.4987 11.2602C5.78602 11.2602 6.06157 11.146 6.26473 10.9429C6.46789 10.7397 6.58203 10.4642 6.58203 10.1768V10.166C6.58203 9.8787 6.46789 9.60315 6.26473 9.39998C6.06157 9.19682 5.78602 9.08268 5.4987 9.08268ZM18.4987 9.08268C18.2114 9.08268 17.9358 9.19682 17.7327 9.39998C17.5295 9.60315 17.4154 9.8787 17.4154 10.166V10.1768C17.4154 10.4642 17.5295 10.7397 17.7327 10.9429C17.9358 11.146 18.2114 11.2602 18.4987 11.2602C18.786 11.2602 19.0616 11.146 19.2647 10.9429C19.4679 10.7397 19.582 10.4642 19.582 10.1768V10.166C19.582 9.8787 19.4679 9.60315 19.2647 9.39998C19.0616 9.19682 18.786 9.08268 18.4987 9.08268ZM9.8342 9.08268C9.69193 9.0824 9.551 9.11014 9.41946 9.16432C9.28792 9.2185 9.16833 9.29806 9.06753 9.39845C8.86396 9.60121 8.74927 9.87653 8.7487 10.1638C8.74841 10.3061 8.77615 10.447 8.83033 10.5786C8.88451 10.7101 8.96407 10.8297 9.06447 10.9305C9.16486 11.0313 9.28413 11.1114 9.41546 11.1661C9.54678 11.2208 9.6876 11.2491 9.82987 11.2493L14.1632 11.2602C14.3055 11.2605 14.4464 11.2329 14.578 11.1788C14.7096 11.1246 14.8292 11.0451 14.93 10.9448C15.0309 10.8445 15.111 10.7252 15.1657 10.5939C15.2205 10.4626 15.2489 10.3218 15.2492 10.1796C15.2496 10.0373 15.2219 9.89635 15.1678 9.76478C15.1137 9.63321 15.0342 9.51358 14.9339 9.41273C14.8335 9.31188 14.7143 9.23179 14.583 9.17702C14.4517 9.12224 14.3109 9.09387 14.1686 9.09352L9.8342 9.08268ZM5.4987 4.74935C5.21138 4.74935 4.93583 4.86349 4.73267 5.06665C4.5295 5.26981 4.41536 5.54536 4.41536 5.83268V5.84352C4.41536 6.13083 4.5295 6.40638 4.73267 6.60955C4.93583 6.81271 5.21138 6.92685 5.4987 6.92685C5.78602 6.92685 6.06157 6.81271 6.26473 6.60955C6.46789 6.40638 6.58203 6.13083 6.58203 5.84352V5.83268C6.58203 5.54536 6.46789 5.26981 6.26473 5.06665C6.06157 4.86349 5.78602 4.74935 5.4987 4.74935ZM9.83203 4.74935C9.54471 4.74935 9.26916 4.86349 9.066 5.06665C8.86283 5.26981 8.7487 5.54536 8.7487 5.83268V5.84352C8.7487 6.13083 8.86283 6.40638 9.066 6.60955C9.26916 6.81271 9.54471 6.92685 9.83203 6.92685C10.1193 6.92685 10.3949 6.81271 10.5981 6.60955C10.8012 6.40638 10.9154 6.13083 10.9154 5.84352V5.83268C10.9154 5.54536 10.8012 5.26981 10.5981 5.06665C10.3949 4.86349 10.1193 4.74935 9.83203 4.74935ZM14.1654 4.74935C13.878 4.74935 13.6025 4.86349 13.3993 5.06665C13.1962 5.26981 13.082 5.54536 13.082 5.83268V5.84352C13.082 6.13083 13.1962 6.40638 13.3993 6.60955C13.6025 6.81271 13.878 6.92685 14.1654 6.92685C14.4527 6.92685 14.7282 6.81271 14.9314 6.60955C15.1346 6.40638 15.2487 6.13083 15.2487 5.84352V5.83268C15.2487 5.54536 15.1346 5.26981 14.9314 5.06665C14.7282 4.86349 14.4527 4.74935 14.1654 4.74935ZM18.4987 4.74935C18.2114 4.74935 17.9358 4.86349 17.7327 5.06665C17.5295 5.26981 17.4154 5.54536 17.4154 5.83268V5.84352C17.4154 6.13083 17.5295 6.40638 17.7327 6.60955C17.9358 6.81271 18.2114 6.92685 18.4987 6.92685C18.786 6.92685 19.0616 6.81271 19.2647 6.60955C19.4679 6.40638 19.582 6.13083 19.582 5.84352V5.83268C19.582 5.54536 19.4679 5.26981 19.2647 5.06665C19.0616 4.86349 18.786 4.74935 18.4987 4.74935Z" fill="#494AF8"/>
</svg>
