<svg width="18" height="18" viewBox="0 0 18 18" fill="none" xmlns="http://www.w3.org/2000/svg">
<path d="M18 10.7972C18 13.3811 16.8919 15 14.8978 15C13.1372 15 12.2034 14.0208 10.485 11.134L9.60187 9.64528C9.36844 9.29151 9.19406 8.96038 9.00562 8.65472C8.44031 9.61132 7.68094 11.0038 7.68094 11.0038C5.79656 14.3038 4.73906 15 3.26812 15C1.22119 15 0 13.3783 0 10.8708C0 6.82359 2.24381 3 5.17219 3C6.58406 3 7.81031 3.69849 9.24469 5.53302C10.2881 4.11509 11.4412 3 12.9178 3C15.705 3 18 6.55755 18 10.7972ZM8.08312 7.23962C6.87656 5.48208 6.08906 4.96132 5.14687 4.96132C3.40594 4.96132 1.94681 7.96415 1.94681 10.9047C1.94681 12.2774 2.46656 13.0472 3.34125 13.0472C4.19062 13.0472 4.71937 12.5094 6.24375 10.1094C6.24375 10.1094 6.93844 9.00283 8.08312 7.23962ZM14.94 13.0472C15.8456 13.0472 16.2591 12.2689 16.2591 10.9274C16.2591 7.41226 14.7319 4.54755 12.7941 4.54755C11.8603 4.54755 11.0756 5.28113 10.125 6.75566C10.3894 7.14623 10.6622 7.57642 10.9491 8.04057L12.0037 9.8066C13.6547 12.4698 14.0709 13.0472 14.94 13.0472Z" fill="#CCCCCC"/>
</svg>
