<svg width="17" height="17" viewBox="0 0 17 17" fill="none" xmlns="http://www.w3.org/2000/svg">
<path d="M11.2541 6.74768C11.44 6.56177 11.6883 6.45141 11.9509 6.43793C12.2134 6.42446 12.4717 6.50882 12.6757 6.67472L12.7564 6.74768L14.2595 8.25005C15.0495 9.0353 15.4996 10.0993 15.513 11.213C15.5264 12.3268 15.102 13.4013 14.3312 14.2053C13.5604 15.0094 12.5048 15.4787 11.3915 15.5123C10.2781 15.5459 9.19611 15.141 8.37823 14.3849L8.24861 14.261L6.74623 12.7579C6.55438 12.5652 6.44373 12.3062 6.43708 12.0343C6.43042 11.7624 6.52827 11.4984 6.71046 11.2965C6.89266 11.0946 7.14533 10.9702 7.41645 10.949C7.68757 10.9279 7.9565 11.0114 8.16786 11.1826L8.24861 11.2555L9.75169 12.7579C10.1421 13.1454 10.6676 13.3665 11.2177 13.3745C11.7677 13.3825 12.2995 13.1769 12.701 12.8009C13.1026 12.425 13.3427 11.9079 13.3709 11.3585C13.3991 10.8091 13.2131 10.2702 12.8521 9.85514L12.7564 9.75314L11.2541 8.25005C11.0549 8.05081 10.943 7.7806 10.943 7.49887C10.943 7.21713 11.0549 6.94693 11.2541 6.74768ZM6.24544 6.24689C6.43138 6.06098 6.67964 5.95062 6.94223 5.93714C7.20482 5.92367 7.46308 6.00803 7.66707 6.17393L7.74782 6.24689L10.7533 9.25235C10.9465 9.44486 11.0583 9.7043 11.0655 9.97696C11.0727 10.2496 10.9747 10.5146 10.792 10.717C10.6092 10.9195 10.3555 11.0439 10.0836 11.0645C9.8116 11.0851 9.54213 11.0003 9.33094 10.8277L9.25019 10.7547L6.24544 7.74926C6.04625 7.55002 5.93436 7.27981 5.93436 6.99808C5.93436 6.71634 6.04625 6.44614 6.24544 6.24689ZM2.73919 2.74064C3.51427 1.96569 4.55878 1.52014 5.65458 1.49704C6.75037 1.47394 7.81273 1.87508 8.61977 2.61668L8.75011 2.74064L10.2518 4.24372C10.4436 4.43646 10.5543 4.69543 10.5609 4.96729C10.5676 5.23916 10.4697 5.50323 10.2875 5.70513C10.1054 5.90702 9.85268 6.03137 9.58155 6.05256C9.31043 6.07376 9.0415 5.99018 8.83015 5.81905L8.7494 5.7461L7.24773 4.24372C6.85779 3.85387 6.33159 3.63085 5.78027 3.62178C5.22895 3.61271 4.69568 3.81829 4.29313 4.1951C3.89057 4.57191 3.65025 5.09044 3.62291 5.64116C3.59558 6.19187 3.78338 6.73165 4.14665 7.14647L4.24227 7.24847L5.74394 8.75156C5.9358 8.94429 6.04644 9.20326 6.0531 9.47513C6.05975 9.747 5.96191 10.0111 5.77971 10.213C5.59752 10.4149 5.34484 10.5392 5.07372 10.5604C4.8026 10.5816 4.53367 10.498 4.32232 10.3269L4.24227 10.2539L2.73919 8.75156C2.34447 8.3569 2.03135 7.88835 1.81772 7.37267C1.60409 6.85699 1.49414 6.30428 1.49414 5.7461C1.49414 5.18792 1.60409 4.63521 1.81772 4.11953C2.03135 3.60385 2.34447 3.1353 2.73919 2.74064Z" fill="white"/>
</svg>
