<svg width="16" height="16" viewBox="0 0 16 16" fill="none" xmlns="http://www.w3.org/2000/svg">
<path d="M6.87978 10.7446L4.17969 8.04384L5.07951 7.14402L6.87978 8.94366L10.4791 5.34375L11.3795 6.2442L6.87978 10.7433V10.7446Z" fill="#CCCCCC" stroke="#CCCCCC" stroke-width="0.2" stroke-linejoin="round"/>
<path fill-rule="evenodd" clip-rule="evenodd" d="M1 8C1 4.13409 4.13409 1 8 1C11.8659 1 15 4.13409 15 8C15 11.8659 11.8659 15 8 15C4.13409 15 1 11.8659 1 8ZM8 13.7273C7.24788 13.7273 6.50313 13.5791 5.80827 13.2913C5.1134 13.0035 4.48203 12.5816 3.95021 12.0498C3.41838 11.518 2.99651 10.8866 2.70869 10.1917C2.42087 9.49687 2.27273 8.75212 2.27273 8C2.27273 7.24788 2.42087 6.50313 2.70869 5.80827C2.99651 5.1134 3.41838 4.48203 3.95021 3.95021C4.48203 3.41838 5.1134 2.99651 5.80827 2.70869C6.50313 2.42087 7.24788 2.27273 8 2.27273C9.51897 2.27273 10.9757 2.87613 12.0498 3.95021C13.1239 5.02428 13.7273 6.48103 13.7273 8C13.7273 9.51897 13.1239 10.9757 12.0498 12.0498C10.9757 13.1239 9.51897 13.7273 8 13.7273Z" fill="#CCCCCC" stroke="#CCCCCC" stroke-width="0.2" stroke-linejoin="round"/>
</svg>
