<svg width="180" height="53" viewBox="0 0 180 53" fill="none" xmlns="http://www.w3.org/2000/svg">
<rect y="3" width="180" height="50" rx="6" fill="black"/>
<path d="M38.8972 33.168C37.9265 33.168 37.0865 32.958 36.3772 32.538C35.6772 32.1087 35.1358 31.516 34.7532 30.76C34.3705 29.9947 34.1792 29.1127 34.1792 28.114C34.1792 27.106 34.3705 26.224 34.7532 25.468C35.1358 24.7027 35.6772 24.1053 36.3772 23.676C37.0865 23.2467 37.9265 23.032 38.8972 23.032C40.0452 23.032 40.9832 23.312 41.7112 23.872C42.4392 24.432 42.9012 25.216 43.0972 26.224H41.4452C41.3145 25.6547 41.0345 25.202 40.6052 24.866C40.1758 24.53 39.6018 24.362 38.8832 24.362C37.9032 24.362 37.1285 24.698 36.5592 25.37C35.9898 26.0327 35.7052 26.9473 35.7052 28.114C35.7052 29.2713 35.9898 30.1813 36.5592 30.844C37.1285 31.5067 37.9032 31.838 38.8832 31.838C39.6018 31.838 40.1758 31.6793 40.6052 31.362C41.0345 31.0447 41.3145 30.6107 41.4452 30.06H43.0972C42.9012 31.0307 42.4392 31.7913 41.7112 32.342C40.9832 32.8927 40.0452 33.168 38.8972 33.168ZM44.6724 33V22.92H46.1564V33H44.6724ZM48.8757 24.74C48.5957 24.74 48.3623 24.656 48.1757 24.488C47.9983 24.3107 47.9097 24.0913 47.9097 23.83C47.9097 23.5687 47.9983 23.354 48.1757 23.186C48.3623 23.0087 48.5957 22.92 48.8757 22.92C49.1557 22.92 49.3843 23.0087 49.5617 23.186C49.7483 23.354 49.8417 23.5687 49.8417 23.83C49.8417 24.0913 49.7483 24.3107 49.5617 24.488C49.3843 24.656 49.1557 24.74 48.8757 24.74ZM48.1337 33V26.056H49.6177V33H48.1337ZM54.8667 33.168C54.1853 33.168 53.574 33.014 53.0327 32.706C52.5007 32.398 52.0807 31.9733 51.7727 31.432C51.474 30.8813 51.3247 30.2467 51.3247 29.528C51.3247 28.8093 51.474 28.1793 51.7727 27.638C52.0807 27.0873 52.5007 26.658 53.0327 26.35C53.574 26.042 54.1853 25.888 54.8667 25.888C55.7253 25.888 56.444 26.112 57.0227 26.56C57.6107 27.008 57.9887 27.6147 58.1567 28.38H56.6027C56.5093 27.9973 56.304 27.6987 55.9867 27.484C55.6693 27.2693 55.296 27.162 54.8667 27.162C54.5027 27.162 54.1667 27.2553 53.8587 27.442C53.5507 27.6193 53.3033 27.8853 53.1167 28.24C52.93 28.5853 52.8367 29.0147 52.8367 29.528C52.8367 30.0413 52.93 30.4753 53.1167 30.83C53.3033 31.1753 53.5507 31.4413 53.8587 31.628C54.1667 31.8147 54.5027 31.908 54.8667 31.908C55.296 31.908 55.6693 31.8007 55.9867 31.586C56.304 31.3713 56.5093 31.068 56.6027 30.676H58.1567C57.998 31.4227 57.6247 32.0247 57.0367 32.482C56.4487 32.9393 55.7253 33.168 54.8667 33.168ZM59.7661 33V22.92H61.2501V28.926L63.9101 26.056H65.6881L62.7341 29.206L66.1221 33H64.2461L61.2501 29.444V33H59.7661ZM73.7113 33C73.03 33 72.4887 32.8367 72.0873 32.51C71.686 32.174 71.4853 31.5813 71.4853 30.732V27.302H70.2953V26.056H71.4853L71.6673 24.292H72.9693V26.056H74.9293V27.302H72.9693V30.732C72.9693 31.1147 73.0487 31.3807 73.2073 31.53C73.3753 31.67 73.66 31.74 74.0613 31.74H74.8593V33H73.7113ZM79.5298 33.168C78.8671 33.168 78.2698 33.0187 77.7378 32.72C77.2151 32.412 76.7998 31.9873 76.4918 31.446C76.1838 30.8953 76.0298 30.256 76.0298 29.528C76.0298 28.8 76.1838 28.1653 76.4918 27.624C76.8091 27.0733 77.2338 26.6487 77.7658 26.35C78.2978 26.042 78.8904 25.888 79.5438 25.888C80.2064 25.888 80.7991 26.042 81.3218 26.35C81.8538 26.6487 82.2738 27.0733 82.5818 27.624C82.8991 28.1653 83.0577 28.8 83.0577 29.528C83.0577 30.256 82.8991 30.8953 82.5818 31.446C82.2738 31.9873 81.8538 32.412 81.3218 32.72C80.7898 33.0187 80.1924 33.168 79.5298 33.168ZM79.5298 31.894C79.8844 31.894 80.2111 31.8053 80.5098 31.628C80.8178 31.4507 81.0651 31.1893 81.2518 30.844C81.4384 30.4893 81.5318 30.0507 81.5318 29.528C81.5318 29.0053 81.4384 28.5713 81.2518 28.226C81.0744 27.8713 80.8318 27.6053 80.5238 27.428C80.2251 27.2507 79.8984 27.162 79.5438 27.162C79.1891 27.162 78.8578 27.2507 78.5498 27.428C78.2511 27.6053 78.0084 27.8713 77.8218 28.226C77.6351 28.5713 77.5418 29.0053 77.5418 29.528C77.5418 30.0507 77.6351 30.4893 77.8218 30.844C78.0084 31.1893 78.2511 31.4507 78.5498 31.628C78.8484 31.8053 79.1751 31.894 79.5298 31.894ZM91.48 33.168C90.7986 33.168 90.1873 33.014 89.646 32.706C89.114 32.398 88.694 31.9733 88.386 31.432C88.0873 30.8813 87.938 30.2467 87.938 29.528C87.938 28.8093 88.0873 28.1793 88.386 27.638C88.694 27.0873 89.114 26.658 89.646 26.35C90.1873 26.042 90.7986 25.888 91.48 25.888C92.3386 25.888 93.0573 26.112 93.636 26.56C94.224 27.008 94.602 27.6147 94.77 28.38H93.216C93.1226 27.9973 92.9173 27.6987 92.6 27.484C92.2826 27.2693 91.9093 27.162 91.48 27.162C91.116 27.162 90.78 27.2553 90.472 27.442C90.164 27.6193 89.9166 27.8853 89.73 28.24C89.5433 28.5853 89.45 29.0147 89.45 29.528C89.45 30.0413 89.5433 30.4753 89.73 30.83C89.9166 31.1753 90.164 31.4413 90.472 31.628C90.78 31.8147 91.116 31.908 91.48 31.908C91.9093 31.908 92.2826 31.8007 92.6 31.586C92.9173 31.3713 93.1226 31.068 93.216 30.676H94.77C94.6113 31.4227 94.238 32.0247 93.65 32.482C93.062 32.9393 92.3386 33.168 91.48 33.168ZM99.6274 33.168C98.9647 33.168 98.3674 33.0187 97.8354 32.72C97.3127 32.412 96.8974 31.9873 96.5894 31.446C96.2814 30.8953 96.1274 30.256 96.1274 29.528C96.1274 28.8 96.2814 28.1653 96.5894 27.624C96.9067 27.0733 97.3314 26.6487 97.8634 26.35C98.3954 26.042 98.9881 25.888 99.6414 25.888C100.304 25.888 100.897 26.042 101.419 26.35C101.951 26.6487 102.371 27.0733 102.679 27.624C102.997 28.1653 103.155 28.8 103.155 29.528C103.155 30.256 102.997 30.8953 102.679 31.446C102.371 31.9873 101.951 32.412 101.419 32.72C100.887 33.0187 100.29 33.168 99.6274 33.168ZM99.6274 31.894C99.9821 31.894 100.309 31.8053 100.607 31.628C100.915 31.4507 101.163 31.1893 101.349 30.844C101.536 30.4893 101.629 30.0507 101.629 29.528C101.629 29.0053 101.536 28.5713 101.349 28.226C101.172 27.8713 100.929 27.6053 100.621 27.428C100.323 27.2507 99.9961 27.162 99.6414 27.162C99.2867 27.162 98.9554 27.2507 98.6474 27.428C98.3487 27.6053 98.1061 27.8713 97.9194 28.226C97.7327 28.5713 97.6394 29.0053 97.6394 29.528C97.6394 30.0507 97.7327 30.4893 97.9194 30.844C98.1061 31.1893 98.3487 31.4507 98.6474 31.628C98.9461 31.8053 99.2727 31.894 99.6274 31.894ZM104.76 36.08V26.056H106.09L106.244 27.134C106.468 26.8073 106.776 26.518 107.168 26.266C107.56 26.014 108.064 25.888 108.68 25.888C109.352 25.888 109.945 26.0467 110.458 26.364C110.972 26.6813 111.373 27.1153 111.662 27.666C111.961 28.2167 112.11 28.842 112.11 29.542C112.11 30.242 111.961 30.8673 111.662 31.418C111.373 31.9593 110.972 32.3887 110.458 32.706C109.945 33.014 109.348 33.168 108.666 33.168C108.125 33.168 107.644 33.0607 107.224 32.846C106.814 32.6313 106.487 32.328 106.244 31.936V36.08H104.76ZM108.414 31.88C109.049 31.88 109.572 31.6653 109.982 31.236C110.393 30.7973 110.598 30.228 110.598 29.528C110.598 29.0707 110.505 28.6647 110.318 28.31C110.132 27.9553 109.875 27.68 109.548 27.484C109.222 27.2787 108.844 27.176 108.414 27.176C107.78 27.176 107.257 27.3953 106.846 27.834C106.445 28.2727 106.244 28.8373 106.244 29.528C106.244 30.228 106.445 30.7973 106.846 31.236C107.257 31.6653 107.78 31.88 108.414 31.88ZM113.939 36.08L115.605 32.426H115.199L112.455 26.056H114.065L116.193 31.194L118.419 26.056H119.987L115.507 36.08H113.939ZM124.735 33V22.92H126.219V33H124.735ZM128.938 24.74C128.658 24.74 128.425 24.656 128.238 24.488C128.061 24.3107 127.972 24.0913 127.972 23.83C127.972 23.5687 128.061 23.354 128.238 23.186C128.425 23.0087 128.658 22.92 128.938 22.92C129.218 22.92 129.447 23.0087 129.624 23.186C129.811 23.354 129.904 23.5687 129.904 23.83C129.904 24.0913 129.811 24.3107 129.624 24.488C129.447 24.656 129.218 24.74 128.938 24.74ZM128.196 33V26.056H129.68V33H128.196ZM131.639 33V26.056H132.955L133.067 27.274C133.282 26.8447 133.595 26.5087 134.005 26.266C134.425 26.014 134.906 25.888 135.447 25.888C136.287 25.888 136.945 26.1493 137.421 26.672C137.907 27.1947 138.149 27.974 138.149 29.01V33H136.679V29.164C136.679 27.82 136.129 27.148 135.027 27.148C134.477 27.148 134.019 27.344 133.655 27.736C133.301 28.128 133.123 28.688 133.123 29.416V33H131.639ZM139.897 33V22.92H141.381V28.926L144.041 26.056H145.819L142.865 29.206L146.253 33H144.377L141.381 29.444V33H139.897Z" fill="white"/>
<path d="M89.1083 0.403961C89.5081 -0.134653 90.3144 -0.134654 90.7142 0.40396L92.6236 2.97622C93.1134 3.63606 92.6424 4.57226 91.8206 4.57226L88.0018 4.57226C87.18 4.57226 86.709 3.63606 87.1989 2.97622L89.1083 0.403961Z" fill="black"/>
</svg>
