<svg width="11" height="11" viewBox="0 0 11 11" fill="none" xmlns="http://www.w3.org/2000/svg">
<path d="M10.7564 0.251988C10.6792 0.174642 10.5875 0.113278 10.4865 0.0714097C10.3856 0.0295411 10.2774 0.00798993 10.1681 0.00798993C10.0589 0.00798993 9.95067 0.0295411 9.84974 0.0714097C9.74881 0.113278 9.65712 0.174642 9.57993 0.251988L5.5 4.32358L1.42007 0.243645C1.34282 0.1664 1.25112 0.105126 1.15019 0.0633211C1.04927 0.0215164 0.941097 8.13908e-10 0.831856 0C0.722615 -8.13909e-10 0.614444 0.0215164 0.513518 0.0633211C0.412593 0.105126 0.32089 0.1664 0.243645 0.243645C0.1664 0.32089 0.105126 0.412593 0.0633211 0.513518C0.0215164 0.614444 -8.13908e-10 0.722615 0 0.831856C8.13909e-10 0.941097 0.0215164 1.04927 0.0633211 1.15019C0.105126 1.25112 0.1664 1.34282 0.243645 1.42007L4.32358 5.5L0.243645 9.57993C0.1664 9.65718 0.105126 9.74888 0.0633211 9.84981C0.0215164 9.95073 0 10.0589 0 10.1681C0 10.2774 0.0215164 10.3856 0.0633211 10.4865C0.105126 10.5874 0.1664 10.6791 0.243645 10.7564C0.32089 10.8336 0.412593 10.8949 0.513518 10.9367C0.614444 10.9785 0.722615 11 0.831856 11C0.941097 11 1.04927 10.9785 1.15019 10.9367C1.25112 10.8949 1.34282 10.8336 1.42007 10.7564L5.5 6.67642L9.57993 10.7564C9.65718 10.8336 9.74888 10.8949 9.84981 10.9367C9.95073 10.9785 10.0589 11 10.1681 11C10.2774 11 10.3856 10.9785 10.4865 10.9367C10.5874 10.8949 10.6791 10.8336 10.7564 10.7564C10.8336 10.6791 10.8949 10.5874 10.9367 10.4865C10.9785 10.3856 11 10.2774 11 10.1681C11 10.0589 10.9785 9.95073 10.9367 9.84981C10.8949 9.74888 10.8336 9.65718 10.7564 9.57993L6.67642 5.5L10.7564 1.42007C11.0734 1.10302 11.0734 0.569038 10.7564 0.251988Z" fill="white"/>
</svg>
