<svg width="127" height="30" viewBox="0 0 127 30" fill="none" xmlns="http://www.w3.org/2000/svg">
<path d="M19.7214 10.4805V20.2118H17.7636V13.7914L15.0285 20.2118H13.7041L10.9402 13.7914V20.2118H8.98242V10.4805H11.516L14.3951 17.1887L17.2454 10.4805H19.7214Z" fill="white"/>
<path d="M28.0705 17.2448H22.3699C22.6002 18.1661 23.3488 18.742 24.3277 18.742C25.0762 18.742 25.7096 18.4253 26.0263 17.9646H28.0129C27.4659 19.4041 26.0551 20.383 24.2989 20.383C22.082 20.383 20.4121 18.7707 20.4121 16.6114C20.4121 14.4521 22.082 12.8398 24.2701 12.8398C26.4582 12.8398 28.128 14.4521 28.128 16.6114C28.128 16.813 28.0992 17.0721 28.0705 17.2448ZM22.3987 15.8917H26.1703C25.9399 15.0279 25.1914 14.4521 24.2701 14.4521C23.3488 14.4521 22.629 15.0279 22.3987 15.8917Z" fill="white"/>
<path d="M28.502 18.051H30.3446C30.3446 18.5116 30.8052 18.8571 31.381 18.8571C31.8417 18.8571 32.3023 18.598 32.3023 18.1949C32.3023 17.7919 31.8417 17.504 30.9204 17.3024C29.3945 16.9857 28.5883 16.2084 28.5883 15.0855C28.5883 13.646 29.8551 12.8398 31.2659 12.8398C32.8494 12.8398 34.001 13.8187 34.001 15.0567H32.1584C32.1584 14.6825 31.7841 14.3658 31.2659 14.3658C30.8052 14.3658 30.4309 14.6249 30.4309 14.9992C30.4309 15.3734 30.8628 15.6613 31.8417 15.8629C33.3964 16.2084 34.1449 16.9281 34.1449 18.051C34.1449 19.5481 32.8494 20.383 31.3522 20.383C29.6824 20.3542 28.502 19.3178 28.502 18.051Z" fill="white"/>
<path d="M34.5488 18.051H36.3914C36.3914 18.5116 36.8521 18.8571 37.4279 18.8571C37.8886 18.8571 38.3492 18.598 38.3492 18.1949C38.3492 17.7919 37.8886 17.504 36.9673 17.3024C35.4413 16.9857 34.6352 16.2084 34.6352 15.0855C34.6352 13.646 35.902 12.8398 37.3127 12.8398C38.8962 12.8398 40.0479 13.8187 40.0479 15.0567H38.2053C38.2053 14.6825 37.831 14.3658 37.3127 14.3658C36.8521 14.3658 36.4778 14.6249 36.4778 14.9992C36.4778 15.3734 36.9097 15.6613 37.8886 15.8629C39.4433 16.2084 40.1918 16.9281 40.1918 18.051C40.1918 19.5481 38.8962 20.383 37.3991 20.383C35.7292 20.3542 34.5488 19.3178 34.5488 18.051Z" fill="white"/>
<path d="M49.0587 18.4253V20.2103H48.5405C47.5328 20.2103 46.8706 19.836 46.6115 19.0874C46.0357 19.8936 45.2008 20.383 44.1355 20.383C42.149 20.383 40.623 18.7707 40.623 16.6114C40.623 14.4521 42.1202 12.8398 44.1355 12.8398C45.1144 12.8398 45.9205 13.2717 46.4676 13.9627V13.0126H48.3102V17.8207C48.3102 18.1949 48.5117 18.4253 48.9148 18.4253H49.0587ZM46.4676 16.6114C46.4676 15.4886 45.6326 14.6249 44.481 14.6249C43.3582 14.6249 42.5232 15.4886 42.5232 16.6114C42.5232 17.7343 43.3582 18.598 44.481 18.598C45.6326 18.598 46.4676 17.7343 46.4676 16.6114Z" fill="white"/>
<path d="M56.6896 13.0131V19.4334C56.6896 21.6215 55.2213 23.0611 53.0044 23.0611C51.1906 23.0611 49.895 22.111 49.4343 20.5851H51.3345C51.6224 21.0745 52.2558 21.3912 53.0044 21.3912C54.1272 21.3912 54.8758 20.6139 54.8758 19.4334V19.1167C54.3 19.7789 53.5226 20.182 52.5437 20.182C50.5572 20.182 49.0312 18.5985 49.0312 16.5256C49.0312 14.4526 50.5284 12.8691 52.5437 12.8691C53.4938 12.8691 54.3 13.2722 54.8758 13.9344V13.0419H56.6896V13.0131ZM54.8758 16.4968C54.8758 15.3739 54.0408 14.5102 52.918 14.5102C51.7952 14.5102 50.9602 15.3739 50.9602 16.4968C50.9602 17.6484 51.7952 18.4833 52.918 18.4833C54.0408 18.4833 54.8758 17.6484 54.8758 16.4968Z" fill="white"/>
<path d="M64.8947 17.2448H59.1941C59.4244 18.1661 60.173 18.742 61.1519 18.742C61.9004 18.742 62.5338 18.4253 62.8505 17.9646H64.8371C64.2901 19.4041 62.8793 20.383 61.1231 20.383C58.9062 20.383 57.2363 18.7707 57.2363 16.6114C57.2363 14.4521 58.9062 12.8398 61.0943 12.8398C63.2824 12.8398 64.9523 14.4521 64.9523 16.6114C64.9523 16.813 64.9235 17.0721 64.8947 17.2448ZM59.2229 15.8917H62.9945C62.7642 15.0279 62.0156 14.4521 61.0943 14.4521C60.173 14.4521 59.4532 15.0279 59.2229 15.8917Z" fill="white"/>
<path d="M76.3235 10.4805V20.2118H74.3657V13.7914L71.6306 20.2118H70.3062L67.5711 13.7914V20.2118H65.6133V10.4805H68.1469L70.9972 17.1887L73.8474 10.4805H76.3235Z" fill="white"/>
<path d="M76.9863 16.6114C76.9863 14.4809 78.6562 12.8398 80.8443 12.8398C83.0324 12.8398 84.7023 14.4521 84.7023 16.6114C84.7023 18.7707 83.0324 20.383 80.8443 20.383C78.6562 20.3542 76.9863 18.742 76.9863 16.6114ZM82.8309 16.6114C82.8309 15.4886 81.9959 14.6249 80.8731 14.6249C79.7502 14.6249 78.9153 15.4886 78.9153 16.6114C78.9153 17.7343 79.7502 18.598 80.8731 18.598C81.9959 18.598 82.8309 17.7343 82.8309 16.6114Z" fill="white"/>
<path d="M97.3709 18.4253V20.2103H96.8527C95.4995 20.2103 94.7798 19.5481 94.7798 18.2237V16.0932C94.7798 15.2295 94.2327 14.6537 93.369 14.6537C92.4765 14.6537 91.8719 15.2583 91.8719 16.122V20.2103H90.0293V16.0644C90.0293 15.2007 89.4535 14.6249 88.6185 14.6249C87.726 14.6249 87.0926 15.2295 87.0926 16.0932V20.1815H85.25V13.0126H87.0926V13.8475C87.6108 13.1853 88.3594 12.8398 89.2231 12.8398C90.2884 12.8398 91.1233 13.3293 91.5264 14.1354C92.0734 13.3005 92.9083 12.8398 93.9736 12.8398C95.5571 12.8398 96.5936 13.9051 96.5936 15.5174V17.8207C96.5936 18.1949 96.8239 18.4253 97.1982 18.4253H97.3709Z" fill="white"/>
<path d="M105.172 17.2448H99.4714C99.7018 18.1661 100.45 18.742 101.429 18.742C102.178 18.742 102.811 18.4253 103.128 17.9646H105.114C104.567 19.4041 103.157 20.383 101.4 20.383C99.1835 20.383 97.5137 18.7707 97.5137 16.6114C97.5137 14.4521 99.1835 12.8398 101.372 12.8398C103.56 12.8398 105.23 14.4521 105.23 16.6114C105.23 16.813 105.201 17.0721 105.172 17.2448ZM99.5002 15.8917H103.272C103.042 15.0279 102.293 14.4521 101.372 14.4521C100.45 14.4521 99.7306 15.0279 99.5002 15.8917Z" fill="white"/>
<path d="M113.435 18.4253V20.2103H112.917C111.564 20.2103 110.844 19.5481 110.844 18.2237V16.2372C110.844 15.2583 110.211 14.6249 109.289 14.6249C108.282 14.6249 107.591 15.2583 107.591 16.2659V20.2103H105.748V13.0126H107.591V13.9051C108.138 13.2141 108.915 12.8398 109.865 12.8398C111.564 12.8398 112.658 13.9339 112.658 15.6326V17.8207C112.658 18.1949 112.888 18.4253 113.262 18.4253H113.435Z" fill="white"/>
<path d="M116.085 14.6833V17.62C116.085 18.1958 116.43 18.5125 117.035 18.5125H117.754V20.1824H116.776C115.134 20.1824 114.271 19.405 114.271 17.9079V14.6833H113.119V13.0135H113.781C114.156 13.0135 114.357 12.8119 114.357 12.4377V11.1133H116.085V13.0423H117.754V14.6833H116.085Z" fill="white"/>
<path d="M9.67371 30H0V0H9.67371V2.59117H2.59117V27.4088H9.67371V30Z" fill="white"/>
<path d="M126.738 30H117.035V27.4088H124.146V2.59117H117.035V0H126.738V30Z" fill="white"/>
</svg>
