<svg width="17" height="17" viewBox="0 0 17 17" fill="none" xmlns="http://www.w3.org/2000/svg">
<path d="M8.49935 1.41602C10.4239 1.41602 10.664 1.4231 11.4191 1.45852C12.1735 1.49393 12.687 1.61222 13.1389 1.78789C13.6064 1.96781 14.0003 2.21147 14.3941 2.6046C14.7543 2.95869 15.033 3.38702 15.2108 3.85977C15.3858 4.31097 15.5048 4.82522 15.5402 5.5796C15.5735 6.33468 15.5827 6.57481 15.5827 8.49935C15.5827 10.4239 15.5756 10.664 15.5402 11.4191C15.5048 12.1735 15.3858 12.687 15.2108 13.1389C15.0335 13.6119 14.7547 14.0404 14.3941 14.3941C14.0399 14.7542 13.6116 15.0328 13.1389 15.2108C12.6877 15.3858 12.1735 15.5048 11.4191 15.5402C10.664 15.5735 10.4239 15.5827 8.49935 15.5827C6.57481 15.5827 6.33468 15.5756 5.5796 15.5402C4.82522 15.5048 4.31168 15.3858 3.85977 15.2108C3.38683 15.0334 2.95843 14.7546 2.6046 14.3941C2.24435 14.0401 1.96563 13.6117 1.78789 13.1389C1.61222 12.6877 1.49393 12.1735 1.45852 11.4191C1.42522 10.664 1.41602 10.4239 1.41602 8.49935C1.41602 6.57481 1.4231 6.33468 1.45852 5.5796C1.49393 4.82452 1.61222 4.31168 1.78789 3.85977C1.96514 3.38673 2.24392 2.95828 2.6046 2.6046C2.95853 2.24422 3.3869 1.96549 3.85977 1.78789C4.31168 1.61222 4.82452 1.49393 5.5796 1.45852C6.33468 1.42522 6.57481 1.41602 8.49935 1.41602ZM8.49935 4.95768C7.56004 4.95768 6.6592 5.33082 5.99501 5.99501C5.33082 6.6592 4.95768 7.56004 4.95768 8.49935C4.95768 9.43866 5.33082 10.3395 5.99501 11.0037C6.6592 11.6679 7.56004 12.041 8.49935 12.041C9.43866 12.041 10.3395 11.6679 11.0037 11.0037C11.6679 10.3395 12.041 9.43866 12.041 8.49935C12.041 7.56004 11.6679 6.6592 11.0037 5.99501C10.3395 5.33082 9.43866 4.95768 8.49935 4.95768ZM13.1035 4.7806C13.1035 4.54577 13.0102 4.32056 12.8442 4.15452C12.6781 3.98847 12.4529 3.89518 12.2181 3.89518C11.9833 3.89518 11.7581 3.98847 11.592 4.15452C11.426 4.32056 11.3327 4.54577 11.3327 4.7806C11.3327 5.01543 11.426 5.24064 11.592 5.40668C11.7581 5.57273 11.9833 5.66602 12.2181 5.66602C12.4529 5.66602 12.6781 5.57273 12.8442 5.40668C13.0102 5.24064 13.1035 5.01543 13.1035 4.7806ZM8.49935 6.37435C9.06293 6.37435 9.60344 6.59823 10.002 6.99675C10.4005 7.39526 10.6243 7.93576 10.6243 8.49935C10.6243 9.06293 10.4005 9.60344 10.002 10.002C9.60344 10.4005 9.06293 10.6243 8.49935 10.6243C7.93576 10.6243 7.39526 10.4005 6.99675 10.002C6.59823 9.60344 6.37435 9.06293 6.37435 8.49935C6.37435 7.93576 6.59823 7.39526 6.99675 6.99675C7.39526 6.59823 7.93576 6.37435 8.49935 6.37435Z" fill="white"/>
</svg>
