<svg width="32" height="32" viewBox="0 0 32 32" fill="none" xmlns="http://www.w3.org/2000/svg">
<path d="M26.6673 6.66602C27.7282 6.66602 28.7456 7.08744 29.4957 7.83759C30.2459 8.58773 30.6673 9.60515 30.6673 10.666V21.3327C30.6673 22.3935 30.2459 23.411 29.4957 24.1611C28.7456 24.9113 27.7282 25.3327 26.6673 25.3327H5.33398C4.27312 25.3327 3.2557 24.9113 2.50556 24.1611C1.75541 23.411 1.33398 22.3935 1.33398 21.3327V10.666C1.33398 9.60515 1.75541 8.58773 2.50556 7.83759C3.2557 7.08744 4.27312 6.66602 5.33398 6.66602H26.6673ZM8.00065 17.3327C7.64703 17.3327 7.30789 17.4732 7.05784 17.7232C6.80779 17.9733 6.66732 18.3124 6.66732 18.666V18.6793C6.66732 19.033 6.80779 19.3721 7.05784 19.6222C7.30789 19.8722 7.64703 20.0127 8.00065 20.0127C8.35427 20.0127 8.69341 19.8722 8.94346 19.6222C9.19351 19.3721 9.33398 19.033 9.33398 18.6793V18.666C9.33398 18.3124 9.19351 17.9733 8.94346 17.7232C8.69341 17.4732 8.35427 17.3327 8.00065 17.3327ZM24.0007 17.3327C23.647 17.3327 23.3079 17.4732 23.0578 17.7232C22.8078 17.9733 22.6673 18.3124 22.6673 18.666V18.6793C22.6673 19.033 22.8078 19.3721 23.0578 19.6222C23.3079 19.8722 23.647 20.0127 24.0007 20.0127C24.3543 20.0127 24.6934 19.8722 24.9435 19.6222C25.1935 19.3721 25.334 19.033 25.334 18.6793V18.666C25.334 18.3124 25.1935 17.9733 24.9435 17.7232C24.6934 17.4732 24.3543 17.3327 24.0007 17.3327ZM13.3367 17.3327C13.1616 17.3323 12.9881 17.3665 12.8262 17.4332C12.6643 17.4998 12.5171 17.5978 12.3931 17.7213C12.1425 17.9709 12.0014 18.3097 12.0007 18.6633C12.0003 18.8384 12.0344 19.0119 12.1011 19.1738C12.1678 19.3357 12.2657 19.4829 12.3893 19.6069C12.5129 19.731 12.6596 19.8295 12.8213 19.8968C12.9829 19.9642 13.1562 19.999 13.3313 19.9993L18.6647 20.0127C18.8397 20.0131 19.0132 19.9791 19.1751 19.9125C19.3371 19.8459 19.4843 19.748 19.6084 19.6245C19.7326 19.501 19.8311 19.3543 19.8985 19.1927C19.966 19.0311 20.0009 18.8578 20.0013 18.6827C20.0018 18.5076 19.9677 18.3341 19.9011 18.1722C19.8345 18.0102 19.7367 17.863 19.6132 17.7389C19.4896 17.6148 19.3429 17.5162 19.1813 17.4488C19.0197 17.3814 18.8464 17.3465 18.6713 17.346L13.3367 17.3327ZM8.00065 11.9993C7.64703 11.9993 7.30789 12.1398 7.05784 12.3899C6.80779 12.6399 6.66732 12.9791 6.66732 13.3327V13.346C6.66732 13.6996 6.80779 14.0388 7.05784 14.2888C7.30789 14.5389 7.64703 14.6793 8.00065 14.6793C8.35427 14.6793 8.69341 14.5389 8.94346 14.2888C9.19351 14.0388 9.33398 13.6996 9.33398 13.346V13.3327C9.33398 12.9791 9.19351 12.6399 8.94346 12.3899C8.69341 12.1398 8.35427 11.9993 8.00065 11.9993ZM13.334 11.9993C12.9804 11.9993 12.6412 12.1398 12.3912 12.3899C12.1411 12.6399 12.0007 12.9791 12.0007 13.3327V13.346C12.0007 13.6996 12.1411 14.0388 12.3912 14.2888C12.6412 14.5389 12.9804 14.6793 13.334 14.6793C13.6876 14.6793 14.0267 14.5389 14.2768 14.2888C14.5268 14.0388 14.6673 13.6996 14.6673 13.346V13.3327C14.6673 12.9791 14.5268 12.6399 14.2768 12.3899C14.0267 12.1398 13.6876 11.9993 13.334 11.9993ZM18.6673 11.9993C18.3137 11.9993 17.9746 12.1398 17.7245 12.3899C17.4745 12.6399 17.334 12.9791 17.334 13.3327V13.346C17.334 13.6996 17.4745 14.0388 17.7245 14.2888C17.9746 14.5389 18.3137 14.6793 18.6673 14.6793C19.0209 14.6793 19.3601 14.5389 19.6101 14.2888C19.8602 14.0388 20.0007 13.6996 20.0007 13.346V13.3327C20.0007 12.9791 19.8602 12.6399 19.6101 12.3899C19.3601 12.1398 19.0209 11.9993 18.6673 11.9993ZM24.0007 11.9993C23.647 11.9993 23.3079 12.1398 23.0578 12.3899C22.8078 12.6399 22.6673 12.9791 22.6673 13.3327V13.346C22.6673 13.6996 22.8078 14.0388 23.0578 14.2888C23.3079 14.5389 23.647 14.6793 24.0007 14.6793C24.3543 14.6793 24.6934 14.5389 24.9435 14.2888C25.1935 14.0388 25.334 13.6996 25.334 13.346V13.3327C25.334 12.9791 25.1935 12.6399 24.9435 12.3899C24.6934 12.1398 24.3543 11.9993 24.0007 11.9993Z" fill="#CCCCCC"/>
</svg>
