<svg width="180" height="53" viewBox="0 0 180 53" fill="none" xmlns="http://www.w3.org/2000/svg">
<rect y="3" width="180" height="50" rx="6" fill="black"/>
<path d="M54.162 33V23.2H55.646V31.824H60.098V33H54.162ZM64.5864 33.168C63.9051 33.168 63.2984 33.0187 62.7664 32.72C62.2437 32.412 61.8331 31.9873 61.5344 31.446C61.2357 30.9047 61.0864 30.2747 61.0864 29.556C61.0864 28.828 61.2311 28.1887 61.5204 27.638C61.8191 27.0873 62.2297 26.658 62.7524 26.35C63.2844 26.042 63.9004 25.888 64.6004 25.888C65.2817 25.888 65.8744 26.042 66.3784 26.35C66.8824 26.6487 67.2744 27.05 67.5544 27.554C67.8344 28.058 67.9744 28.6133 67.9744 29.22C67.9744 29.3133 67.9697 29.416 67.9604 29.528C67.9604 29.6307 67.9557 29.7473 67.9464 29.878H62.5424C62.5891 30.55 62.8084 31.0633 63.2004 31.418C63.6017 31.7633 64.0637 31.936 64.5864 31.936C65.0064 31.936 65.3564 31.8427 65.6364 31.656C65.9257 31.46 66.1404 31.1987 66.2804 30.872H67.7644C67.5777 31.5253 67.2044 32.0713 66.6444 32.51C66.0937 32.9487 65.4077 33.168 64.5864 33.168ZM64.5864 27.106C64.0917 27.106 63.6531 27.2553 63.2704 27.554C62.8877 27.8433 62.6544 28.282 62.5704 28.87H66.4904C66.4624 28.3287 66.2711 27.8993 65.9164 27.582C65.5617 27.2647 65.1184 27.106 64.5864 27.106ZM71.8662 33.168C71.2782 33.168 70.7928 33.07 70.4102 32.874C70.0275 32.678 69.7428 32.4213 69.5562 32.104C69.3695 31.7773 69.2762 31.4227 69.2762 31.04C69.2762 30.368 69.5375 29.836 70.0602 29.444C70.5828 29.052 71.3295 28.856 72.3002 28.856H74.1202V28.73C74.1202 28.1887 73.9708 27.7827 73.6722 27.512C73.3828 27.2413 73.0048 27.106 72.5382 27.106C72.1275 27.106 71.7682 27.2087 71.4602 27.414C71.1615 27.61 70.9795 27.904 70.9142 28.296H69.4302C69.4768 27.792 69.6448 27.3627 69.9342 27.008C70.2328 26.644 70.6062 26.3687 71.0542 26.182C71.5115 25.986 72.0108 25.888 72.5522 25.888C73.5228 25.888 74.2742 26.1447 74.8062 26.658C75.3382 27.162 75.6042 27.8527 75.6042 28.73V33H74.3162L74.1902 31.81C73.9942 32.1927 73.7095 32.5147 73.3362 32.776C72.9628 33.0373 72.4728 33.168 71.8662 33.168ZM72.1602 31.964C72.5615 31.964 72.8975 31.8707 73.1682 31.684C73.4482 31.488 73.6628 31.2313 73.8122 30.914C73.9708 30.5967 74.0688 30.2467 74.1062 29.864H72.4542C71.8662 29.864 71.4462 29.9667 71.1942 30.172C70.9515 30.3773 70.8302 30.634 70.8302 30.942C70.8302 31.2593 70.9468 31.5113 71.1802 31.698C71.4228 31.8753 71.7495 31.964 72.1602 31.964ZM79.0481 33L76.4441 26.056H77.9981L79.9301 31.586L81.8621 26.056H83.4021L80.8121 33H79.0481ZM87.5141 33.168C86.8328 33.168 86.2261 33.0187 85.6941 32.72C85.1715 32.412 84.7608 31.9873 84.4621 31.446C84.1635 30.9047 84.0141 30.2747 84.0141 29.556C84.0141 28.828 84.1588 28.1887 84.4481 27.638C84.7468 27.0873 85.1575 26.658 85.6801 26.35C86.2121 26.042 86.8281 25.888 87.5281 25.888C88.2095 25.888 88.8021 26.042 89.3061 26.35C89.8101 26.6487 90.2021 27.05 90.4821 27.554C90.7621 28.058 90.9021 28.6133 90.9021 29.22C90.9021 29.3133 90.8975 29.416 90.8881 29.528C90.8881 29.6307 90.8835 29.7473 90.8741 29.878H85.4701C85.5168 30.55 85.7361 31.0633 86.1281 31.418C86.5295 31.7633 86.9915 31.936 87.5141 31.936C87.9341 31.936 88.2841 31.8427 88.5641 31.656C88.8535 31.46 89.0681 31.1987 89.2081 30.872H90.6921C90.5055 31.5253 90.1321 32.0713 89.5721 32.51C89.0215 32.9487 88.3355 33.168 87.5141 33.168ZM87.5141 27.106C87.0195 27.106 86.5808 27.2553 86.1981 27.554C85.8155 27.8433 85.5821 28.282 85.4981 28.87H89.4181C89.3901 28.3287 89.1988 27.8993 88.8441 27.582C88.4895 27.2647 88.0461 27.106 87.5141 27.106ZM100.393 33.168C99.4226 33.168 98.5826 32.958 97.8733 32.538C97.1733 32.1087 96.6319 31.516 96.2493 30.76C95.8666 29.9947 95.6753 29.1127 95.6753 28.114C95.6753 27.106 95.8666 26.224 96.2493 25.468C96.6319 24.7027 97.1733 24.1053 97.8733 23.676C98.5826 23.2467 99.4226 23.032 100.393 23.032C101.541 23.032 102.479 23.312 103.207 23.872C103.935 24.432 104.397 25.216 104.593 26.224H102.941C102.811 25.6547 102.531 25.202 102.101 24.866C101.672 24.53 101.098 24.362 100.379 24.362C99.3993 24.362 98.6246 24.698 98.0553 25.37C97.4859 26.0327 97.2013 26.9473 97.2013 28.114C97.2013 29.2713 97.4859 30.1813 98.0553 30.844C98.6246 31.5067 99.3993 31.838 100.379 31.838C101.098 31.838 101.672 31.6793 102.101 31.362C102.531 31.0447 102.811 30.6107 102.941 30.06H104.593C104.397 31.0307 103.935 31.7913 103.207 32.342C102.479 32.8927 101.541 33.168 100.393 33.168ZM106.168 33V22.92H107.652V27.176C107.886 26.7747 108.208 26.462 108.618 26.238C109.038 26.0047 109.5 25.888 110.004 25.888C110.835 25.888 111.488 26.1493 111.964 26.672C112.44 27.1947 112.678 27.974 112.678 29.01V33H111.208V29.164C111.208 27.82 110.672 27.148 109.598 27.148C109.038 27.148 108.572 27.344 108.198 27.736C107.834 28.128 107.652 28.688 107.652 29.416V33H106.168ZM116.778 33.168C116.19 33.168 115.705 33.07 115.322 32.874C114.94 32.678 114.655 32.4213 114.468 32.104C114.282 31.7773 114.188 31.4227 114.188 31.04C114.188 30.368 114.45 29.836 114.972 29.444C115.495 29.052 116.242 28.856 117.212 28.856H119.032V28.73C119.032 28.1887 118.883 27.7827 118.584 27.512C118.295 27.2413 117.917 27.106 117.45 27.106C117.04 27.106 116.68 27.2087 116.372 27.414C116.074 27.61 115.892 27.904 115.826 28.296H114.342C114.389 27.792 114.557 27.3627 114.846 27.008C115.145 26.644 115.518 26.3687 115.966 26.182C116.424 25.986 116.923 25.888 117.464 25.888C118.435 25.888 119.186 26.1447 119.718 26.658C120.25 27.162 120.516 27.8527 120.516 28.73V33H119.228L119.102 31.81C118.906 32.1927 118.622 32.5147 118.248 32.776C117.875 33.0373 117.385 33.168 116.778 33.168ZM117.072 31.964C117.474 31.964 117.81 31.8707 118.08 31.684C118.36 31.488 118.575 31.2313 118.724 30.914C118.883 30.5967 118.981 30.2467 119.018 29.864H117.366C116.778 29.864 116.358 29.9667 116.106 30.172C115.864 30.3773 115.742 30.634 115.742 30.942C115.742 31.2593 115.859 31.5113 116.092 31.698C116.335 31.8753 116.662 31.964 117.072 31.964ZM125.022 33C124.341 33 123.799 32.8367 123.398 32.51C122.997 32.174 122.796 31.5813 122.796 30.732V27.302H121.606V26.056H122.796L122.978 24.292H124.28V26.056H126.24V27.302H124.28V30.732C124.28 31.1147 124.359 31.3807 124.518 31.53C124.686 31.67 124.971 31.74 125.372 31.74H126.17V33H125.022Z" fill="white"/>
<path d="M89.1083 0.403961C89.5081 -0.134653 90.3144 -0.134654 90.7142 0.40396L92.6236 2.97622C93.1134 3.63606 92.6424 4.57226 91.8206 4.57226L88.0018 4.57226C87.18 4.57226 86.709 3.63606 87.1989 2.97622L89.1083 0.403961Z" fill="black"/>
</svg>
