<svg width="11" height="14" viewBox="0 0 11 14" fill="none" xmlns="http://www.w3.org/2000/svg">
<path d="M1.33333 14C0.966668 14 0.652668 13.8693 0.391334 13.608C0.130001 13.3467 -0.000443313 13.0329 1.13186e-06 12.6667V6C1.13186e-06 5.63333 0.130668 5.31933 0.392001 5.058C0.653334 4.79667 0.967112 4.66622 1.33333 4.66667H2V3.33333C2 2.41111 2.32511 1.62489 2.97533 0.974667C3.62556 0.324445 4.41156 -0.000443989 5.33333 4.55373e-07C6.25556 4.55373e-07 7.04178 0.325112 7.692 0.975334C8.34222 1.62556 8.66711 2.41156 8.66667 3.33333V4.66667H9.33333C9.7 4.66667 10.014 4.79733 10.2753 5.05867C10.5367 5.32 10.6671 5.63378 10.6667 6V12.6667C10.6667 13.0333 10.536 13.3473 10.2747 13.6087C10.0133 13.87 9.69956 14.0004 9.33333 14H1.33333ZM5.33333 10.6667C5.7 10.6667 6.014 10.536 6.27533 10.2747C6.53667 10.0133 6.66711 9.69956 6.66667 9.33333C6.66667 8.96667 6.536 8.65267 6.27467 8.39133C6.01333 8.13 5.69956 7.99956 5.33333 8C4.96667 8 4.65267 8.13067 4.39133 8.392C4.13 8.65333 3.99956 8.96711 4 9.33333C4 9.7 4.13067 10.014 4.392 10.2753C4.65333 10.5367 4.96711 10.6671 5.33333 10.6667ZM3.33333 4.66667H7.33333V3.33333C7.33333 2.77778 7.13889 2.30556 6.75 1.91667C6.36111 1.52778 5.88889 1.33333 5.33333 1.33333C4.77778 1.33333 4.30556 1.52778 3.91667 1.91667C3.52778 2.30556 3.33333 2.77778 3.33333 3.33333V4.66667Z" fill="#363C4F"/>
</svg>
