<svg width="17" height="17" viewBox="0 0 17 17" fill="none" xmlns="http://www.w3.org/2000/svg">
<path d="M14.166 2.83398H2.83268C2.05352 2.83398 1.4231 3.47148 1.4231 4.25065L1.41602 12.7507C1.41602 13.5298 2.05352 14.1673 2.83268 14.1673H14.166C14.9452 14.1673 15.5827 13.5298 15.5827 12.7507V4.25065C15.5827 3.47148 14.9452 2.83398 14.166 2.83398ZM13.8827 5.8444L8.87477 8.97523C8.6481 9.1169 8.3506 9.1169 8.12393 8.97523L3.11602 5.8444C3.04499 5.80453 2.98279 5.75066 2.93319 5.68606C2.88358 5.62145 2.8476 5.54745 2.82742 5.46854C2.80724 5.38963 2.80329 5.30744 2.81579 5.22695C2.8283 5.14647 2.857 5.06935 2.90017 5.00028C2.94334 4.93121 3.00008 4.87162 3.06695 4.82511C3.13381 4.7786 3.20942 4.74614 3.2892 4.7297C3.36898 4.71325 3.45126 4.71317 3.53107 4.72945C3.61088 4.74573 3.68655 4.77803 3.75352 4.8244L8.49935 7.79232L13.2452 4.8244C13.3121 4.77803 13.3878 4.74573 13.4676 4.72945C13.5474 4.71317 13.6297 4.71325 13.7095 4.7297C13.7893 4.74614 13.8649 4.7786 13.9318 4.82511C13.9986 4.87162 14.0554 4.93121 14.0985 5.00028C14.1417 5.06935 14.1704 5.14647 14.1829 5.22695C14.1954 5.30744 14.1915 5.38963 14.1713 5.46854C14.1511 5.54745 14.1151 5.62145 14.0655 5.68606C14.0159 5.75066 13.9537 5.80453 13.8827 5.8444Z" fill="white"/>
</svg>
