<svg width="36" height="36" viewBox="0 0 36 36" fill="none" xmlns="http://www.w3.org/2000/svg">
<rect width="36" height="36" rx="6" fill="#2C2C2C"/>
<path d="M26.6654 10.416C27.5273 10.416 28.354 10.7584 28.9635 11.3679C29.573 11.9774 29.9154 12.8041 29.9154 13.666V22.3327C29.9154 23.1946 29.573 24.0213 28.9635 24.6308C28.354 25.2403 27.5273 25.5827 26.6654 25.5827H9.33203C8.47008 25.5827 7.64343 25.2403 7.03393 24.6308C6.42444 24.0213 6.08203 23.1946 6.08203 22.3327V13.666C6.08203 12.8041 6.42444 11.9774 7.03393 11.3679C7.64343 10.7584 8.47008 10.416 9.33203 10.416H26.6654ZM11.4987 19.0827C11.2114 19.0827 10.9358 19.1968 10.7327 19.4C10.5295 19.6031 10.4154 19.8787 10.4154 20.166V20.1768C10.4154 20.4642 10.5295 20.7397 10.7327 20.9429C10.9358 21.146 11.2114 21.2602 11.4987 21.2602C11.786 21.2602 12.0616 21.146 12.2647 20.9429C12.4679 20.7397 12.582 20.4642 12.582 20.1768V20.166C12.582 19.8787 12.4679 19.6031 12.2647 19.4C12.0616 19.1968 11.786 19.0827 11.4987 19.0827ZM24.4987 19.0827C24.2114 19.0827 23.9358 19.1968 23.7327 19.4C23.5295 19.6031 23.4154 19.8787 23.4154 20.166V20.1768C23.4154 20.4642 23.5295 20.7397 23.7327 20.9429C23.9358 21.146 24.2114 21.2602 24.4987 21.2602C24.786 21.2602 25.0616 21.146 25.2647 20.9429C25.4679 20.7397 25.582 20.4642 25.582 20.1768V20.166C25.582 19.8787 25.4679 19.6031 25.2647 19.4C25.0616 19.1968 24.786 19.0827 24.4987 19.0827ZM15.8342 19.0827C15.6919 19.0824 15.551 19.1101 15.4195 19.1643C15.2879 19.2185 15.1683 19.2981 15.0675 19.3985C14.864 19.6012 14.7493 19.8765 14.7487 20.1638C14.7484 20.3061 14.7762 20.447 14.8303 20.5786C14.8845 20.7101 14.9641 20.8297 15.0645 20.9305C15.1649 21.0313 15.2841 21.1114 15.4155 21.1661C15.5468 21.2208 15.6876 21.2491 15.8299 21.2493L20.1632 21.2602C20.3055 21.2605 20.4464 21.2329 20.578 21.1788C20.7096 21.1246 20.8292 21.0451 20.93 20.9448C21.0309 20.8445 21.111 20.7252 21.1657 20.5939C21.2205 20.4626 21.2489 20.3218 21.2492 20.1796C21.2496 20.0373 21.2219 19.8963 21.1678 19.7648C21.1137 19.6332 21.0342 19.5136 20.9339 19.4127C20.8335 19.3119 20.7143 19.2318 20.583 19.177C20.4517 19.1222 20.3109 19.0939 20.1686 19.0935L15.8342 19.0827ZM11.4987 14.7493C11.2114 14.7493 10.9358 14.8635 10.7327 15.0667C10.5295 15.2698 10.4154 15.5454 10.4154 15.8327V15.8435C10.4154 16.1308 10.5295 16.4064 10.7327 16.6095C10.9358 16.8127 11.2114 16.9268 11.4987 16.9268C11.786 16.9268 12.0616 16.8127 12.2647 16.6095C12.4679 16.4064 12.582 16.1308 12.582 15.8435V15.8327C12.582 15.5454 12.4679 15.2698 12.2647 15.0667C12.0616 14.8635 11.786 14.7493 11.4987 14.7493ZM15.832 14.7493C15.5447 14.7493 15.2692 14.8635 15.066 15.0667C14.8628 15.2698 14.7487 15.5454 14.7487 15.8327V15.8435C14.7487 16.1308 14.8628 16.4064 15.066 16.6095C15.2692 16.8127 15.5447 16.9268 15.832 16.9268C16.1193 16.9268 16.3949 16.8127 16.5981 16.6095C16.8012 16.4064 16.9154 16.1308 16.9154 15.8435V15.8327C16.9154 15.5454 16.8012 15.2698 16.5981 15.0667C16.3949 14.8635 16.1193 14.7493 15.832 14.7493ZM20.1654 14.7493C19.878 14.7493 19.6025 14.8635 19.3993 15.0667C19.1962 15.2698 19.082 15.5454 19.082 15.8327V15.8435C19.082 16.1308 19.1962 16.4064 19.3993 16.6095C19.6025 16.8127 19.878 16.9268 20.1654 16.9268C20.4527 16.9268 20.7282 16.8127 20.9314 16.6095C21.1346 16.4064 21.2487 16.1308 21.2487 15.8435V15.8327C21.2487 15.5454 21.1346 15.2698 20.9314 15.0667C20.7282 14.8635 20.4527 14.7493 20.1654 14.7493ZM24.4987 14.7493C24.2114 14.7493 23.9358 14.8635 23.7327 15.0667C23.5295 15.2698 23.4154 15.5454 23.4154 15.8327V15.8435C23.4154 16.1308 23.5295 16.4064 23.7327 16.6095C23.9358 16.8127 24.2114 16.9268 24.4987 16.9268C24.786 16.9268 25.0616 16.8127 25.2647 16.6095C25.4679 16.4064 25.582 16.1308 25.582 15.8435V15.8327C25.582 15.5454 25.4679 15.2698 25.2647 15.0667C25.0616 14.8635 24.786 14.7493 24.4987 14.7493Z" fill="white"/>
</svg>
