<svg width="68" height="40" viewBox="0 0 68 40" fill="none" xmlns="http://www.w3.org/2000/svg">
<rect x="30" y="2" width="36" height="36" rx="6" fill="#2C2C2C"/>
<path d="M44.6667 26C45.5833 26 46.3333 25.2286 46.3333 24.2857V15.7143C46.3333 14.7714 45.5833 14 44.6667 14C43.75 14 43 14.7714 43 15.7143V24.2857C43 25.2286 43.75 26 44.6667 26ZM49.6667 15.7143V24.2857C49.6667 25.2286 50.4167 26 51.3333 26C52.25 26 53 25.2286 53 24.2857V15.7143C53 14.7714 52.25 14 51.3333 14C50.4167 14 49.6667 14.7714 49.6667 15.7143Z" fill="white"/>
<path d="M32 1C35.866 1 39 4.13401 39 8V32C39 35.866 35.866 39 32 39H8C4.13401 39 1 35.866 1 32V8C1 4.13401 4.13401 1 8 1H32Z" fill="#2C2C2C"/>
<path d="M32 1C35.866 1 39 4.13401 39 8V32C39 35.866 35.866 39 32 39H8C4.13401 39 1 35.866 1 32V8C1 4.13401 4.13401 1 8 1H32Z" stroke="#151515" stroke-width="2"/>
<path d="M20.5369 11.559C20.1769 11.199 19.6937 11 19.1915 11H14.2933C13.2511 11 12.4079 11.8527 12.4079 12.8949L12.3984 24.264C12.3984 25.3061 13.2511 26.1588 14.2933 26.1588H29.4522C30.4944 26.1588 31.3471 25.3061 31.3471 24.264V14.7897C31.3471 13.7475 30.4944 12.8949 29.4522 12.8949H21.8728L20.5369 11.559Z" fill="white"/>
<path d="M13.3896 19.0254C16.282 19.0255 18.627 21.3704 18.627 24.2627C18.6269 27.155 16.2819 29.4999 13.3896 29.5C10.4973 29.5 8.15244 27.155 8.15234 24.2627C8.15234 21.3703 10.4972 19.0254 13.3896 19.0254Z" fill="white" stroke="#2C2C2C"/>
<path fill-rule="evenodd" clip-rule="evenodd" d="M15.3894 23.404C15.4454 23.46 15.4768 23.536 15.4768 23.6152C15.4768 23.6944 15.4454 23.7703 15.3894 23.8264L13.1504 26.0653C13.1208 26.0949 13.0857 26.1184 13.047 26.1344C13.0083 26.1504 12.9669 26.1587 12.9251 26.1587C12.8832 26.1587 12.8418 26.1504 12.8031 26.1344C12.7644 26.1184 12.7293 26.0949 12.6997 26.0653L11.5873 24.9531C11.5588 24.9256 11.536 24.8926 11.5203 24.8562C11.5047 24.8197 11.4964 24.7805 11.4961 24.7408C11.4958 24.7012 11.5033 24.6618 11.5183 24.6251C11.5334 24.5884 11.5555 24.5551 11.5836 24.527C11.6116 24.499 11.645 24.4768 11.6817 24.4618C11.7184 24.4468 11.7577 24.4392 11.7974 24.4395C11.8371 24.4399 11.8763 24.4481 11.9127 24.4638C11.9492 24.4794 11.9821 24.5022 12.0097 24.5307L12.925 25.446L14.9668 23.404C14.9945 23.3762 15.0275 23.3542 15.0637 23.3392C15.1 23.3241 15.1388 23.3164 15.1781 23.3164C15.2173 23.3164 15.2562 23.3241 15.2924 23.3392C15.3287 23.3542 15.3616 23.3762 15.3894 23.404Z" fill="#2C2C2C" stroke="#2C2C2C" stroke-width="0.7"/>
</svg>
