<svg width="15" height="15" viewBox="0 0 15 15" fill="none" xmlns="http://www.w3.org/2000/svg">
<path d="M7.49935 0.416016C3.50435 0.416016 0.416016 3.34143 0.416016 7.28685C0.416016 9.3481 1.25893 11.1402 2.64018 12.3656C2.75352 12.4577 2.82435 12.6135 2.83143 12.7693L2.86685 14.0302C2.89518 14.4339 3.29893 14.696 3.66727 14.5331L5.06977 13.9168C5.19018 13.8743 5.32477 13.8531 5.44518 13.8743C6.08268 14.0656 6.79102 14.1577 7.49935 14.1577C11.4943 14.1577 14.5827 11.2323 14.5827 7.28685C14.5827 3.34143 11.4943 0.416016 7.49935 0.416016ZM11.7493 5.70018L9.67393 9.0081C9.34102 9.52518 8.63268 9.65977 8.13685 9.27018L6.47935 8.04477C6.40578 7.98959 6.31631 7.95976 6.22435 7.95976C6.13239 7.95976 6.04292 7.98959 5.96935 8.04477L3.73102 9.74477C3.43352 9.97852 3.04393 9.62435 3.24935 9.29852L5.32477 5.9906C5.65768 5.47352 6.36602 5.33893 6.86185 5.70727L8.51935 6.95393C8.59291 7.00911 8.68239 7.03893 8.77435 7.03893C8.86631 7.03893 8.95578 7.00911 9.02935 6.95393L11.2677 5.25393C11.5652 5.02018 11.9548 5.37435 11.7493 5.70018Z" fill="white"/>
</svg>
