<svg width="16" height="15" viewBox="0 0 16 15" fill="none" xmlns="http://www.w3.org/2000/svg">
<path d="M7.99964 1.74147e-07C6.73716 -0.000275317 5.49611 0.326312 4.39729 0.947974C3.29847 1.56964 2.37932 2.46519 1.7293 3.54748C1.07927 4.62976 0.720528 5.8619 0.687978 7.12396C0.655428 8.38603 0.950182 9.63502 1.54355 10.7494L0.745502 13.1435C0.679398 13.3417 0.669804 13.5545 0.717798 13.7578C0.765791 13.9612 0.869474 14.1472 1.01723 14.2949C1.16498 14.4427 1.35096 14.5464 1.55433 14.5943C1.75769 14.6423 1.97041 14.6327 2.16863 14.5666L4.56277 13.7686C5.54347 14.2902 6.63011 14.5815 7.74021 14.6205C8.85031 14.6595 9.9547 14.445 10.9695 13.9934C11.9844 13.5418 12.883 12.865 13.5972 12.0142C14.3114 11.1635 14.8224 10.1612 15.0914 9.08348C15.3605 8.00576 15.3804 6.88092 15.1498 5.79434C14.9192 4.70775 14.4441 3.68799 13.7605 2.81244C13.0769 1.9369 12.2029 1.22858 11.2047 0.741273C10.2065 0.253961 9.11043 0.000455787 7.99964 1.74147e-07ZM10.2496 9H5.74964C5.60046 9 5.45738 8.94074 5.3519 8.83525C5.24641 8.72976 5.18714 8.58668 5.18714 8.4375C5.18714 8.28832 5.24641 8.14524 5.3519 8.03975C5.45738 7.93426 5.60046 7.875 5.74964 7.875H10.2496C10.3988 7.875 10.5419 7.93426 10.6474 8.03975C10.7529 8.14524 10.8121 8.28832 10.8121 8.4375C10.8121 8.58668 10.7529 8.72976 10.6474 8.83525C10.5419 8.94074 10.3988 9 10.2496 9ZM10.2496 6.75H5.74964C5.60046 6.75 5.45738 6.69074 5.3519 6.58525C5.24641 6.47976 5.18714 6.33668 5.18714 6.1875C5.18714 6.03832 5.24641 5.89524 5.3519 5.78975C5.45738 5.68426 5.60046 5.625 5.74964 5.625H10.2496C10.3988 5.625 10.5419 5.68426 10.6474 5.78975C10.7529 5.89524 10.8121 6.03832 10.8121 6.1875C10.8121 6.33668 10.7529 6.47976 10.6474 6.58525C10.5419 6.69074 10.3988 6.75 10.2496 6.75Z" fill="white"/>
</svg>
