<svg width="180" height="89" viewBox="0 0 180 89" fill="none" xmlns="http://www.w3.org/2000/svg">
<rect y="3" width="180" height="86" rx="6" fill="black"/>
<path d="M61.9003 33V23.2H63.6503L66.9683 29.724L70.2723 23.2H72.0223V33H70.5383V25.762L67.5423 31.6H66.3943L63.3843 25.776V33H61.9003ZM77.2055 33.168C76.5242 33.168 75.9175 33.0187 75.3855 32.72C74.8629 32.412 74.4522 31.9873 74.1535 31.446C73.8549 30.9047 73.7055 30.2747 73.7055 29.556C73.7055 28.828 73.8502 28.1887 74.1395 27.638C74.4382 27.0873 74.8489 26.658 75.3715 26.35C75.9035 26.042 76.5195 25.888 77.2195 25.888C77.9009 25.888 78.4935 26.042 78.9975 26.35C79.5015 26.6487 79.8935 27.05 80.1735 27.554C80.4535 28.058 80.5935 28.6133 80.5935 29.22C80.5935 29.3133 80.5889 29.416 80.5795 29.528C80.5795 29.6307 80.5749 29.7473 80.5655 29.878H75.1615C75.2082 30.55 75.4275 31.0633 75.8195 31.418C76.2209 31.7633 76.6829 31.936 77.2055 31.936C77.6255 31.936 77.9755 31.8427 78.2555 31.656C78.5449 31.46 78.7595 31.1987 78.8995 30.872H80.3835C80.1969 31.5253 79.8235 32.0713 79.2635 32.51C78.7129 32.9487 78.0269 33.168 77.2055 33.168ZM77.2055 27.106C76.7109 27.106 76.2722 27.2553 75.8895 27.554C75.5069 27.8433 75.2735 28.282 75.1895 28.87H79.1095C79.0815 28.3287 78.8902 27.8993 78.5355 27.582C78.1809 27.2647 77.7375 27.106 77.2055 27.106ZM84.9053 33.168C84.028 33.168 83.3046 32.9533 82.7353 32.524C82.166 32.0947 81.8393 31.5253 81.7553 30.816H83.2533C83.328 31.1333 83.5053 31.4087 83.7853 31.642C84.0653 31.866 84.434 31.978 84.8913 31.978C85.3393 31.978 85.666 31.8847 85.8713 31.698C86.0766 31.5113 86.1793 31.2967 86.1793 31.054C86.1793 30.6993 86.0346 30.4613 85.7453 30.34C85.4653 30.2093 85.0733 30.0927 84.5693 29.99C84.1773 29.906 83.7853 29.794 83.3933 29.654C83.0106 29.514 82.6886 29.318 82.4273 29.066C82.1753 28.8047 82.0493 28.4547 82.0493 28.016C82.0493 27.4093 82.2826 26.9053 82.7493 26.504C83.216 26.0933 83.8693 25.888 84.7093 25.888C85.484 25.888 86.1093 26.0747 86.5853 26.448C87.0706 26.8213 87.3553 27.3487 87.4393 28.03H86.0113C85.9646 27.7313 85.8246 27.498 85.5913 27.33C85.3673 27.162 85.064 27.078 84.6813 27.078C84.308 27.078 84.0186 27.1573 83.8133 27.316C83.608 27.4653 83.5053 27.6613 83.5053 27.904C83.5053 28.1467 83.6453 28.338 83.9253 28.478C84.2146 28.618 84.5926 28.744 85.0593 28.856C85.526 28.9587 85.9553 29.08 86.3473 29.22C86.7486 29.3507 87.0706 29.5467 87.3133 29.808C87.556 30.0693 87.6773 30.452 87.6773 30.956C87.6866 31.5907 87.4393 32.118 86.9353 32.538C86.4406 32.958 85.764 33.168 84.9053 33.168ZM92.0694 33.168C91.192 33.168 90.4687 32.9533 89.8994 32.524C89.33 32.0947 89.0034 31.5253 88.9194 30.816H90.4174C90.492 31.1333 90.6694 31.4087 90.9494 31.642C91.2294 31.866 91.598 31.978 92.0554 31.978C92.5034 31.978 92.83 31.8847 93.0354 31.698C93.2407 31.5113 93.3434 31.2967 93.3434 31.054C93.3434 30.6993 93.1987 30.4613 92.9094 30.34C92.6294 30.2093 92.2374 30.0927 91.7334 29.99C91.3414 29.906 90.9494 29.794 90.5574 29.654C90.1747 29.514 89.8527 29.318 89.5914 29.066C89.3394 28.8047 89.2134 28.4547 89.2134 28.016C89.2134 27.4093 89.4467 26.9053 89.9134 26.504C90.38 26.0933 91.0334 25.888 91.8734 25.888C92.648 25.888 93.2734 26.0747 93.7494 26.448C94.2347 26.8213 94.5194 27.3487 94.6034 28.03H93.1754C93.1287 27.7313 92.9887 27.498 92.7554 27.33C92.5314 27.162 92.228 27.078 91.8454 27.078C91.472 27.078 91.1827 27.1573 90.9774 27.316C90.772 27.4653 90.6694 27.6613 90.6694 27.904C90.6694 28.1467 90.8094 28.338 91.0894 28.478C91.3787 28.618 91.7567 28.744 92.2234 28.856C92.69 28.9587 93.1194 29.08 93.5114 29.22C93.9127 29.3507 94.2347 29.5467 94.4774 29.808C94.72 30.0693 94.8414 30.452 94.8414 30.956C94.8507 31.5907 94.6034 32.118 94.0994 32.538C93.6047 32.958 92.928 33.168 92.0694 33.168ZM98.8134 33.168C98.2254 33.168 97.7401 33.07 97.3574 32.874C96.9748 32.678 96.6901 32.4213 96.5034 32.104C96.3168 31.7773 96.2234 31.4227 96.2234 31.04C96.2234 30.368 96.4848 29.836 97.0074 29.444C97.5301 29.052 98.2768 28.856 99.2474 28.856H101.067V28.73C101.067 28.1887 100.918 27.7827 100.619 27.512C100.33 27.2413 99.9521 27.106 99.4854 27.106C99.0748 27.106 98.7154 27.2087 98.4074 27.414C98.1088 27.61 97.9268 27.904 97.8614 28.296H96.3774C96.4241 27.792 96.5921 27.3627 96.8814 27.008C97.1801 26.644 97.5534 26.3687 98.0014 26.182C98.4588 25.986 98.9581 25.888 99.4994 25.888C100.47 25.888 101.221 26.1447 101.753 26.658C102.285 27.162 102.551 27.8527 102.551 28.73V33H101.263L101.137 31.81C100.941 32.1927 100.657 32.5147 100.283 32.776C99.9101 33.0373 99.4201 33.168 98.8134 33.168ZM99.1074 31.964C99.5088 31.964 99.8448 31.8707 100.115 31.684C100.395 31.488 100.61 31.2313 100.759 30.914C100.918 30.5967 101.016 30.2467 101.053 29.864H99.4014C98.8134 29.864 98.3934 29.9667 98.1414 30.172C97.8988 30.3773 97.7774 30.634 97.7774 30.942C97.7774 31.2593 97.8941 31.5113 98.1274 31.698C98.3701 31.8753 98.6968 31.964 99.1074 31.964ZM107.124 30.872C106.76 30.872 106.424 30.83 106.116 30.746L105.514 31.334C105.616 31.3993 105.742 31.4553 105.892 31.502C106.041 31.5487 106.251 31.5907 106.522 31.628C106.792 31.6653 107.161 31.7027 107.628 31.74C108.552 31.824 109.219 32.048 109.63 32.412C110.04 32.7667 110.246 33.2427 110.246 33.84C110.246 34.2507 110.134 34.638 109.91 35.002C109.695 35.3753 109.354 35.674 108.888 35.898C108.43 36.1313 107.842 36.248 107.124 36.248C106.153 36.248 105.364 36.0613 104.758 35.688C104.16 35.324 103.862 34.7687 103.862 34.022C103.862 33.7327 103.936 33.4433 104.086 33.154C104.244 32.874 104.492 32.608 104.828 32.356C104.632 32.272 104.459 32.1833 104.31 32.09C104.17 31.9873 104.044 31.8847 103.932 31.782V31.446L105.136 30.214C104.594 29.7473 104.324 29.136 104.324 28.38C104.324 27.9227 104.431 27.5073 104.646 27.134C104.87 26.7513 105.192 26.448 105.612 26.224C106.032 26 106.536 25.888 107.124 25.888C107.516 25.888 107.88 25.944 108.216 26.056H110.806V27.036L109.574 27.106C109.798 27.4887 109.91 27.9133 109.91 28.38C109.91 28.8467 109.798 29.2667 109.574 29.64C109.359 30.0133 109.042 30.312 108.622 30.536C108.211 30.76 107.712 30.872 107.124 30.872ZM107.124 29.71C107.553 29.71 107.898 29.598 108.16 29.374C108.43 29.1407 108.566 28.814 108.566 28.394C108.566 27.9647 108.43 27.638 108.16 27.414C107.898 27.19 107.553 27.078 107.124 27.078C106.685 27.078 106.33 27.19 106.06 27.414C105.798 27.638 105.668 27.9647 105.668 28.394C105.668 28.814 105.798 29.1407 106.06 29.374C106.33 29.598 106.685 29.71 107.124 29.71ZM105.262 33.882C105.262 34.2833 105.439 34.582 105.794 34.778C106.148 34.9833 106.592 35.086 107.124 35.086C107.637 35.086 108.052 34.974 108.37 34.75C108.687 34.5353 108.846 34.246 108.846 33.882C108.846 33.6113 108.738 33.378 108.524 33.182C108.309 32.9953 107.903 32.8787 107.306 32.832C106.858 32.804 106.461 32.762 106.116 32.706C105.789 32.8833 105.565 33.0747 105.444 33.28C105.322 33.4853 105.262 33.686 105.262 33.882ZM115.104 33.168C114.423 33.168 113.816 33.0187 113.284 32.72C112.761 32.412 112.351 31.9873 112.052 31.446C111.753 30.9047 111.604 30.2747 111.604 29.556C111.604 28.828 111.749 28.1887 112.038 27.638C112.337 27.0873 112.747 26.658 113.27 26.35C113.802 26.042 114.418 25.888 115.118 25.888C115.799 25.888 116.392 26.042 116.896 26.35C117.4 26.6487 117.792 27.05 118.072 27.554C118.352 28.058 118.492 28.6133 118.492 29.22C118.492 29.3133 118.487 29.416 118.478 29.528C118.478 29.6307 118.473 29.7473 118.464 29.878H113.06C113.107 30.55 113.326 31.0633 113.718 31.418C114.119 31.7633 114.581 31.936 115.104 31.936C115.524 31.936 115.874 31.8427 116.154 31.656C116.443 31.46 116.658 31.1987 116.798 30.872H118.282C118.095 31.5253 117.722 32.0713 117.162 32.51C116.611 32.9487 115.925 33.168 115.104 33.168ZM115.104 27.106C114.609 27.106 114.171 27.2553 113.788 27.554C113.405 27.8433 113.172 28.282 113.088 28.87H117.008C116.98 28.3287 116.789 27.8993 116.434 27.582C116.079 27.2647 115.636 27.106 115.104 27.106ZM39.5536 51V41.2H45.7836V42.404H41.0376V45.456H45.3636V46.632H41.0376V49.796H45.7836V51H39.5536ZM46.8236 51L49.2876 47.528L46.8236 44.056H48.4056L50.2676 46.716L52.1156 44.056H53.7116L51.2476 47.528L53.7116 51H52.1156L50.2676 48.34L48.4056 51H46.8236ZM54.9194 54.08V44.056H56.2494L56.4034 45.134C56.6274 44.8073 56.9354 44.518 57.3274 44.266C57.7194 44.014 58.2234 43.888 58.8394 43.888C59.5114 43.888 60.1041 44.0467 60.6174 44.364C61.1308 44.6813 61.5321 45.1153 61.8214 45.666C62.1201 46.2167 62.2694 46.842 62.2694 47.542C62.2694 48.242 62.1201 48.8673 61.8214 49.418C61.5321 49.9593 61.1308 50.3887 60.6174 50.706C60.1041 51.014 59.5068 51.168 58.8254 51.168C58.2841 51.168 57.8034 51.0607 57.3834 50.846C56.9728 50.6313 56.6461 50.328 56.4034 49.936V54.08H54.9194ZM58.5734 49.88C59.2081 49.88 59.7308 49.6653 60.1414 49.236C60.5521 48.7973 60.7574 48.228 60.7574 47.528C60.7574 47.0707 60.6641 46.6647 60.4774 46.31C60.2908 45.9553 60.0341 45.68 59.7074 45.484C59.3808 45.2787 59.0028 45.176 58.5734 45.176C57.9388 45.176 57.4161 45.3953 57.0054 45.834C56.6041 46.2727 56.4034 46.8373 56.4034 47.528C56.4034 48.228 56.6041 48.7973 57.0054 49.236C57.4161 49.6653 57.9388 49.88 58.5734 49.88ZM64.7145 42.74C64.4345 42.74 64.2012 42.656 64.0145 42.488C63.8372 42.3107 63.7485 42.0913 63.7485 41.83C63.7485 41.5687 63.8372 41.354 64.0145 41.186C64.2012 41.0087 64.4345 40.92 64.7145 40.92C64.9945 40.92 65.2232 41.0087 65.4005 41.186C65.5872 41.354 65.6805 41.5687 65.6805 41.83C65.6805 42.0913 65.5872 42.3107 65.4005 42.488C65.2232 42.656 64.9945 42.74 64.7145 42.74ZM63.9725 51V44.056H65.4565V51H63.9725ZM67.4155 51V44.056H68.7455L68.8715 45.372C69.1142 44.9147 69.4502 44.5553 69.8795 44.294C70.3182 44.0233 70.8455 43.888 71.4615 43.888V45.442H71.0555C70.6449 45.442 70.2762 45.512 69.9495 45.652C69.6322 45.7827 69.3755 46.0113 69.1795 46.338C68.9929 46.6553 68.8995 47.0987 68.8995 47.668V51H67.4155ZM75.0859 51.168C74.4979 51.168 74.0126 51.07 73.6299 50.874C73.2472 50.678 72.9626 50.4213 72.7759 50.104C72.5892 49.7773 72.4959 49.4227 72.4959 49.04C72.4959 48.368 72.7572 47.836 73.2799 47.444C73.8026 47.052 74.5492 46.856 75.5199 46.856H77.3399V46.73C77.3399 46.1887 77.1906 45.7827 76.8919 45.512C76.6026 45.2413 76.2246 45.106 75.7579 45.106C75.3472 45.106 74.9879 45.2087 74.6799 45.414C74.3812 45.61 74.1992 45.904 74.1339 46.296H72.6499C72.6966 45.792 72.8646 45.3627 73.1539 45.008C73.4526 44.644 73.8259 44.3687 74.2739 44.182C74.7312 43.986 75.2306 43.888 75.7719 43.888C76.7426 43.888 77.4939 44.1447 78.0259 44.658C78.5579 45.162 78.8239 45.8527 78.8239 46.73V51H77.5359L77.4099 49.81C77.2139 50.1927 76.9292 50.5147 76.5559 50.776C76.1826 51.0373 75.6926 51.168 75.0859 51.168ZM75.3799 49.964C75.7812 49.964 76.1172 49.8707 76.3879 49.684C76.6679 49.488 76.8826 49.2313 77.0319 48.914C77.1906 48.5967 77.2886 48.2467 77.3259 47.864H75.6739C75.0859 47.864 74.6659 47.9667 74.4139 48.172C74.1712 48.3773 74.0499 48.634 74.0499 48.942C74.0499 49.2593 74.1666 49.5113 74.3999 49.698C74.6426 49.8753 74.9692 49.964 75.3799 49.964ZM83.3295 51C82.6482 51 82.1068 50.8367 81.7055 50.51C81.3042 50.174 81.1035 49.5813 81.1035 48.732V45.302H79.9135V44.056H81.1035L81.2855 42.292H82.5875V44.056H84.5475V45.302H82.5875V48.732C82.5875 49.1147 82.6668 49.3807 82.8255 49.53C82.9935 49.67 83.2782 49.74 83.6795 49.74H84.4775V51H83.3295ZM86.9176 42.74C86.6376 42.74 86.4043 42.656 86.2176 42.488C86.0403 42.3107 85.9516 42.0913 85.9516 41.83C85.9516 41.5687 86.0403 41.354 86.2176 41.186C86.4043 41.0087 86.6376 40.92 86.9176 40.92C87.1976 40.92 87.4263 41.0087 87.6036 41.186C87.7903 41.354 87.8836 41.5687 87.8836 41.83C87.8836 42.0913 87.7903 42.3107 87.6036 42.488C87.4263 42.656 87.1976 42.74 86.9176 42.74ZM86.1756 51V44.056H87.6596V51H86.1756ZM92.8667 51.168C92.204 51.168 91.6067 51.0187 91.0747 50.72C90.552 50.412 90.1367 49.9873 89.8287 49.446C89.5207 48.8953 89.3667 48.256 89.3667 47.528C89.3667 46.8 89.5207 46.1653 89.8287 45.624C90.146 45.0733 90.5707 44.6487 91.1027 44.35C91.6347 44.042 92.2273 43.888 92.8807 43.888C93.5433 43.888 94.136 44.042 94.6587 44.35C95.1907 44.6487 95.6107 45.0733 95.9187 45.624C96.236 46.1653 96.3947 46.8 96.3947 47.528C96.3947 48.256 96.236 48.8953 95.9187 49.446C95.6107 49.9873 95.1907 50.412 94.6587 50.72C94.1267 51.0187 93.5293 51.168 92.8667 51.168ZM92.8667 49.894C93.2213 49.894 93.548 49.8053 93.8467 49.628C94.1547 49.4507 94.402 49.1893 94.5887 48.844C94.7753 48.4893 94.8687 48.0507 94.8687 47.528C94.8687 47.0053 94.7753 46.5713 94.5887 46.226C94.4113 45.8713 94.1687 45.6053 93.8607 45.428C93.562 45.2507 93.2353 45.162 92.8807 45.162C92.526 45.162 92.1947 45.2507 91.8867 45.428C91.588 45.6053 91.3453 45.8713 91.1587 46.226C90.972 46.5713 90.8787 47.0053 90.8787 47.528C90.8787 48.0507 90.972 48.4893 91.1587 48.844C91.3453 49.1893 91.588 49.4507 91.8867 49.628C92.1853 49.8053 92.512 49.894 92.8667 49.894ZM97.9995 51V44.056H99.3155L99.4275 45.274C99.6422 44.8447 99.9549 44.5087 100.366 44.266C100.786 44.014 101.266 43.888 101.808 43.888C102.648 43.888 103.306 44.1493 103.782 44.672C104.267 45.1947 104.51 45.974 104.51 47.01V51H103.04V47.164C103.04 45.82 102.489 45.148 101.388 45.148C100.837 45.148 100.38 45.344 100.016 45.736C99.6609 46.128 99.4835 46.688 99.4835 47.416V51H97.9995ZM112.137 51V42.404H109.239V41.2H116.505V42.404H113.621V51H112.137ZM118.677 42.74C118.397 42.74 118.164 42.656 117.977 42.488C117.8 42.3107 117.711 42.0913 117.711 41.83C117.711 41.5687 117.8 41.354 117.977 41.186C118.164 41.0087 118.397 40.92 118.677 40.92C118.957 40.92 119.186 41.0087 119.363 41.186C119.55 41.354 119.643 41.5687 119.643 41.83C119.643 42.0913 119.55 42.3107 119.363 42.488C119.186 42.656 118.957 42.74 118.677 42.74ZM117.935 51V44.056H119.419V51H117.935ZM121.378 51V44.056H122.694L122.82 45.036C123.044 44.6813 123.338 44.4013 123.702 44.196C124.076 43.9907 124.505 43.888 124.99 43.888C126.092 43.888 126.857 44.322 127.286 45.19C127.538 44.7887 127.874 44.4713 128.294 44.238C128.724 44.0047 129.186 43.888 129.68 43.888C130.548 43.888 131.23 44.1493 131.724 44.672C132.219 45.1947 132.466 45.974 132.466 47.01V51H130.982V47.164C130.982 45.82 130.469 45.148 129.442 45.148C128.92 45.148 128.49 45.344 128.154 45.736C127.828 46.128 127.664 46.688 127.664 47.416V51H126.18V47.164C126.18 45.82 125.662 45.148 124.626 45.148C124.113 45.148 123.688 45.344 123.352 45.736C123.026 46.128 122.862 46.688 122.862 47.416V51H121.378ZM137.451 51.168C136.769 51.168 136.163 51.0187 135.631 50.72C135.108 50.412 134.697 49.9873 134.399 49.446C134.1 48.9047 133.951 48.2747 133.951 47.556C133.951 46.828 134.095 46.1887 134.385 45.638C134.683 45.0873 135.094 44.658 135.617 44.35C136.149 44.042 136.765 43.888 137.465 43.888C138.146 43.888 138.739 44.042 139.243 44.35C139.747 44.6487 140.139 45.05 140.419 45.554C140.699 46.058 140.839 46.6133 140.839 47.22C140.839 47.3133 140.834 47.416 140.825 47.528C140.825 47.6307 140.82 47.7473 140.811 47.878H135.407C135.453 48.55 135.673 49.0633 136.065 49.418C136.466 49.7633 136.928 49.936 137.451 49.936C137.871 49.936 138.221 49.8427 138.501 49.656C138.79 49.46 139.005 49.1987 139.145 48.872H140.629C140.442 49.5253 140.069 50.0713 139.509 50.51C138.958 50.9487 138.272 51.168 137.451 51.168ZM137.451 45.106C136.956 45.106 136.517 45.2553 136.135 45.554C135.752 45.8433 135.519 46.282 135.435 46.87H139.355C139.327 46.3287 139.135 45.8993 138.781 45.582C138.426 45.2647 137.983 45.106 137.451 45.106ZM60.0566 71.03C59.534 70.526 59.0626 69.9333 58.6426 69.252C58.232 68.58 57.9006 67.8333 57.6486 67.012C57.406 66.1813 57.2846 65.29 57.2846 64.338C57.2846 63.386 57.406 62.4993 57.6486 61.678C57.9006 60.8473 58.232 60.096 58.6426 59.424C59.0626 58.7427 59.534 58.15 60.0566 57.646H61.5406V57.786C60.7006 58.654 60.024 59.648 59.5106 60.768C59.0066 61.888 58.7546 63.078 58.7546 64.338C58.7546 65.598 59.0066 66.788 59.5106 67.908C60.024 69.028 60.7053 70.022 61.5546 70.89V71.03H60.0566ZM65.4776 69.168C64.6002 69.168 63.8769 68.9533 63.3076 68.524C62.7382 68.0947 62.4116 67.5253 62.3276 66.816H63.8256C63.9002 67.1333 64.0776 67.4087 64.3576 67.642C64.6376 67.866 65.0062 67.978 65.4636 67.978C65.9116 67.978 66.2382 67.8847 66.4436 67.698C66.6489 67.5113 66.7516 67.2967 66.7516 67.054C66.7516 66.6993 66.6069 66.4613 66.3176 66.34C66.0376 66.2093 65.6456 66.0927 65.1416 65.99C64.7496 65.906 64.3576 65.794 63.9656 65.654C63.5829 65.514 63.2609 65.318 62.9996 65.066C62.7476 64.8047 62.6216 64.4547 62.6216 64.016C62.6216 63.4093 62.8549 62.9053 63.3216 62.504C63.7882 62.0933 64.4416 61.888 65.2816 61.888C66.0562 61.888 66.6816 62.0747 67.1576 62.448C67.6429 62.8213 67.9276 63.3487 68.0116 64.03H66.5836C66.5369 63.7313 66.3969 63.498 66.1636 63.33C65.9396 63.162 65.6362 63.078 65.2536 63.078C64.8802 63.078 64.5909 63.1573 64.3856 63.316C64.1802 63.4653 64.0776 63.6613 64.0776 63.904C64.0776 64.1467 64.2176 64.338 64.4976 64.478C64.7869 64.618 65.1649 64.744 65.6316 64.856C66.0982 64.9587 66.5276 65.08 66.9196 65.22C67.3209 65.3507 67.6429 65.5467 67.8856 65.808C68.1282 66.0693 68.2496 66.452 68.2496 66.956C68.2589 67.5907 68.0116 68.118 67.5076 68.538C67.0129 68.958 66.3362 69.168 65.4776 69.168ZM73.1176 69.168C72.4363 69.168 71.8296 69.0187 71.2976 68.72C70.775 68.412 70.3643 67.9873 70.0656 67.446C69.767 66.9047 69.6176 66.2747 69.6176 65.556C69.6176 64.828 69.7623 64.1887 70.0516 63.638C70.3503 63.0873 70.761 62.658 71.2836 62.35C71.8156 62.042 72.4316 61.888 73.1316 61.888C73.813 61.888 74.4056 62.042 74.9096 62.35C75.4136 62.6487 75.8056 63.05 76.0856 63.554C76.3656 64.058 76.5056 64.6133 76.5056 65.22C76.5056 65.3133 76.501 65.416 76.4916 65.528C76.4916 65.6307 76.487 65.7473 76.4776 65.878H71.0736C71.1203 66.55 71.3396 67.0633 71.7316 67.418C72.133 67.7633 72.595 67.936 73.1176 67.936C73.5376 67.936 73.8876 67.8427 74.1676 67.656C74.457 67.46 74.6716 67.1987 74.8116 66.872H76.2956C76.109 67.5253 75.7356 68.0713 75.1756 68.51C74.625 68.9487 73.939 69.168 73.1176 69.168ZM73.1176 63.106C72.623 63.106 72.1843 63.2553 71.8016 63.554C71.419 63.8433 71.1856 64.282 71.1016 64.87H75.0216C74.9936 64.3287 74.8023 63.8993 74.4476 63.582C74.093 63.2647 73.6496 63.106 73.1176 63.106ZM81.3354 69.168C80.6541 69.168 80.0428 69.014 79.5014 68.706C78.9694 68.398 78.5494 67.9733 78.2414 67.432C77.9428 66.8813 77.7934 66.2467 77.7934 65.528C77.7934 64.8093 77.9428 64.1793 78.2414 63.638C78.5494 63.0873 78.9694 62.658 79.5014 62.35C80.0428 62.042 80.6541 61.888 81.3354 61.888C82.1941 61.888 82.9128 62.112 83.4914 62.56C84.0794 63.008 84.4574 63.6147 84.6254 64.38H83.0714C82.9781 63.9973 82.7728 63.6987 82.4554 63.484C82.1381 63.2693 81.7648 63.162 81.3354 63.162C80.9714 63.162 80.6354 63.2553 80.3274 63.442C80.0194 63.6193 79.7721 63.8853 79.5854 64.24C79.3988 64.5853 79.3054 65.0147 79.3054 65.528C79.3054 66.0413 79.3988 66.4753 79.5854 66.83C79.7721 67.1753 80.0194 67.4413 80.3274 67.628C80.6354 67.8147 80.9714 67.908 81.3354 67.908C81.7648 67.908 82.1381 67.8007 82.4554 67.586C82.7728 67.3713 82.9781 67.068 83.0714 66.676H84.6254C84.4668 67.4227 84.0934 68.0247 83.5054 68.482C82.9174 68.9393 82.1941 69.168 81.3354 69.168ZM89.4829 69.168C88.8202 69.168 88.2229 69.0187 87.6909 68.72C87.1682 68.412 86.7529 67.9873 86.4449 67.446C86.1369 66.8953 85.9829 66.256 85.9829 65.528C85.9829 64.8 86.1369 64.1653 86.4449 63.624C86.7622 63.0733 87.1869 62.6487 87.7189 62.35C88.2509 62.042 88.8435 61.888 89.4969 61.888C90.1595 61.888 90.7522 62.042 91.2749 62.35C91.8069 62.6487 92.2269 63.0733 92.5349 63.624C92.8522 64.1653 93.0109 64.8 93.0109 65.528C93.0109 66.256 92.8522 66.8953 92.5349 67.446C92.2269 67.9873 91.8069 68.412 91.2749 68.72C90.7429 69.0187 90.1455 69.168 89.4829 69.168ZM89.4829 67.894C89.8375 67.894 90.1642 67.8053 90.4629 67.628C90.7709 67.4507 91.0182 67.1893 91.2049 66.844C91.3915 66.4893 91.4849 66.0507 91.4849 65.528C91.4849 65.0053 91.3915 64.5713 91.2049 64.226C91.0275 63.8713 90.7849 63.6053 90.4769 63.428C90.1782 63.2507 89.8515 63.162 89.4969 63.162C89.1422 63.162 88.8109 63.2507 88.5029 63.428C88.2042 63.6053 87.9615 63.8713 87.7749 64.226C87.5882 64.5713 87.4949 65.0053 87.4949 65.528C87.4949 66.0507 87.5882 66.4893 87.7749 66.844C87.9615 67.1893 88.2042 67.4507 88.5029 67.628C88.8015 67.8053 89.1282 67.894 89.4829 67.894ZM94.6157 69V62.056H95.9317L96.0437 63.274C96.2584 62.8447 96.5711 62.5087 96.9817 62.266C97.4017 62.014 97.8824 61.888 98.4237 61.888C99.2637 61.888 99.9217 62.1493 100.398 62.672C100.883 63.1947 101.126 63.974 101.126 65.01V69H99.6557V65.164C99.6557 63.82 99.1051 63.148 98.0037 63.148C97.4531 63.148 96.9957 63.344 96.6317 63.736C96.2771 64.128 96.0997 64.688 96.0997 65.416V69H94.6157ZM106.038 69.168C105.366 69.168 104.773 69.0093 104.26 68.692C103.746 68.3747 103.345 67.9407 103.056 67.39C102.766 66.8393 102.622 66.214 102.622 65.514C102.622 64.814 102.766 64.1933 103.056 63.652C103.345 63.1013 103.746 62.672 104.26 62.364C104.782 62.0467 105.38 61.888 106.052 61.888C106.602 61.888 107.083 61.9953 107.494 62.21C107.914 62.4247 108.24 62.728 108.474 63.12V58.92H109.958V69H108.628L108.474 67.922C108.25 68.2487 107.942 68.538 107.55 68.79C107.158 69.042 106.654 69.168 106.038 69.168ZM106.304 67.88C106.938 67.88 107.456 67.6607 107.858 67.222C108.268 66.7833 108.474 66.2187 108.474 65.528C108.474 64.828 108.268 64.2633 107.858 63.834C107.456 63.3953 106.938 63.176 106.304 63.176C105.669 63.176 105.146 63.3953 104.736 63.834C104.325 64.2633 104.12 64.828 104.12 65.528C104.12 65.9853 104.213 66.3913 104.4 66.746C104.586 67.1007 104.843 67.3807 105.17 67.586C105.506 67.782 105.884 67.88 106.304 67.88ZM114.601 69.168C113.723 69.168 113 68.9533 112.431 68.524C111.861 68.0947 111.535 67.5253 111.451 66.816H112.949C113.023 67.1333 113.201 67.4087 113.481 67.642C113.761 67.866 114.129 67.978 114.587 67.978C115.035 67.978 115.361 67.8847 115.567 67.698C115.772 67.5113 115.875 67.2967 115.875 67.054C115.875 66.6993 115.73 66.4613 115.441 66.34C115.161 66.2093 114.769 66.0927 114.265 65.99C113.873 65.906 113.481 65.794 113.089 65.654C112.706 65.514 112.384 65.318 112.123 65.066C111.871 64.8047 111.745 64.4547 111.745 64.016C111.745 63.4093 111.978 62.9053 112.445 62.504C112.911 62.0933 113.565 61.888 114.405 61.888C115.179 61.888 115.805 62.0747 116.281 62.448C116.766 62.8213 117.051 63.3487 117.135 64.03H115.707C115.66 63.7313 115.52 63.498 115.287 63.33C115.063 63.162 114.759 63.078 114.377 63.078C114.003 63.078 113.714 63.1573 113.509 63.316C113.303 63.4653 113.201 63.6613 113.201 63.904C113.201 64.1467 113.341 64.338 113.621 64.478C113.91 64.618 114.288 64.744 114.755 64.856C115.221 64.9587 115.651 65.08 116.043 65.22C116.444 65.3507 116.766 65.5467 117.009 65.808C117.251 66.0693 117.373 66.452 117.373 66.956C117.382 67.5907 117.135 68.118 116.631 68.538C116.136 68.958 115.459 69.168 114.601 69.168ZM118.449 71.03V70.89C119.289 70.022 119.966 69.028 120.479 67.908C120.992 66.788 121.249 65.598 121.249 64.338C121.249 63.078 120.992 61.888 120.479 60.768C119.975 59.648 119.303 58.654 118.463 57.786V57.646H119.947C120.46 58.15 120.927 58.7427 121.347 59.424C121.767 60.096 122.098 60.8473 122.341 61.678C122.593 62.4993 122.719 63.386 122.719 64.338C122.719 65.29 122.593 66.1813 122.341 67.012C122.098 67.8333 121.767 68.58 121.347 69.252C120.927 69.9333 120.46 70.526 119.947 71.03H118.449Z" fill="white"/>
<path d="M89.1083 0.403961C89.5081 -0.134653 90.3144 -0.134654 90.7142 0.40396L92.6236 2.97622C93.1134 3.63606 92.6424 4.57226 91.8206 4.57226L88.0018 4.57226C87.18 4.57226 86.709 3.63606 87.1989 2.97622L89.1083 0.403961Z" fill="black"/>
</svg>
