<svg width="49" height="40" viewBox="0 0 49 40" fill="none" xmlns="http://www.w3.org/2000/svg">
<g clip-path="url(#clip0_2891_4608)">
<path d="M28.3365 14.5703L31.5487 22.142L34.761 14.5703H37.5908V25.5072H35.4111V18.3179L32.3136 25.5455H30.8222L27.7247 18.3179V25.5455H25.5449V14.5703H28.3365Z" fill="#494AF8"/>
<path d="M37.5918 40H48.5287V0H37.5918V3.3652H45.1253V36.6348H37.5918V40Z" fill="#494AF8"/>
<path d="M22.9834 14.5703V25.5072H20.8037V18.3179L17.7061 25.5455H16.2147L13.1172 18.3179V25.5455H10.9375V14.5703H13.7673L16.9796 22.142L20.1918 14.5703H22.9834Z" fill="#494AF8"/>
<path d="M10.9369 40H0V0H10.9369V3.3652H3.3652V36.6348H10.9369V40Z" fill="#494AF8"/>
</g>
<defs>
<clipPath id="clip0_2891_4608">
<rect width="48.5277" height="40" fill="white"/>
</clipPath>
</defs>
</svg>
