<svg width="18" height="18" viewBox="0 0 18 18" fill="none" xmlns="http://www.w3.org/2000/svg">
<path d="M17.5951 7.61476L12.9676 12.2578C13.3623 13.3543 13.5258 15.1908 11.8261 17.4504C11.7072 17.6093 11.5555 17.7407 11.3812 17.8355C11.2069 17.9304 11.0141 17.9865 10.8162 18H10.7184C10.5364 18 10.3562 17.9642 10.1881 17.8946C10.02 17.8249 9.86731 17.7228 9.73869 17.5941L5.56209 13.4132L1.87274 17.1051C1.74283 17.2351 1.56663 17.308 1.3829 17.308C1.19918 17.308 1.02298 17.2351 0.893065 17.1051C0.763152 16.9752 0.690168 16.799 0.690168 16.6153C0.690168 16.4316 0.763152 16.2554 0.893065 16.1255L4.58502 12.4361L0.404959 8.25605C0.267561 8.11848 0.160675 7.95352 0.0912589 7.77191C0.0218424 7.59029 -0.00854864 7.39609 0.0020646 7.20195C0.0126778 7.00781 0.0640572 6.81808 0.152858 6.64511C0.241659 6.47214 0.36589 6.31982 0.517465 6.19805C2.7174 4.42304 4.82301 4.77181 5.7447 5.06086L10.3834 0.405681C10.512 0.277066 10.6647 0.175041 10.8327 0.105434C11.0007 0.0358268 11.1808 0 11.3627 0C11.5445 0 11.7246 0.0358268 11.8927 0.105434C12.0607 0.175041 12.2133 0.277066 12.3419 0.405681L17.5943 5.65715C17.8539 5.91669 17.9998 6.26869 17.9999 6.63578C18.0001 7.00286 17.8545 7.35499 17.5951 7.61476Z" fill="#CCCCCC"/>
</svg>
