<svg width="428" height="157" viewBox="0 0 428 157" fill="none" xmlns="http://www.w3.org/2000/svg">
<path d="M0 47H428V147C428 152.523 423.523 157 418 157H10C4.47715 157 0 152.523 0 147V47Z" fill="#151515"/>
<path d="M0 13C0 7.47715 4.47715 3 10 3H418C423.523 3 428 7.47715 428 13V47H0V13Z" fill="black"/>
<path d="M26.4195 30V19.5H30.0945C30.9145 19.5 31.5945 19.64 32.1345 19.92C32.6745 20.19 33.0745 20.565 33.3345 21.045C33.6045 21.515 33.7395 22.05 33.7395 22.65C33.7395 23.22 33.6095 23.745 33.3495 24.225C33.0995 24.695 32.7045 25.07 32.1645 25.35C31.6245 25.63 30.9345 25.77 30.0945 25.77H28.0095V30H26.4195ZM28.0095 24.465H30.0195C30.7695 24.465 31.3045 24.305 31.6245 23.985C31.9545 23.655 32.1195 23.21 32.1195 22.65C32.1195 22.07 31.9545 21.62 31.6245 21.3C31.3045 20.97 30.7695 20.805 30.0195 20.805H28.0095V24.465ZM35.2511 30V22.56H36.6761L36.8111 23.97C37.0711 23.48 37.4311 23.095 37.8911 22.815C38.3611 22.525 38.9261 22.38 39.5861 22.38V24.045H39.1511C38.7111 24.045 38.3161 24.12 37.9661 24.27C37.6261 24.41 37.3511 24.655 37.1411 25.005C36.9411 25.345 36.8411 25.82 36.8411 26.43V30H35.2511ZM44.2243 30.18C43.5143 30.18 42.8743 30.02 42.3043 29.7C41.7443 29.37 41.2993 28.915 40.9693 28.335C40.6393 27.745 40.4743 27.06 40.4743 26.28C40.4743 25.5 40.6393 24.82 40.9693 24.24C41.3093 23.65 41.7643 23.195 42.3343 22.875C42.9043 22.545 43.5393 22.38 44.2393 22.38C44.9493 22.38 45.5843 22.545 46.1443 22.875C46.7143 23.195 47.1643 23.65 47.4943 24.24C47.8343 24.82 48.0043 25.5 48.0043 26.28C48.0043 27.06 47.8343 27.745 47.4943 28.335C47.1643 28.915 46.7143 29.37 46.1443 29.7C45.5743 30.02 44.9343 30.18 44.2243 30.18ZM44.2243 28.815C44.6043 28.815 44.9543 28.72 45.2743 28.53C45.6043 28.34 45.8693 28.06 46.0693 27.69C46.2693 27.31 46.3693 26.84 46.3693 26.28C46.3693 25.72 46.2693 25.255 46.0693 24.885C45.8793 24.505 45.6193 24.22 45.2893 24.03C44.9693 23.84 44.6193 23.745 44.2393 23.745C43.8593 23.745 43.5043 23.84 43.1743 24.03C42.8543 24.22 42.5943 24.505 42.3943 24.885C42.1943 25.255 42.0943 25.72 42.0943 26.28C42.0943 26.84 42.1943 27.31 42.3943 27.69C42.5943 28.06 42.8543 28.34 43.1743 28.53C43.4943 28.72 43.8443 28.815 44.2243 28.815ZM50.6688 21.15C50.3688 21.15 50.1188 21.06 49.9188 20.88C49.7288 20.69 49.6338 20.455 49.6338 20.175C49.6338 19.895 49.7288 19.665 49.9188 19.485C50.1188 19.295 50.3688 19.2 50.6688 19.2C50.9688 19.2 51.2138 19.295 51.4038 19.485C51.6038 19.665 51.7038 19.895 51.7038 20.175C51.7038 20.455 51.6038 20.69 51.4038 20.88C51.2138 21.06 50.9688 21.15 50.6688 21.15ZM48.2987 33.3V31.95H48.8838C49.2338 31.95 49.4838 31.875 49.6338 31.725C49.7838 31.585 49.8588 31.345 49.8588 31.005V22.56H51.4488V31.02C51.4488 31.83 51.2438 32.41 50.8338 32.76C50.4238 33.12 49.8538 33.3 49.1238 33.3H48.2987ZM57.027 30.18C56.297 30.18 55.647 30.02 55.077 29.7C54.517 29.37 54.077 28.915 53.757 28.335C53.437 27.755 53.277 27.08 53.277 26.31C53.277 25.53 53.432 24.845 53.742 24.255C54.062 23.665 54.502 23.205 55.062 22.875C55.632 22.545 56.292 22.38 57.042 22.38C57.772 22.38 58.407 22.545 58.947 22.875C59.487 23.195 59.907 23.625 60.207 24.165C60.507 24.705 60.657 25.3 60.657 25.95C60.657 26.05 60.652 26.16 60.642 26.28C60.642 26.39 60.637 26.515 60.627 26.655H54.837C54.887 27.375 55.122 27.925 55.542 28.305C55.972 28.675 56.467 28.86 57.027 28.86C57.477 28.86 57.852 28.76 58.152 28.56C58.462 28.35 58.692 28.07 58.842 27.72H60.432C60.232 28.42 59.832 29.005 59.232 29.475C58.642 29.945 57.907 30.18 57.027 30.18ZM57.027 23.685C56.497 23.685 56.027 23.845 55.617 24.165C55.207 24.475 54.957 24.945 54.867 25.575H59.067C59.037 24.995 58.832 24.535 58.452 24.195C58.072 23.855 57.597 23.685 57.027 23.685ZM65.8318 30.18C65.1018 30.18 64.4468 30.015 63.8668 29.685C63.2968 29.355 62.8468 28.9 62.5168 28.32C62.1968 27.73 62.0368 27.05 62.0368 26.28C62.0368 25.51 62.1968 24.835 62.5168 24.255C62.8468 23.665 63.2968 23.205 63.8668 22.875C64.4468 22.545 65.1018 22.38 65.8318 22.38C66.7518 22.38 67.5218 22.62 68.1418 23.1C68.7718 23.58 69.1768 24.23 69.3568 25.05H67.6918C67.5918 24.64 67.3718 24.32 67.0318 24.09C66.6918 23.86 66.2918 23.745 65.8318 23.745C65.4418 23.745 65.0818 23.845 64.7518 24.045C64.4218 24.235 64.1568 24.52 63.9568 24.9C63.7568 25.27 63.6568 25.73 63.6568 26.28C63.6568 26.83 63.7568 27.295 63.9568 27.675C64.1568 28.045 64.4218 28.33 64.7518 28.53C65.0818 28.73 65.4418 28.83 65.8318 28.83C66.2918 28.83 66.6918 28.715 67.0318 28.485C67.3718 28.255 67.5918 27.93 67.6918 27.51H69.3568C69.1868 28.31 68.7868 28.955 68.1568 29.445C67.5268 29.935 66.7518 30.18 65.8318 30.18ZM74.0547 30C73.3247 30 72.7447 29.825 72.3147 29.475C71.8847 29.115 71.6697 28.48 71.6697 27.57V23.895H70.3947V22.56H71.6697L71.8647 20.67H73.2597V22.56H75.3597V23.895H73.2597V27.57C73.2597 27.98 73.3447 28.265 73.5147 28.425C73.6947 28.575 73.9997 28.65 74.4297 28.65H75.2847V30H74.0547ZM80.8384 30V19.5H82.7134L86.2684 26.49L89.8084 19.5H91.6834V30H90.0934V22.245L86.8834 28.5H85.6534L82.4284 22.26V30H80.8384ZM97.237 30.18C96.527 30.18 95.887 30.02 95.317 29.7C94.757 29.37 94.312 28.915 93.982 28.335C93.652 27.745 93.487 27.06 93.487 26.28C93.487 25.5 93.652 24.82 93.982 24.24C94.322 23.65 94.777 23.195 95.347 22.875C95.917 22.545 96.552 22.38 97.252 22.38C97.962 22.38 98.597 22.545 99.157 22.875C99.727 23.195 100.177 23.65 100.507 24.24C100.847 24.82 101.017 25.5 101.017 26.28C101.017 27.06 100.847 27.745 100.507 28.335C100.177 28.915 99.727 29.37 99.157 29.7C98.587 30.02 97.947 30.18 97.237 30.18ZM97.237 28.815C97.617 28.815 97.967 28.72 98.287 28.53C98.617 28.34 98.882 28.06 99.082 27.69C99.282 27.31 99.382 26.84 99.382 26.28C99.382 25.72 99.282 25.255 99.082 24.885C98.892 24.505 98.632 24.22 98.302 24.03C97.982 23.84 97.632 23.745 97.252 23.745C96.872 23.745 96.517 23.84 96.187 24.03C95.867 24.22 95.607 24.505 95.407 24.885C95.207 25.255 95.107 25.72 95.107 26.28C95.107 26.84 95.207 27.31 95.407 27.69C95.607 28.06 95.867 28.34 96.187 28.53C96.507 28.72 96.857 28.815 97.237 28.815ZM106.126 30.18C105.406 30.18 104.771 30.01 104.221 29.67C103.671 29.33 103.241 28.865 102.931 28.275C102.621 27.685 102.466 27.015 102.466 26.265C102.466 25.515 102.621 24.85 102.931 24.27C103.241 23.68 103.671 23.22 104.221 22.89C104.781 22.55 105.421 22.38 106.141 22.38C106.731 22.38 107.246 22.495 107.686 22.725C108.136 22.955 108.486 23.28 108.736 23.7V19.2H110.326V30H108.901L108.736 28.845C108.496 29.195 108.166 29.505 107.746 29.775C107.326 30.045 106.786 30.18 106.126 30.18ZM106.411 28.8C107.091 28.8 107.646 28.565 108.076 28.095C108.516 27.625 108.736 27.02 108.736 26.28C108.736 25.53 108.516 24.925 108.076 24.465C107.646 23.995 107.091 23.76 106.411 23.76C105.731 23.76 105.171 23.995 104.731 24.465C104.291 24.925 104.071 25.53 104.071 26.28C104.071 26.77 104.171 27.205 104.371 27.585C104.571 27.965 104.846 28.265 105.196 28.485C105.556 28.695 105.961 28.8 106.411 28.8ZM115.811 30.18C115.081 30.18 114.431 30.02 113.861 29.7C113.301 29.37 112.861 28.915 112.541 28.335C112.221 27.755 112.061 27.08 112.061 26.31C112.061 25.53 112.216 24.845 112.526 24.255C112.846 23.665 113.286 23.205 113.846 22.875C114.416 22.545 115.076 22.38 115.826 22.38C116.556 22.38 117.191 22.545 117.731 22.875C118.271 23.195 118.691 23.625 118.991 24.165C119.291 24.705 119.441 25.3 119.441 25.95C119.441 26.05 119.436 26.16 119.426 26.28C119.426 26.39 119.421 26.515 119.411 26.655H113.621C113.671 27.375 113.906 27.925 114.326 28.305C114.756 28.675 115.251 28.86 115.811 28.86C116.261 28.86 116.636 28.76 116.936 28.56C117.246 28.35 117.476 28.07 117.626 27.72H119.216C119.016 28.42 118.616 29.005 118.016 29.475C117.426 29.945 116.691 30.18 115.811 30.18ZM115.811 23.685C115.281 23.685 114.811 23.845 114.401 24.165C113.991 24.475 113.741 24.945 113.651 25.575H117.851C117.821 24.995 117.616 24.535 117.236 24.195C116.856 23.855 116.381 23.685 115.811 23.685ZM124.255 30L128.125 19.5H129.865L133.705 30H132.025L131.125 27.435H126.835L125.935 30H124.255ZM127.285 26.175H130.675L128.98 21.39L127.285 26.175ZM138.254 30.18C137.524 30.18 136.869 30.015 136.289 29.685C135.719 29.355 135.269 28.9 134.939 28.32C134.619 27.73 134.459 27.05 134.459 26.28C134.459 25.51 134.619 24.835 134.939 24.255C135.269 23.665 135.719 23.205 136.289 22.875C136.869 22.545 137.524 22.38 138.254 22.38C139.174 22.38 139.944 22.62 140.564 23.1C141.194 23.58 141.599 24.23 141.779 25.05H140.114C140.014 24.64 139.794 24.32 139.454 24.09C139.114 23.86 138.714 23.745 138.254 23.745C137.864 23.745 137.504 23.845 137.174 24.045C136.844 24.235 136.579 24.52 136.379 24.9C136.179 25.27 136.079 25.73 136.079 26.28C136.079 26.83 136.179 27.295 136.379 27.675C136.579 28.045 136.844 28.33 137.174 28.53C137.504 28.73 137.864 28.83 138.254 28.83C138.714 28.83 139.114 28.715 139.454 28.485C139.794 28.255 140.014 27.93 140.114 27.51H141.779C141.609 28.31 141.209 28.955 140.579 29.445C139.949 29.935 139.174 30.18 138.254 30.18ZM146.477 30C145.747 30 145.167 29.825 144.737 29.475C144.307 29.115 144.092 28.48 144.092 27.57V23.895H142.817V22.56H144.092L144.287 20.67H145.682V22.56H147.782V23.895H145.682V27.57C145.682 27.98 145.767 28.265 145.937 28.425C146.117 28.575 146.422 28.65 146.852 28.65H147.707V30H146.477ZM150.321 21.15C150.021 21.15 149.771 21.06 149.571 20.88C149.381 20.69 149.286 20.455 149.286 20.175C149.286 19.895 149.381 19.665 149.571 19.485C149.771 19.295 150.021 19.2 150.321 19.2C150.621 19.2 150.866 19.295 151.056 19.485C151.256 19.665 151.356 19.895 151.356 20.175C151.356 20.455 151.256 20.69 151.056 20.88C150.866 21.06 150.621 21.15 150.321 21.15ZM149.526 30V22.56H151.116V30H149.526ZM155.3 30L152.51 22.56H154.175L156.245 28.485L158.315 22.56H159.965L157.19 30H155.3ZM164.371 30.18C163.641 30.18 162.991 30.02 162.421 29.7C161.861 29.37 161.421 28.915 161.101 28.335C160.781 27.755 160.621 27.08 160.621 26.31C160.621 25.53 160.776 24.845 161.086 24.255C161.406 23.665 161.846 23.205 162.406 22.875C162.976 22.545 163.636 22.38 164.386 22.38C165.116 22.38 165.751 22.545 166.291 22.875C166.831 23.195 167.251 23.625 167.551 24.165C167.851 24.705 168.001 25.3 168.001 25.95C168.001 26.05 167.996 26.16 167.986 26.28C167.986 26.39 167.981 26.515 167.971 26.655H162.181C162.231 27.375 162.466 27.925 162.886 28.305C163.316 28.675 163.811 28.86 164.371 28.86C164.821 28.86 165.196 28.76 165.496 28.56C165.806 28.35 166.036 28.07 166.186 27.72H167.776C167.576 28.42 167.176 29.005 166.576 29.475C165.986 29.945 165.251 30.18 164.371 30.18ZM164.371 23.685C163.841 23.685 163.371 23.845 162.961 24.165C162.551 24.475 162.301 24.945 162.211 25.575H166.411C166.381 24.995 166.176 24.535 165.796 24.195C165.416 23.855 164.941 23.685 164.371 23.685Z" fill="white"/>
<path d="M361.108 0.403961C361.508 -0.134653 362.314 -0.134654 362.714 0.40396L364.624 2.97622C365.113 3.63606 364.642 4.57226 363.821 4.57226L360.002 4.57226C359.18 4.57226 358.709 3.63606 359.199 2.97622L361.108 0.403961Z" fill="black"/>
<path d="M216.574 105V95.51H219.122C219.737 95.51 220.27 95.6313 220.721 95.874C221.18 96.108 221.535 96.4417 221.787 96.875C222.038 97.2997 222.164 97.8023 222.164 98.383V102.114C222.164 102.695 222.038 103.202 221.787 103.635C221.535 104.068 221.18 104.406 220.721 104.649C220.27 104.883 219.737 105 219.122 105H216.574ZM217.861 103.856H219.122C219.668 103.856 220.097 103.7 220.409 103.388C220.721 103.076 220.877 102.651 220.877 102.114V98.383C220.877 97.8457 220.721 97.4253 220.409 97.122C220.097 96.81 219.668 96.654 219.122 96.654H217.861V103.856ZM227.125 105.104C226.249 105.104 225.556 104.861 225.045 104.376C224.533 103.882 224.278 103.21 224.278 102.361V100.489C224.278 99.6397 224.533 98.9723 225.045 98.487C225.556 97.993 226.249 97.746 227.125 97.746C228 97.746 228.693 97.993 229.205 98.487C229.716 98.9723 229.972 99.6353 229.972 100.476V102.361C229.972 103.21 229.716 103.882 229.205 104.376C228.693 104.861 228 105.104 227.125 105.104ZM227.125 103.973C227.61 103.973 227.991 103.839 228.269 103.57C228.546 103.293 228.685 102.89 228.685 102.361V100.489C228.685 99.9603 228.546 99.5617 228.269 99.293C227.991 99.0157 227.61 98.877 227.125 98.877C226.639 98.877 226.258 99.0157 225.981 99.293C225.703 99.5617 225.565 99.9603 225.565 100.489V102.361C225.565 102.89 225.703 103.293 225.981 103.57C226.258 103.839 226.639 103.973 227.125 103.973ZM232.554 105L231.423 97.85H232.515L233.204 102.738C233.23 102.946 233.251 103.176 233.269 103.427C233.295 103.67 233.316 103.869 233.334 104.025H233.386C233.403 103.86 233.425 103.657 233.451 103.414C233.485 103.171 233.52 102.946 233.555 102.738L234.309 97.85H235.531L236.285 102.738C236.319 102.955 236.35 103.184 236.376 103.427C236.41 103.661 236.436 103.86 236.454 104.025H236.506C236.532 103.869 236.558 103.67 236.584 103.427C236.61 103.176 236.636 102.946 236.662 102.738L237.377 97.85H238.417L237.234 105H235.856L235.115 100.19C235.08 99.956 235.045 99.7133 235.011 99.462C234.976 99.202 234.95 98.994 234.933 98.838H234.881C234.863 98.994 234.837 99.202 234.803 99.462C234.777 99.7133 234.746 99.956 234.712 100.19L233.945 105H232.554ZM239.958 105V97.85H241.232V99.215H241.258C241.319 98.7383 241.514 98.37 241.843 98.11C242.173 97.85 242.61 97.72 243.156 97.72C243.867 97.72 244.435 97.9453 244.859 98.396C245.284 98.8467 245.496 99.4533 245.496 100.216V105H244.209V100.359C244.209 99.8737 244.079 99.501 243.819 99.241C243.559 98.9723 243.204 98.838 242.753 98.838C242.285 98.838 241.917 98.981 241.648 99.267C241.38 99.5443 241.245 99.943 241.245 100.463V105H239.958ZM251.575 105C250.925 105 250.405 104.809 250.015 104.428C249.625 104.047 249.43 103.54 249.43 102.907V96.68H246.986V95.51H250.717V102.894C250.717 103.18 250.795 103.41 250.951 103.583C251.116 103.748 251.337 103.83 251.614 103.83H253.785V105H251.575ZM258.304 105.104C257.429 105.104 256.736 104.861 256.224 104.376C255.713 103.882 255.457 103.21 255.457 102.361V100.489C255.457 99.6397 255.713 98.9723 256.224 98.487C256.736 97.993 257.429 97.746 258.304 97.746C259.18 97.746 259.873 97.993 260.384 98.487C260.896 98.9723 261.151 99.6353 261.151 100.476V102.361C261.151 103.21 260.896 103.882 260.384 104.376C259.873 104.861 259.18 105.104 258.304 105.104ZM258.304 103.973C258.79 103.973 259.171 103.839 259.448 103.57C259.726 103.293 259.864 102.89 259.864 102.361V100.489C259.864 99.9603 259.726 99.5617 259.448 99.293C259.171 99.0157 258.79 98.877 258.304 98.877C257.819 98.877 257.438 99.0157 257.16 99.293C256.883 99.5617 256.744 99.9603 256.744 100.489V102.361C256.744 102.89 256.883 103.293 257.16 103.57C257.438 103.839 257.819 103.973 258.304 103.973ZM265.436 105.13C264.682 105.13 264.089 104.939 263.655 104.558C263.231 104.168 263.018 103.644 263.018 102.985C263.018 102.309 263.239 101.78 263.681 101.399C264.132 101.009 264.743 100.814 265.514 100.814H267.594V100.138C267.594 99.722 267.464 99.4013 267.204 99.176C266.953 98.942 266.602 98.825 266.151 98.825C265.744 98.825 265.402 98.916 265.124 99.098C264.856 99.2713 264.691 99.501 264.63 99.787H263.369C263.404 99.371 263.547 99.0113 263.798 98.708C264.05 98.396 264.379 98.1533 264.786 97.98C265.194 97.8067 265.653 97.72 266.164 97.72C266.996 97.72 267.655 97.9367 268.14 98.37C268.634 98.7947 268.881 99.371 268.881 100.099V105H267.62V103.674H267.607C267.547 104.125 267.321 104.48 266.931 104.74C266.541 105 266.043 105.13 265.436 105.13ZM265.787 104.129C266.307 104.129 266.736 103.999 267.074 103.739C267.421 103.47 267.594 103.128 267.594 102.712V101.737H265.54C265.159 101.737 264.856 101.841 264.63 102.049C264.414 102.257 264.305 102.539 264.305 102.894C264.305 103.284 264.435 103.587 264.695 103.804C264.955 104.021 265.319 104.129 265.787 104.129ZM273.426 105.13C272.707 105.13 272.13 104.892 271.697 104.415C271.264 103.93 271.047 103.275 271.047 102.452V100.398C271.047 99.5747 271.264 98.9247 271.697 98.448C272.13 97.9627 272.707 97.72 273.426 97.72C273.946 97.72 274.375 97.8543 274.713 98.123C275.06 98.383 275.276 98.7383 275.363 99.189H275.389L275.363 97.564V95.51H276.65V105H275.376V103.648H275.363C275.276 104.116 275.06 104.48 274.713 104.74C274.375 105 273.946 105.13 273.426 105.13ZM273.868 104.012C274.327 104.012 274.691 103.869 274.96 103.583C275.229 103.297 275.363 102.894 275.363 102.374V100.476C275.363 99.956 275.229 99.553 274.96 99.267C274.691 98.981 274.327 98.838 273.868 98.838C273.391 98.838 273.014 98.981 272.737 99.267C272.468 99.5443 272.334 99.943 272.334 100.463V102.374C272.334 102.903 272.468 103.31 272.737 103.596C273.014 103.873 273.391 104.012 273.868 104.012ZM288.847 105V96.68H286.273V95.51H292.695V96.68H290.134V105H288.847ZM294.744 105V97.85H296.018V99.215H296.044C296.105 98.7383 296.3 98.37 296.629 98.11C296.967 97.85 297.409 97.72 297.955 97.72C298.692 97.72 299.281 97.9583 299.723 98.435C300.165 98.9117 300.386 99.553 300.386 100.359V100.879H299.086V100.463C299.086 99.9517 298.952 99.553 298.683 99.267C298.423 98.981 298.037 98.838 297.526 98.838C296.529 98.838 296.031 99.3883 296.031 100.489V105H294.744ZM304.411 105.13C303.657 105.13 303.063 104.939 302.63 104.558C302.205 104.168 301.993 103.644 301.993 102.985C301.993 102.309 302.214 101.78 302.656 101.399C303.106 101.009 303.717 100.814 304.489 100.814H306.569V100.138C306.569 99.722 306.439 99.4013 306.179 99.176C305.927 98.942 305.576 98.825 305.126 98.825C304.718 98.825 304.376 98.916 304.099 99.098C303.83 99.2713 303.665 99.501 303.605 99.787H302.344C302.378 99.371 302.521 99.0113 302.773 98.708C303.024 98.396 303.353 98.1533 303.761 97.98C304.168 97.8067 304.627 97.72 305.139 97.72C305.971 97.72 306.629 97.9367 307.115 98.37C307.609 98.7947 307.856 99.371 307.856 100.099V105H306.595V103.674H306.582C306.521 104.125 306.296 104.48 305.906 104.74C305.516 105 305.017 105.13 304.411 105.13ZM304.762 104.129C305.282 104.129 305.711 103.999 306.049 103.739C306.395 103.47 306.569 103.128 306.569 102.712V101.737H304.515C304.133 101.737 303.83 101.841 303.605 102.049C303.388 102.257 303.28 102.539 303.28 102.894C303.28 103.284 303.41 103.587 303.67 103.804C303.93 104.021 304.294 104.129 304.762 104.129ZM310.113 105V97.85H311.387V99.215H311.413C311.473 98.7383 311.668 98.37 311.998 98.11C312.327 97.85 312.765 97.72 313.311 97.72C314.021 97.72 314.589 97.9453 315.014 98.396C315.438 98.8467 315.651 99.4533 315.651 100.216V105H314.364V100.359C314.364 99.8737 314.234 99.501 313.974 99.241C313.714 98.9723 313.358 98.838 312.908 98.838C312.44 98.838 312.071 98.981 311.803 99.267C311.534 99.5443 311.4 99.943 311.4 100.463V105H310.113ZM320.43 105.104C319.676 105.104 319.056 104.931 318.571 104.584C318.094 104.237 317.856 103.765 317.856 103.167H319.169C319.169 103.436 319.286 103.644 319.52 103.791C319.762 103.93 320.074 103.999 320.456 103.999H321.002C321.452 103.999 321.786 103.912 322.003 103.739C322.219 103.557 322.328 103.319 322.328 103.024C322.328 102.729 322.224 102.5 322.016 102.335C321.808 102.17 321.513 102.053 321.132 101.984L320.157 101.841C318.735 101.616 318.025 100.927 318.025 99.774C318.025 99.1153 318.241 98.6127 318.675 98.266C319.108 97.9193 319.728 97.746 320.534 97.746H321.028C321.773 97.746 322.371 97.915 322.822 98.253C323.272 98.5823 323.498 99.02 323.498 99.566H322.185C322.185 99.3493 322.076 99.176 321.86 99.046C321.652 98.916 321.366 98.851 321.002 98.851H320.508C320.109 98.851 319.806 98.9333 319.598 99.098C319.39 99.254 319.286 99.4793 319.286 99.774C319.286 100.277 319.641 100.584 320.352 100.697L321.327 100.853C322.107 100.974 322.679 101.204 323.043 101.542C323.407 101.871 323.589 102.348 323.589 102.972C323.589 103.639 323.368 104.164 322.926 104.545C322.492 104.918 321.842 105.104 320.976 105.104H320.43ZM328.511 105.13C327.635 105.13 326.933 104.887 326.405 104.402C325.876 103.908 325.612 103.232 325.612 102.374V100.463C325.612 99.6137 325.876 98.9463 326.405 98.461C326.933 97.967 327.635 97.72 328.511 97.72C329.351 97.72 330.027 97.9453 330.539 98.396C331.05 98.838 331.319 99.4447 331.345 100.216H330.071C330.045 99.7827 329.893 99.449 329.616 99.215C329.338 98.9723 328.97 98.851 328.511 98.851C328.017 98.851 327.622 98.994 327.328 99.28C327.042 99.5573 326.899 99.9517 326.899 100.463V102.374C326.899 102.894 327.042 103.293 327.328 103.57C327.622 103.847 328.017 103.986 328.511 103.986C328.97 103.986 329.338 103.869 329.616 103.635C329.893 103.401 330.045 103.067 330.071 102.634H331.345C331.319 103.405 331.05 104.016 330.539 104.467C330.027 104.909 329.351 105.13 328.511 105.13ZM333.719 105V97.85H334.993V99.215H335.019C335.079 98.7383 335.274 98.37 335.604 98.11C335.942 97.85 336.384 97.72 336.93 97.72C337.666 97.72 338.256 97.9583 338.698 98.435C339.14 98.9117 339.361 99.553 339.361 100.359V100.879H338.061V100.463C338.061 99.9517 337.926 99.553 337.658 99.267C337.398 98.981 337.012 98.838 336.501 98.838C335.504 98.838 335.006 99.3883 335.006 100.489V105H333.719ZM341.227 105V103.83H343.736V99.02H341.487V97.85H345.023V103.83H347.376V105H341.227ZM344.256 96.589C343.962 96.589 343.728 96.5153 343.554 96.368C343.381 96.212 343.294 96.004 343.294 95.744C343.294 95.4753 343.381 95.263 343.554 95.107C343.728 94.951 343.962 94.873 344.256 94.873C344.551 94.873 344.785 94.951 344.958 95.107C345.132 95.263 345.218 95.4753 345.218 95.744C345.218 96.004 345.132 96.212 344.958 96.368C344.785 96.5153 344.551 96.589 344.256 96.589ZM349.1 107.34V97.85H350.374V99.189H350.387C350.474 98.7297 350.686 98.37 351.024 98.11C351.371 97.85 351.809 97.72 352.337 97.72C353.048 97.72 353.62 97.9627 354.053 98.448C354.487 98.9247 354.703 99.5747 354.703 100.398V102.439C354.703 103.271 354.487 103.93 354.053 104.415C353.629 104.892 353.057 105.13 352.337 105.13C351.817 105.13 351.384 105 351.037 104.74C350.691 104.471 350.474 104.107 350.387 103.648H350.361L350.387 105.273V107.34H349.1ZM351.895 104.012C352.372 104.012 352.745 103.873 353.013 103.596C353.282 103.31 353.416 102.903 353.416 102.374V100.463C353.416 99.943 353.282 99.5443 353.013 99.267C352.745 98.981 352.372 98.838 351.895 98.838C351.427 98.838 351.059 98.981 350.79 99.267C350.522 99.553 350.387 99.956 350.387 100.476V102.374C350.387 102.894 350.522 103.297 350.79 103.583C351.059 103.869 351.427 104.012 351.895 104.012ZM360.418 105C359.803 105 359.313 104.822 358.949 104.467C358.594 104.112 358.416 103.639 358.416 103.05V99.02H356.414V97.85H358.416V95.835H359.703V97.85H362.524V99.02H359.703V103.037C359.703 103.271 359.768 103.462 359.898 103.609C360.037 103.756 360.219 103.83 360.444 103.83H362.394V105H360.418Z" fill="white"/>
<circle cx="200.43" cy="101" r="5" fill="white"/>
<path fill-rule="evenodd" clip-rule="evenodd" d="M202.496 99.4367C202.561 99.5024 202.598 99.5915 202.598 99.6844C202.598 99.7772 202.561 99.8663 202.496 99.932L199.87 102.558C199.835 102.593 199.794 102.62 199.749 102.639C199.703 102.658 199.655 102.667 199.606 102.667C199.556 102.667 199.508 102.658 199.462 102.639C199.417 102.62 199.376 102.593 199.341 102.558L198.037 101.253C198.003 101.221 197.976 101.182 197.958 101.14C197.94 101.097 197.93 101.051 197.93 101.005C197.929 100.958 197.938 100.912 197.956 100.869C197.973 100.826 197.999 100.787 198.032 100.754C198.065 100.721 198.104 100.695 198.147 100.677C198.19 100.66 198.237 100.651 198.283 100.651C198.33 100.652 198.376 100.661 198.418 100.68C198.461 100.698 198.5 100.725 198.532 100.758L199.605 101.831L202 99.4367C202.033 99.4041 202.071 99.3783 202.114 99.3607C202.156 99.3431 202.202 99.334 202.248 99.334C202.294 99.334 202.339 99.3431 202.382 99.3607C202.424 99.3783 202.463 99.4041 202.496 99.4367Z" fill="#151515" stroke="#151515" stroke-width="0.7"/>
<path d="M219.382 81.13C218.506 81.13 217.809 80.8873 217.289 80.402C216.777 79.908 216.522 79.232 216.522 78.374V74.123C216.522 73.2737 216.777 72.6063 217.289 72.121C217.809 71.627 218.506 71.38 219.382 71.38C220.248 71.38 220.937 71.627 221.449 72.121C221.969 72.615 222.229 73.2823 222.229 74.123H220.942C220.942 73.6117 220.803 73.2173 220.526 72.94C220.248 72.6627 219.867 72.524 219.382 72.524C218.888 72.524 218.502 72.6627 218.225 72.94C217.947 73.2173 217.809 73.6117 217.809 74.123V78.374C217.809 78.894 217.947 79.2927 218.225 79.57C218.502 79.8473 218.888 79.986 219.382 79.986C219.867 79.986 220.248 79.8473 220.526 79.57C220.803 79.2927 220.942 78.894 220.942 78.374H222.229C222.229 79.2233 221.969 79.895 221.449 80.389C220.937 80.883 220.248 81.13 219.382 81.13ZM224.369 81V71.51H225.656V73.85L225.643 75.215H225.669C225.729 74.7383 225.924 74.37 226.254 74.11C226.583 73.85 227.021 73.72 227.567 73.72C228.277 73.72 228.845 73.9453 229.27 74.396C229.694 74.8467 229.907 75.4533 229.907 76.216V81H228.62V76.359C228.62 75.8737 228.49 75.4967 228.23 75.228C227.97 74.9507 227.614 74.812 227.164 74.812C226.696 74.812 226.327 74.9593 226.059 75.254C225.79 75.54 225.656 75.943 225.656 76.463V81H224.369ZM234.257 81.13C233.503 81.13 232.909 80.9393 232.476 80.558C232.051 80.168 231.839 79.6437 231.839 78.985C231.839 78.309 232.06 77.7803 232.502 77.399C232.952 77.009 233.563 76.814 234.335 76.814H236.415V76.138C236.415 75.722 236.285 75.4013 236.025 75.176C235.773 74.942 235.422 74.825 234.972 74.825C234.564 74.825 234.222 74.916 233.945 75.098C233.676 75.2713 233.511 75.501 233.451 75.787H232.19C232.224 75.371 232.367 75.0113 232.619 74.708C232.87 74.396 233.199 74.1533 233.607 73.98C234.014 73.8067 234.473 73.72 234.985 73.72C235.817 73.72 236.475 73.9367 236.961 74.37C237.455 74.7947 237.702 75.371 237.702 76.099V81H236.441V79.674H236.428C236.367 80.1247 236.142 80.48 235.752 80.74C235.362 81 234.863 81.13 234.257 81.13ZM234.608 80.129C235.128 80.129 235.557 79.999 235.895 79.739C236.241 79.4703 236.415 79.128 236.415 78.712V77.737H234.361C233.979 77.737 233.676 77.841 233.451 78.049C233.234 78.257 233.126 78.5387 233.126 78.894C233.126 79.284 233.256 79.5873 233.516 79.804C233.776 80.0207 234.14 80.129 234.608 80.129ZM243.494 81C242.879 81 242.389 80.8223 242.025 80.467C241.67 80.1117 241.492 79.6393 241.492 79.05V75.02H239.49V73.85H241.492V71.835H242.779V73.85H245.6V75.02H242.779V79.037C242.779 79.271 242.844 79.4617 242.974 79.609C243.113 79.7563 243.295 79.83 243.52 79.83H245.47V81H243.494ZM250.561 81.13C249.686 81.13 248.988 80.8873 248.468 80.402C247.957 79.908 247.701 79.232 247.701 78.374V74.123C247.701 73.2737 247.957 72.6063 248.468 72.121C248.988 71.627 249.686 71.38 250.561 71.38C251.428 71.38 252.117 71.627 252.628 72.121C253.148 72.615 253.408 73.2823 253.408 74.123H252.121C252.121 73.6117 251.983 73.2173 251.705 72.94C251.428 72.6627 251.047 72.524 250.561 72.524C250.067 72.524 249.682 72.6627 249.404 72.94C249.127 73.2173 248.988 73.6117 248.988 74.123V78.374C248.988 78.894 249.127 79.2927 249.404 79.57C249.682 79.8473 250.067 79.986 250.561 79.986C251.047 79.986 251.428 79.8473 251.705 79.57C251.983 79.2927 252.121 78.894 252.121 78.374V77.269H250.275V76.112H253.408V78.374C253.408 79.2233 253.148 79.895 252.628 80.389C252.117 80.883 251.428 81.13 250.561 81.13ZM255.548 81V71.51H258.629C259.236 71.51 259.76 71.627 260.202 71.861C260.644 72.095 260.987 72.4243 261.229 72.849C261.472 73.265 261.593 73.7633 261.593 74.344C261.593 74.916 261.472 75.4143 261.229 75.839C260.987 76.255 260.64 76.58 260.189 76.814C259.747 77.048 259.227 77.165 258.629 77.165H256.835V81H255.548ZM256.835 76.021H258.629C259.132 76.021 259.531 75.8693 259.825 75.566C260.12 75.254 260.267 74.8467 260.267 74.344C260.267 73.8327 260.12 73.4253 259.825 73.122C259.531 72.81 259.132 72.654 258.629 72.654H256.835V76.021ZM265.462 81V72.68H262.888V71.51H269.31V72.68H266.749V81H265.462ZM279.102 81V79.83H281.039V72.68H279.102V71.51H284.276V72.68H282.339V79.83H284.276V81H279.102ZM286.728 81V73.85H288.002V75.215H288.028C288.089 74.7383 288.284 74.37 288.613 74.11C288.942 73.85 289.38 73.72 289.926 73.72C290.637 73.72 291.204 73.9453 291.629 74.396C292.054 74.8467 292.266 75.4533 292.266 76.216V81H290.979V76.359C290.979 75.8737 290.849 75.501 290.589 75.241C290.329 74.9723 289.974 74.838 289.523 74.838C289.055 74.838 288.687 74.981 288.418 75.267C288.149 75.5443 288.015 75.943 288.015 76.463V81H286.728ZM298.059 81C297.444 81 296.954 80.8223 296.59 80.467C296.235 80.1117 296.057 79.6393 296.057 79.05V75.02H294.055V73.85H296.057V71.835H297.344V73.85H300.165V75.02H297.344V79.037C297.344 79.271 297.409 79.4617 297.539 79.609C297.678 79.7563 297.86 79.83 298.085 79.83H300.035V81H298.059ZM305.074 81.13C304.502 81.13 303.999 81.0173 303.566 80.792C303.141 80.558 302.812 80.2373 302.578 79.83C302.344 79.414 302.227 78.9287 302.227 78.374V76.463C302.227 75.917 302.344 75.4403 302.578 75.033C302.812 74.617 303.141 74.2963 303.566 74.071C303.999 73.837 304.502 73.72 305.074 73.72C305.646 73.72 306.144 73.837 306.569 74.071C307.002 74.2963 307.336 74.617 307.57 75.033C307.804 75.4403 307.921 75.917 307.921 76.463V77.737H303.488V78.374C303.488 78.9287 303.622 79.349 303.891 79.635C304.168 79.921 304.562 80.064 305.074 80.064C305.507 80.064 305.854 79.9903 306.114 79.843C306.374 79.687 306.538 79.4573 306.608 79.154H307.882C307.795 79.7607 307.492 80.2417 306.972 80.597C306.46 80.9523 305.828 81.13 305.074 81.13ZM303.488 76.463V76.814H306.673V76.463C306.673 75.917 306.534 75.501 306.257 75.215C305.988 74.9203 305.594 74.773 305.074 74.773C304.554 74.773 304.159 74.9203 303.891 75.215C303.622 75.501 303.488 75.917 303.488 76.463ZM311.036 83.34V82.196H313.272C313.982 82.196 314.338 81.858 314.338 81.182V80.363L314.364 79.063H314.338C314.286 79.5223 314.091 79.8863 313.753 80.155C313.415 80.4237 312.977 80.558 312.44 80.558C311.703 80.558 311.122 80.3153 310.698 79.83C310.273 79.3447 310.061 78.6903 310.061 77.867V76.398C310.061 75.5747 310.273 74.9247 310.698 74.448C311.122 73.9627 311.703 73.72 312.44 73.72C312.977 73.72 313.415 73.8543 313.753 74.123C314.091 74.383 314.286 74.747 314.338 75.215H314.351L314.338 73.85H315.612V81.195C315.612 81.8623 315.404 82.3867 314.988 82.768C314.572 83.1493 314 83.34 313.272 83.34H311.036ZM312.843 79.44C313.302 79.44 313.666 79.297 313.935 79.011C314.203 78.725 314.338 78.322 314.338 77.802V76.463C314.338 75.9517 314.203 75.553 313.935 75.267C313.666 74.981 313.302 74.838 312.843 74.838C312.366 74.838 311.998 74.981 311.738 75.267C311.478 75.5443 311.348 75.943 311.348 76.463V77.802C311.348 78.3307 311.478 78.738 311.738 79.024C311.998 79.3013 312.366 79.44 312.843 79.44ZM318.129 81V73.85H319.403V75.215H319.429C319.489 74.7383 319.684 74.37 320.014 74.11C320.352 73.85 320.794 73.72 321.34 73.72C322.076 73.72 322.666 73.9583 323.108 74.435C323.55 74.9117 323.771 75.553 323.771 76.359V76.879H322.471V76.463C322.471 75.9517 322.336 75.553 322.068 75.267C321.808 74.981 321.422 74.838 320.911 74.838C319.914 74.838 319.416 75.3883 319.416 76.489V81H318.129ZM327.796 81.13C327.042 81.13 326.448 80.9393 326.015 80.558C325.59 80.168 325.378 79.6437 325.378 78.985C325.378 78.309 325.599 77.7803 326.041 77.399C326.491 77.009 327.102 76.814 327.874 76.814H329.954V76.138C329.954 75.722 329.824 75.4013 329.564 75.176C329.312 74.942 328.961 74.825 328.511 74.825C328.103 74.825 327.761 74.916 327.484 75.098C327.215 75.2713 327.05 75.501 326.99 75.787H325.729C325.763 75.371 325.906 75.0113 326.158 74.708C326.409 74.396 326.738 74.1533 327.146 73.98C327.553 73.8067 328.012 73.72 328.524 73.72C329.356 73.72 330.014 73.9367 330.5 74.37C330.994 74.7947 331.241 75.371 331.241 76.099V81H329.98V79.674H329.967C329.906 80.1247 329.681 80.48 329.291 80.74C328.901 81 328.402 81.13 327.796 81.13ZM328.147 80.129C328.667 80.129 329.096 79.999 329.434 79.739C329.78 79.4703 329.954 79.128 329.954 78.712V77.737H327.9C327.518 77.737 327.215 77.841 326.99 78.049C326.773 78.257 326.665 78.5387 326.665 78.894C326.665 79.284 326.795 79.5873 327.055 79.804C327.315 80.0207 327.679 80.129 328.147 80.129ZM337.034 81C336.418 81 335.929 80.8223 335.565 80.467C335.209 80.1117 335.032 79.6393 335.032 79.05V75.02H333.03V73.85H335.032V71.835H336.319V73.85H339.14V75.02H336.319V79.037C336.319 79.271 336.384 79.4617 336.514 79.609C336.652 79.7563 336.834 79.83 337.06 79.83H339.01V81H337.034ZM341.227 81V79.83H343.736V75.02H341.487V73.85H345.023V79.83H347.376V81H341.227ZM344.256 72.589C343.962 72.589 343.728 72.5153 343.554 72.368C343.381 72.212 343.294 72.004 343.294 71.744C343.294 71.4753 343.381 71.263 343.554 71.107C343.728 70.951 343.962 70.873 344.256 70.873C344.551 70.873 344.785 70.951 344.958 71.107C345.132 71.263 345.218 71.4753 345.218 71.744C345.218 72.004 345.132 72.212 344.958 72.368C344.785 72.5153 344.551 72.589 344.256 72.589ZM351.843 81.104C350.968 81.104 350.275 80.8613 349.763 80.376C349.252 79.882 348.996 79.2103 348.996 78.361V76.489C348.996 75.6397 349.252 74.9723 349.763 74.487C350.275 73.993 350.968 73.746 351.843 73.746C352.719 73.746 353.412 73.993 353.923 74.487C354.435 74.9723 354.69 75.6353 354.69 76.476V78.361C354.69 79.2103 354.435 79.882 353.923 80.376C353.412 80.8613 352.719 81.104 351.843 81.104ZM351.843 79.973C352.329 79.973 352.71 79.8387 352.987 79.57C353.265 79.2927 353.403 78.8897 353.403 78.361V76.489C353.403 75.9603 353.265 75.5617 352.987 75.293C352.71 75.0157 352.329 74.877 351.843 74.877C351.358 74.877 350.977 75.0157 350.699 75.293C350.422 75.5617 350.283 75.9603 350.283 76.489V78.361C350.283 78.8897 350.422 79.2927 350.699 79.57C350.977 79.8387 351.358 79.973 351.843 79.973ZM356.882 81V73.85H358.156V75.215H358.182C358.243 74.7383 358.438 74.37 358.767 74.11C359.097 73.85 359.534 73.72 360.08 73.72C360.791 73.72 361.359 73.9453 361.783 74.396C362.208 74.8467 362.42 75.4533 362.42 76.216V81H361.133V76.359C361.133 75.8737 361.003 75.501 360.743 75.241C360.483 74.9723 360.128 74.838 359.677 74.838C359.209 74.838 358.841 74.981 358.572 75.267C358.304 75.5443 358.169 75.943 358.169 76.463V81H356.882Z" fill="white"/>
<circle cx="200.43" cy="77" r="5" fill="white"/>
<path fill-rule="evenodd" clip-rule="evenodd" d="M202.496 75.4367C202.561 75.5024 202.598 75.5915 202.598 75.6844C202.598 75.7772 202.561 75.8663 202.496 75.932L199.87 78.5578C199.835 78.5925 199.794 78.6201 199.749 78.6389C199.703 78.6576 199.655 78.6673 199.606 78.6673C199.556 78.6673 199.508 78.6576 199.462 78.6389C199.417 78.6201 199.376 78.5925 199.341 78.5578L198.037 77.2535C198.003 77.2211 197.976 77.1825 197.958 77.1397C197.94 77.097 197.93 77.051 197.93 77.0045C197.929 76.958 197.938 76.9119 197.956 76.8688C197.973 76.8258 197.999 76.7867 198.032 76.7538C198.065 76.7209 198.104 76.6949 198.147 76.6772C198.19 76.6596 198.237 76.6508 198.283 76.6512C198.33 76.6516 198.376 76.6612 198.418 76.6796C198.461 76.698 198.5 76.7246 198.532 76.7581L199.605 77.8315L202 75.4367C202.033 75.4041 202.071 75.3783 202.114 75.3607C202.156 75.3431 202.202 75.334 202.248 75.334C202.294 75.334 202.339 75.3431 202.382 75.3607C202.424 75.3783 202.463 75.4041 202.496 75.4367Z" fill="#151515" stroke="#151515" stroke-width="0.7"/>
<path d="M216.548 129V119.51H218.212L221.046 127.518C221.02 127.293 220.994 127.015 220.968 126.686C220.95 126.348 220.933 126.001 220.916 125.646C220.907 125.282 220.903 124.94 220.903 124.619V119.51H222.125V129H220.448L217.64 120.992C217.657 121.217 217.674 121.495 217.692 121.824C217.709 122.145 217.722 122.483 217.731 122.838C217.748 123.193 217.757 123.527 217.757 123.839V129H216.548ZM227.125 129.104C226.249 129.104 225.556 128.861 225.045 128.376C224.533 127.882 224.278 127.21 224.278 126.361V124.489C224.278 123.64 224.533 122.972 225.045 122.487C225.556 121.993 226.249 121.746 227.125 121.746C228 121.746 228.693 121.993 229.205 122.487C229.716 122.972 229.972 123.635 229.972 124.476V126.361C229.972 127.21 229.716 127.882 229.205 128.376C228.693 128.861 228 129.104 227.125 129.104ZM227.125 127.973C227.61 127.973 227.991 127.839 228.269 127.57C228.546 127.293 228.685 126.89 228.685 126.361V124.489C228.685 123.96 228.546 123.562 228.269 123.293C227.991 123.016 227.61 122.877 227.125 122.877C226.639 122.877 226.258 123.016 225.981 123.293C225.703 123.562 225.565 123.96 225.565 124.489V126.361C225.565 126.89 225.703 127.293 225.981 127.57C226.258 127.839 226.639 127.973 227.125 127.973ZM239.737 129V119.51H241.375L242.363 122.565C242.45 122.851 242.524 123.128 242.584 123.397C242.654 123.657 242.706 123.856 242.74 123.995C242.766 123.856 242.81 123.657 242.87 123.397C242.94 123.128 243.018 122.847 243.104 122.552L244.053 119.51H245.691V129H244.456V124.645C244.456 123.848 244.487 123.076 244.547 122.331C244.617 121.577 244.699 120.862 244.794 120.186L243.312 124.853H242.116L240.621 120.212C240.708 120.853 240.786 121.534 240.855 122.253C240.933 122.972 240.972 123.77 240.972 124.645V129H239.737ZM250.509 129.13C249.937 129.13 249.435 129.017 249.001 128.792C248.577 128.558 248.247 128.237 248.013 127.83C247.779 127.414 247.662 126.929 247.662 126.374V124.463C247.662 123.917 247.779 123.44 248.013 123.033C248.247 122.617 248.577 122.296 249.001 122.071C249.435 121.837 249.937 121.72 250.509 121.72C251.081 121.72 251.58 121.837 252.004 122.071C252.438 122.296 252.771 122.617 253.005 123.033C253.239 123.44 253.356 123.917 253.356 124.463V125.737H248.923V126.374C248.923 126.929 249.058 127.349 249.326 127.635C249.604 127.921 249.998 128.064 250.509 128.064C250.943 128.064 251.289 127.99 251.549 127.843C251.809 127.687 251.974 127.457 252.043 127.154H253.317C253.231 127.761 252.927 128.242 252.407 128.597C251.896 128.952 251.263 129.13 250.509 129.13ZM248.923 124.463V124.814H252.108V124.463C252.108 123.917 251.97 123.501 251.692 123.215C251.424 122.92 251.029 122.773 250.509 122.773C249.989 122.773 249.595 122.92 249.326 123.215C249.058 123.501 248.923 123.917 248.923 124.463ZM258.07 129.104C257.316 129.104 256.697 128.931 256.211 128.584C255.735 128.237 255.496 127.765 255.496 127.167H256.809C256.809 127.436 256.926 127.644 257.16 127.791C257.403 127.93 257.715 127.999 258.096 127.999H258.642C259.093 127.999 259.427 127.912 259.643 127.739C259.86 127.557 259.968 127.319 259.968 127.024C259.968 126.729 259.864 126.5 259.656 126.335C259.448 126.17 259.154 126.053 258.772 125.984L257.797 125.841C256.376 125.616 255.665 124.927 255.665 123.774C255.665 123.115 255.882 122.613 256.315 122.266C256.749 121.919 257.368 121.746 258.174 121.746H258.668C259.414 121.746 260.012 121.915 260.462 122.253C260.913 122.582 261.138 123.02 261.138 123.566H259.825C259.825 123.349 259.717 123.176 259.5 123.046C259.292 122.916 259.006 122.851 258.642 122.851H258.148C257.75 122.851 257.446 122.933 257.238 123.098C257.03 123.254 256.926 123.479 256.926 123.774C256.926 124.277 257.282 124.584 257.992 124.697L258.967 124.853C259.747 124.974 260.319 125.204 260.683 125.542C261.047 125.871 261.229 126.348 261.229 126.972C261.229 127.639 261.008 128.164 260.566 128.545C260.133 128.918 259.483 129.104 258.616 129.104H258.07ZM265.865 129.104C265.111 129.104 264.492 128.931 264.006 128.584C263.53 128.237 263.291 127.765 263.291 127.167H264.604C264.604 127.436 264.721 127.644 264.955 127.791C265.198 127.93 265.51 127.999 265.891 127.999H266.437C266.888 127.999 267.222 127.912 267.438 127.739C267.655 127.557 267.763 127.319 267.763 127.024C267.763 126.729 267.659 126.5 267.451 126.335C267.243 126.17 266.949 126.053 266.567 125.984L265.592 125.841C264.171 125.616 263.46 124.927 263.46 123.774C263.46 123.115 263.677 122.613 264.11 122.266C264.544 121.919 265.163 121.746 265.969 121.746H266.463C267.209 121.746 267.807 121.915 268.257 122.253C268.708 122.582 268.933 123.02 268.933 123.566H267.62C267.62 123.349 267.512 123.176 267.295 123.046C267.087 122.916 266.801 122.851 266.437 122.851H265.943C265.545 122.851 265.241 122.933 265.033 123.098C264.825 123.254 264.721 123.479 264.721 123.774C264.721 124.277 265.077 124.584 265.787 124.697L266.762 124.853C267.542 124.974 268.114 125.204 268.478 125.542C268.842 125.871 269.024 126.348 269.024 126.972C269.024 127.639 268.803 128.164 268.361 128.545C267.928 128.918 267.278 129.104 266.411 129.104H265.865ZM273.231 129.13C272.477 129.13 271.883 128.939 271.45 128.558C271.025 128.168 270.813 127.644 270.813 126.985C270.813 126.309 271.034 125.78 271.476 125.399C271.927 125.009 272.538 124.814 273.309 124.814H275.389V124.138C275.389 123.722 275.259 123.401 274.999 123.176C274.748 122.942 274.397 122.825 273.946 122.825C273.539 122.825 273.196 122.916 272.919 123.098C272.65 123.271 272.486 123.501 272.425 123.787H271.164C271.199 123.371 271.342 123.011 271.593 122.708C271.844 122.396 272.174 122.153 272.581 121.98C272.988 121.807 273.448 121.72 273.959 121.72C274.791 121.72 275.45 121.937 275.935 122.37C276.429 122.795 276.676 123.371 276.676 124.099V129H275.415V127.674H275.402C275.341 128.125 275.116 128.48 274.726 128.74C274.336 129 273.838 129.13 273.231 129.13ZM273.582 128.129C274.102 128.129 274.531 127.999 274.869 127.739C275.216 127.47 275.389 127.128 275.389 126.712V125.737H273.335C272.954 125.737 272.65 125.841 272.425 126.049C272.208 126.257 272.1 126.539 272.1 126.894C272.1 127.284 272.23 127.587 272.49 127.804C272.75 128.021 273.114 128.129 273.582 128.129ZM279.856 131.34V130.196H282.092C282.803 130.196 283.158 129.858 283.158 129.182V128.363L283.184 127.063H283.158C283.106 127.522 282.911 127.886 282.573 128.155C282.235 128.424 281.797 128.558 281.26 128.558C280.523 128.558 279.943 128.315 279.518 127.83C279.093 127.345 278.881 126.69 278.881 125.867V124.398C278.881 123.575 279.093 122.925 279.518 122.448C279.943 121.963 280.523 121.72 281.26 121.72C281.797 121.72 282.235 121.854 282.573 122.123C282.911 122.383 283.106 122.747 283.158 123.215H283.171L283.158 121.85H284.432V129.195C284.432 129.862 284.224 130.387 283.808 130.768C283.392 131.149 282.82 131.34 282.092 131.34H279.856ZM281.663 127.44C282.122 127.44 282.486 127.297 282.755 127.011C283.024 126.725 283.158 126.322 283.158 125.802V124.463C283.158 123.952 283.024 123.553 282.755 123.267C282.486 122.981 282.122 122.838 281.663 122.838C281.186 122.838 280.818 122.981 280.558 123.267C280.298 123.544 280.168 123.943 280.168 124.463V125.802C280.168 126.331 280.298 126.738 280.558 127.024C280.818 127.301 281.186 127.44 281.663 127.44ZM289.484 129.13C288.912 129.13 288.409 129.017 287.976 128.792C287.551 128.558 287.222 128.237 286.988 127.83C286.754 127.414 286.637 126.929 286.637 126.374V124.463C286.637 123.917 286.754 123.44 286.988 123.033C287.222 122.617 287.551 122.296 287.976 122.071C288.409 121.837 288.912 121.72 289.484 121.72C290.056 121.72 290.554 121.837 290.979 122.071C291.412 122.296 291.746 122.617 291.98 123.033C292.214 123.44 292.331 123.917 292.331 124.463V125.737H287.898V126.374C287.898 126.929 288.032 127.349 288.301 127.635C288.578 127.921 288.973 128.064 289.484 128.064C289.917 128.064 290.264 127.99 290.524 127.843C290.784 127.687 290.949 127.457 291.018 127.154H292.292C292.205 127.761 291.902 128.242 291.382 128.597C290.871 128.952 290.238 129.13 289.484 129.13ZM287.898 124.463V124.814H291.083V124.463C291.083 123.917 290.944 123.501 290.667 123.215C290.398 122.92 290.004 122.773 289.484 122.773C288.964 122.773 288.57 122.92 288.301 123.215C288.032 123.501 287.898 123.917 287.898 124.463ZM302.435 129V119.51H307.96V120.667H303.709V123.488H307.505V124.606H303.709V127.843H307.96V129H302.435ZM309.567 129L312.102 125.321L309.736 121.85H311.231L312.57 123.943C312.63 124.047 312.687 124.155 312.739 124.268C312.799 124.381 312.847 124.472 312.882 124.541C312.908 124.472 312.947 124.381 312.999 124.268C313.059 124.155 313.12 124.047 313.181 123.943L314.533 121.85H316.015L313.649 125.334L316.171 129H314.663L313.207 126.751C313.146 126.656 313.085 126.547 313.025 126.426C312.964 126.296 312.916 126.192 312.882 126.114C312.838 126.192 312.786 126.296 312.726 126.426C312.665 126.547 312.6 126.656 312.531 126.751L311.062 129H309.567ZM317.921 131.34V121.85H319.195V123.189H319.208C319.294 122.73 319.507 122.37 319.845 122.11C320.191 121.85 320.629 121.72 321.158 121.72C321.868 121.72 322.44 121.963 322.874 122.448C323.307 122.925 323.524 123.575 323.524 124.398V126.439C323.524 127.271 323.307 127.93 322.874 128.415C322.449 128.892 321.877 129.13 321.158 129.13C320.638 129.13 320.204 129 319.858 128.74C319.511 128.471 319.294 128.107 319.208 127.648H319.182L319.208 129.273V131.34H317.921ZM320.716 128.012C321.192 128.012 321.565 127.873 321.834 127.596C322.102 127.31 322.237 126.903 322.237 126.374V124.463C322.237 123.943 322.102 123.544 321.834 123.267C321.565 122.981 321.192 122.838 320.716 122.838C320.248 122.838 319.879 122.981 319.611 123.267C319.342 123.553 319.208 123.956 319.208 124.476V126.374C319.208 126.894 319.342 127.297 319.611 127.583C319.879 127.869 320.248 128.012 320.716 128.012ZM325.638 129V127.83H328.147V123.02H325.898V121.85H329.434V127.83H331.787V129H325.638ZM328.667 120.589C328.372 120.589 328.138 120.515 327.965 120.368C327.791 120.212 327.705 120.004 327.705 119.744C327.705 119.475 327.791 119.263 327.965 119.107C328.138 118.951 328.372 118.873 328.667 118.873C328.961 118.873 329.195 118.951 329.369 119.107C329.542 119.263 329.629 119.475 329.629 119.744C329.629 120.004 329.542 120.212 329.369 120.368C329.195 120.515 328.961 120.589 328.667 120.589ZM333.719 129V121.85H334.993V123.215H335.019C335.079 122.738 335.274 122.37 335.604 122.11C335.942 121.85 336.384 121.72 336.93 121.72C337.666 121.72 338.256 121.958 338.698 122.435C339.14 122.912 339.361 123.553 339.361 124.359V124.879H338.061V124.463C338.061 123.952 337.926 123.553 337.658 123.267C337.398 122.981 337.012 122.838 336.501 122.838C335.504 122.838 335.006 123.388 335.006 124.489V129H333.719ZM342.436 131.34L343.476 128.571L340.733 121.85H342.137L343.801 126.075C343.862 126.24 343.923 126.435 343.983 126.66C344.044 126.877 344.092 127.059 344.126 127.206C344.161 127.059 344.209 126.877 344.269 126.66C344.339 126.435 344.404 126.24 344.464 126.075L346.011 121.85H347.363L343.775 131.34H342.436ZM359.001 129V120.68H356.427V119.51H362.849V120.68H360.288V129H359.001ZM364.612 129V127.83H367.121V123.02H364.872V121.85H368.408V127.83H370.761V129H364.612ZM367.641 120.589C367.347 120.589 367.113 120.515 366.939 120.368C366.766 120.212 366.679 120.004 366.679 119.744C366.679 119.475 366.766 119.263 366.939 119.107C367.113 118.951 367.347 118.873 367.641 118.873C367.936 118.873 368.17 118.951 368.343 119.107C368.517 119.263 368.603 119.475 368.603 119.744C368.603 120.004 368.517 120.212 368.343 120.368C368.17 120.515 367.936 120.589 367.641 120.589ZM372.069 129V121.85H373.174V122.734H373.252C373.304 122.431 373.438 122.188 373.655 122.006C373.872 121.815 374.136 121.72 374.448 121.72C374.734 121.72 374.981 121.811 375.189 121.993C375.397 122.175 375.549 122.422 375.644 122.734H375.709C375.761 122.431 375.895 122.188 376.112 122.006C376.337 121.815 376.61 121.72 376.931 121.72C377.356 121.72 377.702 121.893 377.971 122.24C378.248 122.578 378.387 123.02 378.387 123.566V129H377.217V123.579C377.217 122.99 376.974 122.695 376.489 122.695C376.246 122.695 376.06 122.773 375.93 122.929C375.8 123.076 375.735 123.293 375.735 123.579V129H374.721V123.579C374.721 123.302 374.652 123.085 374.513 122.929C374.383 122.773 374.201 122.695 373.967 122.695C373.482 122.695 373.239 122.99 373.239 123.579V129H372.069ZM383.023 129.13C382.451 129.13 381.948 129.017 381.515 128.792C381.09 128.558 380.761 128.237 380.527 127.83C380.293 127.414 380.176 126.929 380.176 126.374V124.463C380.176 123.917 380.293 123.44 380.527 123.033C380.761 122.617 381.09 122.296 381.515 122.071C381.948 121.837 382.451 121.72 383.023 121.72C383.595 121.72 384.093 121.837 384.518 122.071C384.951 122.296 385.285 122.617 385.519 123.033C385.753 123.44 385.87 123.917 385.87 124.463V125.737H381.437V126.374C381.437 126.929 381.571 127.349 381.84 127.635C382.117 127.921 382.512 128.064 383.023 128.064C383.456 128.064 383.803 127.99 384.063 127.843C384.323 127.687 384.488 127.457 384.557 127.154H385.831C385.744 127.761 385.441 128.242 384.921 128.597C384.41 128.952 383.777 129.13 383.023 129.13ZM381.437 124.463V124.814H384.622V124.463C384.622 123.917 384.483 123.501 384.206 123.215C383.937 122.92 383.543 122.773 383.023 122.773C382.503 122.773 382.109 122.92 381.84 123.215C381.571 123.501 381.437 123.917 381.437 124.463Z" fill="white"/>
<circle cx="200.43" cy="125" r="5" fill="white"/>
<path fill-rule="evenodd" clip-rule="evenodd" d="M202.496 123.437C202.561 123.502 202.598 123.591 202.598 123.684C202.598 123.777 202.561 123.866 202.496 123.932L199.87 126.558C199.835 126.593 199.794 126.62 199.749 126.639C199.703 126.658 199.655 126.667 199.606 126.667C199.556 126.667 199.508 126.658 199.462 126.639C199.417 126.62 199.376 126.593 199.341 126.558L198.037 125.253C198.003 125.221 197.976 125.182 197.958 125.14C197.94 125.097 197.93 125.051 197.93 125.005C197.929 124.958 197.938 124.912 197.956 124.869C197.973 124.826 197.999 124.787 198.032 124.754C198.065 124.721 198.104 124.695 198.147 124.677C198.19 124.66 198.237 124.651 198.283 124.651C198.33 124.652 198.376 124.661 198.418 124.68C198.461 124.698 198.5 124.725 198.532 124.758L199.605 125.831L202 123.437C202.033 123.404 202.071 123.378 202.114 123.361C202.156 123.343 202.202 123.334 202.248 123.334C202.294 123.334 202.339 123.343 202.382 123.361C202.424 123.378 202.463 123.404 202.496 123.437Z" fill="#151515" stroke="#151515" stroke-width="0.7"/>
<rect opacity="0.2" x="154" y="62" width="1" height="79" fill="white"/>
<g opacity="0.2">
<path d="M68.828 75.6857C67.7423 74.6 66.2852 74 64.7709 74H49.9994C46.8566 74 44.3137 76.5714 44.3137 79.7143L44.2852 114C44.2852 117.143 46.8566 119.714 49.9994 119.714H95.7137C98.8566 119.714 101.428 117.143 101.428 114V85.4286C101.428 82.2857 98.8566 79.7143 95.7137 79.7143H72.8566L68.828 75.6857Z" fill="white"/>
<circle cx="50" cy="114" r="20" fill="#151515"/>
<ellipse cx="50.0006" cy="114.001" rx="14.2857" ry="14.2857" fill="white"/>
<path fill-rule="evenodd" clip-rule="evenodd" d="M56.026 111.407C56.1949 111.576 56.2898 111.805 56.2898 112.044C56.2898 112.282 56.1949 112.511 56.026 112.68L49.274 119.432C49.1847 119.522 49.0788 119.593 48.9622 119.641C48.8456 119.689 48.7206 119.714 48.5944 119.714C48.4682 119.714 48.3432 119.689 48.2267 119.641C48.1101 119.593 48.0041 119.522 47.9149 119.432L44.5602 116.078C44.4741 115.995 44.4055 115.896 44.3583 115.786C44.3111 115.676 44.2862 115.558 44.2852 115.438C44.2842 115.319 44.3069 115.2 44.3522 115.089C44.3975 114.979 44.4644 114.878 44.549 114.793C44.6336 114.709 44.7342 114.642 44.8449 114.597C44.9556 114.551 45.0742 114.529 45.1938 114.53C45.3134 114.531 45.4316 114.555 45.5415 114.603C45.6515 114.65 45.7509 114.719 45.834 114.805L48.5941 117.565L54.7516 111.407C54.8353 111.323 54.9346 111.257 55.044 111.211C55.1533 111.166 55.2705 111.143 55.3888 111.143C55.5072 111.143 55.6244 111.166 55.7337 111.211C55.843 111.257 55.9424 111.323 56.026 111.407Z" fill="#151515" stroke="#151515" stroke-width="0.7"/>
</g>
</svg>
