<svg width="93" height="54" viewBox="0 0 93 54" fill="none" xmlns="http://www.w3.org/2000/svg">
<rect x="47" y="4" width="46" height="46" rx="6" fill="#F7F7F7"/>
<path d="M66 34C67.1 34 68 33.1 68 32V22C68 20.9 67.1 20 66 20C64.9 20 64 20.9 64 22V32C64 33.1 64.9 34 66 34ZM72 22V32C72 33.1 72.9 34 74 34C75.1 34 76 33.1 76 32V22C76 20.9 75.1 20 74 20C72.9 20 72 20.9 72 22Z" fill="#CCCCCC"/>
<rect x="2" y="2" width="50" height="50" rx="8" fill="#EDEDFE" stroke="white" stroke-width="4"/>
<path d="M27.2373 17.6181C26.8392 17.22 26.3049 17 25.7497 17H20.3335C19.1811 17 18.2488 17.9429 18.2488 19.0952L18.2383 31.6667C18.2383 32.819 19.1811 33.7619 20.3335 33.7619H37.0954C38.2478 33.7619 39.1907 32.819 39.1907 31.6667V21.1905C39.1907 20.0381 38.2478 19.0952 37.0954 19.0952H28.7145L27.2373 17.6181Z" fill="#494AF8"/>
<circle cx="19.3333" cy="31.6673" r="7.33333" fill="#EDEDFE"/>
<circle cx="19.3318" cy="31.6658" r="5.2381" fill="#494AF8"/>
<path fill-rule="evenodd" clip-rule="evenodd" d="M21.5433 30.716C21.6052 30.7779 21.64 30.8619 21.64 30.9495C21.64 31.0371 21.6052 31.1211 21.5433 31.183L19.0675 33.6588C19.0348 33.6915 18.9959 33.7175 18.9532 33.7352C18.9104 33.7529 18.8646 33.762 18.8183 33.762C18.7721 33.762 18.7262 33.7529 18.6835 33.7352C18.6407 33.7175 18.6019 33.6915 18.5692 33.6588L17.3391 32.4289C17.3076 32.3985 17.2824 32.362 17.2651 32.3217C17.2478 32.2814 17.2387 32.2381 17.2383 32.1942C17.2379 32.1504 17.2463 32.1069 17.2629 32.0663C17.2795 32.0257 17.304 31.9888 17.335 31.9578C17.366 31.9268 17.4029 31.9022 17.4435 31.8856C17.4841 31.869 17.5276 31.8607 17.5715 31.8611C17.6153 31.8614 17.6587 31.8705 17.699 31.8879C17.7393 31.9052 17.7757 31.9303 17.8062 31.9619L18.8182 32.9739L21.076 30.716C21.1067 30.6853 21.1431 30.6609 21.1832 30.6443C21.2233 30.6277 21.2662 30.6191 21.3096 30.6191C21.353 30.6191 21.396 30.6277 21.4361 30.6443C21.4762 30.6609 21.5126 30.6853 21.5433 30.716Z" fill="#EDEDFE" stroke="#EDEDFE" stroke-width="0.7"/>
</svg>
