<svg width="428" height="157" viewBox="0 0 428 157" fill="none" xmlns="http://www.w3.org/2000/svg">
<g clip-path="url(#clip0_43_2439)">
<path d="M0 47H428V147C428 152.523 423.523 157 418 157H10C4.47715 157 0 152.523 0 147V47Z" fill="#151515"/>
<path d="M0 13C0 7.47715 4.47715 3 10 3H418C423.523 3 428 7.47715 428 13V47H0V13Z" fill="black"/>
<path d="M26.418 30V19.5H30.093C30.913 19.5 31.593 19.64 32.133 19.92C32.673 20.19 33.073 20.565 33.333 21.045C33.603 21.515 33.738 22.05 33.738 22.65C33.738 23.22 33.608 23.745 33.348 24.225C33.098 24.695 32.703 25.07 32.163 25.35C31.623 25.63 30.933 25.77 30.093 25.77H28.008V30H26.418ZM28.008 24.465H30.018C30.768 24.465 31.303 24.305 31.623 23.985C31.953 23.655 32.118 23.21 32.118 22.65C32.118 22.07 31.953 21.6199 31.623 21.2999C31.303 20.9699 30.768 20.805 30.018 20.805H28.008V24.465ZM35.2496 30V22.5599H36.6746L36.8096 23.9699C37.0696 23.4799 37.4296 23.095 37.8896 22.815C38.3596 22.525 38.9246 22.3799 39.5846 22.3799V24.045H39.1496C38.7096 24.045 38.3146 24.12 37.9646 24.27C37.6246 24.41 37.3496 24.6549 37.1396 25.0049C36.9396 25.3449 36.8396 25.82 36.8396 26.43V30H35.2496ZM44.2228 30.18C43.5128 30.18 42.8728 30.02 42.3028 29.7C41.7428 29.37 41.2978 28.9149 40.9678 28.3349C40.6378 27.7449 40.4728 27.06 40.4728 26.28C40.4728 25.5 40.6378 24.82 40.9678 24.24C41.3078 23.65 41.7628 23.195 42.3328 22.875C42.9028 22.545 43.5378 22.3799 44.2378 22.3799C44.9478 22.3799 45.5828 22.545 46.1428 22.875C46.7128 23.195 47.1628 23.65 47.4928 24.24C47.8328 24.82 48.0028 25.5 48.0028 26.28C48.0028 27.06 47.8328 27.7449 47.4928 28.3349C47.1628 28.9149 46.7128 29.37 46.1428 29.7C45.5728 30.02 44.9328 30.18 44.2228 30.18ZM44.2228 28.815C44.6028 28.815 44.9528 28.72 45.2728 28.53C45.6028 28.34 45.8678 28.06 46.0678 27.69C46.2678 27.31 46.3678 26.84 46.3678 26.28C46.3678 25.72 46.2678 25.255 46.0678 24.885C45.8778 24.505 45.6178 24.22 45.2878 24.03C44.9678 23.84 44.6178 23.745 44.2378 23.745C43.8578 23.745 43.5028 23.84 43.1728 24.03C42.8528 24.22 42.5928 24.505 42.3928 24.885C42.1928 25.255 42.0928 25.72 42.0928 26.28C42.0928 26.84 42.1928 27.31 42.3928 27.69C42.5928 28.06 42.8528 28.34 43.1728 28.53C43.4928 28.72 43.8428 28.815 44.2228 28.815ZM50.6673 21.15C50.3673 21.15 50.1173 21.0599 49.9173 20.8799C49.7273 20.6899 49.6323 20.4549 49.6323 20.1749C49.6323 19.8949 49.7273 19.665 49.9173 19.485C50.1173 19.295 50.3673 19.2 50.6673 19.2C50.9673 19.2 51.2123 19.295 51.4023 19.485C51.6023 19.665 51.7023 19.8949 51.7023 20.1749C51.7023 20.4549 51.6023 20.6899 51.4023 20.8799C51.2123 21.0599 50.9673 21.15 50.6673 21.15ZM48.2972 33.2999V31.95H48.8823C49.2323 31.95 49.4823 31.875 49.6323 31.725C49.7823 31.585 49.8573 31.3449 49.8573 31.0049V22.5599H51.4473V31.02C51.4473 31.83 51.2423 32.4099 50.8323 32.7599C50.4223 33.1199 49.8523 33.2999 49.1223 33.2999H48.2972ZM57.0255 30.18C56.2955 30.18 55.6455 30.02 55.0755 29.7C54.5155 29.37 54.0755 28.9149 53.7555 28.3349C53.4355 27.7549 53.2755 27.0799 53.2755 26.3099C53.2755 25.5299 53.4305 24.8449 53.7405 24.2549C54.0605 23.6649 54.5005 23.205 55.0605 22.875C55.6305 22.545 56.2905 22.3799 57.0405 22.3799C57.7705 22.3799 58.4055 22.545 58.9455 22.875C59.4855 23.195 59.9055 23.625 60.2055 24.165C60.5055 24.705 60.6555 25.3 60.6555 25.95C60.6555 26.05 60.6505 26.16 60.6405 26.28C60.6405 26.39 60.6355 26.515 60.6255 26.655H54.8355C54.8855 27.375 55.1205 27.925 55.5405 28.305C55.9705 28.675 56.4655 28.86 57.0255 28.86C57.4755 28.86 57.8505 28.7599 58.1505 28.5599C58.4605 28.3499 58.6905 28.0699 58.8405 27.7199H60.4305C60.2305 28.4199 59.8305 29.005 59.2305 29.475C58.6405 29.945 57.9055 30.18 57.0255 30.18ZM57.0255 23.6849C56.4955 23.6849 56.0255 23.845 55.6155 24.165C55.2055 24.475 54.9555 24.945 54.8655 25.575H59.0655C59.0355 24.995 58.8305 24.535 58.4505 24.195C58.0705 23.855 57.5955 23.6849 57.0255 23.6849ZM65.8303 30.18C65.1003 30.18 64.4453 30.0149 63.8653 29.6849C63.2953 29.3549 62.8453 28.9 62.5153 28.32C62.1953 27.73 62.0353 27.05 62.0353 26.28C62.0353 25.51 62.1953 24.8349 62.5153 24.2549C62.8453 23.6649 63.2953 23.205 63.8653 22.875C64.4453 22.545 65.1003 22.3799 65.8303 22.3799C66.7503 22.3799 67.5203 22.62 68.1403 23.1C68.7703 23.58 69.1753 24.2299 69.3553 25.0499H67.6903C67.5903 24.6399 67.3703 24.32 67.0303 24.09C66.6903 23.86 66.2903 23.745 65.8303 23.745C65.4403 23.745 65.0803 23.845 64.7503 24.045C64.4203 24.235 64.1553 24.52 63.9553 24.9C63.7553 25.27 63.6553 25.73 63.6553 26.28C63.6553 26.83 63.7553 27.2949 63.9553 27.6749C64.1553 28.0449 64.4203 28.33 64.7503 28.53C65.0803 28.73 65.4403 28.83 65.8303 28.83C66.2903 28.83 66.6903 28.715 67.0303 28.485C67.3703 28.255 67.5903 27.93 67.6903 27.51H69.3553C69.1853 28.31 68.7853 28.955 68.1553 29.445C67.5253 29.935 66.7503 30.18 65.8303 30.18ZM74.0532 30C73.3232 30 72.7432 29.825 72.3132 29.475C71.8832 29.115 71.6682 28.48 71.6682 27.57V23.895H70.3932V22.5599H71.6682L71.8632 20.67H73.2582V22.5599H75.3582V23.895H73.2582V27.57C73.2582 27.98 73.3432 28.2649 73.5132 28.4249C73.6932 28.5749 73.9982 28.65 74.4282 28.65H75.2832V30H74.0532ZM80.8369 30V19.5H82.7119L86.2669 26.49L89.8069 19.5H91.6819V30H90.0919V22.245L86.8819 28.5H85.6519L82.4269 22.26V30H80.8369ZM97.2355 30.18C96.5255 30.18 95.8855 30.02 95.3155 29.7C94.7555 29.37 94.3105 28.9149 93.9805 28.3349C93.6505 27.7449 93.4855 27.06 93.4855 26.28C93.4855 25.5 93.6505 24.82 93.9805 24.24C94.3205 23.65 94.7755 23.195 95.3455 22.875C95.9155 22.545 96.5505 22.3799 97.2505 22.3799C97.9605 22.3799 98.5955 22.545 99.1555 22.875C99.7255 23.195 100.175 23.65 100.505 24.24C100.845 24.82 101.015 25.5 101.015 26.28C101.015 27.06 100.845 27.7449 100.505 28.3349C100.175 28.9149 99.7255 29.37 99.1555 29.7C98.5855 30.02 97.9455 30.18 97.2355 30.18ZM97.2355 28.815C97.6155 28.815 97.9655 28.72 98.2855 28.53C98.6155 28.34 98.8805 28.06 99.0805 27.69C99.2805 27.31 99.3805 26.84 99.3805 26.28C99.3805 25.72 99.2805 25.255 99.0805 24.885C98.8905 24.505 98.6305 24.22 98.3005 24.03C97.9805 23.84 97.6305 23.745 97.2505 23.745C96.8705 23.745 96.5155 23.84 96.1855 24.03C95.8655 24.22 95.6055 24.505 95.4055 24.885C95.2055 25.255 95.1055 25.72 95.1055 26.28C95.1055 26.84 95.2055 27.31 95.4055 27.69C95.6055 28.06 95.8655 28.34 96.1855 28.53C96.5055 28.72 96.8555 28.815 97.2355 28.815ZM106.124 30.18C105.404 30.18 104.769 30.01 104.219 29.67C103.669 29.33 103.239 28.865 102.929 28.275C102.619 27.685 102.464 27.0149 102.464 26.2649C102.464 25.5149 102.619 24.85 102.929 24.27C103.239 23.68 103.669 23.2199 104.219 22.8899C104.779 22.5499 105.419 22.3799 106.139 22.3799C106.729 22.3799 107.244 22.495 107.684 22.725C108.134 22.955 108.484 23.28 108.734 23.7V19.2H110.324V30H108.899L108.734 28.8449C108.494 29.1949 108.164 29.505 107.744 29.775C107.324 30.045 106.784 30.18 106.124 30.18ZM106.409 28.7999C107.089 28.7999 107.644 28.5649 108.074 28.0949C108.514 27.6249 108.734 27.02 108.734 26.28C108.734 25.53 108.514 24.925 108.074 24.465C107.644 23.995 107.089 23.76 106.409 23.76C105.729 23.76 105.169 23.995 104.729 24.465C104.289 24.925 104.069 25.53 104.069 26.28C104.069 26.77 104.169 27.2049 104.369 27.5849C104.569 27.9649 104.844 28.265 105.194 28.485C105.554 28.695 105.959 28.7999 106.409 28.7999ZM115.809 30.18C115.079 30.18 114.429 30.02 113.859 29.7C113.299 29.37 112.859 28.9149 112.539 28.3349C112.219 27.7549 112.059 27.0799 112.059 26.3099C112.059 25.5299 112.214 24.8449 112.524 24.2549C112.844 23.6649 113.284 23.205 113.844 22.875C114.414 22.545 115.074 22.3799 115.824 22.3799C116.554 22.3799 117.189 22.545 117.729 22.875C118.269 23.195 118.689 23.625 118.989 24.165C119.289 24.705 119.439 25.3 119.439 25.95C119.439 26.05 119.434 26.16 119.424 26.28C119.424 26.39 119.419 26.515 119.409 26.655H113.619C113.669 27.375 113.904 27.925 114.324 28.305C114.754 28.675 115.249 28.86 115.809 28.86C116.259 28.86 116.634 28.7599 116.934 28.5599C117.244 28.3499 117.474 28.0699 117.624 27.7199H119.214C119.014 28.4199 118.614 29.005 118.014 29.475C117.424 29.945 116.689 30.18 115.809 30.18ZM115.809 23.6849C115.279 23.6849 114.809 23.845 114.399 24.165C113.989 24.475 113.739 24.945 113.649 25.575H117.849C117.819 24.995 117.614 24.535 117.234 24.195C116.854 23.855 116.379 23.6849 115.809 23.6849ZM124.253 30L128.123 19.5H129.863L133.703 30H132.023L131.123 27.4349H126.833L125.933 30H124.253ZM127.283 26.1749H130.673L128.978 21.3899L127.283 26.1749ZM138.252 30.18C137.522 30.18 136.867 30.0149 136.287 29.6849C135.717 29.3549 135.267 28.9 134.937 28.32C134.617 27.73 134.457 27.05 134.457 26.28C134.457 25.51 134.617 24.8349 134.937 24.2549C135.267 23.6649 135.717 23.205 136.287 22.875C136.867 22.545 137.522 22.3799 138.252 22.3799C139.172 22.3799 139.942 22.62 140.562 23.1C141.192 23.58 141.597 24.2299 141.777 25.0499H140.112C140.012 24.6399 139.792 24.32 139.452 24.09C139.112 23.86 138.712 23.745 138.252 23.745C137.862 23.745 137.502 23.845 137.172 24.045C136.842 24.235 136.577 24.52 136.377 24.9C136.177 25.27 136.077 25.73 136.077 26.28C136.077 26.83 136.177 27.2949 136.377 27.6749C136.577 28.0449 136.842 28.33 137.172 28.53C137.502 28.73 137.862 28.83 138.252 28.83C138.712 28.83 139.112 28.715 139.452 28.485C139.792 28.255 140.012 27.93 140.112 27.51H141.777C141.607 28.31 141.207 28.955 140.577 29.445C139.947 29.935 139.172 30.18 138.252 30.18ZM146.475 30C145.745 30 145.165 29.825 144.735 29.475C144.305 29.115 144.09 28.48 144.09 27.57V23.895H142.815V22.5599H144.09L144.285 20.67H145.68V22.5599H147.78V23.895H145.68V27.57C145.68 27.98 145.765 28.2649 145.935 28.4249C146.115 28.5749 146.42 28.65 146.85 28.65H147.705V30H146.475ZM150.319 21.15C150.019 21.15 149.769 21.0599 149.569 20.8799C149.379 20.6899 149.284 20.4549 149.284 20.1749C149.284 19.8949 149.379 19.665 149.569 19.485C149.769 19.295 150.019 19.2 150.319 19.2C150.619 19.2 150.864 19.295 151.054 19.485C151.254 19.665 151.354 19.8949 151.354 20.1749C151.354 20.4549 151.254 20.6899 151.054 20.8799C150.864 21.0599 150.619 21.15 150.319 21.15ZM149.524 30V22.5599H151.114V30H149.524ZM155.298 30L152.508 22.5599H154.173L156.243 28.485L158.313 22.5599H159.963L157.188 30H155.298ZM164.369 30.18C163.639 30.18 162.989 30.02 162.419 29.7C161.859 29.37 161.419 28.9149 161.099 28.3349C160.779 27.7549 160.619 27.0799 160.619 26.3099C160.619 25.5299 160.774 24.8449 161.084 24.2549C161.404 23.6649 161.844 23.205 162.404 22.875C162.974 22.545 163.634 22.3799 164.384 22.3799C165.114 22.3799 165.749 22.545 166.289 22.875C166.829 23.195 167.249 23.625 167.549 24.165C167.849 24.705 167.999 25.3 167.999 25.95C167.999 26.05 167.994 26.16 167.984 26.28C167.984 26.39 167.979 26.515 167.969 26.655H162.179C162.229 27.375 162.464 27.925 162.884 28.305C163.314 28.675 163.809 28.86 164.369 28.86C164.819 28.86 165.194 28.7599 165.494 28.5599C165.804 28.3499 166.034 28.0699 166.184 27.7199H167.774C167.574 28.4199 167.174 29.005 166.574 29.475C165.984 29.945 165.249 30.18 164.369 30.18ZM164.369 23.6849C163.839 23.6849 163.369 23.845 162.959 24.165C162.549 24.475 162.299 24.945 162.209 25.575H166.409C166.379 24.995 166.174 24.535 165.794 24.195C165.414 23.855 164.939 23.6849 164.369 23.6849Z" fill="white"/>
<path d="M361.108 0.403961C361.508 -0.134653 362.314 -0.134654 362.714 0.40396L364.624 2.97622C365.113 3.63606 364.642 4.57226 363.821 4.57226H360.002C359.18 4.57226 358.709 3.63606 359.199 2.97622L361.108 0.403961Z" fill="black"/>
<path opacity="0.2" d="M155 62H154V141H155V62Z" fill="white"/>
<g opacity="0.2">
<path d="M68.828 75.6857C67.7423 74.6 66.2852 74 64.7709 74H49.9994C46.8566 74 44.3137 76.5714 44.3137 79.7143L44.2852 114C44.2852 117.143 46.8566 119.714 49.9994 119.714H95.7137C98.8566 119.714 101.428 117.143 101.428 114V85.4286C101.428 82.2857 98.8566 79.7143 95.7137 79.7143H72.8566L68.828 75.6857Z" fill="white"/>
<path d="M50 134C61.0457 134 70 125.046 70 114C70 102.954 61.0457 94 50 94C38.9543 94 30 102.954 30 114C30 125.046 38.9543 134 50 134Z" fill="#151515"/>
<path d="M50.0005 128.287C57.8903 128.287 64.2862 121.891 64.2862 114.001C64.2862 106.111 57.8903 99.7153 50.0005 99.7153C42.1108 99.7153 35.7148 106.111 35.7148 114.001C35.7148 121.891 42.1108 128.287 50.0005 128.287Z" fill="white"/>
<path fill-rule="evenodd" clip-rule="evenodd" d="M56.026 111.407C56.1949 111.576 56.2898 111.805 56.2898 112.044C56.2898 112.282 56.1949 112.511 56.026 112.68L49.274 119.432C49.1847 119.522 49.0788 119.593 48.9622 119.641C48.8456 119.689 48.7206 119.714 48.5944 119.714C48.4682 119.714 48.3432 119.689 48.2267 119.641C48.1101 119.593 48.0041 119.522 47.9149 119.432L44.5602 116.078C44.4741 115.995 44.4055 115.896 44.3583 115.786C44.3111 115.676 44.2862 115.558 44.2852 115.438C44.2842 115.319 44.3069 115.2 44.3522 115.089C44.3975 114.979 44.4644 114.878 44.549 114.793C44.6336 114.709 44.7342 114.642 44.8449 114.597C44.9556 114.551 45.0742 114.529 45.1938 114.53C45.3134 114.531 45.4316 114.555 45.5415 114.603C45.6515 114.65 45.7509 114.719 45.834 114.805L48.5941 117.565L54.7516 111.407C54.8353 111.323 54.9346 111.257 55.044 111.211C55.1533 111.166 55.2705 111.143 55.3888 111.143C55.5072 111.143 55.6244 111.166 55.7337 111.211C55.843 111.257 55.9424 111.323 56.026 111.407Z" fill="#151515" stroke="#151515" stroke-width="0.7"/>
</g>
<circle cx="200" cy="76.127" r="5" fill="white"/>
<path fill-rule="evenodd" clip-rule="evenodd" d="M202.066 74.5636C202.132 74.6293 202.168 74.7184 202.168 74.8113C202.168 74.9042 202.132 74.9933 202.066 75.059L199.44 77.6848C199.405 77.7195 199.364 77.747 199.319 77.7658C199.274 77.7846 199.225 77.7943 199.176 77.7943C199.127 77.7943 199.078 77.7846 199.033 77.7658C198.987 77.747 198.946 77.7195 198.912 77.6848L197.607 76.3804C197.573 76.3481 197.547 76.3094 197.528 76.2667C197.51 76.224 197.5 76.178 197.5 76.1315C197.5 76.085 197.508 76.0388 197.526 75.9958C197.544 75.9527 197.57 75.9136 197.603 75.8807C197.636 75.8478 197.675 75.8218 197.718 75.8042C197.761 75.7866 197.807 75.7777 197.853 75.7781C197.9 75.7785 197.946 75.7882 197.989 75.8065C198.031 75.8249 198.07 75.8516 198.102 75.8851L199.176 76.9585L201.57 74.5636C201.603 74.5311 201.641 74.5052 201.684 74.4876C201.726 74.47 201.772 74.4609 201.818 74.4609C201.864 74.4609 201.91 74.47 201.952 74.4876C201.995 74.5052 202.033 74.5311 202.066 74.5636Z" fill="#151515" stroke="#151515" stroke-width="0.7"/>
<path d="M372.043 81.1269V73.9769H373.317V75.3419H373.343C373.404 74.8653 373.599 74.4969 373.928 74.2369C374.257 73.9769 374.695 73.8469 375.241 73.8469C375.952 73.8469 376.519 74.0723 376.944 74.5229C377.369 74.9736 377.581 75.5803 377.581 76.3429V81.1269H376.294V76.4859C376.294 76.0006 376.164 75.6279 375.904 75.3679C375.644 75.0993 375.289 74.9649 374.838 74.9649C374.37 74.9649 374.002 75.1079 373.733 75.3939C373.464 75.6713 373.33 76.0699 373.33 76.5899V81.1269H372.043Z" fill="white"/>
<path d="M367.003 81.2309C366.128 81.2309 365.435 80.9883 364.923 80.5029C364.412 80.0089 364.156 79.3373 364.156 78.4879V76.6159C364.156 75.7666 364.412 75.0993 364.923 74.6139C365.435 74.1199 366.128 73.8729 367.003 73.8729C367.879 73.8729 368.572 74.1199 369.083 74.6139C369.595 75.0993 369.85 75.7623 369.85 76.6029V78.4879C369.85 79.3373 369.595 80.0089 369.083 80.5029C368.572 80.9883 367.879 81.2309 367.003 81.2309ZM367.003 80.0999C367.489 80.0999 367.87 79.9656 368.147 79.6969C368.425 79.4196 368.563 79.0166 368.563 78.4879V76.6159C368.563 76.0873 368.425 75.6886 368.147 75.4199C367.87 75.1426 367.489 75.0039 367.003 75.0039C366.518 75.0039 366.137 75.1426 365.859 75.4199C365.582 75.6886 365.443 76.0873 365.443 76.6159V78.4879C365.443 79.0166 365.582 79.4196 365.859 79.6969C366.137 79.9656 366.518 80.0999 367.003 80.0999Z" fill="white"/>
<path d="M356.387 81.127V79.957H358.896V75.147H356.647V73.977H360.183V79.957H362.536V81.127H356.387ZM359.416 72.716C359.121 72.716 358.887 72.6423 358.714 72.495C358.54 72.339 358.454 72.131 358.454 71.871C358.454 71.6023 358.54 71.39 358.714 71.234C358.887 71.078 359.121 71 359.416 71C359.71 71 359.944 71.078 360.118 71.234C360.291 71.39 360.378 71.6023 360.378 71.871C360.378 72.131 360.291 72.339 360.118 72.495C359.944 72.6423 359.71 72.716 359.416 72.716Z" fill="white"/>
<path d="M348.656 81.1269V73.9769H349.93V75.3419H349.956C350.017 74.8653 350.212 74.4969 350.541 74.2369C350.871 73.9769 351.308 73.8469 351.854 73.8469C352.565 73.8469 353.133 74.0723 353.557 74.5229C353.982 74.9736 354.194 75.5803 354.194 76.3429V81.1269H352.907V76.4859C352.907 76.0006 352.777 75.6279 352.517 75.3679C352.257 75.0993 351.902 74.9649 351.451 74.9649C350.983 74.9649 350.615 75.1079 350.346 75.3939C350.078 75.6713 349.943 76.0699 349.943 76.5899V81.1269H348.656Z" fill="white"/>
<path d="M342.957 81.2569C342.203 81.2569 341.609 81.0663 341.176 80.6849C340.751 80.2949 340.539 79.7706 340.539 79.1119C340.539 78.4359 340.76 77.9073 341.202 77.5259C341.653 77.1359 342.264 76.9409 343.035 76.9409H345.115V76.2649C345.115 75.8489 344.985 75.5283 344.725 75.3029C344.474 75.0689 344.123 74.9519 343.672 74.9519C343.265 74.9519 342.922 75.0429 342.645 75.2249C342.376 75.3983 342.212 75.6279 342.151 75.9139H340.89C340.925 75.4979 341.068 75.1383 341.319 74.8349C341.57 74.5229 341.9 74.2803 342.307 74.1069C342.714 73.9336 343.174 73.8469 343.685 73.8469C344.517 73.8469 345.176 74.0636 345.661 74.4969C346.155 74.9216 346.402 75.4979 346.402 76.2259V81.1269H345.141V79.8009H345.128C345.067 80.2516 344.842 80.6069 344.452 80.8669C344.062 81.1269 343.564 81.2569 342.957 81.2569ZM343.308 80.2559C343.828 80.2559 344.257 80.1259 344.595 79.8659C344.942 79.5973 345.115 79.2549 345.115 78.8389V77.8639H343.061C342.68 77.8639 342.376 77.9679 342.151 78.1759C341.934 78.3839 341.826 78.6656 341.826 79.0209C341.826 79.4109 341.956 79.7143 342.216 79.9309C342.476 80.1476 342.84 80.2559 343.308 80.2559Z" fill="white"/>
<path d="M333.082 83.4669V73.9769H334.356V75.3159H334.369C334.456 74.8566 334.668 74.4969 335.006 74.2369C335.353 73.9769 335.79 73.8469 336.319 73.8469C337.03 73.8469 337.602 74.0896 338.035 74.5749C338.468 75.0516 338.685 75.7016 338.685 76.5249V78.5659C338.685 79.3979 338.468 80.0566 338.035 80.5419C337.61 81.0186 337.038 81.2569 336.319 81.2569C335.799 81.2569 335.366 81.1269 335.019 80.8669C334.672 80.5983 334.456 80.2343 334.369 79.7749H334.343L334.369 81.3999V83.4669H333.082ZM335.877 80.1389C336.354 80.1389 336.726 80.0003 336.995 79.7229C337.264 79.4369 337.398 79.0296 337.398 78.5009V76.5899C337.398 76.0699 337.264 75.6713 336.995 75.3939C336.726 75.1079 336.354 74.9649 335.877 74.9649C335.409 74.9649 335.041 75.1079 334.772 75.3939C334.503 75.6799 334.369 76.0829 334.369 76.6029V78.5009C334.369 79.0209 334.503 79.4239 334.772 79.7099C335.041 79.9959 335.409 80.1389 335.877 80.1389Z" fill="white"/>
<path d="M324.871 81.1269V73.9769H325.976V74.8609H326.054C326.106 74.5576 326.24 74.3149 326.457 74.1329C326.674 73.9423 326.938 73.8469 327.25 73.8469C327.536 73.8469 327.783 73.9379 327.991 74.1199C328.199 74.3019 328.351 74.5489 328.446 74.8609H328.511C328.563 74.5576 328.697 74.3149 328.914 74.1329C329.139 73.9423 329.412 73.8469 329.733 73.8469C330.158 73.8469 330.504 74.0203 330.773 74.3669C331.05 74.7049 331.189 75.1469 331.189 75.6929V81.1269H330.019V75.7059C330.019 75.1166 329.776 74.8219 329.291 74.8219C329.048 74.8219 328.862 74.8999 328.732 75.0559C328.602 75.2033 328.537 75.4199 328.537 75.7059V81.1269H327.523V75.7059C327.523 75.4286 327.454 75.2119 327.315 75.0559C327.185 74.8999 327.003 74.8219 326.769 74.8219C326.284 74.8219 326.041 75.1166 326.041 75.7059V81.1269H324.871Z" fill="white"/>
<path d="M320.234 81.2309C319.358 81.2309 318.665 80.9883 318.154 80.5029C317.642 80.0089 317.387 79.3373 317.387 78.4879V76.6159C317.387 75.7666 317.642 75.0993 318.154 74.6139C318.665 74.1199 319.358 73.8729 320.234 73.8729C321.109 73.8729 321.802 74.1199 322.314 74.6139C322.825 75.0993 323.081 75.7623 323.081 76.6029V78.4879C323.081 79.3373 322.825 80.0089 322.314 80.5029C321.802 80.9883 321.109 81.2309 320.234 81.2309ZM320.234 80.0999C320.719 80.0999 321.1 79.9656 321.378 79.6969C321.655 79.4196 321.794 79.0166 321.794 78.4879V76.6159C321.794 76.0873 321.655 75.6886 321.378 75.4199C321.1 75.1426 320.719 75.0039 320.234 75.0039C319.748 75.0039 319.367 75.1426 319.09 75.4199C318.812 75.6886 318.674 76.0873 318.674 76.6159V78.4879C318.674 79.0166 318.812 79.4196 319.09 79.6969C319.367 79.9656 319.748 80.0999 320.234 80.0999Z" fill="white"/>
<path d="M312.493 81.257C311.617 81.257 310.92 81.0143 310.4 80.529C309.888 80.035 309.633 79.359 309.633 78.501V74.25C309.633 73.4006 309.888 72.7333 310.4 72.248C310.92 71.754 311.617 71.507 312.493 71.507C313.359 71.507 314.048 71.754 314.56 72.248C315.08 72.742 315.34 73.4093 315.34 74.25H314.053C314.053 73.7386 313.914 73.3443 313.637 73.067C313.359 72.7896 312.978 72.651 312.493 72.651C311.999 72.651 311.613 72.7896 311.336 73.067C311.058 73.3443 310.92 73.7386 310.92 74.25V78.501C310.92 79.021 311.058 79.4196 311.336 79.697C311.613 79.9743 311.999 80.113 312.493 80.113C312.978 80.113 313.359 79.9743 313.637 79.697C313.914 79.4196 314.053 79.021 314.053 78.501H315.34C315.34 79.3503 315.08 80.022 314.56 80.516C314.048 81.01 313.359 81.257 312.493 81.257Z" fill="white"/>
<path d="M294.094 81.127V71.637H295.381V73.977L295.368 75.342H295.394C295.454 74.8653 295.649 74.497 295.979 74.237C296.308 73.977 296.746 73.847 297.292 73.847C298.002 73.847 298.57 74.0723 298.995 74.523C299.419 74.9736 299.632 75.5803 299.632 76.343V81.127H298.345V76.486C298.345 76.0006 298.215 75.6236 297.955 75.355C297.695 75.0776 297.339 74.939 296.889 74.939C296.421 74.939 296.052 75.0863 295.784 75.381C295.515 75.667 295.381 76.07 295.381 76.59V81.127H294.094Z" fill="white"/>
<path d="M289.106 81.2569C288.231 81.2569 287.529 81.0143 287 80.5289C286.471 80.0349 286.207 79.3589 286.207 78.5009V76.5899C286.207 75.7406 286.471 75.0733 287 74.5879C287.529 74.0939 288.231 73.8469 289.106 73.8469C289.947 73.8469 290.623 74.0723 291.134 74.5229C291.645 74.9649 291.914 75.5716 291.94 76.3429H290.666C290.64 75.9096 290.488 75.5759 290.211 75.3419C289.934 75.0993 289.565 74.9779 289.106 74.9779C288.612 74.9779 288.218 75.1209 287.923 75.4069C287.637 75.6843 287.494 76.0786 287.494 76.5899V78.5009C287.494 79.0209 287.637 79.4196 287.923 79.6969C288.218 79.9743 288.612 80.1129 289.106 80.1129C289.565 80.1129 289.934 79.9959 290.211 79.7619C290.488 79.5279 290.64 79.1943 290.666 78.7609H291.94C291.914 79.5323 291.645 80.1433 291.134 80.5939C290.623 81.0359 289.947 81.2569 289.106 81.2569Z" fill="white"/>
<path d="M278.723 81.1269V73.9769H279.997V75.3419H280.023C280.083 74.8653 280.278 74.4969 280.608 74.2369C280.946 73.9769 281.388 73.8469 281.934 73.8469C282.67 73.8469 283.26 74.0853 283.702 74.5619C284.144 75.0386 284.365 75.6799 284.365 76.4859V77.0059H283.065V76.5899C283.065 76.0786 282.93 75.6799 282.662 75.3939C282.402 75.1079 282.016 74.9649 281.505 74.9649C280.508 74.9649 280.01 75.5153 280.01 76.6159V81.1269H278.723Z" fill="white"/>
<path d="M272.801 81.2569C272.047 81.2569 271.453 81.0663 271.02 80.6849C270.595 80.2949 270.383 79.7706 270.383 79.1119C270.383 78.4359 270.604 77.9073 271.046 77.5259C271.496 77.1359 272.107 76.9409 272.879 76.9409H274.959V76.2649C274.959 75.8489 274.829 75.5283 274.569 75.3029C274.317 75.0689 273.966 74.9519 273.516 74.9519C273.108 74.9519 272.766 75.0429 272.489 75.2249C272.22 75.3983 272.055 75.6279 271.995 75.9139H270.734C270.768 75.4979 270.911 75.1383 271.163 74.8349C271.414 74.5229 271.743 74.2803 272.151 74.1069C272.558 73.9336 273.017 73.8469 273.529 73.8469C274.361 73.8469 275.019 74.0636 275.505 74.4969C275.999 74.9216 276.246 75.4979 276.246 76.2259V81.1269H274.985V79.8009H274.972C274.911 80.2516 274.686 80.6069 274.296 80.8669C273.906 81.1269 273.407 81.2569 272.801 81.2569ZM273.152 80.2559C273.672 80.2559 274.101 80.1259 274.439 79.8659C274.785 79.5973 274.959 79.2549 274.959 78.8389V77.8639H272.905C272.523 77.8639 272.22 77.9679 271.995 78.1759C271.778 78.3839 271.67 78.6656 271.67 79.0209C271.67 79.4109 271.8 79.7143 272.06 79.9309C272.32 80.1476 272.684 80.2559 273.152 80.2559Z" fill="white"/>
<path d="M265.671 81.2569C265.099 81.2569 264.597 81.1443 264.163 80.9189C263.739 80.6849 263.409 80.3643 263.175 79.9569C262.941 79.5409 262.824 79.0556 262.824 78.5009V76.5899C262.824 76.0439 262.941 75.5673 263.175 75.1599C263.409 74.7439 263.739 74.4233 264.163 74.1979C264.597 73.9639 265.099 73.8469 265.671 73.8469C266.243 73.8469 266.742 73.9639 267.166 74.1979C267.6 74.4233 267.933 74.7439 268.167 75.1599C268.401 75.5673 268.518 76.0439 268.518 76.5899V77.8639H264.085V78.5009C264.085 79.0556 264.22 79.4759 264.488 79.7619C264.766 80.0479 265.16 80.1909 265.671 80.1909C266.105 80.1909 266.451 80.1173 266.711 79.9699C266.971 79.8139 267.136 79.5843 267.205 79.2809H268.479C268.393 79.8876 268.089 80.3686 267.569 80.7239C267.058 81.0793 266.425 81.2569 265.671 81.2569ZM264.085 76.5899V76.9409H267.27V76.5899C267.27 76.0439 267.132 75.6279 266.854 75.3419C266.586 75.0473 266.191 74.8999 265.671 74.8999C265.151 74.8999 264.757 75.0473 264.488 75.3419C264.22 75.6279 264.085 76.0439 264.085 76.5899Z" fill="white"/>
<path d="M257.64 81.2309C256.886 81.2309 256.267 81.0576 255.781 80.7109C255.305 80.3643 255.066 79.8919 255.066 79.2939H256.379C256.379 79.5626 256.496 79.7706 256.73 79.9179C256.973 80.0566 257.285 80.1259 257.666 80.1259H258.212C258.663 80.1259 258.997 80.0393 259.213 79.8659C259.43 79.6839 259.538 79.4456 259.538 79.1509C259.538 78.8563 259.434 78.6266 259.226 78.4619C259.018 78.2973 258.724 78.1803 258.342 78.1109L257.367 77.9679C255.946 77.7426 255.235 77.0536 255.235 75.9009C255.235 75.2423 255.452 74.7396 255.885 74.3929C256.319 74.0463 256.938 73.8729 257.744 73.8729H258.238C258.984 73.8729 259.582 74.0419 260.032 74.3799C260.483 74.7093 260.708 75.1469 260.708 75.6929H259.395C259.395 75.4763 259.287 75.3029 259.07 75.1729C258.862 75.0429 258.576 74.9779 258.212 74.9779H257.718C257.32 74.9779 257.016 75.0603 256.808 75.2249C256.6 75.3809 256.496 75.6063 256.496 75.9009C256.496 76.4036 256.852 76.7113 257.562 76.8239L258.537 76.9799C259.317 77.1013 259.889 77.3309 260.253 77.6689C260.617 77.9983 260.799 78.4749 260.799 79.0989C260.799 79.7663 260.578 80.2906 260.136 80.6719C259.703 81.0446 259.053 81.2309 258.186 81.2309H257.64Z" fill="white"/>
<path d="M250.081 81.2569C249.509 81.2569 249.007 81.1443 248.573 80.9189C248.149 80.6849 247.819 80.3643 247.585 79.9569C247.351 79.5409 247.234 79.0556 247.234 78.5009V76.5899C247.234 76.0439 247.351 75.5673 247.585 75.1599C247.819 74.7439 248.149 74.4233 248.573 74.1979C249.007 73.9639 249.509 73.8469 250.081 73.8469C250.653 73.8469 251.152 73.9639 251.576 74.1979C252.01 74.4233 252.343 74.7439 252.577 75.1599C252.811 75.5673 252.928 76.0439 252.928 76.5899V77.8639H248.495V78.5009C248.495 79.0556 248.63 79.4759 248.898 79.7619C249.176 80.0479 249.57 80.1909 250.081 80.1909C250.515 80.1909 250.861 80.1173 251.121 79.9699C251.381 79.8139 251.546 79.5843 251.615 79.2809H252.889C252.803 79.8876 252.499 80.3686 251.979 80.7239C251.468 81.0793 250.835 81.2569 250.081 81.2569ZM248.495 76.5899V76.9409H251.68V76.5899C251.68 76.0439 251.542 75.6279 251.264 75.3419C250.996 75.0473 250.601 74.8999 250.081 74.8999C249.561 74.8999 249.167 75.0473 248.898 75.3419C248.63 75.6279 248.495 76.0439 248.495 76.5899Z" fill="white"/>
<path d="M239.527 81.127V71.637H242.478C243.059 71.637 243.566 71.754 243.999 71.988C244.433 72.2133 244.771 72.534 245.013 72.95C245.256 73.3573 245.377 73.8383 245.377 74.393C245.377 75.0343 245.213 75.5846 244.883 76.044C244.554 76.5033 244.108 76.824 243.544 77.006L245.507 81.127H244.012L242.244 77.162H240.814V81.127H239.527ZM240.814 76.018H242.478C242.964 76.018 243.345 75.8706 243.622 75.576C243.908 75.2813 244.051 74.8913 244.051 74.406C244.051 73.912 243.908 73.5176 243.622 73.223C243.336 72.9283 242.955 72.781 242.478 72.781H240.814V76.018Z" fill="white"/>
<path d="M224.109 81.127V79.957H226.046V72.807H224.109V71.637H229.283V72.807H227.346V79.957H229.283V81.127H224.109Z" fill="white"/>
<path d="M215.598 81.127L218.055 71.637H219.758L222.202 81.127H220.889L220.291 78.657H217.509L216.911 81.127H215.598ZM217.769 77.591H220.031L219.355 74.757C219.225 74.237 219.121 73.795 219.043 73.431C218.965 73.067 218.917 72.82 218.9 72.69C218.882 72.82 218.835 73.067 218.757 73.431C218.679 73.795 218.579 74.2326 218.458 74.744L217.769 77.591Z" fill="white"/>
<path d="M359.988 105.127C359.373 105.127 358.883 104.949 358.519 104.594C358.164 104.239 357.986 103.766 357.986 103.177V99.147H355.984V97.977H357.986V95.962H359.273V97.977H362.094V99.147H359.273V103.164C359.273 103.398 359.338 103.589 359.468 103.736C359.607 103.883 359.789 103.957 360.014 103.957H361.964V105.127H359.988Z" fill="white"/>
<path d="M348.672 107.467V97.9769H349.946V99.3159H349.959C350.046 98.8566 350.258 98.4969 350.596 98.2369C350.943 97.9769 351.38 97.8469 351.909 97.8469C352.62 97.8469 353.192 98.0896 353.625 98.5749C354.058 99.0516 354.275 99.7016 354.275 100.525V102.566C354.275 103.398 354.058 104.057 353.625 104.542C353.2 105.019 352.628 105.257 351.909 105.257C351.389 105.257 350.956 105.127 350.609 104.867C350.262 104.598 350.046 104.234 349.959 103.775H349.933L349.959 105.4V107.467H348.672ZM351.467 104.139C351.944 104.139 352.316 104 352.585 103.723C352.854 103.437 352.988 103.03 352.988 102.501V100.59C352.988 100.07 352.854 99.6713 352.585 99.3939C352.316 99.1079 351.944 98.9649 351.467 98.9649C350.999 98.9649 350.631 99.1079 350.362 99.3939C350.093 99.6799 349.959 100.083 349.959 100.603V102.501C349.959 103.021 350.093 103.424 350.362 103.71C350.631 103.996 350.999 104.139 351.467 104.139Z" fill="white"/>
<path d="M340.797 105.127V103.957H343.306V99.1469H341.057V97.9769H344.593V103.957H346.946V105.127H340.797ZM343.826 96.7159C343.531 96.7159 343.297 96.6423 343.124 96.4949C342.951 96.3389 342.864 96.1309 342.864 95.8709C342.864 95.6023 342.951 95.3899 343.124 95.2339C343.297 95.0779 343.531 94.9999 343.826 94.9999C344.121 94.9999 344.355 95.0779 344.528 95.2339C344.701 95.3899 344.788 95.6023 344.788 95.8709C344.788 96.1309 344.701 96.3389 344.528 96.4949C344.355 96.6423 344.121 96.7159 343.826 96.7159Z" fill="white"/>
<path d="M333.289 105.127V97.9769H334.563V99.3419H334.589C334.65 98.8653 334.845 98.4969 335.174 98.2369C335.512 97.9769 335.954 97.8469 336.5 97.8469C337.237 97.8469 337.826 98.0853 338.268 98.5619C338.71 99.0386 338.931 99.6799 338.931 100.486V101.006H337.631V100.59C337.631 100.079 337.497 99.6799 337.228 99.3939C336.968 99.1079 336.582 98.9649 336.071 98.9649C335.074 98.9649 334.576 99.5153 334.576 100.616V105.127H333.289Z" fill="white"/>
<path d="M328.083 105.257C327.207 105.257 326.505 105.014 325.977 104.529C325.448 104.035 325.184 103.359 325.184 102.501V100.59C325.184 99.7406 325.448 99.0733 325.977 98.5879C326.505 98.0939 327.207 97.8469 328.083 97.8469C328.923 97.8469 329.599 98.0723 330.111 98.5229C330.622 98.9649 330.891 99.5716 330.917 100.343H329.643C329.617 99.9096 329.465 99.5759 329.188 99.3419C328.91 99.0993 328.542 98.9779 328.083 98.9779C327.589 98.9779 327.194 99.1209 326.9 99.4069C326.614 99.6843 326.471 100.079 326.471 100.59V102.501C326.471 103.021 326.614 103.42 326.9 103.697C327.194 103.974 327.589 104.113 328.083 104.113C328.542 104.113 328.91 103.996 329.188 103.762C329.465 103.528 329.617 103.194 329.643 102.761H330.917C330.891 103.532 330.622 104.143 330.111 104.594C329.599 105.036 328.923 105.257 328.083 105.257Z" fill="white"/>
<path d="M320 105.231C319.246 105.231 318.626 105.058 318.141 104.711C317.664 104.364 317.426 103.892 317.426 103.294H318.739C318.739 103.563 318.856 103.771 319.09 103.918C319.332 104.057 319.644 104.126 320.026 104.126H320.572C321.022 104.126 321.356 104.039 321.573 103.866C321.789 103.684 321.898 103.446 321.898 103.151C321.898 102.856 321.794 102.627 321.586 102.462C321.378 102.297 321.083 102.18 320.702 102.111L319.727 101.968C318.305 101.743 317.595 101.054 317.595 99.9009C317.595 99.2423 317.811 98.7396 318.245 98.3929C318.678 98.0463 319.298 97.8729 320.104 97.8729H320.598C321.343 97.8729 321.941 98.0419 322.392 98.3799C322.842 98.7093 323.068 99.1469 323.068 99.6929H321.755C321.755 99.4763 321.646 99.3029 321.43 99.1729C321.222 99.0429 320.936 98.9779 320.572 98.9779H320.078C319.679 98.9779 319.376 99.0603 319.168 99.2249C318.96 99.3809 318.856 99.6063 318.856 99.9009C318.856 100.404 319.211 100.711 319.922 100.824L320.897 100.98C321.677 101.101 322.249 101.331 322.613 101.669C322.977 101.998 323.159 102.475 323.159 103.099C323.159 103.766 322.938 104.291 322.496 104.672C322.062 105.045 321.412 105.231 320.546 105.231H320Z" fill="white"/>
<path d="M309.684 105.127V97.9769H310.958V99.3419H310.984C311.044 98.8653 311.239 98.4969 311.569 98.2369C311.898 97.9769 312.336 97.8469 312.882 97.8469C313.592 97.8469 314.16 98.0723 314.585 98.5229C315.009 98.9736 315.222 99.5803 315.222 100.343V105.127H313.935V100.486C313.935 100.001 313.805 99.6279 313.545 99.3679C313.285 99.0993 312.929 98.9649 312.479 98.9649C312.011 98.9649 311.642 99.1079 311.374 99.3939C311.105 99.6713 310.971 100.07 310.971 100.59V105.127H309.684Z" fill="white"/>
<path d="M303.98 105.257C303.226 105.257 302.633 105.066 302.2 104.685C301.775 104.295 301.562 103.771 301.562 103.112C301.562 102.436 301.784 101.907 302.226 101.526C302.676 101.136 303.287 100.941 304.059 100.941H306.138V100.265C306.138 99.8489 306.008 99.5283 305.748 99.3029C305.497 99.0689 305.146 98.9519 304.696 98.9519C304.288 98.9519 303.946 99.0429 303.669 99.2249C303.4 99.3983 303.235 99.6279 303.174 99.9139H301.913C301.948 99.4979 302.091 99.1383 302.342 98.8349C302.594 98.5229 302.923 98.2803 303.33 98.1069C303.738 97.9336 304.197 97.8469 304.708 97.8469C305.54 97.8469 306.199 98.0636 306.685 98.4969C307.179 98.9216 307.425 99.4979 307.425 100.226V105.127H306.164V103.801H306.151C306.091 104.252 305.866 104.607 305.476 104.867C305.086 105.127 304.587 105.257 303.98 105.257ZM304.331 104.256C304.851 104.256 305.28 104.126 305.618 103.866C305.965 103.597 306.138 103.255 306.138 102.839V101.864H304.085C303.703 101.864 303.4 101.968 303.174 102.176C302.958 102.384 302.85 102.666 302.85 103.021C302.85 103.411 302.98 103.714 303.24 103.931C303.5 104.148 303.863 104.256 304.331 104.256Z" fill="white"/>
<path d="M294.312 105.127V97.9769H295.587V99.3419H295.613C295.673 98.8653 295.868 98.4969 296.198 98.2369C296.536 97.9769 296.978 97.8469 297.524 97.8469C298.26 97.8469 298.85 98.0853 299.292 98.5619C299.734 99.0386 299.955 99.6799 299.955 100.486V101.006H298.655V100.59C298.655 100.079 298.52 99.6799 298.252 99.3939C297.992 99.1079 297.606 98.9649 297.095 98.9649C296.098 98.9649 295.6 99.5153 295.6 100.616V105.127H294.312Z" fill="white"/>
<path d="M288.418 105.127V96.807H285.844V95.637H292.266V96.807H289.705V105.127H288.418Z" fill="white"/>
<path d="M272.996 105.257C272.277 105.257 271.701 105.019 271.267 104.542C270.834 104.057 270.617 103.402 270.617 102.579V100.525C270.617 99.7016 270.834 99.0516 271.267 98.575C271.701 98.0896 272.277 97.847 272.996 97.847C273.516 97.847 273.945 97.9813 274.283 98.25C274.63 98.51 274.847 98.8653 274.933 99.316H274.959L274.933 97.691V95.637H276.22V105.127H274.946V103.775H274.933C274.847 104.243 274.63 104.607 274.283 104.867C273.945 105.127 273.516 105.257 272.996 105.257ZM273.438 104.139C273.898 104.139 274.262 103.996 274.53 103.71C274.799 103.424 274.933 103.021 274.933 102.501V100.603C274.933 100.083 274.799 99.68 274.53 99.394C274.262 99.108 273.898 98.965 273.438 98.965C272.962 98.965 272.585 99.108 272.307 99.394C272.039 99.6713 271.904 100.07 271.904 100.59V102.501C271.904 103.03 272.039 103.437 272.307 103.723C272.585 104 272.962 104.139 273.438 104.139Z" fill="white"/>
<path d="M265.008 105.257C264.254 105.257 263.66 105.066 263.227 104.685C262.802 104.295 262.59 103.771 262.59 103.112C262.59 102.436 262.811 101.907 263.253 101.526C263.704 101.136 264.315 100.941 265.086 100.941H267.166V100.265C267.166 99.8489 267.036 99.5283 266.776 99.3029C266.525 99.0689 266.174 98.9519 265.723 98.9519C265.316 98.9519 264.973 99.0429 264.696 99.2249C264.427 99.3983 264.263 99.6279 264.202 99.9139H262.941C262.976 99.4979 263.119 99.1383 263.37 98.8349C263.621 98.5229 263.951 98.2803 264.358 98.1069C264.765 97.9336 265.225 97.8469 265.736 97.8469C266.568 97.8469 267.227 98.0636 267.712 98.4969C268.206 98.9216 268.453 99.4979 268.453 100.226V105.127H267.192V103.801H267.179C267.118 104.252 266.893 104.607 266.503 104.867C266.113 105.127 265.615 105.257 265.008 105.257ZM265.359 104.256C265.879 104.256 266.308 104.126 266.646 103.866C266.993 103.597 267.166 103.255 267.166 102.839V101.864H265.112C264.731 101.864 264.427 101.968 264.202 102.176C263.985 102.384 263.877 102.666 263.877 103.021C263.877 103.411 264.007 103.714 264.267 103.931C264.527 104.148 264.891 104.256 265.359 104.256Z" fill="white"/>
<path d="M257.874 105.231C256.999 105.231 256.306 104.988 255.794 104.503C255.283 104.009 255.027 103.337 255.027 102.488V100.616C255.027 99.7666 255.283 99.0993 255.794 98.6139C256.306 98.1199 256.999 97.8729 257.874 97.8729C258.75 97.8729 259.443 98.1199 259.954 98.6139C260.466 99.0993 260.721 99.7623 260.721 100.603V102.488C260.721 103.337 260.466 104.009 259.954 104.503C259.443 104.988 258.75 105.231 257.874 105.231ZM257.874 104.1C258.36 104.1 258.741 103.966 259.018 103.697C259.296 103.42 259.434 103.017 259.434 102.488V100.616C259.434 100.087 259.296 99.6886 259.018 99.4199C258.741 99.1426 258.36 99.0039 257.874 99.0039C257.389 99.0039 257.008 99.1426 256.73 99.4199C256.453 99.6886 256.314 100.087 256.314 100.616V102.488C256.314 103.017 256.453 103.42 256.73 103.697C257.008 103.966 257.389 104.1 257.874 104.1Z" fill="white"/>
<path d="M251.148 105.127C250.498 105.127 249.978 104.936 249.588 104.555C249.198 104.174 249.003 103.667 249.003 103.034V96.807H246.559V95.637H250.29V103.021C250.29 103.307 250.368 103.537 250.524 103.71C250.688 103.875 250.909 103.957 251.187 103.957H253.358V105.127H251.148Z" fill="white"/>
<path d="M239.527 105.127V97.9769H240.801V99.3419H240.827C240.888 98.8653 241.083 98.4969 241.412 98.2369C241.742 97.9769 242.179 97.8469 242.725 97.8469C243.436 97.8469 244.004 98.0723 244.428 98.5229C244.853 98.9736 245.065 99.5803 245.065 100.343V105.127H243.778V100.486C243.778 100.001 243.648 99.6279 243.388 99.3679C243.128 99.0993 242.773 98.9649 242.322 98.9649C241.854 98.9649 241.486 99.1079 241.217 99.3939C240.949 99.6713 240.814 100.07 240.814 100.59V105.127H239.527Z" fill="white"/>
<path d="M232.123 105.127L230.992 97.9769H232.084L232.773 102.865C232.799 103.073 232.821 103.303 232.838 103.554C232.864 103.797 232.886 103.996 232.903 104.152H232.955C232.973 103.987 232.994 103.784 233.02 103.541C233.055 103.298 233.09 103.073 233.124 102.865L233.878 97.9769H235.1L235.854 102.865C235.889 103.082 235.919 103.311 235.945 103.554C235.98 103.788 236.006 103.987 236.023 104.152H236.075C236.101 103.996 236.127 103.797 236.153 103.554C236.179 103.303 236.205 103.073 236.231 102.865L236.946 97.9769H237.986L236.803 105.127H235.425L234.684 100.317C234.65 100.083 234.615 99.8403 234.58 99.5889C234.546 99.3289 234.52 99.1209 234.502 98.9649H234.45C234.433 99.1209 234.407 99.3289 234.372 99.5889C234.346 99.8403 234.316 100.083 234.281 100.317L233.514 105.127H232.123Z" fill="white"/>
<path d="M226.695 105.231C225.819 105.231 225.126 104.988 224.615 104.503C224.103 104.009 223.848 103.337 223.848 102.488V100.616C223.848 99.7666 224.103 99.0993 224.615 98.6139C225.126 98.1199 225.819 97.8729 226.695 97.8729C227.57 97.8729 228.263 98.1199 228.775 98.6139C229.286 99.0993 229.542 99.7623 229.542 100.603V102.488C229.542 103.337 229.286 104.009 228.775 104.503C228.263 104.988 227.57 105.231 226.695 105.231ZM226.695 104.1C227.18 104.1 227.561 103.966 227.839 103.697C228.116 103.42 228.255 103.017 228.255 102.488V100.616C228.255 100.087 228.116 99.6886 227.839 99.4199C227.561 99.1426 227.18 99.0039 226.695 99.0039C226.209 99.0039 225.828 99.1426 225.551 99.4199C225.273 99.6886 225.135 100.087 225.135 100.616V102.488C225.135 103.017 225.273 103.42 225.551 103.697C225.828 103.966 226.209 104.1 226.695 104.1Z" fill="white"/>
<path d="M216.145 105.127V95.637H218.693C219.308 95.637 219.841 95.7583 220.292 96.001C220.751 96.235 221.106 96.5686 221.358 97.002C221.609 97.4266 221.735 97.9293 221.735 98.51V102.241C221.735 102.822 221.609 103.329 221.358 103.762C221.106 104.195 220.751 104.533 220.292 104.776C219.841 105.01 219.308 105.127 218.693 105.127H216.145ZM217.432 103.983H218.693C219.239 103.983 219.668 103.827 219.98 103.515C220.292 103.203 220.448 102.778 220.448 102.241V98.51C220.448 97.9726 220.292 97.5523 219.98 97.249C219.668 96.937 219.239 96.781 218.693 96.781H217.432V103.983Z" fill="white"/>
<circle cx="200" cy="101.127" r="5" fill="white"/>
<path fill-rule="evenodd" clip-rule="evenodd" d="M202.066 99.5636C202.132 99.6293 202.168 99.7184 202.168 99.8113C202.168 99.9042 202.132 99.9933 202.066 100.059L199.44 102.685C199.405 102.72 199.364 102.747 199.319 102.766C199.274 102.785 199.225 102.794 199.176 102.794C199.127 102.794 199.078 102.785 199.033 102.766C198.987 102.747 198.946 102.72 198.912 102.685L197.607 101.38C197.573 101.348 197.547 101.309 197.528 101.267C197.51 101.224 197.5 101.178 197.5 101.131C197.5 101.085 197.508 101.039 197.526 100.996C197.544 100.953 197.57 100.914 197.603 100.881C197.636 100.848 197.675 100.822 197.718 100.804C197.761 100.787 197.807 100.778 197.853 100.778C197.9 100.779 197.946 100.788 197.989 100.807C198.031 100.825 198.07 100.852 198.102 100.885L199.176 101.958L201.57 99.5636C201.603 99.5311 201.641 99.5052 201.684 99.4876C201.726 99.47 201.772 99.4609 201.818 99.4609C201.864 99.4609 201.91 99.47 201.952 99.4876C201.995 99.5052 202.033 99.5311 202.066 99.5636Z" fill="#151515" stroke="#151515" stroke-width="0.7"/>
<path d="M382.593 129.257C382.021 129.257 381.518 129.144 381.085 128.919C380.66 128.685 380.331 128.364 380.097 127.957C379.863 127.541 379.746 127.056 379.746 126.501V124.59C379.746 124.044 379.863 123.567 380.097 123.16C380.331 122.744 380.66 122.423 381.085 122.198C381.518 121.964 382.021 121.847 382.593 121.847C383.165 121.847 383.663 121.964 384.088 122.198C384.521 122.423 384.855 122.744 385.089 123.16C385.323 123.567 385.44 124.044 385.44 124.59V125.864H381.007V126.501C381.007 127.056 381.141 127.476 381.41 127.762C381.687 128.048 382.082 128.191 382.593 128.191C383.026 128.191 383.373 128.117 383.633 127.97C383.893 127.814 384.058 127.584 384.127 127.281H385.401C385.314 127.888 385.011 128.369 384.491 128.724C383.98 129.079 383.347 129.257 382.593 129.257ZM381.007 124.59V124.941H384.192V124.59C384.192 124.044 384.053 123.628 383.776 123.342C383.507 123.047 383.113 122.9 382.593 122.9C382.073 122.9 381.679 123.047 381.41 123.342C381.141 123.628 381.007 124.044 381.007 124.59Z" fill="white"/>
<path d="M371.641 129.127V121.977H372.746V122.861H372.824C372.876 122.558 373.01 122.315 373.227 122.133C373.443 121.942 373.708 121.847 374.02 121.847C374.306 121.847 374.553 121.938 374.761 122.12C374.969 122.302 375.12 122.549 375.216 122.861H375.281C375.333 122.558 375.467 122.315 375.684 122.133C375.909 121.942 376.182 121.847 376.503 121.847C376.927 121.847 377.274 122.02 377.543 122.367C377.82 122.705 377.959 123.147 377.959 123.693V129.127H376.789V123.706C376.789 123.117 376.546 122.822 376.061 122.822C375.818 122.822 375.632 122.9 375.502 123.056C375.372 123.203 375.307 123.42 375.307 123.706V129.127H374.293V123.706C374.293 123.429 374.223 123.212 374.085 123.056C373.955 122.9 373.773 122.822 373.539 122.822C373.053 122.822 372.811 123.117 372.811 123.706V129.127H371.641Z" fill="white"/>
<path d="M364.184 129.127V127.957H366.693V123.147H364.444V121.977H367.98V127.957H370.333V129.127H364.184ZM367.213 120.716C366.918 120.716 366.684 120.642 366.511 120.495C366.337 120.339 366.251 120.131 366.251 119.871C366.251 119.602 366.337 119.39 366.511 119.234C366.684 119.078 366.918 119 367.213 119C367.507 119 367.741 119.078 367.915 119.234C368.088 119.39 368.175 119.602 368.175 119.871C368.175 120.131 368.088 120.339 367.915 120.495C367.741 120.642 367.507 120.716 367.213 120.716Z" fill="white"/>
<path d="M358.57 129.127V120.807H355.996V119.637H362.418V120.807H359.857V129.127H358.57Z" fill="white"/>
<path d="M342.008 131.467L343.048 128.698L340.305 121.977H341.709L343.373 126.202C343.433 126.367 343.494 126.562 343.555 126.787C343.615 127.004 343.663 127.186 343.698 127.333C343.732 127.186 343.78 127.004 343.841 126.787C343.91 126.562 343.975 126.367 344.036 126.202L345.583 121.977H346.935L343.347 131.467H342.008Z" fill="white"/>
<path d="M333.289 129.127V121.977H334.563V123.342H334.589C334.65 122.865 334.845 122.497 335.174 122.237C335.512 121.977 335.954 121.847 336.5 121.847C337.237 121.847 337.826 122.085 338.268 122.562C338.71 123.039 338.931 123.68 338.931 124.486V125.006H337.631V124.59C337.631 124.079 337.497 123.68 337.228 123.394C336.968 123.108 336.582 122.965 336.071 122.965C335.074 122.965 334.576 123.515 334.576 124.616V129.127H333.289Z" fill="white"/>
<path d="M325.207 129.127V127.957H327.716V123.147H325.467V121.977H329.003V127.957H331.356V129.127H325.207ZM328.236 120.716C327.941 120.716 327.707 120.642 327.534 120.495C327.361 120.339 327.274 120.131 327.274 119.871C327.274 119.602 327.361 119.39 327.534 119.234C327.707 119.078 327.941 119 328.236 119C328.531 119 328.765 119.078 328.938 119.234C329.111 119.39 329.198 119.602 329.198 119.871C329.198 120.131 329.111 120.339 328.938 120.495C328.765 120.642 328.531 120.716 328.236 120.716Z" fill="white"/>
<path d="M317.492 131.467V121.977H318.766V123.316H318.779C318.866 122.857 319.078 122.497 319.416 122.237C319.763 121.977 320.201 121.847 320.729 121.847C321.44 121.847 322.012 122.09 322.445 122.575C322.879 123.052 323.095 123.702 323.095 124.525V126.566C323.095 127.398 322.879 128.057 322.445 128.542C322.021 129.019 321.449 129.257 320.729 129.257C320.209 129.257 319.776 129.127 319.429 128.867C319.083 128.598 318.866 128.234 318.779 127.775H318.753L318.779 129.4V131.467H317.492ZM320.287 128.139C320.764 128.139 321.137 128 321.405 127.723C321.674 127.437 321.808 127.03 321.808 126.501V124.59C321.808 124.07 321.674 123.671 321.405 123.394C321.137 123.108 320.764 122.965 320.287 122.965C319.819 122.965 319.451 123.108 319.182 123.394C318.914 123.68 318.779 124.083 318.779 124.603V126.501C318.779 127.021 318.914 127.424 319.182 127.71C319.451 127.996 319.819 128.139 320.287 128.139Z" fill="white"/>
<path d="M309.137 129.127L311.672 125.448L309.306 121.977H310.801L312.14 124.07C312.2 124.174 312.257 124.282 312.309 124.395C312.369 124.508 312.417 124.599 312.452 124.668C312.478 124.599 312.517 124.508 312.569 124.395C312.629 124.282 312.69 124.174 312.751 124.07L314.103 121.977H315.585L313.219 125.461L315.741 129.127H314.233L312.777 126.878C312.716 126.783 312.655 126.674 312.595 126.553C312.534 126.423 312.486 126.319 312.452 126.241C312.408 126.319 312.356 126.423 312.296 126.553C312.235 126.674 312.17 126.783 312.101 126.878L310.632 129.127H309.137Z" fill="white"/>
<path d="M302.004 129.127V119.637H307.529V120.794H303.278V123.615H307.074V124.733H303.278V127.97H307.529V129.127H302.004Z" fill="white"/>
<path d="M289.054 129.257C288.482 129.257 287.979 129.144 287.546 128.919C287.121 128.685 286.792 128.364 286.558 127.957C286.324 127.541 286.207 127.056 286.207 126.501V124.59C286.207 124.044 286.324 123.567 286.558 123.16C286.792 122.744 287.121 122.423 287.546 122.198C287.979 121.964 288.482 121.847 289.054 121.847C289.626 121.847 290.124 121.964 290.549 122.198C290.982 122.423 291.316 122.744 291.55 123.16C291.784 123.567 291.901 124.044 291.901 124.59V125.864H287.468V126.501C287.468 127.056 287.602 127.476 287.871 127.762C288.148 128.048 288.543 128.191 289.054 128.191C289.487 128.191 289.834 128.117 290.094 127.97C290.354 127.814 290.519 127.584 290.588 127.281H291.862C291.775 127.888 291.472 128.369 290.952 128.724C290.441 129.079 289.808 129.257 289.054 129.257ZM287.468 124.59V124.941H290.653V124.59C290.653 124.044 290.514 123.628 290.237 123.342C289.968 123.047 289.574 122.9 289.054 122.9C288.534 122.9 288.14 123.047 287.871 123.342C287.602 123.628 287.468 124.044 287.468 124.59Z" fill="white"/>
<path d="M279.428 131.467V130.323H281.664C282.375 130.323 282.73 129.985 282.73 129.309V128.49L282.756 127.19H282.73C282.678 127.649 282.483 128.013 282.145 128.282C281.807 128.551 281.369 128.685 280.832 128.685C280.095 128.685 279.515 128.442 279.09 127.957C278.665 127.472 278.453 126.817 278.453 125.994V124.525C278.453 123.702 278.665 123.052 279.09 122.575C279.515 122.09 280.095 121.847 280.832 121.847C281.369 121.847 281.807 121.981 282.145 122.25C282.483 122.51 282.678 122.874 282.73 123.342H282.743L282.73 121.977H284.004V129.322C284.004 129.989 283.796 130.514 283.38 130.895C282.964 131.276 282.392 131.467 281.664 131.467H279.428ZM281.235 127.567C281.694 127.567 282.058 127.424 282.327 127.138C282.596 126.852 282.73 126.449 282.73 125.929V124.59C282.73 124.079 282.596 123.68 282.327 123.394C282.058 123.108 281.694 122.965 281.235 122.965C280.758 122.965 280.39 123.108 280.13 123.394C279.87 123.671 279.74 124.07 279.74 124.59V125.929C279.74 126.458 279.87 126.865 280.13 127.151C280.39 127.428 280.758 127.567 281.235 127.567Z" fill="white"/>
<path d="M272.801 129.257C272.047 129.257 271.453 129.066 271.02 128.685C270.595 128.295 270.383 127.771 270.383 127.112C270.383 126.436 270.604 125.907 271.046 125.526C271.496 125.136 272.107 124.941 272.879 124.941H274.959V124.265C274.959 123.849 274.829 123.528 274.569 123.303C274.317 123.069 273.966 122.952 273.516 122.952C273.108 122.952 272.766 123.043 272.489 123.225C272.22 123.398 272.055 123.628 271.995 123.914H270.734C270.768 123.498 270.911 123.138 271.163 122.835C271.414 122.523 271.743 122.28 272.151 122.107C272.558 121.934 273.017 121.847 273.529 121.847C274.361 121.847 275.019 122.064 275.505 122.497C275.999 122.922 276.246 123.498 276.246 124.226V129.127H274.985V127.801H274.972C274.911 128.252 274.686 128.607 274.296 128.867C273.906 129.127 273.407 129.257 272.801 129.257ZM273.152 128.256C273.672 128.256 274.101 128.126 274.439 127.866C274.785 127.597 274.959 127.255 274.959 126.839V125.864H272.905C272.523 125.864 272.22 125.968 271.995 126.176C271.778 126.384 271.67 126.666 271.67 127.021C271.67 127.411 271.8 127.714 272.06 127.931C272.32 128.148 272.684 128.256 273.152 128.256Z" fill="white"/>
<path d="M265.437 129.231C264.683 129.231 264.064 129.058 263.578 128.711C263.102 128.364 262.863 127.892 262.863 127.294H264.176C264.176 127.563 264.293 127.771 264.527 127.918C264.77 128.057 265.082 128.126 265.463 128.126H266.009C266.46 128.126 266.794 128.039 267.01 127.866C267.227 127.684 267.335 127.446 267.335 127.151C267.335 126.856 267.231 126.627 267.023 126.462C266.815 126.297 266.521 126.18 266.139 126.111L265.164 125.968C263.743 125.743 263.032 125.054 263.032 123.901C263.032 123.242 263.249 122.74 263.682 122.393C264.116 122.046 264.735 121.873 265.541 121.873H266.035C266.781 121.873 267.379 122.042 267.829 122.38C268.28 122.709 268.505 123.147 268.505 123.693H267.192C267.192 123.476 267.084 123.303 266.867 123.173C266.659 123.043 266.373 122.978 266.009 122.978H265.515C265.117 122.978 264.813 123.06 264.605 123.225C264.397 123.381 264.293 123.606 264.293 123.901C264.293 124.404 264.649 124.711 265.359 124.824L266.334 124.98C267.114 125.101 267.686 125.331 268.05 125.669C268.414 125.998 268.596 126.475 268.596 127.099C268.596 127.766 268.375 128.291 267.933 128.672C267.5 129.045 266.85 129.231 265.983 129.231H265.437Z" fill="white"/>
<path d="M257.64 129.231C256.886 129.231 256.267 129.058 255.781 128.711C255.305 128.364 255.066 127.892 255.066 127.294H256.379C256.379 127.563 256.496 127.771 256.73 127.918C256.973 128.057 257.285 128.126 257.666 128.126H258.212C258.663 128.126 258.997 128.039 259.213 127.866C259.43 127.684 259.538 127.446 259.538 127.151C259.538 126.856 259.434 126.627 259.226 126.462C259.018 126.297 258.724 126.18 258.342 126.111L257.367 125.968C255.946 125.743 255.235 125.054 255.235 123.901C255.235 123.242 255.452 122.74 255.885 122.393C256.319 122.046 256.938 121.873 257.744 121.873H258.238C258.984 121.873 259.582 122.042 260.032 122.38C260.483 122.709 260.708 123.147 260.708 123.693H259.395C259.395 123.476 259.287 123.303 259.07 123.173C258.862 123.043 258.576 122.978 258.212 122.978H257.718C257.32 122.978 257.016 123.06 256.808 123.225C256.6 123.381 256.496 123.606 256.496 123.901C256.496 124.404 256.852 124.711 257.562 124.824L258.537 124.98C259.317 125.101 259.889 125.331 260.253 125.669C260.617 125.998 260.799 126.475 260.799 127.099C260.799 127.766 260.578 128.291 260.136 128.672C259.703 129.045 259.053 129.231 258.186 129.231H257.64Z" fill="white"/>
<path d="M250.081 129.257C249.509 129.257 249.007 129.144 248.573 128.919C248.149 128.685 247.819 128.364 247.585 127.957C247.351 127.541 247.234 127.056 247.234 126.501V124.59C247.234 124.044 247.351 123.567 247.585 123.16C247.819 122.744 248.149 122.423 248.573 122.198C249.007 121.964 249.509 121.847 250.081 121.847C250.653 121.847 251.152 121.964 251.576 122.198C252.01 122.423 252.343 122.744 252.577 123.16C252.811 123.567 252.928 124.044 252.928 124.59V125.864H248.495V126.501C248.495 127.056 248.63 127.476 248.898 127.762C249.176 128.048 249.57 128.191 250.081 128.191C250.515 128.191 250.861 128.117 251.121 127.97C251.381 127.814 251.546 127.584 251.615 127.281H252.889C252.803 127.888 252.499 128.369 251.979 128.724C251.468 129.079 250.835 129.257 250.081 129.257ZM248.495 124.59V124.941H251.68V124.59C251.68 124.044 251.542 123.628 251.264 123.342C250.996 123.047 250.601 122.9 250.081 122.9C249.561 122.9 249.167 123.047 248.898 123.342C248.63 123.628 248.495 124.044 248.495 124.59Z" fill="white"/>
<path d="M239.309 129.127V119.637H240.947L241.935 122.692C242.021 122.978 242.095 123.255 242.156 123.524C242.225 123.784 242.277 123.983 242.312 124.122C242.338 123.983 242.381 123.784 242.442 123.524C242.511 123.255 242.589 122.974 242.676 122.679L243.625 119.637H245.263V129.127H244.028V124.772C244.028 123.975 244.058 123.203 244.119 122.458C244.188 121.704 244.27 120.989 244.366 120.313L242.884 124.98H241.688L240.193 120.339C240.279 120.98 240.357 121.661 240.427 122.38C240.505 123.099 240.544 123.897 240.544 124.772V129.127H239.309Z" fill="white"/>
<path d="M226.695 129.231C225.819 129.231 225.126 128.988 224.615 128.503C224.103 128.009 223.848 127.337 223.848 126.488V124.616C223.848 123.767 224.103 123.099 224.615 122.614C225.126 122.12 225.819 121.873 226.695 121.873C227.57 121.873 228.263 122.12 228.775 122.614C229.286 123.099 229.542 123.762 229.542 124.603V126.488C229.542 127.337 229.286 128.009 228.775 128.503C228.263 128.988 227.57 129.231 226.695 129.231ZM226.695 128.1C227.18 128.1 227.561 127.966 227.839 127.697C228.116 127.42 228.255 127.017 228.255 126.488V124.616C228.255 124.087 228.116 123.689 227.839 123.42C227.561 123.143 227.18 123.004 226.695 123.004C226.209 123.004 225.828 123.143 225.551 123.42C225.273 123.689 225.135 124.087 225.135 124.616V126.488C225.135 127.017 225.273 127.42 225.551 127.697C225.828 127.966 226.209 128.1 226.695 128.1Z" fill="white"/>
<path d="M216.117 129.127V119.637H217.781L220.615 127.645C220.589 127.42 220.563 127.142 220.537 126.813C220.52 126.475 220.503 126.128 220.485 125.773C220.477 125.409 220.472 125.067 220.472 124.746V119.637H221.694V129.127H220.017L217.209 121.119C217.227 121.344 217.244 121.622 217.261 121.951C217.279 122.272 217.292 122.61 217.3 122.965C217.318 123.32 217.326 123.654 217.326 123.966V129.127H216.117Z" fill="white"/>
<circle cx="200" cy="125.127" r="5" fill="white"/>
<path fill-rule="evenodd" clip-rule="evenodd" d="M202.066 123.564C202.132 123.629 202.168 123.718 202.168 123.811C202.168 123.904 202.132 123.993 202.066 124.059L199.44 126.685C199.405 126.72 199.364 126.747 199.319 126.766C199.274 126.785 199.225 126.794 199.176 126.794C199.127 126.794 199.078 126.785 199.033 126.766C198.987 126.747 198.946 126.72 198.912 126.685L197.607 125.38C197.573 125.348 197.547 125.309 197.528 125.267C197.51 125.224 197.5 125.178 197.5 125.131C197.5 125.085 197.508 125.039 197.526 124.996C197.544 124.953 197.57 124.914 197.603 124.881C197.636 124.848 197.675 124.822 197.718 124.804C197.761 124.787 197.807 124.778 197.853 124.778C197.9 124.779 197.946 124.788 197.989 124.807C198.031 124.825 198.07 124.852 198.102 124.885L199.176 125.958L201.57 123.564C201.603 123.531 201.641 123.505 201.684 123.488C201.726 123.47 201.772 123.461 201.818 123.461C201.864 123.461 201.91 123.47 201.952 123.488C201.995 123.505 202.033 123.531 202.066 123.564Z" fill="#151515" stroke="#151515" stroke-width="0.7"/>
</g>
<defs>
<clipPath id="clip0_43_2439">
<rect width="428" height="157" fill="white"/>
</clipPath>
</defs>
</svg>
