<svg width="14" height="18" viewBox="0 0 14 18" fill="none" xmlns="http://www.w3.org/2000/svg">
<path d="M6.54545 0L3.27273 3.27273H5.72727V10.6364H7.36364V3.27273H9.81818M11.4545 18H1.63636C0.728182 18 0 17.2636 0 16.3636V6.54545C0 6.11146 0.172402 5.69525 0.47928 5.38837C0.786157 5.08149 1.20237 4.90909 1.63636 4.90909H4.09091V6.54545H1.63636V16.3636H11.4545V6.54545H9V4.90909H11.4545C11.8885 4.90909 12.3048 5.08149 12.6116 5.38837C12.9185 5.69525 13.0909 6.11146 13.0909 6.54545V16.3636C13.0909 16.7976 12.9185 17.2138 12.6116 17.5207C12.3048 17.8276 11.8885 18 11.4545 18Z" fill="white"/>
</svg>
