<svg width="17" height="17" viewBox="0 0 17 17" fill="none" xmlns="http://www.w3.org/2000/svg">
<path d="M8.49935 1.41602C4.58935 1.41602 1.41602 4.58935 1.41602 8.49935C1.41602 12.4093 4.58935 15.5827 8.49935 15.5827C12.4093 15.5827 15.5827 12.4093 15.5827 8.49935C15.5827 4.58935 12.4093 1.41602 8.49935 1.41602ZM11.786 6.23268C11.6798 7.35185 11.2193 10.0718 10.9856 11.3256C10.8864 11.8568 10.6881 12.0339 10.5039 12.0552C10.0931 12.0906 9.78143 11.786 9.38477 11.5239C8.76143 11.1131 8.40727 10.8581 7.80518 10.4614C7.10393 10.001 7.55727 9.74602 7.96102 9.33518C8.06727 9.22893 9.8806 7.57852 9.91602 7.42977C9.92094 7.40724 9.92028 7.38385 9.91411 7.36163C9.90794 7.33941 9.89643 7.31903 9.8806 7.30227C9.8381 7.26685 9.78143 7.28102 9.73185 7.2881C9.6681 7.30227 8.67643 7.96102 6.74268 9.26435C6.45935 9.4556 6.20435 9.55477 5.97768 9.54768C5.72268 9.5406 5.24102 9.40602 4.87977 9.2856C4.43352 9.14393 4.08643 9.06602 4.11477 8.8181C4.12893 8.6906 4.30602 8.5631 4.63893 8.42852C6.70727 7.52893 8.08143 6.93393 8.76852 6.6506C10.7377 5.82893 11.1414 5.68727 11.4106 5.68727C11.4673 5.68727 11.6018 5.70143 11.6868 5.77227C11.7577 5.82893 11.7789 5.90685 11.786 5.96352C11.7789 6.00602 11.7931 6.13352 11.786 6.23268Z" fill="white"/>
</svg>
