<svg width="72" height="72" viewBox="0 0 72 72" fill="none" xmlns="http://www.w3.org/2000/svg">
<mask id="mask0_2891_7492" style="mask-type:luminance" maskUnits="userSpaceOnUse" x="4" y="4" width="64" height="64">
<path d="M36 66C39.9404 66.0051 43.843 65.2315 47.4834 63.7235C51.1239 62.2155 54.4304 60.003 57.213 57.213C60.003 54.4304 62.2155 51.1239 63.7235 47.4834C65.2315 43.843 66.0051 39.9404 66 36C66.005 32.0596 65.2313 28.1571 63.7234 24.5167C62.2154 20.8762 60.0029 17.5697 57.213 14.787C54.4304 11.9971 51.1239 9.78452 47.4834 8.27655C43.843 6.76858 39.9404 5.99492 36 6.00003C32.0596 5.995 28.1571 6.7687 24.5167 8.27667C20.8762 9.78463 17.5697 11.9971 14.787 14.787C11.9971 17.5697 9.78463 20.8762 8.27667 24.5167C6.7687 28.1571 5.995 32.0596 6.00003 36C5.99492 39.9404 6.76858 43.843 8.27655 47.4834C9.78452 51.1239 11.9971 54.4304 14.787 57.213C17.5697 60.0029 20.8762 62.2154 24.5167 63.7234C28.1571 65.2313 32.0596 66.005 36 66Z" fill="white" stroke="white" stroke-width="4" stroke-linejoin="round"/>
<path d="M24 36L33 45L51 27" stroke="black" stroke-width="4" stroke-linecap="round" stroke-linejoin="round"/>
</mask>
<g mask="url(#mask0_2891_7492)">
<path d="M0 0H72V72H0V0Z" fill="#DDDDDD"/>
</g>
</svg>
