<svg width="13" height="16" viewBox="0 0 13 16" fill="none" xmlns="http://www.w3.org/2000/svg">
<path d="M2.05115 16C1.63211 16 1.27325 15.8507 0.974583 15.552C0.675916 15.2533 0.526837 14.8947 0.527345 14.4762V6.85714C0.527345 6.4381 0.676678 6.07924 0.975345 5.78057C1.27401 5.4819 1.63261 5.33283 2.05115 5.33333H2.81306V3.80952C2.81306 2.75556 3.18462 1.85702 3.92773 1.11391C4.67084 0.370794 5.56912 -0.000507416 6.62258 5.20427e-07C7.67655 5.20427e-07 8.57509 0.371556 9.3182 1.11467C10.0613 1.85778 10.4326 2.75606 10.4321 3.80952V5.33333H11.194C11.6131 5.33333 11.9719 5.48267 12.2706 5.78133C12.5692 6.08 12.7183 6.4386 12.7178 6.85714V14.4762C12.7178 14.8952 12.5685 15.2541 12.2698 15.5528C11.9712 15.8514 11.6126 16.0005 11.194 16H2.05115ZM6.62258 12.1905C7.04163 12.1905 7.40049 12.0411 7.69915 11.7425C7.99782 11.4438 8.1469 11.0852 8.14639 10.6667C8.14639 10.2476 7.99706 9.88876 7.69839 9.5901C7.39973 9.29143 7.04112 9.14235 6.62258 9.14286C6.20354 9.14286 5.84468 9.29219 5.54601 9.59086C5.24734 9.88952 5.09827 10.2481 5.09877 10.6667C5.09877 11.0857 5.24811 11.4446 5.54677 11.7432C5.84544 12.0419 6.20404 12.191 6.62258 12.1905ZM4.33687 5.33333H8.9083V3.80952C8.9083 3.1746 8.68608 2.63492 8.24163 2.19048C7.79719 1.74603 7.2575 1.52381 6.62258 1.52381C5.98766 1.52381 5.44798 1.74603 5.00354 2.19048C4.55909 2.63492 4.33687 3.1746 4.33687 3.80952V5.33333Z" fill="#92959D"/>
</svg>
