<svg width="10" height="10" viewBox="0 0 10 10" fill="none" xmlns="http://www.w3.org/2000/svg">
<path d="M6.84444 0H3.15556C3.01111 0 2.86667 0.0611111 2.76667 0.161111L0.161111 2.76667C0.0611111 2.86667 0 3.01111 0 3.15556V6.83889C0 6.98889 0.0611111 7.12778 0.161111 7.23333L2.76111 9.83333C2.86667 9.93889 3.01111 10 3.15556 10H6.83889C6.98889 10 7.12778 9.93889 7.23333 9.83889L9.83333 7.23889C9.88507 7.18716 9.92597 7.12563 9.95364 7.0579C9.9813 6.99017 9.99517 6.9176 9.99444 6.84444V3.15556C9.99444 3.00556 9.93333 2.86667 9.83333 2.76111L7.23333 0.161111C7.13333 0.0611111 6.98889 0 6.84444 0ZM5 7.94444C4.6 7.94444 4.27778 7.62222 4.27778 7.22222C4.27778 6.82222 4.6 6.5 5 6.5C5.4 6.5 5.72222 6.82222 5.72222 7.22222C5.72222 7.62222 5.4 7.94444 5 7.94444ZM5 5.55556C4.69444 5.55556 4.44444 5.30556 4.44444 5V2.77778C4.44444 2.47222 4.69444 2.22222 5 2.22222C5.30556 2.22222 5.55556 2.47222 5.55556 2.77778V5C5.55556 5.30556 5.30556 5.55556 5 5.55556Z" fill="#AAAAAA"/>
</svg>
