<svg width="17" height="17" viewBox="0 0 17 17" fill="none" xmlns="http://www.w3.org/2000/svg">
<path d="M1.41886 15.5827L2.37653 12.0637C1.7455 10.982 1.41397 9.75168 1.41603 8.49935C1.41603 4.58722 4.58723 1.41602 8.49936 1.41602C12.4115 1.41602 15.5827 4.58722 15.5827 8.49935C15.5827 12.4115 12.4115 15.5827 8.49936 15.5827C7.24758 15.5847 6.01782 15.2534 4.93644 14.6229L1.41886 15.5827ZM5.94298 5.17585C5.85151 5.18153 5.76213 5.20562 5.68019 5.24668C5.60335 5.29019 5.53321 5.34459 5.47194 5.40818C5.38694 5.48822 5.33878 5.55764 5.28707 5.62493C5.02527 5.96564 4.88446 6.38385 4.88686 6.81352C4.88828 7.1606 4.97894 7.49847 5.12061 7.81439C5.41032 8.45331 5.88702 9.12977 6.51673 9.75664C6.66832 9.90752 6.81636 10.0591 6.97573 10.2001C7.7573 10.8882 8.68866 11.3844 9.69573 11.6493L10.0988 11.7109C10.2298 11.718 10.3609 11.7081 10.4926 11.7017C10.6989 11.6911 10.9003 11.6352 11.0827 11.5381C11.1754 11.4903 11.2659 11.4383 11.3539 11.3823C11.3539 11.3823 11.3844 11.3624 11.4425 11.3185C11.5381 11.2477 11.5969 11.1974 11.6762 11.1145C11.735 11.0536 11.786 10.9821 11.825 10.9006C11.8802 10.7851 11.9355 10.5648 11.9581 10.3814C11.9751 10.2411 11.9702 10.1646 11.9681 10.1172C11.9652 10.0414 11.9022 9.96277 11.8335 9.92947L11.4212 9.7446C11.4212 9.7446 10.805 9.47614 10.4289 9.30472C10.3892 9.28744 10.3467 9.27759 10.3035 9.27568C10.255 9.2707 10.2061 9.27616 10.1599 9.29167C10.1137 9.30719 10.0714 9.33241 10.0357 9.36564V9.36422C10.0322 9.36422 9.98473 9.4046 9.47261 10.0251C9.44321 10.0646 9.40273 10.0944 9.3563 10.1108C9.30988 10.1272 9.25962 10.1295 9.21194 10.1172C9.16579 10.1048 9.12058 10.0892 9.07665 10.0704C8.98882 10.0336 8.95836 10.0194 8.89815 9.99322L8.89461 9.99181C8.48938 9.81488 8.11418 9.57591 7.78253 9.28347C7.69327 9.20556 7.6104 9.12056 7.5254 9.03839C7.24673 8.77152 7.00386 8.46961 6.8029 8.14022L6.76111 8.07293C6.73109 8.02772 6.70682 7.97894 6.68886 7.92772C6.66194 7.8236 6.73207 7.74002 6.73207 7.74002C6.73207 7.74002 6.90419 7.5516 6.98423 7.4496C7.05088 7.36483 7.11306 7.27664 7.17052 7.18539C7.25411 7.05081 7.28032 6.91268 7.2364 6.80572C7.03807 6.32122 6.83265 5.83885 6.62157 5.36002C6.57977 5.2651 6.45582 5.1971 6.34319 5.18364C6.30494 5.17939 6.26669 5.17514 6.22844 5.17231C6.13332 5.16758 6.038 5.16924 5.94298 5.17585Z" fill="white"/>
</svg>
