<svg width="18" height="27" viewBox="0 0 18 27" fill="none" xmlns="http://www.w3.org/2000/svg">
<path fill-rule="evenodd" clip-rule="evenodd" d="M0 2C0 0.890015 0.890015 0 2 0H10L16 6V12H10C8.89545 12 8 12.8954 8 14V20H2C1.46954 20 0.960876 19.7893 0.585815 19.4142C0.210693 19.0392 0 18.5304 0 18V2ZM9 1.5V7H14.5L9 1.5Z" fill="#AAAAAA"/>
<path d="M11.012 15.1H12.8L14.168 23.5H12.848L12.608 21.832V21.856H11.108L10.868 23.5H9.644L11.012 15.1ZM12.452 20.716L11.864 16.564H11.84L11.264 20.716H12.452ZM14.8084 15.1H16.1284V23.5H14.8084V15.1Z" fill="#AAAAAA"/>
</svg>
