<svg width="22" height="27" viewBox="0 0 22 27" fill="none" xmlns="http://www.w3.org/2000/svg">
<path fill-rule="evenodd" clip-rule="evenodd" d="M0.5 2C0.5 0.890015 1.39001 0 2.5 0H10.5L16.5 6V12H10.5C9.39545 12 8.5 12.8954 8.5 14V20H2.5C1.96954 20 1.46088 19.7893 1.08582 19.4142C0.710693 19.0392 0.5 18.5304 0.5 18V2ZM9.5 1.5V7H15L9.5 1.5Z" fill="#AAAAAA"/>
<path d="M11.512 15.1H13.3L14.668 23.5H13.348L13.108 21.832V21.856H11.608L11.368 23.5H10.144L11.512 15.1ZM12.952 20.716L12.364 16.564H12.34L11.764 20.716H12.952ZM14.6206 15.1H15.9526L16.8166 21.616H16.8406L17.7046 15.1H18.9166L17.6446 23.5H15.8926L14.6206 15.1ZM19.5506 15.1H20.8706V23.5H19.5506V15.1Z" fill="#AAAAAA"/>
</svg>
