<svg width="24" height="27" viewBox="0 0 24 27" fill="none" xmlns="http://www.w3.org/2000/svg">
<path fill-rule="evenodd" clip-rule="evenodd" d="M0.5 2C0.5 0.890015 1.39001 0 2.5 0H10.5L16.5 6V12H10.5C9.39545 12 8.5 12.8954 8.5 14V20H2.5C1.96954 20 1.46088 19.7893 1.08582 19.4142C0.710693 19.0392 0.5 18.5304 0.5 18V2ZM9.5 1.5V7H15L9.5 1.5Z" fill="#AAAAAA"/>
<path d="M12.352 23.62C11.72 23.62 11.236 23.44 10.9 23.08C10.572 22.72 10.408 22.212 10.408 21.556V17.044C10.408 16.388 10.572 15.88 10.9 15.52C11.236 15.16 11.72 14.98 12.352 14.98C12.984 14.98 13.464 15.16 13.792 15.52C14.128 15.88 14.296 16.388 14.296 17.044V17.932H13.048V16.96C13.048 16.44 12.828 16.18 12.388 16.18C11.948 16.18 11.728 16.44 11.728 16.96V21.652C11.728 22.164 11.948 22.42 12.388 22.42C12.828 22.42 13.048 22.164 13.048 21.652V20.368H14.296V21.556C14.296 22.212 14.128 22.72 13.792 23.08C13.464 23.44 12.984 23.62 12.352 23.62ZM16.8252 23.62C16.1852 23.62 15.7012 23.44 15.3732 23.08C15.0452 22.712 14.8812 22.188 14.8812 21.508V21.028H16.1292V21.604C16.1292 22.148 16.3572 22.42 16.8132 22.42C17.0372 22.42 17.2052 22.356 17.3172 22.228C17.4372 22.092 17.4972 21.876 17.4972 21.58C17.4972 21.228 17.4172 20.92 17.2572 20.656C17.0972 20.384 16.8012 20.06 16.3692 19.684C15.8252 19.204 15.4452 18.772 15.2292 18.388C15.0132 17.996 14.9052 17.556 14.9052 17.068C14.9052 16.404 15.0732 15.892 15.4092 15.532C15.7452 15.164 16.2332 14.98 16.8732 14.98C17.5052 14.98 17.9812 15.164 18.3012 15.532C18.6292 15.892 18.7932 16.412 18.7932 17.092V17.44H17.5452V17.008C17.5452 16.72 17.4892 16.512 17.3772 16.384C17.2652 16.248 17.1012 16.18 16.8852 16.18C16.4452 16.18 16.2252 16.448 16.2252 16.984C16.2252 17.288 16.3052 17.572 16.4652 17.836C16.6332 18.1 16.9332 18.42 17.3652 18.796C17.9172 19.276 18.2972 19.712 18.5052 20.104C18.7132 20.496 18.8172 20.956 18.8172 21.484C18.8172 22.172 18.6452 22.7 18.3012 23.068C17.9652 23.436 17.4732 23.62 16.8252 23.62ZM21.29 23.62C20.65 23.62 20.166 23.44 19.838 23.08C19.51 22.712 19.346 22.188 19.346 21.508V21.028H20.594V21.604C20.594 22.148 20.822 22.42 21.278 22.42C21.502 22.42 21.67 22.356 21.782 22.228C21.902 22.092 21.962 21.876 21.962 21.58C21.962 21.228 21.882 20.92 21.722 20.656C21.562 20.384 21.266 20.06 20.834 19.684C20.29 19.204 19.91 18.772 19.694 18.388C19.478 17.996 19.37 17.556 19.37 17.068C19.37 16.404 19.538 15.892 19.874 15.532C20.21 15.164 20.698 14.98 21.338 14.98C21.97 14.98 22.446 15.164 22.766 15.532C23.094 15.892 23.258 16.412 23.258 17.092V17.44H22.01V17.008C22.01 16.72 21.954 16.512 21.842 16.384C21.73 16.248 21.566 16.18 21.35 16.18C20.91 16.18 20.69 16.448 20.69 16.984C20.69 17.288 20.77 17.572 20.93 17.836C21.098 18.1 21.398 18.42 21.83 18.796C22.382 19.276 22.762 19.712 22.97 20.104C23.178 20.496 23.282 20.956 23.282 21.484C23.282 22.172 23.11 22.7 22.766 23.068C22.43 23.436 21.938 23.62 21.29 23.62Z" fill="#AAAAAA"/>
</svg>
