<svg width="26" height="26" viewBox="0 0 26 26" fill="none" xmlns="http://www.w3.org/2000/svg">
<path fill-rule="evenodd" clip-rule="evenodd" d="M1 3C1 1.89001 1.89001 1 3 1H11L17 7V13H11C9.89545 13 9 13.8954 9 15V21H3C2.46954 21 1.96088 20.7893 1.58582 20.4142C1.21069 20.0392 1 19.5304 1 19V3ZM10 2.5V8H15.5L10 2.5Z" fill="#AAAAAA"/>
<path d="M22.5319 24.6205C21.8999 24.6205 21.4159 24.4405 21.0799 24.0805C20.7519 23.7205 20.5879 23.2125 20.5879 22.5565V18.0445C20.5879 17.3885 20.7519 16.8805 21.0799 16.5205C21.4159 16.1605 21.8999 15.9805 22.5319 15.9805C23.1639 15.9805 23.6439 16.1605 23.9719 16.5205C24.3079 16.8805 24.4759 17.3885 24.4759 18.0445V18.9325H23.2279V17.9605C23.2279 17.4405 23.0079 17.1805 22.5679 17.1805C22.1279 17.1805 21.9079 17.4405 21.9079 17.9605V22.6525C21.9079 23.1645 22.1279 23.4205 22.5679 23.4205C23.0079 23.4205 23.2279 23.1645 23.2279 22.6525V21.3685H24.4759V22.5565C24.4759 23.2125 24.3079 23.7205 23.9719 24.0805C23.6439 24.4405 23.1639 24.6205 22.5319 24.6205Z" fill="#AAAAAA"/>
<path d="M17.7755 24.6205C17.1275 24.6205 16.6315 24.4365 16.2875 24.0685C15.9435 23.7005 15.7715 23.1805 15.7715 22.5085V18.0925C15.7715 17.4205 15.9435 16.9005 16.2875 16.5325C16.6315 16.1645 17.1275 15.9805 17.7755 15.9805C18.4235 15.9805 18.9195 16.1645 19.2635 16.5325C19.6075 16.9005 19.7795 17.4205 19.7795 18.0925V22.5085C19.7795 23.1805 19.6075 23.7005 19.2635 24.0685C18.9195 24.4365 18.4235 24.6205 17.7755 24.6205ZM17.7755 23.4205C18.2315 23.4205 18.4595 23.1445 18.4595 22.5925V18.0085C18.4595 17.4565 18.2315 17.1805 17.7755 17.1805C17.3195 17.1805 17.0915 17.4565 17.0915 18.0085V22.5925C17.0915 23.1445 17.3195 23.4205 17.7755 23.4205Z" fill="#AAAAAA"/>
<path d="M10.9922 16.0996H13.0082C13.6642 16.0996 14.1562 16.2756 14.4842 16.6276C14.8122 16.9796 14.9762 17.4956 14.9762 18.1756V22.4236C14.9762 23.1036 14.8122 23.6196 14.4842 23.9716C14.1562 24.3236 13.6642 24.4996 13.0082 24.4996H10.9922V16.0996ZM12.9842 23.2996C13.2002 23.2996 13.3642 23.2356 13.4762 23.1076C13.5962 22.9796 13.6562 22.7716 13.6562 22.4836V18.1156C13.6562 17.8276 13.5962 17.6196 13.4762 17.4916C13.3642 17.3636 13.2002 17.2996 12.9842 17.2996H12.3122V23.2996H12.9842Z" fill="#AAAAAA"/>
</svg>
