<svg width="22" height="27" viewBox="0 0 22 27" fill="none" xmlns="http://www.w3.org/2000/svg">
<path fill-rule="evenodd" clip-rule="evenodd" d="M0 2C0 0.890015 0.890015 0 2 0H10L16 6V12H10C8.89545 12 8 12.8954 8 14V20H2C1.46954 20 0.960876 19.7893 0.585815 19.4142C0.210693 19.0392 0 18.5304 0 18V2ZM9 1.5V7H14.5L9 1.5Z" fill="#AAAAAA"/>
<path d="M11.864 23.62C11.224 23.62 10.736 23.44 10.4 23.08C10.064 22.712 9.896 22.188 9.896 21.508V17.092C9.896 16.412 10.064 15.892 10.4 15.532C10.736 15.164 11.224 14.98 11.864 14.98C12.504 14.98 12.992 15.164 13.328 15.532C13.664 15.892 13.832 16.412 13.832 17.092V17.812H12.584V17.008C12.584 16.456 12.356 16.18 11.9 16.18C11.444 16.18 11.216 16.456 11.216 17.008V21.604C11.216 22.148 11.444 22.42 11.9 22.42C12.356 22.42 12.584 22.148 12.584 21.604V19.96H11.924V18.76H13.832V21.508C13.832 22.188 13.664 22.712 13.328 23.08C12.992 23.44 12.504 23.62 11.864 23.62ZM14.6795 15.1H15.9995V23.5H14.6795V15.1ZM16.9881 15.1H20.4801V16.3H18.3081V18.64H20.0121V19.84H18.3081V23.5H16.9881V15.1Z" fill="#AAAAAA"/>
</svg>
