<svg width="30" height="27" viewBox="0 0 30 27" fill="none" xmlns="http://www.w3.org/2000/svg">
<path fill-rule="evenodd" clip-rule="evenodd" d="M0 2C0 0.890015 0.890015 0 2 0H10L16 6V12H10C8.89545 12 8 12.8954 8 14V20H2C1.46954 20 0.960876 19.7893 0.585815 19.4142C0.210693 19.0392 0 18.5304 0 18V2ZM9 1.5V7H14.5L9 1.5Z" fill="#AAAAAA"/>
<path d="M9.992 15.1H11.312V18.52H12.728V15.1H14.048V23.5H12.728V19.72H11.312V23.5H9.992V15.1ZM16.0631 16.3H14.6831V15.1H18.7631V16.3H17.3831V23.5H16.0631V16.3ZM19.4022 15.1H21.2862L22.1262 21.112H22.1502L22.9902 15.1H24.8742V23.5H23.6262V17.14H23.6022L22.6422 23.5H21.5382L20.5782 17.14H20.5542V23.5H19.4022V15.1ZM25.8592 15.1H27.1792V22.3H29.3512V23.5H25.8592V15.1Z" fill="#AAAAAA"/>
</svg>
