<svg width="23" height="27" viewBox="0 0 23 27" fill="none" xmlns="http://www.w3.org/2000/svg">
<path fill-rule="evenodd" clip-rule="evenodd" d="M0 2C0 0.890015 0.890015 0 2 0H10L16 6V12H10C8.89545 12 8 12.8954 8 14V20H2C1.46954 20 0.960876 19.7893 0.585815 19.4142C0.210693 19.0392 0 18.5304 0 18V2ZM9 1.5V7H14.5L9 1.5Z" fill="#AAAAAA"/>
<path d="M10.304 23.548C10.064 23.548 9.86 23.532 9.692 23.5V22.3C9.82 22.332 9.964 22.348 10.124 22.348C10.388 22.348 10.584 22.284 10.712 22.156C10.84 22.02 10.904 21.816 10.904 21.544V15.1H12.224V21.508C12.224 22.196 12.064 22.708 11.744 23.044C11.432 23.38 10.952 23.548 10.304 23.548ZM13.1678 15.1H15.1118C15.7678 15.1 16.2598 15.276 16.5878 15.628C16.9158 15.98 17.0798 16.496 17.0798 17.176V18.004C17.0798 18.684 16.9158 19.2 16.5878 19.552C16.2598 19.904 15.7678 20.08 15.1118 20.08H14.4878V23.5H13.1678V15.1ZM15.1118 18.88C15.3278 18.88 15.4878 18.82 15.5918 18.7C15.7038 18.58 15.7598 18.376 15.7598 18.088V17.092C15.7598 16.804 15.7038 16.6 15.5918 16.48C15.4878 16.36 15.3278 16.3 15.1118 16.3H14.4878V18.88H15.1118ZM19.6687 23.62C19.0287 23.62 18.5407 23.44 18.2047 23.08C17.8687 22.712 17.7007 22.188 17.7007 21.508V17.092C17.7007 16.412 17.8687 15.892 18.2047 15.532C18.5407 15.164 19.0287 14.98 19.6687 14.98C20.3087 14.98 20.7967 15.164 21.1327 15.532C21.4687 15.892 21.6367 16.412 21.6367 17.092V17.812H20.3887V17.008C20.3887 16.456 20.1607 16.18 19.7047 16.18C19.2487 16.18 19.0207 16.456 19.0207 17.008V21.604C19.0207 22.148 19.2487 22.42 19.7047 22.42C20.1607 22.42 20.3887 22.148 20.3887 21.604V19.96H19.7287V18.76H21.6367V21.508C21.6367 22.188 21.4687 22.712 21.1327 23.08C20.7967 23.44 20.3087 23.62 19.6687 23.62Z" fill="#AAAAAA"/>
</svg>
