<svg width="18" height="27" viewBox="0 0 18 27" fill="none" xmlns="http://www.w3.org/2000/svg">
<path fill-rule="evenodd" clip-rule="evenodd" d="M0 2C0 0.890015 0.890015 0 2 0H10L16 6V12H10C8.89545 12 8 12.8954 8 14V20H2C1.46954 20 0.960876 19.7893 0.585815 19.4142C0.210693 19.0392 0 18.5304 0 18V2ZM9 1.5V7H14.5L9 1.5Z" fill="#AAAAAA"/>
<path d="M10.304 23.548C10.064 23.548 9.86 23.532 9.692 23.5V22.3C9.82 22.332 9.964 22.348 10.124 22.348C10.388 22.348 10.584 22.284 10.712 22.156C10.84 22.02 10.904 21.816 10.904 21.544V15.1H12.224V21.508C12.224 22.196 12.064 22.708 11.744 23.044C11.432 23.38 10.952 23.548 10.304 23.548ZM14.8838 23.62C14.2438 23.62 13.7598 23.44 13.4318 23.08C13.1038 22.712 12.9398 22.188 12.9398 21.508V21.028H14.1878V21.604C14.1878 22.148 14.4158 22.42 14.8718 22.42C15.0958 22.42 15.2638 22.356 15.3758 22.228C15.4958 22.092 15.5558 21.876 15.5558 21.58C15.5558 21.228 15.4758 20.92 15.3158 20.656C15.1558 20.384 14.8598 20.06 14.4278 19.684C13.8838 19.204 13.5038 18.772 13.2878 18.388C13.0718 17.996 12.9638 17.556 12.9638 17.068C12.9638 16.404 13.1318 15.892 13.4678 15.532C13.8038 15.164 14.2918 14.98 14.9318 14.98C15.5638 14.98 16.0398 15.164 16.3598 15.532C16.6878 15.892 16.8518 16.412 16.8518 17.092V17.44H15.6038V17.008C15.6038 16.72 15.5478 16.512 15.4358 16.384C15.3238 16.248 15.1598 16.18 14.9438 16.18C14.5038 16.18 14.2838 16.448 14.2838 16.984C14.2838 17.288 14.3638 17.572 14.5238 17.836C14.6918 18.1 14.9918 18.42 15.4238 18.796C15.9758 19.276 16.3558 19.712 16.5638 20.104C16.7718 20.496 16.8758 20.956 16.8758 21.484C16.8758 22.172 16.7038 22.7 16.3598 23.068C16.0238 23.436 15.5318 23.62 14.8838 23.62Z" fill="#AAAAAA"/>
</svg>
