<svg width="26" height="27" viewBox="0 0 26 27" fill="none" xmlns="http://www.w3.org/2000/svg">
<path fill-rule="evenodd" clip-rule="evenodd" d="M0 2C0 0.890015 0.890015 0 2 0H10L16 6V12H10C8.89545 12 8 12.8954 8 14V20H2C1.46954 20 0.960876 19.7893 0.585815 19.4142C0.210693 19.0392 0 18.5304 0 18V2ZM9 1.5V7H14.5L9 1.5Z" fill="#AAAAAA"/>
<path d="M9.992 15.1H11.876L12.716 21.112H12.74L13.58 15.1H15.464V23.5H14.216V17.14H14.192L13.232 23.5H12.128L11.168 17.14H11.144V23.5H9.992V15.1ZM18.357 23.62C17.709 23.62 17.213 23.436 16.869 23.068C16.525 22.7 16.353 22.18 16.353 21.508V17.092C16.353 16.42 16.525 15.9 16.869 15.532C17.213 15.164 17.709 14.98 18.357 14.98C19.005 14.98 19.501 15.164 19.845 15.532C20.189 15.9 20.361 16.42 20.361 17.092V21.508C20.361 22.18 20.189 22.7 19.845 23.068C19.501 23.436 19.005 23.62 18.357 23.62ZM18.357 22.42C18.813 22.42 19.041 22.144 19.041 21.592V17.008C19.041 16.456 18.813 16.18 18.357 16.18C17.901 16.18 17.673 16.456 17.673 17.008V21.592C17.673 22.144 17.901 22.42 18.357 22.42ZM20.8823 15.1H22.2143L23.0783 21.616H23.1023L23.9663 15.1H25.1783L23.9063 23.5H22.1543L20.8823 15.1Z" fill="#AAAAAA"/>
</svg>
