<svg width="26" height="27" viewBox="0 0 26 27" fill="none" xmlns="http://www.w3.org/2000/svg">
<path fill-rule="evenodd" clip-rule="evenodd" d="M0 2C0 0.890015 0.890015 0 2 0H10L16 6V12H10C8.89545 12 8 12.8954 8 14V20H2C1.46954 20 0.960876 19.7893 0.585815 19.4142C0.210693 19.0392 0 18.5304 0 18V2ZM9 1.5V7H14.5L9 1.5Z" fill="#AAAAAA"/>
<path d="M9.992 15.1H11.876L12.716 21.112H12.74L13.58 15.1H15.464V23.5H14.216V17.14H14.192L13.232 23.5H12.128L11.168 17.14H11.144V23.5H9.992V15.1ZM16.449 15.1H18.393C19.049 15.1 19.541 15.276 19.869 15.628C20.197 15.98 20.361 16.496 20.361 17.176V18.004C20.361 18.684 20.197 19.2 19.869 19.552C19.541 19.904 19.049 20.08 18.393 20.08H17.769V23.5H16.449V15.1ZM18.393 18.88C18.609 18.88 18.769 18.82 18.873 18.7C18.985 18.58 19.041 18.376 19.041 18.088V17.092C19.041 16.804 18.985 16.6 18.873 16.48C18.769 16.36 18.609 16.3 18.393 16.3H17.769V18.88H18.393ZM22.9499 23.62C22.3019 23.62 21.8099 23.44 21.4739 23.08C21.1459 22.72 20.9819 22.204 20.9819 21.532V20.848H22.2299V21.592C22.2299 22.144 22.4579 22.42 22.9139 22.42C23.1379 22.42 23.3059 22.352 23.4179 22.216C23.5379 22.072 23.5979 21.824 23.5979 21.472V20.788C23.5979 20.404 23.5299 20.132 23.3939 19.972C23.2579 19.804 23.0379 19.72 22.7339 19.72H22.2899V18.52H22.7699C23.0339 18.52 23.2299 18.452 23.3579 18.316C23.4939 18.18 23.5619 17.952 23.5619 17.632V17.02C23.5619 16.732 23.5019 16.52 23.3819 16.384C23.2619 16.248 23.1019 16.18 22.9019 16.18C22.4779 16.18 22.2659 16.44 22.2659 16.96V17.512H21.0179V17.068C21.0179 16.396 21.1819 15.88 21.5099 15.52C21.8459 15.16 22.3259 14.98 22.9499 14.98C23.5819 14.98 24.0619 15.16 24.3899 15.52C24.7179 15.872 24.8819 16.384 24.8819 17.056V17.356C24.8819 17.812 24.8059 18.18 24.6539 18.46C24.5019 18.732 24.2659 18.928 23.9459 19.048V19.072C24.2899 19.2 24.5379 19.408 24.6899 19.696C24.8419 19.984 24.9179 20.352 24.9179 20.8V21.544C24.9179 22.216 24.7499 22.732 24.4139 23.092C24.0859 23.444 23.5979 23.62 22.9499 23.62Z" fill="#AAAAAA"/>
</svg>
