<svg width="25" height="27" viewBox="0 0 25 27" fill="none" xmlns="http://www.w3.org/2000/svg">
<path fill-rule="evenodd" clip-rule="evenodd" d="M0.5 2C0.5 0.890015 1.39001 0 2.5 0H10.5L16.5 6V12H10.5C9.39545 12 8.5 12.8954 8.5 14V20H2.5C1.96954 20 1.46088 19.7893 1.08582 19.4142C0.710693 19.0392 0.5 18.5304 0.5 18V2ZM9.5 1.5V7H15L9.5 1.5Z" fill="#AAAAAA"/>
<path d="M10.492 15.1H12.436C13.092 15.1 13.584 15.276 13.912 15.628C14.24 15.98 14.404 16.496 14.404 17.176V18.004C14.404 18.684 14.24 19.2 13.912 19.552C13.584 19.904 13.092 20.08 12.436 20.08H11.812V23.5H10.492V15.1ZM12.436 18.88C12.652 18.88 12.812 18.82 12.916 18.7C13.028 18.58 13.084 18.376 13.084 18.088V17.092C13.084 16.804 13.028 16.6 12.916 16.48C12.812 16.36 12.652 16.3 12.436 16.3H11.812V18.88H12.436ZM15.1209 15.1H16.4409V18.52H17.8569V15.1H19.1769V23.5H17.8569V19.72H16.4409V23.5H15.1209V15.1ZM20.16 15.1H22.104C22.76 15.1 23.252 15.276 23.58 15.628C23.908 15.98 24.072 16.496 24.072 17.176V18.004C24.072 18.684 23.908 19.2 23.58 19.552C23.252 19.904 22.76 20.08 22.104 20.08H21.48V23.5H20.16V15.1ZM22.104 18.88C22.32 18.88 22.48 18.82 22.584 18.7C22.696 18.58 22.752 18.376 22.752 18.088V17.092C22.752 16.804 22.696 16.6 22.584 16.48C22.48 16.36 22.32 16.3 22.104 16.3H21.48V18.88H22.104Z" fill="#AAAAAA"/>
</svg>
