<svg width="25" height="27" viewBox="0 0 25 27" fill="none" xmlns="http://www.w3.org/2000/svg">
<path fill-rule="evenodd" clip-rule="evenodd" d="M0.5 2C0.5 0.890015 1.39001 0 2.5 0H10.5L16.5 6V12H10.5C9.39545 12 8.5 12.8954 8.5 14V20H2.5C1.96954 20 1.46088 19.7893 1.08582 19.4142C0.710693 19.0392 0.5 18.5304 0.5 18V2ZM9.5 1.5V7H15L9.5 1.5Z" fill="#AAAAAA"/>
<path d="M10.492 15.1H12.436C13.092 15.1 13.584 15.276 13.912 15.628C14.24 15.98 14.404 16.496 14.404 17.176V18.004C14.404 18.684 14.24 19.2 13.912 19.552C13.584 19.904 13.092 20.08 12.436 20.08H11.812V23.5H10.492V15.1ZM12.436 18.88C12.652 18.88 12.812 18.82 12.916 18.7C13.028 18.58 13.084 18.376 13.084 18.088V17.092C13.084 16.804 13.028 16.6 12.916 16.48C12.812 16.36 12.652 16.3 12.436 16.3H11.812V18.88H12.436ZM15.1209 15.1H16.7769L18.0609 20.128H18.0849V15.1H19.2609V23.5H17.9049L16.3209 17.368H16.2969V23.5H15.1209V15.1ZM22.114 23.62C21.474 23.62 20.986 23.44 20.65 23.08C20.314 22.712 20.146 22.188 20.146 21.508V17.092C20.146 16.412 20.314 15.892 20.65 15.532C20.986 15.164 21.474 14.98 22.114 14.98C22.754 14.98 23.242 15.164 23.578 15.532C23.914 15.892 24.082 16.412 24.082 17.092V17.812H22.834V17.008C22.834 16.456 22.606 16.18 22.15 16.18C21.694 16.18 21.466 16.456 21.466 17.008V21.604C21.466 22.148 21.694 22.42 22.15 22.42C22.606 22.42 22.834 22.148 22.834 21.604V19.96H22.174V18.76H24.082V21.508C24.082 22.188 23.914 22.712 23.578 23.08C23.242 23.44 22.754 23.62 22.114 23.62Z" fill="#AAAAAA"/>
</svg>
