<svg width="26" height="26" viewBox="0 0 26 26" fill="none" xmlns="http://www.w3.org/2000/svg">
<path fill-rule="evenodd" clip-rule="evenodd" d="M2 3C2 1.89001 2.89001 1 4 1H12L18 7V13H12C10.8954 13 10 13.8954 10 15V21H4C3.46954 21 2.96088 20.7893 2.58582 20.4142C2.21069 20.0392 2 19.5304 2 19V3ZM11 2.5V8H16.5L11 2.5Z" fill="#AAAAAA"/>
<path d="M22.3058 17.2996H20.9258V16.0996H25.0058V17.2996H23.6258V24.4996H22.3058V17.2996Z" fill="#AAAAAA"/>
<path d="M16.6211 16.0996H18.5651C19.2211 16.0996 19.7131 16.2756 20.0411 16.6276C20.3691 16.9796 20.5331 17.4956 20.5331 18.1756V19.0036C20.5331 19.6836 20.3691 20.1996 20.0411 20.5516C19.7131 20.9036 19.2211 21.0796 18.5651 21.0796H17.9411V24.4996H16.6211V16.0996ZM18.5651 19.8796C18.7811 19.8796 18.9411 19.8196 19.0451 19.6996C19.1571 19.5796 19.2131 19.3756 19.2131 19.0876V18.0916C19.2131 17.8036 19.1571 17.5996 19.0451 17.4796C18.9411 17.3596 18.7811 17.2996 18.5651 17.2996H17.9411V19.8796H18.5651Z" fill="#AAAAAA"/>
<path d="M11.9922 16.0996H13.9362C14.5922 16.0996 15.0842 16.2756 15.4122 16.6276C15.7402 16.9796 15.9042 17.4956 15.9042 18.1756V19.0036C15.9042 19.6836 15.7402 20.1996 15.4122 20.5516C15.0842 20.9036 14.5922 21.0796 13.9362 21.0796H13.3122V24.4996H11.9922V16.0996ZM13.9362 19.8796C14.1522 19.8796 14.3122 19.8196 14.4162 19.6996C14.5282 19.5796 14.5842 19.3756 14.5842 19.0876V18.0916C14.5842 17.8036 14.5282 17.5996 14.4162 17.4796C14.3122 17.3596 14.1522 17.2996 13.9362 17.2996H13.3122V19.8796H13.9362Z" fill="#AAAAAA"/>
</svg>
