<svg width="25" height="27" viewBox="0 0 25 27" fill="none" xmlns="http://www.w3.org/2000/svg">
<path fill-rule="evenodd" clip-rule="evenodd" d="M0 2C0 0.890015 0.890015 0 2 0H10L16 6V12H10C8.89545 12 8 12.8954 8 14V20H2C1.46954 20 0.960876 19.7893 0.585815 19.4142C0.210693 19.0392 0 18.5304 0 18V2ZM9 1.5V7H14.5L9 1.5Z" fill="#AAAAAA"/>
<path d="M9.992 15.1H11.936C12.592 15.1 13.084 15.276 13.412 15.628C13.74 15.98 13.904 16.496 13.904 17.176V18.004C13.904 18.684 13.74 19.2 13.412 19.552C13.084 19.904 12.592 20.08 11.936 20.08H11.312V23.5H9.992V15.1ZM11.936 18.88C12.152 18.88 12.312 18.82 12.416 18.7C12.528 18.58 12.584 18.376 12.584 18.088V17.092C12.584 16.804 12.528 16.6 12.416 16.48C12.312 16.36 12.152 16.3 11.936 16.3H11.312V18.88H11.936ZM16.3838 23.62C15.7438 23.62 15.2598 23.44 14.9318 23.08C14.6038 22.712 14.4398 22.188 14.4398 21.508V21.028H15.6878V21.604C15.6878 22.148 15.9158 22.42 16.3718 22.42C16.5958 22.42 16.7638 22.356 16.8758 22.228C16.9958 22.092 17.0558 21.876 17.0558 21.58C17.0558 21.228 16.9758 20.92 16.8158 20.656C16.6558 20.384 16.3598 20.06 15.9278 19.684C15.3838 19.204 15.0038 18.772 14.7878 18.388C14.5718 17.996 14.4638 17.556 14.4638 17.068C14.4638 16.404 14.6318 15.892 14.9678 15.532C15.3038 15.164 15.7918 14.98 16.4318 14.98C17.0638 14.98 17.5398 15.164 17.8598 15.532C18.1878 15.892 18.3518 16.412 18.3518 17.092V17.44H17.1038V17.008C17.1038 16.72 17.0478 16.512 16.9358 16.384C16.8238 16.248 16.6598 16.18 16.4438 16.18C16.0038 16.18 15.7838 16.448 15.7838 16.984C15.7838 17.288 15.8638 17.572 16.0238 17.836C16.1918 18.1 16.4918 18.42 16.9238 18.796C17.4758 19.276 17.8558 19.712 18.0638 20.104C18.2718 20.496 18.3758 20.956 18.3758 21.484C18.3758 22.172 18.2038 22.7 17.8598 23.068C17.5238 23.436 17.0318 23.62 16.3838 23.62ZM19.1326 15.1H21.1486C21.8046 15.1 22.2966 15.276 22.6246 15.628C22.9526 15.98 23.1166 16.496 23.1166 17.176V21.424C23.1166 22.104 22.9526 22.62 22.6246 22.972C22.2966 23.324 21.8046 23.5 21.1486 23.5H19.1326V15.1ZM21.1246 22.3C21.3406 22.3 21.5046 22.236 21.6166 22.108C21.7366 21.98 21.7966 21.772 21.7966 21.484V17.116C21.7966 16.828 21.7366 16.62 21.6166 16.492C21.5046 16.364 21.3406 16.3 21.1246 16.3H20.4526V22.3H21.1246Z" fill="#AAAAAA"/>
</svg>
