<svg width="25" height="27" viewBox="0 0 25 27" fill="none" xmlns="http://www.w3.org/2000/svg">
<path fill-rule="evenodd" clip-rule="evenodd" d="M0.5 2C0.5 0.890015 1.39001 0 2.5 0H10.5L16.5 6V12H10.5C9.39545 12 8.5 12.8954 8.5 14V20H2.5C1.96954 20 1.46088 19.7893 1.08582 19.4142C0.710693 19.0392 0.5 18.5304 0.5 18V2ZM9.5 1.5V7H15L9.5 1.5Z" fill="#AAAAAA"/>
<path d="M10.492 15.1H12.448C13.128 15.1 13.624 15.26 13.936 15.58C14.248 15.892 14.404 16.376 14.404 17.032V17.548C14.404 18.42 14.116 18.972 13.54 19.204V19.228C13.86 19.324 14.084 19.52 14.212 19.816C14.348 20.112 14.416 20.508 14.416 21.004V22.48C14.416 22.72 14.424 22.916 14.44 23.068C14.456 23.212 14.496 23.356 14.56 23.5H13.216C13.168 23.364 13.136 23.236 13.12 23.116C13.104 22.996 13.096 22.78 13.096 22.468V20.932C13.096 20.548 13.032 20.28 12.904 20.128C12.784 19.976 12.572 19.9 12.268 19.9H11.812V23.5H10.492V15.1ZM12.292 18.7C12.556 18.7 12.752 18.632 12.88 18.496C13.016 18.36 13.084 18.132 13.084 17.812V17.164C13.084 16.86 13.028 16.64 12.916 16.504C12.812 16.368 12.644 16.3 12.412 16.3H11.812V18.7H12.292ZM16.3518 15.1H18.1398L19.5078 23.5H18.1878L17.9478 21.832V21.856H16.4478L16.2078 23.5H14.9838L16.3518 15.1ZM17.7918 20.716L17.2038 16.564H17.1798L16.6038 20.716H17.7918ZM20.1483 15.1H22.1043C22.7843 15.1 23.2803 15.26 23.5923 15.58C23.9043 15.892 24.0603 16.376 24.0603 17.032V17.548C24.0603 18.42 23.7723 18.972 23.1963 19.204V19.228C23.5163 19.324 23.7403 19.52 23.8683 19.816C24.0043 20.112 24.0723 20.508 24.0723 21.004V22.48C24.0723 22.72 24.0803 22.916 24.0963 23.068C24.1123 23.212 24.1523 23.356 24.2163 23.5H22.8723C22.8243 23.364 22.7923 23.236 22.7763 23.116C22.7603 22.996 22.7523 22.78 22.7523 22.468V20.932C22.7523 20.548 22.6883 20.28 22.5603 20.128C22.4403 19.976 22.2283 19.9 21.9243 19.9H21.4683V23.5H20.1483V15.1ZM21.9483 18.7C22.2123 18.7 22.4083 18.632 22.5363 18.496C22.6723 18.36 22.7402 18.132 22.7402 17.812V17.164C22.7402 16.86 22.6843 16.64 22.5723 16.504C22.4683 16.368 22.3003 16.3 22.0683 16.3H21.4683V18.7H21.9483Z" fill="#AAAAAA"/>
</svg>
