<svg width="24" height="27" viewBox="0 0 24 27" fill="none" xmlns="http://www.w3.org/2000/svg">
<path fill-rule="evenodd" clip-rule="evenodd" d="M0 2C0 0.890015 0.890015 0 2 0H10L16 6V12H10C8.89545 12 8 12.8954 8 14V20H2C1.46954 20 0.960876 19.7893 0.585815 19.4142C0.210693 19.0392 0 18.5304 0 18V2ZM9 1.5V7H14.5L9 1.5Z" fill="#AAAAAA"/>
<path d="M11.708 23.62C11.068 23.62 10.584 23.44 10.256 23.08C9.928 22.712 9.764 22.188 9.764 21.508V21.028H11.012V21.604C11.012 22.148 11.24 22.42 11.696 22.42C11.92 22.42 12.088 22.356 12.2 22.228C12.32 22.092 12.38 21.876 12.38 21.58C12.38 21.228 12.3 20.92 12.14 20.656C11.98 20.384 11.684 20.06 11.252 19.684C10.708 19.204 10.328 18.772 10.112 18.388C9.896 17.996 9.788 17.556 9.788 17.068C9.788 16.404 9.956 15.892 10.292 15.532C10.628 15.164 11.116 14.98 11.756 14.98C12.388 14.98 12.864 15.164 13.184 15.532C13.512 15.892 13.676 16.412 13.676 17.092V17.44H12.428V17.008C12.428 16.72 12.372 16.512 12.26 16.384C12.148 16.248 11.984 16.18 11.768 16.18C11.328 16.18 11.108 16.448 11.108 16.984C11.108 17.288 11.188 17.572 11.348 17.836C11.516 18.1 11.816 18.42 12.248 18.796C12.8 19.276 13.18 19.712 13.388 20.104C13.596 20.496 13.7 20.956 13.7 21.484C13.7 22.172 13.528 22.7 13.184 23.068C12.848 23.436 12.356 23.62 11.708 23.62ZM14.1088 15.1H15.4408L16.3048 21.616H16.3288L17.1928 15.1H18.4048L17.1328 23.5H15.3808L14.1088 15.1ZM20.8874 23.62C20.2474 23.62 19.7594 23.44 19.4234 23.08C19.0874 22.712 18.9194 22.188 18.9194 21.508V17.092C18.9194 16.412 19.0874 15.892 19.4234 15.532C19.7594 15.164 20.2474 14.98 20.8874 14.98C21.5274 14.98 22.0154 15.164 22.3514 15.532C22.6874 15.892 22.8554 16.412 22.8554 17.092V17.812H21.6074V17.008C21.6074 16.456 21.3794 16.18 20.9234 16.18C20.4674 16.18 20.2394 16.456 20.2394 17.008V21.604C20.2394 22.148 20.4674 22.42 20.9234 22.42C21.3794 22.42 21.6074 22.148 21.6074 21.604V19.96H20.9474V18.76H22.8554V21.508C22.8554 22.188 22.6874 22.712 22.3514 23.08C22.0154 23.44 21.5274 23.62 20.8874 23.62Z" fill="#AAAAAA"/>
</svg>
