<svg width="25" height="27" viewBox="0 0 25 27" fill="none" xmlns="http://www.w3.org/2000/svg">
<path fill-rule="evenodd" clip-rule="evenodd" d="M0 2C0 0.890015 0.890015 0 2 0H10L16 6V12H10C8.89545 12 8 12.8954 8 14V20H2C1.46954 20 0.960876 19.7893 0.585815 19.4142C0.210693 19.0392 0 18.5304 0 18V2ZM9 1.5V7H14.5L9 1.5Z" fill="#AAAAAA"/>
<path d="M11.024 16.3H9.644V15.1H13.724V16.3H12.344V23.5H11.024V16.3ZM14.3631 15.1H15.6831V23.5H14.3631V15.1ZM16.6717 15.1H20.1637V16.3H17.9917V18.64H19.6957V19.84H17.9917V23.5H16.6717V15.1ZM20.7967 15.1H24.2887V16.3H22.1167V18.64H23.8207V19.84H22.1167V23.5H20.7967V15.1Z" fill="#AAAAAA"/>
</svg>
