<svg width="26" height="26" viewBox="0 0 26 26" fill="none" xmlns="http://www.w3.org/2000/svg">
<path fill-rule="evenodd" clip-rule="evenodd" d="M1.5 3C1.5 1.89001 2.39001 1 3.5 1H11.5L17.5 7V13H11.5C10.3954 13 9.5 13.8954 9.5 15V21H3.5C2.96954 21 2.46088 20.7893 2.08582 20.4142C1.71069 20.0392 1.5 19.5304 1.5 19V3ZM10.5 2.5V8H16L10.5 2.5Z" fill="#AAAAAA"/>
<path d="M21.7706 17.2996H20.3906V16.0996H24.4706V17.2996H23.0906V24.4996H21.7706V17.2996Z" fill="#AAAAAA"/>
<path d="M17.0279 20.2036L15.5759 16.0996H16.9679L17.8559 18.8116H17.8799L18.7919 16.0996H20.0399L18.5879 20.2036L20.1119 24.4996H18.7199L17.7599 21.5716H17.7359L16.7519 24.4996H15.5039L17.0279 20.2036Z" fill="#AAAAAA"/>
<path d="M12.5245 17.2996H11.1445V16.0996H15.2245V17.2996H13.8445V24.4996H12.5245V17.2996Z" fill="#AAAAAA"/>
</svg>
