<svg width="26" height="26" viewBox="0 0 26 26" fill="none" xmlns="http://www.w3.org/2000/svg">
<path fill-rule="evenodd" clip-rule="evenodd" d="M2 3C2 1.89001 2.89001 1 4 1H12L18 7V13H12C10.8954 13 10 13.8954 10 15V21H4C3.46954 21 2.96088 20.7893 2.58582 20.4142C2.21069 20.0392 2 19.5304 2 19V3ZM11 2.5V8H16.5L11 2.5Z" fill="#AAAAAA"/>
<path d="M22.7096 24.6205C22.0696 24.6205 21.5856 24.4405 21.2576 24.0805C20.9296 23.7125 20.7656 23.1885 20.7656 22.5085V22.0285H22.0136V22.6045C22.0136 23.1485 22.2416 23.4205 22.6976 23.4205C22.9216 23.4205 23.0896 23.3565 23.2016 23.2285C23.3216 23.0925 23.3816 22.8765 23.3816 22.5805C23.3816 22.2285 23.3016 21.9205 23.1416 21.6565C22.9816 21.3845 22.6856 21.0605 22.2536 20.6845C21.7096 20.2045 21.3296 19.7725 21.1136 19.3885C20.8976 18.9965 20.7896 18.5565 20.7896 18.0685C20.7896 17.4045 20.9576 16.8925 21.2936 16.5325C21.6296 16.1645 22.1176 15.9805 22.7576 15.9805C23.3896 15.9805 23.8656 16.1645 24.1856 16.5325C24.5136 16.8925 24.6776 17.4125 24.6776 18.0925V18.4405H23.4296V18.0085C23.4296 17.7205 23.3736 17.5125 23.2616 17.3845C23.1496 17.2485 22.9856 17.1805 22.7696 17.1805C22.3296 17.1805 22.1096 17.4485 22.1096 17.9845C22.1096 18.2885 22.1896 18.5725 22.3496 18.8365C22.5176 19.1005 22.8176 19.4205 23.2496 19.7965C23.8016 20.2765 24.1816 20.7125 24.3896 21.1045C24.5976 21.4965 24.7016 21.9565 24.7016 22.4845C24.7016 23.1725 24.5296 23.7005 24.1856 24.0685C23.8496 24.4365 23.3576 24.6205 22.7096 24.6205Z" fill="#AAAAAA"/>
<path d="M16.8672 16.0996H18.1872V23.2996H20.3592V24.4996H16.8672V16.0996Z" fill="#AAAAAA"/>
<path d="M13.1568 20.2036L11.7048 16.0996H13.0968L13.9848 18.8116H14.0088L14.9208 16.0996H16.1688L14.7168 20.2036L16.2408 24.4996H14.8488L13.8888 21.5716H13.8648L12.8808 24.4996H11.6328L13.1568 20.2036Z" fill="#AAAAAA"/>
</svg>
