<svg width="22" height="27" viewBox="0 0 22 27" fill="none" xmlns="http://www.w3.org/2000/svg">
<path fill-rule="evenodd" clip-rule="evenodd" d="M0 2C0 0.890015 0.890015 0 2 0H10L16 6V12H10C8.89545 12 8 12.8954 8 14V20H2C1.46954 20 0.960876 19.7893 0.585815 19.4142C0.210693 19.0392 0 18.5304 0 18V2ZM9 1.5V7H14.5L9 1.5Z" fill="#AAAAAA"/>
<path d="M9.728 22.324L12.176 16.3H9.848V15.1H13.592V16.276L11.144 22.3H13.592V23.5H9.728V22.324ZM14.3397 15.1H15.6597V23.5H14.3397V15.1ZM16.6483 15.1H18.5923C19.2483 15.1 19.7403 15.276 20.0683 15.628C20.3963 15.98 20.5603 16.496 20.5603 17.176V18.004C20.5603 18.684 20.3963 19.2 20.0683 19.552C19.7403 19.904 19.2483 20.08 18.5923 20.08H17.9683V23.5H16.6483V15.1ZM18.5923 18.88C18.8083 18.88 18.9683 18.82 19.0723 18.7C19.1843 18.58 19.2402 18.376 19.2402 18.088V17.092C19.2402 16.804 19.1843 16.6 19.0723 16.48C18.9683 16.36 18.8083 16.3 18.5923 16.3H17.9683V18.88H18.5923Z" fill="#AAAAAA"/>
</svg>
