<svg width="20" height="36" viewBox="0 0 20 36" fill="none" xmlns="http://www.w3.org/2000/svg">
<path d="M19.2265 30.84C19.722 31.3404 20 32.0162 20 32.7204C20 33.4246 19.722 34.1004 19.2265 34.6008C18.9832 34.8479 18.6932 35.0441 18.3733 35.178C18.0535 35.312 17.7102 35.3809 17.3634 35.3809C17.0167 35.3809 16.6734 35.312 16.3535 35.178C16.0336 35.0441 15.7436 34.8479 15.5003 34.6008L0.772227 19.5728C0.277419 19.0713 -8.04072e-07 18.395 -7.73275e-07 17.6905C-7.42478e-07 16.9859 0.277419 16.3097 0.772228 15.8081L15.5003 0.780099C15.7436 0.533029 16.0336 0.336822 16.3535 0.202895C16.6734 0.0689692 17.0167 -1.30406e-07 17.3634 -1.15248e-07C17.7102 -1.00091e-07 18.0535 0.0689692 18.3734 0.202896C18.6932 0.336822 18.9832 0.533029 19.2265 0.780099C19.722 1.28052 20 1.9563 20 2.66053C20 3.36476 19.722 4.04053 19.2265 4.54095L7.14799 17.6962L19.2265 30.84Z" fill="white"/>
</svg>
