<svg width="197" height="46" viewBox="0 0 169 40" fill="none" xmlns="http://www.w3.org/2000/svg">
<path d="M26.2952 13.974V26.949H23.6848V18.3886L20.038 26.949H18.2721L14.5869 18.3886V26.949H11.9766V13.974H15.3547L19.1935 22.9183L22.9938 13.974H26.2952Z" fill="white"/>
<path d="M37.4273 22.9931H29.8265C30.1337 24.2215 31.1317 24.9892 32.4369 24.9892C33.435 24.9892 34.2795 24.567 34.7018 23.9528H37.3505C36.6212 25.8722 34.7402 27.1773 32.3985 27.1773C29.4427 27.1773 27.2162 25.0276 27.2162 22.1485C27.2162 19.2695 29.4427 17.1198 32.3601 17.1198C35.2776 17.1198 37.5041 19.2695 37.5041 22.1485C37.5041 22.4173 37.4657 22.7627 37.4273 22.9931ZM29.8649 21.1888H34.8937C34.5866 20.0372 33.5885 19.2695 32.3601 19.2695C31.1317 19.2695 30.172 20.0372 29.8649 21.1888Z" fill="white"/>
<path d="M38.0026 24.0679H40.4594C40.4594 24.6821 41.0736 25.1428 41.8413 25.1428C42.4555 25.1428 43.0697 24.7973 43.0697 24.2599C43.0697 23.7224 42.4555 23.3386 41.2271 23.0698C39.1926 22.6476 38.1177 21.6111 38.1177 20.114C38.1177 18.1946 39.8068 17.1198 41.6878 17.1198C43.7991 17.1198 45.3346 18.4249 45.3346 20.0756H42.8778C42.8778 19.5766 42.3788 19.1543 41.6878 19.1543C41.0736 19.1543 40.5745 19.4998 40.5745 19.9988C40.5745 20.4979 41.1504 20.8817 42.4555 21.1505C44.5285 21.6111 45.5266 22.5708 45.5266 24.0679C45.5266 26.0641 43.7991 27.1773 41.8029 27.1773C39.5765 27.1389 38.0026 25.757 38.0026 24.0679Z" fill="white"/>
<path d="M46.0651 24.0679H48.5219C48.5219 24.6821 49.1361 25.1428 49.9038 25.1428C50.518 25.1428 51.1322 24.7973 51.1322 24.2599C51.1322 23.7224 50.518 23.3386 49.2896 23.0698C47.2551 22.6476 46.1802 21.6111 46.1802 20.114C46.1802 18.1946 47.8693 17.1198 49.7503 17.1198C51.8616 17.1198 53.3971 18.4249 53.3971 20.0756H50.9403C50.9403 19.5766 50.4413 19.1543 49.7503 19.1543C49.1361 19.1543 48.637 19.4998 48.637 19.9988C48.637 20.4979 49.2129 20.8817 50.518 21.1505C52.591 21.6111 53.5891 22.5708 53.5891 24.0679C53.5891 26.0641 51.8616 27.1773 49.8654 27.1773C47.639 27.1389 46.0651 25.757 46.0651 24.0679Z" fill="white"/>
<path d="M65.4117 24.567V26.947H64.7207C63.3771 26.947 62.4942 26.448 62.1487 25.4499C61.3809 26.5247 60.2677 27.1773 58.8474 27.1773C56.1986 27.1773 54.1641 25.0276 54.1641 22.1485C54.1641 19.2695 56.1602 17.1198 58.8474 17.1198C60.1525 17.1198 61.2274 17.6956 61.9568 18.6169V17.3501H64.4136V23.7608C64.4136 24.2599 64.6823 24.567 65.2197 24.567H65.4117ZM61.9568 22.1485C61.9568 20.6514 60.8435 19.4998 59.308 19.4998C57.8109 19.4998 56.6976 20.6514 56.6976 22.1485C56.6976 23.6457 57.8109 24.7973 59.308 24.7973C60.8435 24.7973 61.9568 23.6457 61.9568 22.1485Z" fill="white"/>
<path d="M75.5861 17.3534V25.9139C75.5861 28.8314 73.6284 30.7508 70.6725 30.7508C68.2541 30.7508 66.5266 29.484 65.9124 27.4494H68.446C68.8299 28.102 69.6744 28.5243 70.6725 28.5243C72.1696 28.5243 73.1677 27.4878 73.1677 25.9139V25.4916C72.4 26.3746 71.3635 26.912 70.0583 26.912C67.4095 26.912 65.375 24.8007 65.375 22.0367C65.375 19.2728 67.3712 17.1615 70.0583 17.1615C71.3251 17.1615 72.4 17.6989 73.1677 18.5818V17.3918H75.5861V17.3534ZM73.1677 21.9984C73.1677 20.5012 72.0545 19.3496 70.5573 19.3496C69.0602 19.3496 67.947 20.5012 67.947 21.9984C67.947 23.5339 69.0602 24.6471 70.5573 24.6471C72.0545 24.6471 73.1677 23.5339 73.1677 21.9984Z" fill="white"/>
<path d="M86.5262 22.9931H78.9254C79.2325 24.2215 80.2306 24.9892 81.5358 24.9892C82.5339 24.9892 83.3784 24.567 83.8007 23.9528H86.4494C85.7201 25.8722 83.8391 27.1773 81.4974 27.1773C78.5416 27.1773 76.3151 25.0276 76.3151 22.1485C76.3151 19.2695 78.5415 17.1198 81.459 17.1198C84.3765 17.1198 86.603 19.2695 86.603 22.1485C86.603 22.4173 86.5646 22.7627 86.5262 22.9931ZM78.9638 21.1888H83.9926C83.6855 20.0372 82.6874 19.2695 81.459 19.2695C80.2306 19.2695 79.2709 20.0372 78.9638 21.1888Z" fill="white"/>
<path d="M101.765 13.974V26.949H99.1542V18.3886L95.5074 26.949H93.7416L90.0947 18.3886V26.949H87.4844V13.974H90.8625L94.6629 22.9183L98.4633 13.974H101.765Z" fill="white"/>
<path d="M102.648 22.1485C102.648 19.3079 104.875 17.1198 107.792 17.1198C110.71 17.1198 112.936 19.2695 112.936 22.1485C112.936 25.0276 110.71 27.1773 107.792 27.1773C104.875 27.1389 102.648 24.9892 102.648 22.1485ZM110.441 22.1485C110.441 20.6514 109.328 19.4998 107.831 19.4998C106.334 19.4998 105.22 20.6514 105.22 22.1485C105.22 23.6457 106.334 24.7973 107.831 24.7973C109.328 24.7973 110.441 23.6457 110.441 22.1485Z" fill="white"/>
<path d="M129.828 24.567V26.947H129.137C127.333 26.947 126.373 26.0641 126.373 24.2983V21.4576C126.373 20.3059 125.644 19.5382 124.492 19.5382C123.302 19.5382 122.496 20.3443 122.496 21.496V26.947H120.039V21.4192C120.039 20.2675 119.271 19.4998 118.158 19.4998C116.968 19.4998 116.123 20.3059 116.123 21.4576V26.9086H113.667V17.3501H116.123V18.4633C116.814 17.5804 117.812 17.1198 118.964 17.1198C120.384 17.1198 121.498 17.7723 122.035 18.8472C122.765 17.734 123.878 17.1198 125.298 17.1198C127.409 17.1198 128.791 18.5401 128.791 20.6898V23.7608C128.791 24.2599 129.098 24.567 129.598 24.567H129.828Z" fill="white"/>
<path d="M140.229 22.9931H132.629C132.936 24.2215 133.934 24.9892 135.239 24.9892C136.237 24.9892 137.082 24.567 137.504 23.9528H140.153C139.423 25.8722 137.542 27.1773 135.201 27.1773C132.245 27.1773 130.018 25.0276 130.018 22.1485C130.018 19.2695 132.245 17.1198 135.162 17.1198C138.08 17.1198 140.306 19.2695 140.306 22.1485C140.306 22.4173 140.268 22.7627 140.229 22.9931ZM132.667 21.1888H137.696C137.389 20.0372 136.391 19.2695 135.162 19.2695C133.934 19.2695 132.974 20.0372 132.667 21.1888Z" fill="white"/>
<path d="M151.247 24.567V26.947H150.556C148.752 26.947 147.792 26.0641 147.792 24.2983V21.6495C147.792 20.3443 146.948 19.4998 145.719 19.4998C144.376 19.4998 143.454 20.3443 143.454 21.6879V26.947H140.997V17.3501H143.454V18.5401C144.184 17.6188 145.22 17.1198 146.487 17.1198C148.752 17.1198 150.21 18.5785 150.21 20.8434V23.7608C150.21 24.2599 150.518 24.567 151.017 24.567H151.247Z" fill="white"/>
<path d="M154.78 19.5778V23.4934C154.78 24.2611 155.24 24.6834 156.046 24.6834H157.006V26.9099H155.701C153.513 26.9099 152.361 25.8734 152.361 23.8772V19.5778H150.826V17.3513H151.708C152.208 17.3513 152.476 17.0826 152.476 16.5836V14.8177H154.78V17.3897H157.006V19.5778H154.78Z" fill="white"/>
<path d="M12.8983 40H0V0H12.8983V3.45489H3.4549V36.5451H12.8983V40Z" fill="white"/>
<path d="M168.984 40H156.047V36.5451H165.529V3.45489H156.047V0H168.984V40Z" fill="white"/>
</svg>
