<svg width="197" height="46" viewBox="0 0 197 46" fill="none" xmlns="http://www.w3.org/2000/svg">
<path d="M31.1949 15.6309V30.525H28.2027V20.6998L23.9823 30.525H21.928L17.7076 20.6998V30.525H14.7153V15.6309H18.5784L22.9775 25.925L27.3542 15.6309H31.1949Z" fill="#000000"/>
<path d="M44.0125 25.9922H35.2367C35.594 27.399 36.7328 28.2922 38.2513 28.2922C39.3901 28.2922 40.395 27.801 40.8639 27.0864H43.9231C43.0746 29.2971 40.8862 30.7709 38.2066 30.7709C34.7901 30.7709 32.2222 28.2922 32.2222 25.0097C32.2222 21.7272 34.7678 19.2485 38.162 19.2485C41.5338 19.2485 44.1018 21.7272 44.1018 25.032C44.0794 25.3223 44.0795 25.7243 44.0125 25.9922ZM35.2814 23.9379H41.0649C40.7076 22.598 39.5464 21.7048 38.162 21.7048C36.7552 21.7048 35.661 22.598 35.2814 23.9379Z" fill="#000000"/>
<path d="M44.6602 27.2204H47.4961C47.4961 27.9126 48.2106 28.4709 49.1038 28.4709C49.8184 28.4709 50.533 28.0913 50.533 27.466C50.533 26.8408 49.8407 26.4165 48.4116 26.1039C46.0446 25.6126 44.8388 24.4514 44.8388 22.7097C44.8388 20.499 46.7815 19.2485 48.9699 19.2485C51.4038 19.2485 53.1903 20.767 53.1903 22.6427H50.3543C50.3543 22.0621 49.7737 21.5709 48.9699 21.5709C48.2776 21.5709 47.6747 21.9728 47.6747 22.5311C47.6747 23.1116 48.3446 23.5136 49.8407 23.8709C52.2301 24.4068 53.3689 25.501 53.3689 27.2204C53.3689 29.4981 51.4038 30.7932 49.0815 30.7932C46.4912 30.7709 44.6602 29.1854 44.6602 27.2204Z" fill="#000000"/>
<path d="M53.9492 27.2204H56.7851C56.7851 27.9126 57.4997 28.4709 58.3929 28.4709C59.1075 28.4709 59.822 28.0913 59.822 27.466C59.822 26.8408 59.1298 26.4165 57.7007 26.1039C55.3337 25.6126 54.1279 24.4514 54.1279 22.7097C54.1279 20.499 56.0706 19.2485 58.2589 19.2485C60.6929 19.2485 62.4793 20.767 62.4793 22.6427H59.6434C59.6434 22.0621 59.0628 21.5709 58.2589 21.5709C57.5667 21.5709 56.9638 21.9728 56.9638 22.5311C56.9638 23.1116 57.6337 23.5136 59.1298 23.8709C61.5191 24.4068 62.658 25.501 62.658 27.2204C62.658 29.4981 60.6929 30.7932 58.3706 30.7932C55.8026 30.7709 53.9492 29.1854 53.9492 27.2204Z" fill="#000000"/>
<path d="M76.2571 27.8006V30.5249H75.4532C73.8901 30.5249 72.9076 29.9443 72.4833 28.8055C71.6125 30.0336 70.295 30.7928 68.6872 30.7928C65.6057 30.7928 63.3057 28.3142 63.3057 25.0317C63.3057 21.7491 65.628 19.2705 68.6872 19.2705C70.1833 19.2705 71.4115 19.9181 72.2824 20.9676V19.5161H75.096V26.8851C75.096 27.4657 75.4309 27.8229 76.0338 27.8229H76.2571V27.8006ZM72.2824 25.0093C72.2824 23.2899 70.9872 21.9724 69.2231 21.9724C67.4814 21.9724 66.1862 23.2899 66.1862 25.0093C66.1862 26.7288 67.4814 28.0462 69.2231 28.0462C70.9872 28.0462 72.2824 26.7288 72.2824 25.0093Z" fill="#000000"/>
<path d="M88.0028 19.5165V29.3417C88.0028 32.6913 85.7475 34.8796 82.331 34.8796C79.5621 34.8796 77.5523 33.4281 76.8601 31.0835H79.763C80.1873 31.8427 81.1921 32.3116 82.331 32.3116C84.0727 32.3116 85.1892 31.1281 85.1892 29.3194V28.8058C84.3184 29.8107 83.0902 30.4359 81.6164 30.4359C78.5349 30.4359 76.2349 28.0243 76.2349 24.8311C76.2349 21.6602 78.5572 19.2485 81.6164 19.2485C83.0902 19.2485 84.3184 19.8738 85.1892 20.8786V19.4942H88.0028V19.5165ZM85.1892 24.8311C85.1892 23.1116 83.9164 21.7942 82.1523 21.7942C80.4106 21.7942 79.1154 23.1116 79.1154 24.8311C79.1154 26.5728 80.4106 27.8903 82.1523 27.8903C83.9164 27.9126 85.1892 26.5951 85.1892 24.8311Z" fill="#000000"/>
<path d="M100.597 25.9922H91.8212C92.1785 27.399 93.3173 28.2922 94.8358 28.2922C95.9746 28.2922 96.9795 27.801 97.4484 27.0864H100.508C99.6591 29.2971 97.4707 30.7709 94.7911 30.7709C91.3746 30.7709 88.8066 28.2922 88.8066 25.0097C88.8066 21.7272 91.3523 19.2485 94.7464 19.2485C98.1183 19.2485 100.686 21.7272 100.686 25.032C100.686 25.3223 100.664 25.7243 100.597 25.9922ZM91.8659 23.9379H97.6494C97.2921 22.598 96.1309 21.7048 94.7464 21.7048C93.3396 21.7048 92.2455 22.598 91.8659 23.9379Z" fill="#000000"/>
<path d="M118.149 15.6309V30.525H115.156V20.6998L110.936 30.525H108.882L104.661 20.6998V30.525H101.669V15.6309H105.532L109.931 25.925L114.308 15.6309H118.149Z" fill="#000000"/>
<path d="M119.176 25.0097C119.176 21.7272 121.721 19.2485 125.116 19.2485C128.487 19.2485 131.055 21.7272 131.055 25.0097C131.055 28.2922 128.51 30.7709 125.116 30.7709C121.744 30.7709 119.176 28.2922 119.176 25.0097ZM128.152 25.0097C128.152 23.2903 126.88 21.9728 125.116 21.9728C123.374 21.9728 122.079 23.2903 122.079 25.0097C122.079 26.7291 123.374 28.0466 125.116 28.0466C126.857 28.0466 128.152 26.7291 128.152 25.0097Z" fill="#000000"/>
<path d="M150.505 27.801V30.5252H149.701C147.602 30.5252 146.53 29.4981 146.53 27.4883V24.2058C146.53 22.866 145.681 21.9728 144.364 21.9728C142.98 21.9728 142.042 22.8883 142.042 24.2505V30.5252H139.228V24.2058C139.228 22.866 138.357 21.9728 137.062 21.9728C135.678 21.9728 134.717 22.8883 134.717 24.2505V30.5252H131.904V19.5165H134.717V20.7893C135.521 19.7845 136.638 19.2485 137.978 19.2485C139.63 19.2485 140.881 19.9854 141.528 21.2359C142.377 19.9408 143.649 19.2485 145.28 19.2485C147.714 19.2485 149.321 20.8786 149.321 23.3573V26.8854C149.321 27.466 149.679 27.8233 150.259 27.8233H150.505V27.801Z" fill="#000000"/>
<path d="M162.496 25.9922H153.72C154.077 27.399 155.216 28.2922 156.735 28.2922C157.874 28.2922 158.878 27.801 159.347 27.0864H162.407C161.558 29.2971 159.37 30.7709 156.69 30.7709C153.274 30.7709 150.706 28.2922 150.706 25.0097C150.706 21.7272 153.251 19.2485 156.645 19.2485C160.017 19.2485 162.585 21.7272 162.585 25.032C162.585 25.3223 162.563 25.7243 162.496 25.9922ZM153.765 23.9379H159.548C159.191 22.598 158.03 21.7048 156.645 21.7048C155.239 21.7048 154.144 22.598 153.765 23.9379Z" fill="#000000"/>
<path d="M175.202 27.801V30.5252H174.398C172.299 30.5252 171.227 29.498 171.227 27.4883V24.4514C171.227 22.9553 170.267 21.9951 168.816 21.9951C167.252 21.9951 166.225 22.9777 166.225 24.4961V30.5476H163.412V19.5165H166.225V20.8786C167.074 19.8291 168.28 19.2485 169.731 19.2485C172.321 19.2485 174.041 20.9233 174.041 23.5136V26.8631C174.041 27.4437 174.376 27.801 174.979 27.801H175.202Z" fill="#000000"/>
<path d="M179.266 22.0843V26.5726C179.266 27.4435 179.802 27.9571 180.717 27.9571H181.812V30.525H180.293C177.77 30.525 176.43 29.3192 176.43 27.0415V22.0843H174.666V19.5163H175.693C176.274 19.5163 176.586 19.2037 176.586 18.6231V15.6309H179.244V19.5163H181.789V22.0843H179.266Z" fill="#000000"/>
<path d="M14.8942 46H0V0H14.8942V3.97476H3.97476V42.0252H14.8942V46Z" fill="#000000"/>
<path d="M196.505 46H181.611V42.0252H192.53V3.97476H181.611V0H196.505V46Z" fill="#000000"/>
</svg>
