<svg width="11" height="6" viewBox="0 0 11 6" fill="none" xmlns="http://www.w3.org/2000/svg">
<path d="M1.32745 5.73115L1.32743 5.73112L1.3261 5.73243C1.18534 5.87181 0.99525 5.95 0.797155 5.95C0.599061 5.95 0.408973 5.87181 0.268208 5.73243L0.268111 5.73234C0.198713 5.664 0.143603 5.58253 0.105987 5.49269C0.068369 5.40285 0.0489979 5.30643 0.0489979 5.20903C0.048998 5.11163 0.068369 5.0152 0.105987 4.92536C0.143603 4.83552 0.198713 4.75406 0.268111 4.68572L4.77643 0.267378L4.77655 0.267262C4.91766 0.12805 5.10792 0.0499997 5.30614 0.0499997C5.50436 0.0499997 5.69462 0.12805 5.83573 0.267263L5.83585 0.267378L10.3442 4.68572C10.3442 4.68573 10.3442 4.68574 10.3442 4.68575C10.4136 4.75409 10.4687 4.83554 10.5063 4.92536C10.5439 5.0152 10.5633 5.11163 10.5633 5.20903C10.5633 5.30643 10.5439 5.40285 10.5063 5.49269C10.4687 5.58254 10.4136 5.664 10.3442 5.73234L10.3441 5.73244C10.2033 5.87181 10.0132 5.95 9.81512 5.95C9.61703 5.95 9.42694 5.87181 9.28618 5.73243L9.2862 5.73241L9.28481 5.73113L5.33823 2.10757L5.30439 2.0765L5.27058 2.10758L1.32745 5.73115Z" fill="#363C4F" stroke="white" stroke-width="0.1"/>
</svg>
