<svg width="11" height="6" viewBox="0 0 11 6" fill="none" xmlns="http://www.w3.org/2000/svg">
<path d="M9.28583 0.268851L9.28585 0.268876L9.28718 0.267565C9.42794 0.128187 9.61803 0.05 9.81613 0.05C10.0142 0.05 10.2043 0.128187 10.3451 0.267565L10.3452 0.26766C10.4146 0.336002 10.4697 0.417464 10.5073 0.507305C10.5449 0.597147 10.5643 0.693572 10.5643 0.790971C10.5643 0.88837 10.5449 0.984796 10.5073 1.07464C10.4697 1.16448 10.4146 1.24594 10.3452 1.31428L5.83685 5.73262L5.83673 5.73274C5.69562 5.87195 5.50537 5.95 5.30714 5.95C5.10892 5.95 4.91866 5.87195 4.77755 5.73274L4.77743 5.73262L0.269113 1.31428C0.269101 1.31427 0.269089 1.31426 0.269077 1.31425C0.199698 1.24591 0.1446 1.16446 0.106989 1.07464C0.069372 0.984796 0.05 0.88837 0.05 0.790971C0.05 0.693573 0.069372 0.597147 0.106989 0.507306C0.144606 0.417464 0.199717 0.336002 0.269113 0.26766L0.26921 0.267565C0.409975 0.128187 0.600064 0.05 0.798158 0.05C0.996252 0.05 1.18634 0.128187 1.32711 0.267565L1.32708 0.26759L1.32847 0.268865L5.27506 3.89243L5.30889 3.9235L5.3427 3.89242L9.28583 0.268851Z" fill="#363C4F" stroke="white" stroke-width="0.1"/>
</svg>
