<svg width="12" height="12" viewBox="0 0 12 12" fill="none" xmlns="http://www.w3.org/2000/svg">
<path d="M2.24853 8.73217L2.24851 8.73215L2.24722 8.7335C2.11489 8.87257 1.93685 8.95 1.75197 8.95C1.56708 8.95 1.38904 8.87257 1.25671 8.7335L1.25662 8.7334C1.19136 8.66519 1.13938 8.58372 1.10386 8.49366C1.06833 8.40359 1.05 8.30683 1.05 8.20903C1.05 8.11123 1.06833 8.01446 1.10386 7.9244C1.13938 7.83436 1.19134 7.7529 1.25658 7.6847C1.25659 7.68468 1.2566 7.68467 1.25662 7.68466L5.50402 3.26632L5.50414 3.2662C5.63679 3.1273 5.81499 3.05 6 3.05C6.18501 3.05 6.36321 3.1273 6.49586 3.2662L6.49598 3.26632L10.7434 7.68466C10.7434 7.68467 10.7434 7.68468 10.7434 7.6847C10.8087 7.7529 10.8606 7.83436 10.8961 7.9244C10.9317 8.01446 10.95 8.11123 10.95 8.20903C10.95 8.30683 10.9317 8.40359 10.8961 8.49366C10.8606 8.58372 10.8086 8.66519 10.7434 8.7334L10.7433 8.7335C10.611 8.87257 10.4329 8.95 10.248 8.95C10.0632 8.95 9.88511 8.87257 9.75278 8.7335L9.7528 8.73347L9.75145 8.73216L6.03327 5.10859L5.99835 5.07456L5.96346 5.1086L2.24853 8.73217Z" fill="#363C4F" stroke="white" stroke-width="0.1"/>
</svg>
