<svg width="23" height="22" viewBox="0 0 23 22" fill="none" xmlns="http://www.w3.org/2000/svg">
<path d="M11.6133 0C14.602 0 14.9749 0.0109999 16.1475 0.0659999C17.319 0.121 18.1165 0.3047 18.8183 0.5775C19.5443 0.8569 20.1559 1.2353 20.7675 1.8458C21.3268 2.39569 21.7596 3.06085 22.0358 3.795C22.3075 4.4957 22.4923 5.2943 22.5473 6.4658C22.599 7.6384 22.6133 8.0113 22.6133 11C22.6133 13.9887 22.6023 14.3616 22.5473 15.5342C22.4923 16.7057 22.3075 17.5032 22.0358 18.205C21.7604 18.9396 21.3275 19.6049 20.7675 20.1542C20.2174 20.7134 19.5523 21.1461 18.8183 21.4225C18.1176 21.6942 17.319 21.879 16.1475 21.934C14.9749 21.9857 14.602 22 11.6133 22C8.62458 22 8.25168 21.989 7.07908 21.934C5.90758 21.879 5.11008 21.6942 4.40828 21.4225C3.67384 21.1469 3.00856 20.714 2.45908 20.1542C1.89963 19.6044 1.46681 18.9392 1.19078 18.205C0.917981 17.5043 0.734281 16.7057 0.679281 15.5342C0.627581 14.3616 0.613281 13.9887 0.613281 11C0.613281 8.0113 0.624281 7.6384 0.679281 6.4658C0.734281 5.2932 0.917981 4.4968 1.19078 3.795C1.46604 3.0604 1.89897 2.39505 2.45908 1.8458C3.00872 1.28615 3.67395 0.853302 4.40828 0.5775C5.11008 0.3047 5.90648 0.121 7.07908 0.0659999C8.25168 0.0142999 8.62458 0 11.6133 0ZM11.6133 5.5C10.1546 5.5 8.75564 6.07946 7.72419 7.11091C6.69274 8.14236 6.11328 9.54131 6.11328 11C6.11328 12.4587 6.69274 13.8576 7.72419 14.8891C8.75564 15.9205 10.1546 16.5 11.6133 16.5C13.072 16.5 14.4709 15.9205 15.5024 14.8891C16.5338 13.8576 17.1133 12.4587 17.1133 11C17.1133 9.54131 16.5338 8.14236 15.5024 7.11091C14.4709 6.07946 13.072 5.5 11.6133 5.5ZM18.7633 5.225C18.7633 4.86033 18.6184 4.51059 18.3606 4.25273C18.1027 3.99487 17.753 3.85 17.3883 3.85C17.0236 3.85 16.6739 3.99487 16.416 4.25273C16.1581 4.51059 16.0133 4.86033 16.0133 5.225C16.0133 5.58967 16.1581 5.93941 16.416 6.19727C16.6739 6.45513 17.0236 6.6 17.3883 6.6C17.753 6.6 18.1027 6.45513 18.3606 6.19727C18.6184 5.93941 18.7633 5.58967 18.7633 5.225ZM11.6133 7.7C12.4885 7.7 13.3279 8.04768 13.9467 8.66655C14.5656 9.28542 14.9133 10.1248 14.9133 11C14.9133 11.8752 14.5656 12.7146 13.9467 13.3335C13.3279 13.9523 12.4885 14.3 11.6133 14.3C10.7381 14.3 9.8987 13.9523 9.27983 13.3335C8.66096 12.7146 8.31328 11.8752 8.31328 11C8.31328 10.1248 8.66096 9.28542 9.27983 8.66655C9.8987 8.04768 10.7381 7.7 11.6133 7.7Z" fill="white"/>
</svg>
