<svg width="46" height="46" viewBox="0 0 46 46" fill="none" xmlns="http://www.w3.org/2000/svg">
<rect width="46" height="46" rx="6" fill="#494AF8"/>
<path d="M16.3333 28H29.6667C30.125 28 30.5 27.625 30.5 27.1667C30.5 26.7083 30.125 26.3333 29.6667 26.3333H16.3333C15.875 26.3333 15.5 26.7083 15.5 27.1667C15.5 27.625 15.875 28 16.3333 28ZM16.3333 23.8333H29.6667C30.125 23.8333 30.5 23.4583 30.5 23C30.5 22.5417 30.125 22.1667 29.6667 22.1667H16.3333C15.875 22.1667 15.5 22.5417 15.5 23C15.5 23.4583 15.875 23.8333 16.3333 23.8333ZM15.5 18.8333C15.5 19.2917 15.875 19.6667 16.3333 19.6667H29.6667C30.125 19.6667 30.5 19.2917 30.5 18.8333C30.5 18.375 30.125 18 29.6667 18H16.3333C15.875 18 15.5 18.375 15.5 18.8333Z" fill="white"/>
</svg>
