<svg width="123" height="33" viewBox="0 0 123 33" fill="none" xmlns="http://www.w3.org/2000/svg">
<rect width="123" height="30" rx="6" fill="black"/>
<path d="M16.5061 20V9.78H19.7121C20.3561 9.78 20.9161 9.906 21.3921 10.158C21.8681 10.4007 22.2367 10.746 22.4981 11.194C22.7687 11.642 22.9041 12.1693 22.9041 12.776C22.9041 13.4573 22.7267 14.05 22.3721 14.554C22.0267 15.0487 21.5554 15.3987 20.9581 15.604L23.0441 20H21.3221L19.4601 15.8H18.0181V20H16.5061ZM18.0181 14.47H19.7121C20.2161 14.47 20.6174 14.3207 20.9161 14.022C21.2147 13.714 21.3641 13.308 21.3641 12.804C21.3641 12.2813 21.2147 11.8707 20.9161 11.572C20.6174 11.2733 20.2161 11.124 19.7121 11.124H18.0181V14.47ZM27.9246 20.14C27.2993 20.14 26.7486 20.0187 26.2726 19.776C25.8059 19.524 25.4466 19.174 25.1946 18.726C24.9426 18.278 24.8166 17.7553 24.8166 17.158V15.142C24.8166 14.5353 24.9426 14.0127 25.1946 13.574C25.4466 13.126 25.8059 12.7807 26.2726 12.538C26.7486 12.286 27.2993 12.16 27.9246 12.16C28.5593 12.16 29.1099 12.286 29.5766 12.538C30.0433 12.7807 30.4026 13.126 30.6546 13.574C30.9066 14.0127 31.0326 14.5353 31.0326 15.142V16.514H26.2726V17.158C26.2726 17.7273 26.4126 18.1613 26.6926 18.46C26.9819 18.7587 27.3973 18.908 27.9386 18.908C28.3773 18.908 28.7319 18.8333 29.0026 18.684C29.2733 18.5253 29.4413 18.2967 29.5066 17.998H31.0046C30.8926 18.6513 30.5566 19.174 29.9966 19.566C29.4366 19.9487 28.7459 20.14 27.9246 20.14ZM29.5766 15.604V15.128C29.5766 14.568 29.4366 14.134 29.1566 13.826C28.8766 13.518 28.4659 13.364 27.9246 13.364C27.3926 13.364 26.9819 13.518 26.6926 13.826C26.4126 14.134 26.2726 14.5727 26.2726 15.142V15.492L29.6886 15.478L29.5766 15.604ZM34.3031 22.52V21.218H36.6691C37.0611 21.218 37.3505 21.1247 37.5371 20.938C37.7331 20.7513 37.8311 20.476 37.8311 20.112V19.342L37.8591 17.914H37.5371L37.8451 17.634C37.8451 18.222 37.6585 18.684 37.2851 19.02C36.9211 19.356 36.4265 19.524 35.8011 19.524C35.0078 19.524 34.3825 19.2627 33.9251 18.74C33.4678 18.2173 33.2391 17.5127 33.2391 16.626V15.058C33.2391 14.1713 33.4678 13.4667 33.9251 12.944C34.3825 12.4213 35.0078 12.16 35.8011 12.16C36.4265 12.16 36.9211 12.3327 37.2851 12.678C37.6585 13.014 37.8451 13.476 37.8451 14.064L37.5371 13.77H37.8451L37.8311 12.3H39.3291V20.14C39.3291 20.8773 39.0958 21.456 38.6291 21.876C38.1625 22.3053 37.5138 22.52 36.6831 22.52H34.3031ZM36.2911 18.222C36.7671 18.222 37.1405 18.0773 37.4111 17.788C37.6911 17.4893 37.8311 17.0787 37.8311 16.556V15.142C37.8311 14.6193 37.6911 14.2133 37.4111 13.924C37.1405 13.6253 36.7671 13.476 36.2911 13.476C35.7965 13.476 35.4138 13.6207 35.1431 13.91C34.8818 14.19 34.7511 14.6007 34.7511 15.142V16.556C34.7511 17.088 34.8818 17.4987 35.1431 17.788C35.4138 18.0773 35.7965 18.222 36.2911 18.222ZM44.7137 20.14C44.0883 20.14 43.5377 20.0187 43.0617 19.776C42.595 19.524 42.2357 19.174 41.9837 18.726C41.7317 18.278 41.6057 17.7553 41.6057 17.158V15.142C41.6057 14.5353 41.7317 14.0127 41.9837 13.574C42.2357 13.126 42.595 12.7807 43.0617 12.538C43.5377 12.286 44.0883 12.16 44.7137 12.16C45.3483 12.16 45.899 12.286 46.3657 12.538C46.8323 12.7807 47.1917 13.126 47.4437 13.574C47.6957 14.0127 47.8217 14.5353 47.8217 15.142V16.514H43.0617V17.158C43.0617 17.7273 43.2017 18.1613 43.4817 18.46C43.771 18.7587 44.1863 18.908 44.7277 18.908C45.1663 18.908 45.521 18.8333 45.7917 18.684C46.0623 18.5253 46.2303 18.2967 46.2957 17.998H47.7937C47.6817 18.6513 47.3457 19.174 46.7857 19.566C46.2257 19.9487 45.535 20.14 44.7137 20.14ZM46.3657 15.604V15.128C46.3657 14.568 46.2257 14.134 45.9457 13.826C45.6657 13.518 45.255 13.364 44.7137 13.364C44.1817 13.364 43.771 13.518 43.4817 13.826C43.2017 14.134 43.0617 14.5727 43.0617 15.142V15.492L46.4777 15.478L46.3657 15.604ZM50.0842 20V12.3H51.5822V13.77H51.9462L51.5822 14.12C51.5822 13.504 51.7642 13.0233 52.1282 12.678C52.4922 12.3327 52.9962 12.16 53.6402 12.16C54.4055 12.16 55.0169 12.4073 55.4742 12.902C55.9315 13.3873 56.1602 14.0453 56.1602 14.876V20H54.6482V15.044C54.6482 14.54 54.5129 14.1527 54.2422 13.882C53.9715 13.6113 53.6029 13.476 53.1362 13.476C52.6602 13.476 52.2822 13.6207 52.0022 13.91C51.7315 14.19 51.5962 14.6007 51.5962 15.142V20H50.0842ZM61.5027 20.14C60.8774 20.14 60.3267 20.0187 59.8507 19.776C59.3841 19.524 59.0247 19.174 58.7727 18.726C58.5207 18.278 58.3947 17.7553 58.3947 17.158V15.142C58.3947 14.5353 58.5207 14.0127 58.7727 13.574C59.0247 13.126 59.3841 12.7807 59.8507 12.538C60.3267 12.286 60.8774 12.16 61.5027 12.16C62.1374 12.16 62.6881 12.286 63.1547 12.538C63.6214 12.7807 63.9807 13.126 64.2327 13.574C64.4847 14.0127 64.6107 14.5353 64.6107 15.142V16.514H59.8507V17.158C59.8507 17.7273 59.9907 18.1613 60.2707 18.46C60.5601 18.7587 60.9754 18.908 61.5167 18.908C61.9554 18.908 62.3101 18.8333 62.5807 18.684C62.8514 18.5253 63.0194 18.2967 63.0847 17.998H64.5827C64.4707 18.6513 64.1347 19.174 63.5747 19.566C63.0147 19.9487 62.3241 20.14 61.5027 20.14ZM63.1547 15.604V15.128C63.1547 14.568 63.0147 14.134 62.7347 13.826C62.4547 13.518 62.0441 13.364 61.5027 13.364C60.9707 13.364 60.5601 13.518 60.2707 13.826C59.9907 14.134 59.8507 14.5727 59.8507 15.142V15.492L63.2667 15.478L63.1547 15.604ZM67.1253 20V12.3H68.5813V13.77H68.9453L68.4833 14.68C68.4833 13.8493 68.6653 13.224 69.0293 12.804C69.3933 12.3747 69.9346 12.16 70.6533 12.16C71.4746 12.16 72.1233 12.4167 72.5993 12.93C73.0846 13.434 73.3273 14.1293 73.3273 15.016V15.534H71.7733V15.142C71.7733 14.5913 71.6333 14.1713 71.3533 13.882C71.0826 13.5833 70.6999 13.434 70.2053 13.434C69.7106 13.434 69.3233 13.5833 69.0433 13.882C68.7726 14.1807 68.6373 14.6007 68.6373 15.142V20H67.1253ZM77.5218 20.14C76.7191 20.14 76.0845 19.9347 75.6178 19.524C75.1605 19.104 74.9318 18.5347 74.9318 17.816C74.9318 17.088 75.1745 16.5187 75.6598 16.108C76.1545 15.688 76.8311 15.478 77.6898 15.478H79.8318V14.764C79.8318 14.344 79.7011 14.0173 79.4398 13.784C79.1785 13.5507 78.8098 13.434 78.3338 13.434C77.9138 13.434 77.5638 13.5273 77.2838 13.714C77.0038 13.8913 76.8405 14.1293 76.7938 14.428H75.3098C75.3938 13.7373 75.7111 13.1867 76.2618 12.776C76.8218 12.3653 77.5265 12.16 78.3758 12.16C79.2905 12.16 80.0138 12.3933 80.5458 12.86C81.0778 13.3173 81.3438 13.9427 81.3438 14.736V20H79.8738V18.586H79.6218L79.8738 18.306C79.8738 18.866 79.6591 19.314 79.2298 19.65C78.8005 19.9767 78.2311 20.14 77.5218 20.14ZM77.9698 18.978C78.5111 18.978 78.9545 18.8427 79.2998 18.572C79.6545 18.292 79.8318 17.9373 79.8318 17.508V16.5H77.7178C77.3258 16.5 77.0131 16.6073 76.7798 16.822C76.5558 17.0367 76.4438 17.3307 76.4438 17.704C76.4438 18.096 76.5791 18.4087 76.8498 18.642C77.1205 18.866 77.4938 18.978 77.9698 18.978ZM87.5263 20C86.8263 20 86.2803 19.8087 85.8883 19.426C85.4963 19.0433 85.3003 18.5113 85.3003 17.83V13.672H83.1723V12.3H85.3003V10.13H86.8123V12.3H89.8223V13.672H86.8123V17.83C86.8123 18.362 87.069 18.628 87.5823 18.628H89.6823V20H87.5263ZM95.0809 20.14C94.4555 20.14 93.9049 20.0187 93.4289 19.776C92.9622 19.524 92.6029 19.174 92.3509 18.726C92.0989 18.278 91.9729 17.7553 91.9729 17.158V15.142C91.9729 14.5353 92.0989 14.0127 92.3509 13.574C92.6029 13.126 92.9622 12.7807 93.4289 12.538C93.9049 12.286 94.4555 12.16 95.0809 12.16C95.7155 12.16 96.2662 12.286 96.7329 12.538C97.1995 12.7807 97.5589 13.126 97.8109 13.574C98.0629 14.0127 98.1889 14.5353 98.1889 15.142V16.514H93.4289V17.158C93.4289 17.7273 93.5689 18.1613 93.8489 18.46C94.1382 18.7587 94.5535 18.908 95.0949 18.908C95.5335 18.908 95.8882 18.8333 96.1589 18.684C96.4295 18.5253 96.5975 18.2967 96.6629 17.998H98.1609C98.0489 18.6513 97.7129 19.174 97.1529 19.566C96.5929 19.9487 95.9022 20.14 95.0809 20.14ZM96.7329 15.604V15.128C96.7329 14.568 96.5929 14.134 96.3129 13.826C96.0329 13.518 95.6222 13.364 95.0809 13.364C94.5489 13.364 94.1382 13.518 93.8489 13.826C93.5689 14.134 93.4289 14.5727 93.4289 15.142V15.492L96.8449 15.478L96.7329 15.604ZM102.929 20.14C102.155 20.14 101.534 19.8787 101.067 19.356C100.601 18.8333 100.367 18.1287 100.367 17.242V15.072C100.367 14.176 100.601 13.4667 101.067 12.944C101.534 12.4213 102.155 12.16 102.929 12.16C103.564 12.16 104.068 12.3373 104.441 12.692C104.815 13.0373 105.001 13.5133 105.001 14.12L104.679 13.77H105.029L104.987 11.978V9.78H106.499V20H105.001V18.53H104.679L105.001 18.18C105.001 18.7867 104.815 19.2673 104.441 19.622C104.068 19.9673 103.564 20.14 102.929 20.14ZM103.447 18.824C103.923 18.824 104.297 18.6793 104.567 18.39C104.847 18.0913 104.987 17.6807 104.987 17.158V15.142C104.987 14.6193 104.847 14.2133 104.567 13.924C104.297 13.6253 103.923 13.476 103.447 13.476C102.953 13.476 102.565 13.6207 102.285 13.91C102.005 14.19 101.865 14.6007 101.865 15.142V17.158C101.865 17.6993 102.005 18.1147 102.285 18.404C102.565 18.684 102.953 18.824 103.447 18.824Z" fill="white"/>
<path d="M62.3274 32.5582C61.9154 33.1472 61.0846 33.1473 60.6726 32.5582L58.7049 29.7454C58.2002 29.0238 58.6855 28 59.5324 28L63.4676 28C64.3145 28 64.7998 29.0238 64.2951 29.7454L62.3274 32.5582Z" fill="black"/>
</svg>
