<svg width="131" height="34" viewBox="0 0 131 34" fill="none" xmlns="http://www.w3.org/2000/svg">
<rect y="0.875977" width="131" height="30" rx="6" fill="black"/>
<path d="M19.3748 21.016C18.7121 21.016 18.1335 20.8993 17.6388 20.666C17.1441 20.4326 16.7615 20.106 16.4908 19.686C16.2201 19.2566 16.0848 18.7526 16.0848 18.174H17.4708C17.4708 18.6593 17.6435 19.0513 17.9888 19.35C18.3435 19.6393 18.8101 19.784 19.3888 19.784C19.9488 19.784 20.3921 19.6393 20.7188 19.35C21.0455 19.0513 21.2088 18.6593 21.2088 18.174C21.2088 17.7913 21.1061 17.4553 20.9008 17.166C20.6955 16.8673 20.4155 16.6666 20.0608 16.564L18.6188 16.13C17.9001 15.9153 17.3401 15.556 16.9388 15.052C16.5468 14.548 16.3508 13.9553 16.3508 13.274C16.3508 12.434 16.6261 11.7666 17.1768 11.272C17.7275 10.768 18.4695 10.516 19.4028 10.516C20.3268 10.516 21.0641 10.768 21.6148 11.272C22.1655 11.7666 22.4408 12.4293 22.4408 13.26H21.0548C21.0548 12.8026 20.9055 12.434 20.6068 12.154C20.3081 11.874 19.9068 11.734 19.4028 11.734C18.8895 11.734 18.4788 11.874 18.1708 12.154C17.8628 12.4246 17.7088 12.7886 17.7088 13.246C17.7088 13.61 17.8115 13.9226 18.0168 14.184C18.2315 14.4453 18.5255 14.632 18.8988 14.744L20.3828 15.206C21.0641 15.4206 21.6008 15.7893 21.9928 16.312C22.3848 16.8346 22.5808 17.4506 22.5808 18.16C22.5808 18.7386 22.4455 19.2426 22.1748 19.672C21.9135 20.1013 21.5448 20.4326 21.0688 20.666C20.5928 20.8993 20.0281 21.016 19.3748 21.016ZM27.7833 21.016C26.8407 21.016 26.0847 20.7546 25.5153 20.232C24.946 19.7 24.6613 18.972 24.6613 18.048V15.99C24.6613 15.0753 24.946 14.3566 25.5153 13.834C26.0847 13.302 26.8407 13.036 27.7833 13.036C28.6887 13.036 29.4167 13.2786 29.9673 13.764C30.518 14.24 30.8073 14.8933 30.8353 15.724H29.4633C29.4353 15.2573 29.272 14.898 28.9733 14.646C28.6747 14.3846 28.278 14.254 27.7833 14.254C27.2513 14.254 26.8267 14.408 26.5093 14.716C26.2013 15.0146 26.0473 15.4393 26.0473 15.99V18.048C26.0473 18.608 26.2013 19.0373 26.5093 19.336C26.8267 19.6346 27.2513 19.784 27.7833 19.784C28.278 19.784 28.6747 19.658 28.9733 19.406C29.272 19.154 29.4353 18.7946 29.4633 18.328H30.8353C30.8073 19.1586 30.518 19.8166 29.9673 20.302C29.4167 20.778 28.6887 21.016 27.7833 21.016ZM35.4079 21.016C34.5959 21.016 33.9565 20.8106 33.4899 20.4C33.0325 19.98 32.8039 19.4153 32.8039 18.706C32.8039 17.978 33.0419 17.4086 33.5179 16.998C34.0032 16.578 34.6612 16.368 35.4919 16.368H37.7319V15.64C37.7319 15.192 37.5919 14.8466 37.3119 14.604C37.0412 14.352 36.6632 14.226 36.1779 14.226C35.7392 14.226 35.3705 14.324 35.0719 14.52C34.7825 14.7066 34.6052 14.954 34.5399 15.262H33.1819C33.2192 14.814 33.3732 14.4266 33.6439 14.1C33.9145 13.764 34.2692 13.5026 34.7079 13.316C35.1465 13.1293 35.6412 13.036 36.1919 13.036C37.0879 13.036 37.7972 13.2693 38.3199 13.736C38.8519 14.1933 39.1179 14.814 39.1179 15.598V20.876H37.7599V19.448H37.7459C37.6805 19.9333 37.4379 20.316 37.0179 20.596C36.5979 20.876 36.0612 21.016 35.4079 21.016ZM35.7859 19.938C36.3459 19.938 36.8079 19.798 37.1719 19.518C37.5452 19.2286 37.7319 18.86 37.7319 18.412V17.362H35.5199C35.1092 17.362 34.7825 17.474 34.5399 17.698C34.3065 17.922 34.1899 18.2253 34.1899 18.608C34.1899 19.028 34.3299 19.3546 34.6099 19.588C34.8899 19.8213 35.2819 19.938 35.7859 19.938ZM41.5484 20.876V13.176H42.9204V14.646H42.9484C43.0137 14.1326 43.2237 13.736 43.5784 13.456C43.9331 13.176 44.4044 13.036 44.9924 13.036C45.7577 13.036 46.3691 13.2786 46.8264 13.764C47.2837 14.2493 47.5124 14.9026 47.5124 15.724V20.876H46.1264V15.878C46.1264 15.3553 45.9864 14.954 45.7064 14.674C45.4264 14.3846 45.0437 14.24 44.5584 14.24C44.0544 14.24 43.6577 14.394 43.3684 14.702C43.0791 15.0006 42.9344 15.43 42.9344 15.99V20.876H41.5484ZM62.9715 23.396L61.5155 21.002C61.4875 21.0113 61.4548 21.016 61.4175 21.016C61.3801 21.016 61.3428 21.016 61.3055 21.016C60.3535 21.016 59.5928 20.7406 59.0235 20.19C58.4635 19.6393 58.1835 18.9066 58.1835 17.992V13.54C58.1835 12.616 58.4635 11.8833 59.0235 11.342C59.5928 10.7913 60.3535 10.516 61.3055 10.516C62.2575 10.516 63.0135 10.7913 63.5735 11.342C64.1428 11.8833 64.4275 12.616 64.4275 13.54V17.992C64.4275 18.6173 64.2921 19.1633 64.0215 19.63C63.7508 20.0966 63.3728 20.4466 62.8875 20.68L64.5395 23.396H62.9715ZM61.3055 19.784C61.8375 19.784 62.2575 19.6253 62.5655 19.308C62.8828 18.9813 63.0415 18.5426 63.0415 17.992V13.54C63.0415 12.9893 62.8828 12.5506 62.5655 12.224C62.2575 11.8973 61.8375 11.734 61.3055 11.734C60.7735 11.734 60.3488 11.8973 60.0315 12.224C59.7235 12.5506 59.5695 12.9893 59.5695 13.54V17.992C59.5695 18.5426 59.7235 18.9813 60.0315 19.308C60.3488 19.6253 60.7735 19.784 61.3055 19.784ZM66.732 20.876V10.656H69.91C70.5353 10.656 71.0813 10.782 71.548 11.034C72.0147 11.2766 72.3787 11.622 72.64 12.07C72.9013 12.5086 73.032 13.0266 73.032 13.624C73.032 14.3146 72.8547 14.9073 72.5 15.402C72.1453 15.8966 71.6647 16.242 71.058 16.438L73.172 20.876H71.562L69.658 16.606H68.118V20.876H66.732ZM68.118 15.374H69.91C70.4327 15.374 70.8433 15.2153 71.142 14.898C71.45 14.5806 71.604 14.1606 71.604 13.638C71.604 13.106 71.45 12.6813 71.142 12.364C70.834 12.0466 70.4233 11.888 69.91 11.888H68.118V15.374ZM86.5451 21.016C85.6024 21.016 84.8511 20.7546 84.2911 20.232C83.7404 19.7 83.4651 18.972 83.4651 18.048V13.47C83.4651 12.5553 83.7404 11.8366 84.2911 11.314C84.8511 10.782 85.6024 10.516 86.5451 10.516C87.4784 10.516 88.2204 10.782 88.7711 11.314C89.3311 11.846 89.6111 12.5646 89.6111 13.47H88.2251C88.2251 12.9193 88.0757 12.4946 87.7771 12.196C87.4784 11.8973 87.0677 11.748 86.5451 11.748C86.0131 11.748 85.5977 11.8973 85.2991 12.196C85.0004 12.4946 84.8511 12.9193 84.8511 13.47V18.048C84.8511 18.608 85.0004 19.0373 85.2991 19.336C85.5977 19.6346 86.0131 19.784 86.5451 19.784C87.0677 19.784 87.4784 19.6346 87.7771 19.336C88.0757 19.0373 88.2251 18.608 88.2251 18.048H89.6111C89.6111 18.9626 89.3311 19.686 88.7711 20.218C88.2204 20.75 87.4784 21.016 86.5451 21.016ZM94.8836 20.988C93.9409 20.988 93.1943 20.7266 92.6436 20.204C92.0929 19.672 91.8176 18.9486 91.8176 18.034V16.018C91.8176 15.1033 92.0929 14.3846 92.6436 13.862C93.1943 13.33 93.9409 13.064 94.8836 13.064C95.8263 13.064 96.5729 13.33 97.1236 13.862C97.6743 14.3846 97.9496 15.0986 97.9496 16.004V18.034C97.9496 18.9486 97.6743 19.672 97.1236 20.204C96.5729 20.7266 95.8263 20.988 94.8836 20.988ZM94.8836 19.77C95.4063 19.77 95.8169 19.6253 96.1156 19.336C96.4143 19.0373 96.5636 18.6033 96.5636 18.034V16.018C96.5636 15.4486 96.4143 15.0193 96.1156 14.73C95.8169 14.4313 95.4063 14.282 94.8836 14.282C94.3609 14.282 93.9503 14.4313 93.6516 14.73C93.3529 15.0193 93.2036 15.4486 93.2036 16.018V18.034C93.2036 18.6033 93.3529 19.0373 93.6516 19.336C93.9503 19.6253 94.3609 19.77 94.8836 19.77ZM102.774 21.016C101.999 21.016 101.379 20.7593 100.912 20.246C100.445 19.7233 100.212 19.0186 100.212 18.132V15.92C100.212 15.0333 100.445 14.3333 100.912 13.82C101.379 13.2973 101.999 13.036 102.774 13.036C103.334 13.036 103.796 13.1806 104.16 13.47C104.533 13.75 104.767 14.1326 104.86 14.618H104.888L104.86 12.868V10.656H106.246V20.876H104.874V19.42H104.86C104.767 19.924 104.533 20.316 104.16 20.596C103.796 20.876 103.334 21.016 102.774 21.016ZM103.25 19.812C103.745 19.812 104.137 19.658 104.426 19.35C104.715 19.042 104.86 18.608 104.86 18.048V16.004C104.86 15.444 104.715 15.01 104.426 14.702C104.137 14.394 103.745 14.24 103.25 14.24C102.737 14.24 102.331 14.394 102.032 14.702C101.743 15.0006 101.598 15.43 101.598 15.99V18.048C101.598 18.6173 101.743 19.056 102.032 19.364C102.331 19.6626 102.737 19.812 103.25 19.812ZM111.673 21.016C111.057 21.016 110.515 20.8946 110.049 20.652C109.591 20.4 109.237 20.0546 108.985 19.616C108.733 19.168 108.607 18.6453 108.607 18.048V15.99C108.607 15.402 108.733 14.8886 108.985 14.45C109.237 14.002 109.591 13.6566 110.049 13.414C110.515 13.162 111.057 13.036 111.673 13.036C112.289 13.036 112.825 13.162 113.283 13.414C113.749 13.6566 114.109 14.002 114.361 14.45C114.613 14.8886 114.739 15.402 114.739 15.99V17.362H109.965V18.048C109.965 18.6453 110.109 19.098 110.399 19.406C110.697 19.714 111.122 19.868 111.673 19.868C112.139 19.868 112.513 19.7886 112.793 19.63C113.073 19.462 113.25 19.2146 113.325 18.888H114.697C114.603 19.5413 114.277 20.0593 113.717 20.442C113.166 20.8246 112.485 21.016 111.673 21.016ZM109.965 15.99V16.368H113.395V15.99C113.395 15.402 113.245 14.954 112.947 14.646C112.657 14.3286 112.233 14.17 111.673 14.17C111.113 14.17 110.688 14.3286 110.399 14.646C110.109 14.954 109.965 15.402 109.965 15.99Z" fill="white"/>
<path d="M66.3274 33.4342C65.9154 34.0232 65.0846 34.0232 64.6726 33.4342L62.7049 30.6213C62.2002 29.8998 62.6855 28.876 63.5324 28.876L67.4676 28.876C68.3145 28.876 68.7998 29.8998 68.2951 30.6213L66.3274 33.4342Z" fill="black"/>
</svg>
