<svg width="86" height="86" viewBox="0 0 86 86" fill="none" xmlns="http://www.w3.org/2000/svg">
<circle cx="43" cy="43" r="41.5" fill="#494AF8" stroke="white" stroke-width="3"/>
<path d="M34.412 46.4586C34.0617 46.8054 33.5887 47 33.0957 47C32.6027 47 32.1297 46.8054 31.7794 46.4586C31.6065 46.2883 31.4691 46.0852 31.3754 45.8613C31.2816 45.6374 31.2333 45.3971 31.2333 45.1544C31.2333 44.9117 31.2816 44.6714 31.3754 44.4475C31.4691 44.2236 31.6065 44.0205 31.7794 43.8502L42.299 33.5406C42.6501 33.1942 43.1235 33 43.6167 33C44.1099 33 44.5832 33.1942 44.9343 33.5406L55.4539 43.8502C55.6269 44.0205 55.7642 44.2236 55.858 44.4475C55.9517 44.6714 56 44.9117 56 45.1544C56 45.3971 55.9517 45.6374 55.858 45.8613C55.7642 46.0852 55.6269 46.2883 55.4539 46.4586C55.1036 46.8054 54.6306 47 54.1376 47C53.6447 47 53.1716 46.8054 52.8213 46.4586L43.6126 38.0036L34.412 46.4586Z" fill="white"/>
</svg>
