<svg width="156" height="24" viewBox="0 0 156 24" fill="none" xmlns="http://www.w3.org/2000/svg">
<path fill-rule="evenodd" clip-rule="evenodd" d="M141.75 1C142.926 1 144.132 1.03025 145.3 1.07975L146.681 1.14575L148.002 1.22413L149.24 1.308L150.37 1.396C151.596 1.48988 152.751 2.0133 153.629 2.87418C154.508 3.73506 155.055 4.87824 155.174 6.10262L155.229 6.687L155.332 7.93825C155.429 9.23487 155.5 10.6484 155.5 12C155.5 13.3516 155.429 14.7651 155.332 16.0618L155.229 17.313C155.211 17.5138 155.193 17.7076 155.174 17.8974C155.055 19.122 154.508 20.2653 153.629 21.1262C152.75 21.9871 151.595 22.5104 150.368 22.604L149.241 22.6906L148.003 22.7759L146.681 22.8542L145.3 22.9202C144.118 22.9716 142.934 22.9982 141.75 23C140.566 22.9982 139.382 22.9716 138.2 22.9202L136.819 22.8542L135.498 22.7759L134.26 22.6906L133.13 22.604C131.904 22.5101 130.749 21.9867 129.871 21.1258C128.992 20.2649 128.445 19.1218 128.326 17.8974L128.271 17.313L128.168 16.0618C128.063 14.7103 128.007 13.3555 128 12C128 10.6484 128.071 9.23487 128.168 7.93825L128.271 6.687C128.289 6.48625 128.307 6.29238 128.326 6.10262C128.445 4.87846 128.992 3.73545 129.87 2.8746C130.749 2.01375 131.902 1.49019 133.129 1.396L134.258 1.308L135.495 1.22413L136.818 1.14575L138.198 1.07975C139.382 1.02837 140.566 1.00178 141.75 1ZM139 8.66562V15.3344C139 15.9696 139.687 16.3656 140.237 16.0494L146.013 12.715C146.138 12.6427 146.243 12.5385 146.315 12.413C146.388 12.2874 146.426 12.145 146.426 12C146.426 11.855 146.388 11.7126 146.315 11.587C146.243 11.4615 146.138 11.3573 146.013 11.285L140.237 7.952C140.112 7.87957 139.97 7.84145 139.825 7.84147C139.68 7.84149 139.538 7.87966 139.412 7.95213C139.287 8.0246 139.183 8.12883 139.11 8.25432C139.038 8.3798 139 8.52214 139 8.667V8.66562Z" fill="#CCCCCC"/>
<path d="M108.06 12.0301C108.06 5.38947 102.671 0 96.0301 0C89.3895 0 84 5.38947 84 12.0301C84 17.8526 88.1383 22.7008 93.6241 23.8195V15.6391H91.218V12.0301H93.6241V9.02256C93.6241 6.70075 95.5128 4.81203 97.8346 4.81203H100.842V8.42105H98.4361C97.7744 8.42105 97.2331 8.96241 97.2331 9.62406V12.0301H100.842V15.6391H97.2331V24C103.308 23.3985 108.06 18.2737 108.06 12.0301Z" fill="#CCCCCC"/>
<path d="M53 1C55.9887 1 56.3616 1.011 57.5342 1.066C58.7057 1.121 59.5032 1.3047 60.205 1.5775C60.931 1.8569 61.5426 2.2353 62.1542 2.8458C62.7135 3.39569 63.1463 4.06085 63.4225 4.795C63.6942 5.4957 63.879 6.2943 63.934 7.4658C63.9857 8.6384 64 9.0113 64 12C64 14.9887 63.989 15.3616 63.934 16.5342C63.879 17.7057 63.6942 18.5032 63.4225 19.205C63.1471 19.9396 62.7142 20.6049 62.1542 21.1542C61.6042 21.7134 60.939 22.1461 60.205 22.4225C59.5043 22.6942 58.7057 22.879 57.5342 22.934C56.3616 22.9857 55.9887 23 53 23C50.0113 23 49.6384 22.989 48.4658 22.934C47.2943 22.879 46.4968 22.6942 45.795 22.4225C45.0606 22.1469 44.3953 21.714 43.8458 21.1542C43.2863 20.6044 42.8535 19.9392 42.5775 19.205C42.3047 18.5043 42.121 17.7057 42.066 16.5342C42.0143 15.3616 42 14.9887 42 12C42 9.0113 42.011 8.6384 42.066 7.4658C42.121 6.2932 42.3047 5.4968 42.5775 4.795C42.8528 4.0604 43.2857 3.39505 43.8458 2.8458C44.3954 2.28615 45.0607 1.8533 45.795 1.5775C46.4968 1.3047 47.2932 1.121 48.4658 1.066C49.6384 1.0143 50.0113 1 53 1ZM53 6.5C51.5413 6.5 50.1424 7.07946 49.1109 8.11091C48.0795 9.14236 47.5 10.5413 47.5 12C47.5 13.4587 48.0795 14.8576 49.1109 15.8891C50.1424 16.9205 51.5413 17.5 53 17.5C54.4587 17.5 55.8576 16.9205 56.8891 15.8891C57.9205 14.8576 58.5 13.4587 58.5 12C58.5 10.5413 57.9205 9.14236 56.8891 8.11091C55.8576 7.07946 54.4587 6.5 53 6.5ZM60.15 6.225C60.15 5.86033 60.0051 5.51059 59.7473 5.25273C59.4894 4.99487 59.1397 4.85 58.775 4.85C58.4103 4.85 58.0606 4.99487 57.8027 5.25273C57.5449 5.51059 57.4 5.86033 57.4 6.225C57.4 6.58967 57.5449 6.93941 57.8027 7.19727C58.0606 7.45513 58.4103 7.6 58.775 7.6C59.1397 7.6 59.4894 7.45513 59.7473 7.19727C60.0051 6.93941 60.15 6.58967 60.15 6.225ZM53 8.7C53.8752 8.7 54.7146 9.04768 55.3335 9.66655C55.9523 10.2854 56.3 11.1248 56.3 12C56.3 12.8752 55.9523 13.7146 55.3335 14.3335C54.7146 14.9523 53.8752 15.3 53 15.3C52.1248 15.3 51.2854 14.9523 50.6665 14.3335C50.0477 13.7146 49.7 12.8752 49.7 12C49.7 11.1248 50.0477 10.2854 50.6665 9.66655C51.2854 9.04768 52.1248 8.7 53 8.7Z" fill="#CCCCCC"/>
<path d="M13.0846 10.3165L21.2686 1H19.3295L12.2201 9.08768L6.54595 1H0L8.58232 13.2311L0 23H1.9391L9.44221 14.4571L15.4357 23H21.9816L13.0846 10.3165ZM10.4278 13.3385L9.55692 12.1198L2.63838 2.43161H5.61724L11.2024 10.2532L12.0696 11.4719L19.3286 21.6381H16.3497L10.4278 13.3385Z" fill="#CCCCCC"/>
</svg>
