<svg width="10" height="10" viewBox="0 0 10 10" fill="none" xmlns="http://www.w3.org/2000/svg">
<path d="M8.8228 1.18326C8.76667 1.12701 8.69999 1.08238 8.62658 1.05193C8.55318 1.02148 8.47448 1.00581 8.39501 1.00581C8.31554 1.00581 8.23685 1.02148 8.16345 1.05193C8.09004 1.08238 8.02336 1.12701 7.96722 1.18326L5 4.14442L2.03278 1.1772C1.9766 1.12102 1.90991 1.07646 1.8365 1.04605C1.7631 1.01565 1.68443 1 1.60499 1C1.52554 1 1.44687 1.01565 1.37347 1.04605C1.30007 1.07646 1.23337 1.12102 1.1772 1.1772C1.12102 1.23337 1.07646 1.30007 1.04605 1.37347C1.01565 1.44687 1 1.52554 1 1.60499C1 1.68443 1.01565 1.7631 1.04605 1.8365C1.07646 1.90991 1.12102 1.9766 1.1772 2.03278L4.14442 5L1.1772 7.96722C1.12102 8.0234 1.07646 8.0901 1.04605 8.1635C1.01565 8.2369 1 8.31557 1 8.39501C1 8.47446 1.01565 8.55313 1.04605 8.62653C1.07646 8.69993 1.12102 8.76663 1.1772 8.8228C1.23337 8.87898 1.30007 8.92355 1.37347 8.95395C1.44687 8.98435 1.52554 9 1.60499 9C1.68443 9 1.7631 8.98435 1.8365 8.95395C1.90991 8.92355 1.9766 8.87898 2.03278 8.8228L5 5.85558L7.96722 8.8228C8.0234 8.87898 8.0901 8.92355 8.1635 8.95395C8.2369 8.98435 8.31557 9 8.39501 9C8.47446 9 8.55313 8.98435 8.62653 8.95395C8.69993 8.92355 8.76663 8.87898 8.8228 8.8228C8.87898 8.76663 8.92355 8.69993 8.95395 8.62653C8.98435 8.55313 9 8.47446 9 8.39501C9 8.31557 8.98435 8.2369 8.95395 8.1635C8.92355 8.0901 8.87898 8.0234 8.8228 7.96722L5.85558 5L8.8228 2.03278C9.05339 1.80219 9.05339 1.41385 8.8228 1.18326Z" fill="white" stroke="white" stroke-width="0.5"/>
</svg>
