<svg width="55" height="24" viewBox="0 0 55 24" fill="none" xmlns="http://www.w3.org/2000/svg">
<rect width="55" height="24" rx="12" fill="white"/>
<rect width="55" height="24" rx="12" fill="#494AF8" fill-opacity="0.2"/>
<circle cx="43" cy="12" r="9" fill="white"/>
<path d="M11.5269 13.7609L17.3475 8.25656C17.5284 8.08552 17.7586 8 18.0381 8C18.3176 8 18.5478 8.08552 18.7287 8.25656C18.9096 8.4276 19 8.64529 19 8.90962C19 9.17395 18.9096 9.39164 18.7287 9.56268L12.2175 15.7201C12.0202 15.9067 11.79 16 11.5269 16C11.2638 16 11.0336 15.9067 10.8363 15.7201L8.2713 13.2945C8.09043 13.1234 8 12.9057 8 12.6414C8 12.3771 8.09043 12.1594 8.2713 11.9883C8.45217 11.8173 8.68236 11.7318 8.96188 11.7318C9.2414 11.7318 9.4716 11.8173 9.65247 11.9883L11.5269 13.7609Z" fill="white"/>
</svg>
