<svg width="16" height="16" viewBox="0 0 14 14" fill="none" xmlns="http://www.w3.org/2000/svg">
<path d="M13.2632 11.6667V12.4444C13.2632 12.857 13.1079 13.2527 12.8315 13.5444C12.5552 13.8361 12.1803 14 11.7895 14H1.47368C0.655789 14 0 13.3 0 12.4444V1.55556C0 1.143 0.155263 0.747335 0.431632 0.455612C0.708001 0.163888 1.08284 0 1.47368 0H11.7895C12.1803 0 12.5552 0.163888 12.8315 0.455612C13.1079 0.747335 13.2632 1.143 13.2632 1.55556V2.33333H6.63158C5.81368 2.33333 5.15789 3.03333 5.15789 3.88889V10.1111C5.15789 10.5237 5.31316 10.9193 5.58953 11.2111C5.8659 11.5028 6.24073 11.6667 6.63158 11.6667M6.63158 10.1111H14V3.88889H6.63158M9.57895 8.16667C9.28581 8.16667 9.00469 8.04375 8.79741 7.82496C8.59013 7.60617 8.47368 7.30942 8.47368 7C8.47368 6.69058 8.59013 6.39383 8.79741 6.17504C9.00469 5.95625 9.28581 5.83333 9.57895 5.83333C9.87208 5.83333 10.1532 5.95625 10.3605 6.17504C10.5678 6.39383 10.6842 6.69058 10.6842 7C10.6842 7.30942 10.5678 7.60617 10.3605 7.82496C10.1532 8.04375 9.87208 8.16667 9.57895 8.16667Z" fill="#CCCCCC"/>
</svg>
