<svg width="29" height="22" viewBox="0 0 29 22" fill="none" xmlns="http://www.w3.org/2000/svg">
<path fill-rule="evenodd" clip-rule="evenodd" d="M14.4219 0C15.5975 0 16.8034 0.0302501 17.9721 0.0797501L19.3526 0.14575L20.674 0.224125L21.9115 0.308L23.0417 0.396C24.2683 0.489882 25.4225 1.0133 26.3012 1.87418C27.18 2.73506 27.727 3.87824 27.846 5.10262L27.901 5.687L28.0041 6.93825C28.1004 8.23487 28.1719 9.64837 28.1719 11C28.1719 12.3516 28.1004 13.7651 28.0041 15.0618L27.901 16.313C27.8831 16.5138 27.8653 16.7076 27.846 16.8974C27.7269 18.122 27.1797 19.2653 26.3007 20.1262C25.4217 20.9871 24.2672 21.5104 23.0404 21.604L21.9129 21.6906L20.6754 21.7759L19.3526 21.8542L17.9721 21.9202C16.7894 21.9716 15.6057 21.9982 14.4219 22C13.238 21.9982 12.0544 21.9716 10.8716 21.9202L9.49112 21.8542L8.16975 21.7759L6.93225 21.6906L5.802 21.604C4.57543 21.5101 3.42126 20.9867 2.54252 20.1258C1.66379 19.2649 1.11679 18.1218 0.99775 16.8974L0.94275 16.313L0.839625 15.0618C0.734489 13.7103 0.678536 12.3555 0.671875 11C0.671875 9.64837 0.743375 8.23487 0.839625 6.93825L0.94275 5.687C0.960625 5.48625 0.9785 5.29238 0.99775 5.10262C1.11674 3.87846 1.66355 2.73545 2.542 1.8746C3.42045 1.01375 4.5743 0.490191 5.80062 0.396L6.9295 0.308L8.167 0.224125L9.48975 0.14575L10.8702 0.0797501C12.0534 0.0283703 13.2376 0.00178102 14.4219 0ZM11.6719 7.66562V14.3344C11.6719 14.9696 12.3594 15.3656 12.9094 15.0494L18.6844 11.715C18.81 11.6427 18.9144 11.5385 18.987 11.413C19.0596 11.2874 19.0978 11.145 19.0978 11C19.0978 10.855 19.0596 10.7126 18.987 10.587C18.9144 10.4615 18.81 10.3573 18.6844 10.285L12.9094 6.952C12.7839 6.87957 12.6416 6.84145 12.4967 6.84147C12.3519 6.84149 12.2096 6.87966 12.0841 6.95213C11.9587 7.0246 11.8546 7.12883 11.7822 7.25432C11.7098 7.3798 11.6718 7.52214 11.6719 7.667V7.66562Z" fill="white"/>
</svg>
