<svg width="46" height="46" viewBox="0 0 46 46" fill="none" xmlns="http://www.w3.org/2000/svg">
<rect opacity="0.1" width="46" height="46" rx="6" fill="white"/>
<path d="M30.6678 15.3436C30.5625 15.2381 30.4375 15.1545 30.2998 15.0974C30.1622 15.0403 30.0147 15.0109 29.8657 15.0109C29.7166 15.0109 29.5691 15.0403 29.4315 15.0974C29.2938 15.1545 29.1688 15.2381 29.0635 15.3436L23.5 20.8958L17.9365 15.3322C17.8311 15.2269 17.7061 15.1434 17.5684 15.0863C17.4308 15.0293 17.2833 15 17.1343 15C16.9854 15 16.8379 15.0293 16.7003 15.0863C16.5626 15.1434 16.4376 15.2269 16.3322 15.3322C16.2269 15.4376 16.1434 15.5626 16.0863 15.7003C16.0293 15.8379 16 15.9854 16 16.1343C16 16.2833 16.0293 16.4308 16.0863 16.5684C16.1434 16.7061 16.2269 16.8311 16.3322 16.9365L21.8958 22.5L16.3322 28.0635C16.2269 28.1689 16.1434 28.2939 16.0863 28.4316C16.0293 28.5692 16 28.7167 16 28.8657C16 29.0146 16.0293 29.1621 16.0863 29.2997C16.1434 29.4374 16.2269 29.5624 16.3322 29.6678C16.4376 29.7731 16.5626 29.8566 16.7003 29.9137C16.8379 29.9707 16.9854 30 17.1343 30C17.2833 30 17.4308 29.9707 17.5684 29.9137C17.7061 29.8566 17.8311 29.7731 17.9365 29.6678L23.5 24.1042L29.0635 29.6678C29.1689 29.7731 29.2939 29.8566 29.4316 29.9137C29.5692 29.9707 29.7167 30 29.8657 30C30.0146 30 30.1621 29.9707 30.2997 29.9137C30.4374 29.8566 30.5624 29.7731 30.6678 29.6678C30.7731 29.5624 30.8566 29.4374 30.9137 29.2997C30.9707 29.1621 31 29.0146 31 28.8657C31 28.7167 30.9707 28.5692 30.9137 28.4316C30.8566 28.2939 30.7731 28.1689 30.6678 28.0635L25.1042 22.5L30.6678 16.9365C31.1001 16.5041 31.1001 15.776 30.6678 15.3436Z" fill="white"/>
</svg>
