<svg width="46" height="46" viewBox="0 0 46 46" fill="none" xmlns="http://www.w3.org/2000/svg">
<rect width="46" height="46" rx="6" fill="#494AF8"/>
<path d="M16.8333 28H30.1667C30.625 28 31 27.625 31 27.1667C31 26.7083 30.625 26.3333 30.1667 26.3333H16.8333C16.375 26.3333 16 26.7083 16 27.1667C16 27.625 16.375 28 16.8333 28ZM16.8333 23.8333H30.1667C30.625 23.8333 31 23.4583 31 23C31 22.5417 30.625 22.1667 30.1667 22.1667H16.8333C16.375 22.1667 16 22.5417 16 23C16 23.4583 16.375 23.8333 16.8333 23.8333ZM16 18.8333C16 19.2917 16.375 19.6667 16.8333 19.6667H30.1667C30.625 19.6667 31 19.2917 31 18.8333C31 18.375 30.625 18 30.1667 18H16.8333C16.375 18 16 18.375 16 18.8333Z" fill="white"/>
</svg>
