<svg width="428" height="155" viewBox="0 0 428 155" fill="none" xmlns="http://www.w3.org/2000/svg">
<g clip-path="url(#clip0_43_2421)">
<path d="M0 0H428V155H0V0Z" fill="#151515"/>
<path opacity="0.1" d="M413 107H15V108H413V107Z" fill="white"/>
<path opacity="0.2" d="M155 15H154V92H155V15Z" fill="white"/>
<g opacity="0.2">
<path d="M68.828 28.6857C67.7423 27.6 66.2852 27 64.7709 27H49.9994C46.8566 27 44.3137 29.5714 44.3137 32.7143L44.2852 67C44.2852 70.1429 46.8566 72.7143 49.9994 72.7143H95.7137C98.8566 72.7143 101.428 70.1429 101.428 67V38.4286C101.428 35.2857 98.8566 32.7143 95.7137 32.7143H72.8566L68.828 28.6857Z" fill="white"/>
<path d="M50 87C61.0457 87 70 78.0457 70 67C70 55.9543 61.0457 47 50 47C38.9543 47 30 55.9543 30 67C30 78.0457 38.9543 87 50 87Z" fill="#151515"/>
<path d="M50.0005 81.2862C57.8903 81.2862 64.2862 74.8903 64.2862 67.0005C64.2862 59.1108 57.8903 52.7148 50.0005 52.7148C42.1108 52.7148 35.7148 59.1108 35.7148 67.0005C35.7148 74.8903 42.1108 81.2862 50.0005 81.2862Z" fill="white"/>
<path fill-rule="evenodd" clip-rule="evenodd" d="M56.026 64.4066C56.1949 64.5756 56.2898 64.8047 56.2898 65.0435C56.2898 65.2824 56.1949 65.5115 56.026 65.6804L49.274 72.4325C49.1847 72.5217 49.0788 72.5925 48.9622 72.6408C48.8456 72.6891 48.7206 72.714 48.5944 72.714C48.4682 72.714 48.3432 72.6891 48.2267 72.6408C48.1101 72.5925 48.0041 72.5217 47.9149 72.4325L44.5602 69.0784C44.4741 68.9953 44.4055 68.8959 44.3583 68.786C44.3111 68.6761 44.2862 68.5579 44.2852 68.4382C44.2842 68.3186 44.3069 68.2 44.3522 68.0893C44.3975 67.9786 44.4644 67.878 44.549 67.7934C44.6336 67.7088 44.7342 67.642 44.8449 67.5967C44.9556 67.5514 45.0742 67.5286 45.1938 67.5296C45.3134 67.5306 45.4316 67.5555 45.5415 67.6027C45.6515 67.6499 45.7509 67.7185 45.834 67.8046L48.5941 70.5648L54.7516 64.4066C54.8353 64.3229 54.9346 64.2565 55.044 64.2112C55.1533 64.1659 55.2705 64.1426 55.3888 64.1426C55.5072 64.1426 55.6244 64.1659 55.7337 64.2112C55.843 64.2565 55.9424 64.3229 56.026 64.4066Z" fill="#151515" stroke="#151515" stroke-width="0.7"/>
</g>
<circle cx="200" cy="29" r="5" fill="white"/>
<path fill-rule="evenodd" clip-rule="evenodd" d="M202.066 27.4367C202.132 27.5024 202.168 27.5915 202.168 27.6844C202.168 27.7772 202.132 27.8663 202.066 27.932L199.44 30.5578C199.405 30.5925 199.364 30.6201 199.319 30.6389C199.274 30.6576 199.225 30.6673 199.176 30.6673C199.127 30.6673 199.078 30.6576 199.033 30.6389C198.987 30.6201 198.946 30.5925 198.912 30.5578L197.607 29.2535C197.573 29.2211 197.547 29.1825 197.528 29.1397C197.51 29.097 197.5 29.051 197.5 29.0045C197.5 28.958 197.508 28.9119 197.526 28.8688C197.544 28.8258 197.57 28.7867 197.603 28.7538C197.636 28.7209 197.675 28.6949 197.718 28.6772C197.761 28.6596 197.807 28.6508 197.853 28.6512C197.9 28.6516 197.946 28.6612 197.989 28.6796C198.031 28.698 198.07 28.7246 198.102 28.7581L199.176 29.8315L201.57 27.4367C201.603 27.4041 201.641 27.3783 201.684 27.3607C201.726 27.3431 201.772 27.334 201.818 27.334C201.864 27.334 201.91 27.3431 201.952 27.3607C201.995 27.3783 202.033 27.4041 202.066 27.4367Z" fill="#151515" stroke="#151515" stroke-width="0.7"/>
<path d="M372.043 34V26.85H373.317V28.215H373.343C373.404 27.7383 373.599 27.37 373.928 27.11C374.257 26.85 374.695 26.72 375.241 26.72C375.952 26.72 376.519 26.9453 376.944 27.396C377.369 27.8466 377.581 28.4533 377.581 29.216V34H376.294V29.359C376.294 28.8736 376.164 28.501 375.904 28.241C375.644 27.9723 375.289 27.838 374.838 27.838C374.37 27.838 374.002 27.981 373.733 28.267C373.464 28.5443 373.33 28.943 373.33 29.463V34H372.043Z" fill="white"/>
<path d="M367.003 34.104C366.128 34.104 365.435 33.8613 364.923 33.376C364.412 32.882 364.156 32.2103 364.156 31.361V29.489C364.156 28.6396 364.412 27.9723 364.923 27.487C365.435 26.993 366.128 26.746 367.003 26.746C367.879 26.746 368.572 26.993 369.083 27.487C369.595 27.9723 369.85 28.6353 369.85 29.476V31.361C369.85 32.2103 369.595 32.882 369.083 33.376C368.572 33.8613 367.879 34.104 367.003 34.104ZM367.003 32.973C367.489 32.973 367.87 32.8386 368.147 32.57C368.425 32.2926 368.563 31.8896 368.563 31.361V29.489C368.563 28.9603 368.425 28.5616 368.147 28.293C367.87 28.0156 367.489 27.877 367.003 27.877C366.518 27.877 366.137 28.0156 365.859 28.293C365.582 28.5616 365.443 28.9603 365.443 29.489V31.361C365.443 31.8896 365.582 32.2926 365.859 32.57C366.137 32.8386 366.518 32.973 367.003 32.973Z" fill="white"/>
<path d="M356.387 34V32.83H358.896V28.02H356.647V26.85H360.183V32.83H362.536V34H356.387ZM359.416 25.589C359.121 25.589 358.887 25.5154 358.714 25.368C358.54 25.212 358.454 25.004 358.454 24.744C358.454 24.4754 358.54 24.263 358.714 24.107C358.887 23.951 359.121 23.873 359.416 23.873C359.71 23.873 359.944 23.951 360.118 24.107C360.291 24.263 360.378 24.4754 360.378 24.744C360.378 25.004 360.291 25.212 360.118 25.368C359.944 25.5154 359.71 25.589 359.416 25.589Z" fill="white"/>
<path d="M348.656 34V26.85H349.93V28.215H349.956C350.017 27.7383 350.212 27.37 350.541 27.11C350.871 26.85 351.308 26.72 351.854 26.72C352.565 26.72 353.133 26.9453 353.557 27.396C353.982 27.8466 354.194 28.4533 354.194 29.216V34H352.907V29.359C352.907 28.8736 352.777 28.501 352.517 28.241C352.257 27.9723 351.902 27.838 351.451 27.838C350.983 27.838 350.615 27.981 350.346 28.267C350.078 28.5443 349.943 28.943 349.943 29.463V34H348.656Z" fill="white"/>
<path d="M342.957 34.13C342.203 34.13 341.609 33.9393 341.176 33.558C340.751 33.168 340.539 32.6436 340.539 31.985C340.539 31.309 340.76 30.7803 341.202 30.399C341.653 30.009 342.264 29.814 343.035 29.814H345.115V29.138C345.115 28.722 344.985 28.4013 344.725 28.176C344.474 27.942 344.123 27.825 343.672 27.825C343.265 27.825 342.922 27.916 342.645 28.098C342.376 28.2713 342.212 28.501 342.151 28.787H340.89C340.925 28.371 341.068 28.0113 341.319 27.708C341.57 27.396 341.9 27.1533 342.307 26.98C342.714 26.8066 343.174 26.72 343.685 26.72C344.517 26.72 345.176 26.9366 345.661 27.37C346.155 27.7946 346.402 28.371 346.402 29.099V34H345.141V32.674H345.128C345.067 33.1246 344.842 33.48 344.452 33.74C344.062 34 343.564 34.13 342.957 34.13ZM343.308 33.129C343.828 33.129 344.257 32.999 344.595 32.739C344.942 32.4703 345.115 32.128 345.115 31.712V30.737H343.061C342.68 30.737 342.376 30.841 342.151 31.049C341.934 31.257 341.826 31.5386 341.826 31.894C341.826 32.284 341.956 32.5873 342.216 32.804C342.476 33.0206 342.84 33.129 343.308 33.129Z" fill="white"/>
<path d="M333.082 36.34V26.85H334.356V28.189H334.369C334.456 27.7296 334.668 27.37 335.006 27.11C335.353 26.85 335.79 26.72 336.319 26.72C337.03 26.72 337.602 26.9626 338.035 27.448C338.468 27.9246 338.685 28.5746 338.685 29.398V31.439C338.685 32.271 338.468 32.9296 338.035 33.415C337.61 33.8916 337.038 34.13 336.319 34.13C335.799 34.13 335.366 34 335.019 33.74C334.672 33.4713 334.456 33.1073 334.369 32.648H334.343L334.369 34.273V36.34H333.082ZM335.877 33.012C336.354 33.012 336.726 32.8733 336.995 32.596C337.264 32.31 337.398 31.9026 337.398 31.374V29.463C337.398 28.943 337.264 28.5443 336.995 28.267C336.726 27.981 336.354 27.838 335.877 27.838C335.409 27.838 335.041 27.981 334.772 28.267C334.503 28.553 334.369 28.956 334.369 29.476V31.374C334.369 31.894 334.503 32.297 334.772 32.583C335.041 32.869 335.409 33.012 335.877 33.012Z" fill="white"/>
<path d="M324.871 34V26.85H325.976V27.734H326.054C326.106 27.4306 326.24 27.188 326.457 27.006C326.674 26.8153 326.938 26.72 327.25 26.72C327.536 26.72 327.783 26.811 327.991 26.993C328.199 27.175 328.351 27.422 328.446 27.734H328.511C328.563 27.4306 328.697 27.188 328.914 27.006C329.139 26.8153 329.412 26.72 329.733 26.72C330.158 26.72 330.504 26.8933 330.773 27.24C331.05 27.578 331.189 28.02 331.189 28.566V34H330.019V28.579C330.019 27.9896 329.776 27.695 329.291 27.695C329.048 27.695 328.862 27.773 328.732 27.929C328.602 28.0763 328.537 28.293 328.537 28.579V34H327.523V28.579C327.523 28.3016 327.454 28.085 327.315 27.929C327.185 27.773 327.003 27.695 326.769 27.695C326.284 27.695 326.041 27.9896 326.041 28.579V34H324.871Z" fill="white"/>
<path d="M320.234 34.104C319.358 34.104 318.665 33.8613 318.154 33.376C317.642 32.882 317.387 32.2103 317.387 31.361V29.489C317.387 28.6396 317.642 27.9723 318.154 27.487C318.665 26.993 319.358 26.746 320.234 26.746C321.109 26.746 321.802 26.993 322.314 27.487C322.825 27.9723 323.081 28.6353 323.081 29.476V31.361C323.081 32.2103 322.825 32.882 322.314 33.376C321.802 33.8613 321.109 34.104 320.234 34.104ZM320.234 32.973C320.719 32.973 321.1 32.8386 321.378 32.57C321.655 32.2926 321.794 31.8896 321.794 31.361V29.489C321.794 28.9603 321.655 28.5616 321.378 28.293C321.1 28.0156 320.719 27.877 320.234 27.877C319.748 27.877 319.367 28.0156 319.09 28.293C318.812 28.5616 318.674 28.9603 318.674 29.489V31.361C318.674 31.8896 318.812 32.2926 319.09 32.57C319.367 32.8386 319.748 32.973 320.234 32.973Z" fill="white"/>
<path d="M312.493 34.13C311.617 34.13 310.92 33.8873 310.4 33.402C309.888 32.908 309.633 32.232 309.633 31.374V27.123C309.633 26.2737 309.888 25.6063 310.4 25.121C310.92 24.627 311.617 24.38 312.493 24.38C313.359 24.38 314.048 24.627 314.56 25.121C315.08 25.615 315.34 26.2823 315.34 27.123H314.053C314.053 26.6117 313.914 26.2173 313.637 25.94C313.359 25.6627 312.978 25.524 312.493 25.524C311.999 25.524 311.613 25.6627 311.336 25.94C311.058 26.2173 310.92 26.6117 310.92 27.123V31.374C310.92 31.894 311.058 32.2927 311.336 32.57C311.613 32.8473 311.999 32.986 312.493 32.986C312.978 32.986 313.359 32.8473 313.637 32.57C313.914 32.2927 314.053 31.894 314.053 31.374H315.34C315.34 32.2233 315.08 32.895 314.56 33.389C314.048 33.883 313.359 34.13 312.493 34.13Z" fill="white"/>
<path d="M294.094 34V24.51H295.381V26.85L295.368 28.215H295.394C295.454 27.7383 295.649 27.37 295.979 27.11C296.308 26.85 296.746 26.72 297.292 26.72C298.002 26.72 298.57 26.9453 298.995 27.396C299.419 27.8467 299.632 28.4533 299.632 29.216V34H298.345V29.359C298.345 28.8737 298.215 28.4967 297.955 28.228C297.695 27.9507 297.339 27.812 296.889 27.812C296.421 27.812 296.052 27.9593 295.784 28.254C295.515 28.54 295.381 28.943 295.381 29.463V34H294.094Z" fill="white"/>
<path d="M289.106 34.13C288.231 34.13 287.529 33.8873 287 33.402C286.471 32.908 286.207 32.232 286.207 31.374V29.463C286.207 28.6136 286.471 27.9463 287 27.461C287.529 26.967 288.231 26.72 289.106 26.72C289.947 26.72 290.623 26.9453 291.134 27.396C291.645 27.838 291.914 28.4446 291.94 29.216H290.666C290.64 28.7826 290.488 28.449 290.211 28.215C289.934 27.9723 289.565 27.851 289.106 27.851C288.612 27.851 288.218 27.994 287.923 28.28C287.637 28.5573 287.494 28.9516 287.494 29.463V31.374C287.494 31.894 287.637 32.2926 287.923 32.57C288.218 32.8473 288.612 32.986 289.106 32.986C289.565 32.986 289.934 32.869 290.211 32.635C290.488 32.401 290.64 32.0673 290.666 31.634H291.94C291.914 32.4053 291.645 33.0163 291.134 33.467C290.623 33.909 289.947 34.13 289.106 34.13Z" fill="white"/>
<path d="M278.723 34V26.85H279.997V28.215H280.023C280.083 27.7383 280.278 27.37 280.608 27.11C280.946 26.85 281.388 26.72 281.934 26.72C282.67 26.72 283.26 26.9583 283.702 27.435C284.144 27.9116 284.365 28.553 284.365 29.359V29.879H283.065V29.463C283.065 28.9516 282.93 28.553 282.662 28.267C282.402 27.981 282.016 27.838 281.505 27.838C280.508 27.838 280.01 28.3883 280.01 29.489V34H278.723Z" fill="white"/>
<path d="M272.801 34.13C272.047 34.13 271.453 33.9393 271.02 33.558C270.595 33.168 270.383 32.6436 270.383 31.985C270.383 31.309 270.604 30.7803 271.046 30.399C271.496 30.009 272.107 29.814 272.879 29.814H274.959V29.138C274.959 28.722 274.829 28.4013 274.569 28.176C274.317 27.942 273.966 27.825 273.516 27.825C273.108 27.825 272.766 27.916 272.489 28.098C272.22 28.2713 272.055 28.501 271.995 28.787H270.734C270.768 28.371 270.911 28.0113 271.163 27.708C271.414 27.396 271.743 27.1533 272.151 26.98C272.558 26.8066 273.017 26.72 273.529 26.72C274.361 26.72 275.019 26.9366 275.505 27.37C275.999 27.7946 276.246 28.371 276.246 29.099V34H274.985V32.674H274.972C274.911 33.1246 274.686 33.48 274.296 33.74C273.906 34 273.407 34.13 272.801 34.13ZM273.152 33.129C273.672 33.129 274.101 32.999 274.439 32.739C274.785 32.4703 274.959 32.128 274.959 31.712V30.737H272.905C272.523 30.737 272.22 30.841 271.995 31.049C271.778 31.257 271.67 31.5386 271.67 31.894C271.67 32.284 271.8 32.5873 272.06 32.804C272.32 33.0206 272.684 33.129 273.152 33.129Z" fill="white"/>
<path d="M265.671 34.13C265.099 34.13 264.597 34.0173 264.163 33.792C263.739 33.558 263.409 33.2373 263.175 32.83C262.941 32.414 262.824 31.9286 262.824 31.374V29.463C262.824 28.917 262.941 28.4403 263.175 28.033C263.409 27.617 263.739 27.2963 264.163 27.071C264.597 26.837 265.099 26.72 265.671 26.72C266.243 26.72 266.742 26.837 267.166 27.071C267.6 27.2963 267.933 27.617 268.167 28.033C268.401 28.4403 268.518 28.917 268.518 29.463V30.737H264.085V31.374C264.085 31.9286 264.22 32.349 264.488 32.635C264.766 32.921 265.16 33.064 265.671 33.064C266.105 33.064 266.451 32.9903 266.711 32.843C266.971 32.687 267.136 32.4573 267.205 32.154H268.479C268.393 32.7606 268.089 33.2416 267.569 33.597C267.058 33.9523 266.425 34.13 265.671 34.13ZM264.085 29.463V29.814H267.27V29.463C267.27 28.917 267.132 28.501 266.854 28.215C266.586 27.9203 266.191 27.773 265.671 27.773C265.151 27.773 264.757 27.9203 264.488 28.215C264.22 28.501 264.085 28.917 264.085 29.463Z" fill="white"/>
<path d="M257.64 34.104C256.886 34.104 256.267 33.9306 255.781 33.584C255.305 33.2373 255.066 32.765 255.066 32.167H256.379C256.379 32.4356 256.496 32.6436 256.73 32.791C256.973 32.9296 257.285 32.999 257.666 32.999H258.212C258.663 32.999 258.997 32.9123 259.213 32.739C259.43 32.557 259.538 32.3186 259.538 32.024C259.538 31.7293 259.434 31.4996 259.226 31.335C259.018 31.1703 258.724 31.0533 258.342 30.984L257.367 30.841C255.946 30.6156 255.235 29.9266 255.235 28.774C255.235 28.1153 255.452 27.6126 255.885 27.266C256.319 26.9193 256.938 26.746 257.744 26.746H258.238C258.984 26.746 259.582 26.915 260.032 27.253C260.483 27.5823 260.708 28.02 260.708 28.566H259.395C259.395 28.3493 259.287 28.176 259.07 28.046C258.862 27.916 258.576 27.851 258.212 27.851H257.718C257.32 27.851 257.016 27.9333 256.808 28.098C256.6 28.254 256.496 28.4793 256.496 28.774C256.496 29.2766 256.852 29.5843 257.562 29.697L258.537 29.853C259.317 29.9743 259.889 30.204 260.253 30.542C260.617 30.8713 260.799 31.348 260.799 31.972C260.799 32.6393 260.578 33.1636 260.136 33.545C259.703 33.9176 259.053 34.104 258.186 34.104H257.64Z" fill="white"/>
<path d="M250.081 34.13C249.509 34.13 249.007 34.0173 248.573 33.792C248.149 33.558 247.819 33.2373 247.585 32.83C247.351 32.414 247.234 31.9286 247.234 31.374V29.463C247.234 28.917 247.351 28.4403 247.585 28.033C247.819 27.617 248.149 27.2963 248.573 27.071C249.007 26.837 249.509 26.72 250.081 26.72C250.653 26.72 251.152 26.837 251.576 27.071C252.01 27.2963 252.343 27.617 252.577 28.033C252.811 28.4403 252.928 28.917 252.928 29.463V30.737H248.495V31.374C248.495 31.9286 248.63 32.349 248.898 32.635C249.176 32.921 249.57 33.064 250.081 33.064C250.515 33.064 250.861 32.9903 251.121 32.843C251.381 32.687 251.546 32.4573 251.615 32.154H252.889C252.803 32.7606 252.499 33.2416 251.979 33.597C251.468 33.9523 250.835 34.13 250.081 34.13ZM248.495 29.463V29.814H251.68V29.463C251.68 28.917 251.542 28.501 251.264 28.215C250.996 27.9203 250.601 27.773 250.081 27.773C249.561 27.773 249.167 27.9203 248.898 28.215C248.63 28.501 248.495 28.917 248.495 29.463Z" fill="white"/>
<path d="M239.527 34V24.51H242.478C243.059 24.51 243.566 24.627 243.999 24.861C244.433 25.0863 244.771 25.407 245.013 25.823C245.256 26.2303 245.377 26.7113 245.377 27.266C245.377 27.9073 245.213 28.4577 244.883 28.917C244.554 29.3763 244.108 29.697 243.544 29.879L245.507 34H244.012L242.244 30.035H240.814V34H239.527ZM240.814 28.891H242.478C242.964 28.891 243.345 28.7437 243.622 28.449C243.908 28.1543 244.051 27.7643 244.051 27.279C244.051 26.785 243.908 26.3907 243.622 26.096C243.336 25.8013 242.955 25.654 242.478 25.654H240.814V28.891Z" fill="white"/>
<path d="M224.109 34V32.83H226.046V25.68H224.109V24.51H229.283V25.68H227.346V32.83H229.283V34H224.109Z" fill="white"/>
<path d="M215.598 34L218.055 24.51H219.758L222.202 34H220.889L220.291 31.53H217.509L216.911 34H215.598ZM217.769 30.464H220.031L219.355 27.63C219.225 27.11 219.121 26.668 219.043 26.304C218.965 25.94 218.917 25.693 218.9 25.563C218.882 25.693 218.835 25.94 218.757 26.304C218.679 26.668 218.579 27.1057 218.458 27.617L217.769 30.464Z" fill="white"/>
<path d="M359.988 58C359.373 58 358.883 57.8223 358.519 57.467C358.164 57.1116 357.986 56.6393 357.986 56.05V52.02H355.984V50.85H357.986V48.835H359.273V50.85H362.094V52.02H359.273V56.037C359.273 56.271 359.338 56.4616 359.468 56.609C359.607 56.7563 359.789 56.83 360.014 56.83H361.964V58H359.988Z" fill="white"/>
<path d="M348.672 60.34V50.85H349.946V52.189H349.959C350.046 51.7296 350.258 51.37 350.596 51.11C350.943 50.85 351.38 50.72 351.909 50.72C352.62 50.72 353.192 50.9626 353.625 51.448C354.058 51.9246 354.275 52.5746 354.275 53.398V55.439C354.275 56.271 354.058 56.9296 353.625 57.415C353.2 57.8916 352.628 58.13 351.909 58.13C351.389 58.13 350.956 58 350.609 57.74C350.262 57.4713 350.046 57.1073 349.959 56.648H349.933L349.959 58.273V60.34H348.672ZM351.467 57.012C351.944 57.012 352.316 56.8733 352.585 56.596C352.854 56.31 352.988 55.9026 352.988 55.374V53.463C352.988 52.943 352.854 52.5443 352.585 52.267C352.316 51.981 351.944 51.838 351.467 51.838C350.999 51.838 350.631 51.981 350.362 52.267C350.093 52.553 349.959 52.956 349.959 53.476V55.374C349.959 55.894 350.093 56.297 350.362 56.583C350.631 56.869 350.999 57.012 351.467 57.012Z" fill="white"/>
<path d="M340.797 58V56.83H343.306V52.02H341.057V50.85H344.593V56.83H346.946V58H340.797ZM343.826 49.589C343.531 49.589 343.297 49.5154 343.124 49.368C342.951 49.212 342.864 49.004 342.864 48.744C342.864 48.4754 342.951 48.263 343.124 48.107C343.297 47.951 343.531 47.873 343.826 47.873C344.121 47.873 344.355 47.951 344.528 48.107C344.701 48.263 344.788 48.4754 344.788 48.744C344.788 49.004 344.701 49.212 344.528 49.368C344.355 49.5154 344.121 49.589 343.826 49.589Z" fill="white"/>
<path d="M333.289 58V50.85H334.563V52.215H334.589C334.65 51.7383 334.845 51.37 335.174 51.11C335.512 50.85 335.954 50.72 336.5 50.72C337.237 50.72 337.826 50.9583 338.268 51.435C338.71 51.9116 338.931 52.553 338.931 53.359V53.879H337.631V53.463C337.631 52.9516 337.497 52.553 337.228 52.267C336.968 51.981 336.582 51.838 336.071 51.838C335.074 51.838 334.576 52.3883 334.576 53.489V58H333.289Z" fill="white"/>
<path d="M328.083 58.13C327.207 58.13 326.505 57.8873 325.977 57.402C325.448 56.908 325.184 56.232 325.184 55.374V53.463C325.184 52.6136 325.448 51.9463 325.977 51.461C326.505 50.967 327.207 50.72 328.083 50.72C328.923 50.72 329.599 50.9453 330.111 51.396C330.622 51.838 330.891 52.4446 330.917 53.216H329.643C329.617 52.7826 329.465 52.449 329.188 52.215C328.91 51.9723 328.542 51.851 328.083 51.851C327.589 51.851 327.194 51.994 326.9 52.28C326.614 52.5573 326.471 52.9516 326.471 53.463V55.374C326.471 55.894 326.614 56.2926 326.9 56.57C327.194 56.8473 327.589 56.986 328.083 56.986C328.542 56.986 328.91 56.869 329.188 56.635C329.465 56.401 329.617 56.0673 329.643 55.634H330.917C330.891 56.4053 330.622 57.0163 330.111 57.467C329.599 57.909 328.923 58.13 328.083 58.13Z" fill="white"/>
<path d="M320 58.104C319.246 58.104 318.626 57.9306 318.141 57.584C317.664 57.2373 317.426 56.765 317.426 56.167H318.739C318.739 56.4356 318.856 56.6436 319.09 56.791C319.332 56.9296 319.644 56.999 320.026 56.999H320.572C321.022 56.999 321.356 56.9123 321.573 56.739C321.789 56.557 321.898 56.3186 321.898 56.024C321.898 55.7293 321.794 55.4996 321.586 55.335C321.378 55.1703 321.083 55.0533 320.702 54.984L319.727 54.841C318.305 54.6156 317.595 53.9266 317.595 52.774C317.595 52.1153 317.811 51.6126 318.245 51.266C318.678 50.9193 319.298 50.746 320.104 50.746H320.598C321.343 50.746 321.941 50.915 322.392 51.253C322.842 51.5823 323.068 52.02 323.068 52.566H321.755C321.755 52.3493 321.646 52.176 321.43 52.046C321.222 51.916 320.936 51.851 320.572 51.851H320.078C319.679 51.851 319.376 51.9333 319.168 52.098C318.96 52.254 318.856 52.4793 318.856 52.774C318.856 53.2766 319.211 53.5843 319.922 53.697L320.897 53.853C321.677 53.9743 322.249 54.204 322.613 54.542C322.977 54.8713 323.159 55.348 323.159 55.972C323.159 56.6393 322.938 57.1636 322.496 57.545C322.062 57.9176 321.412 58.104 320.546 58.104H320Z" fill="white"/>
<path d="M309.684 58V50.85H310.958V52.215H310.984C311.044 51.7383 311.239 51.37 311.569 51.11C311.898 50.85 312.336 50.72 312.882 50.72C313.592 50.72 314.16 50.9453 314.585 51.396C315.009 51.8466 315.222 52.4533 315.222 53.216V58H313.935V53.359C313.935 52.8736 313.805 52.501 313.545 52.241C313.285 51.9723 312.929 51.838 312.479 51.838C312.011 51.838 311.642 51.981 311.374 52.267C311.105 52.5443 310.971 52.943 310.971 53.463V58H309.684Z" fill="white"/>
<path d="M303.98 58.13C303.226 58.13 302.633 57.9393 302.2 57.558C301.775 57.168 301.562 56.6436 301.562 55.985C301.562 55.309 301.784 54.7803 302.226 54.399C302.676 54.009 303.287 53.814 304.059 53.814H306.138V53.138C306.138 52.722 306.008 52.4013 305.748 52.176C305.497 51.942 305.146 51.825 304.696 51.825C304.288 51.825 303.946 51.916 303.669 52.098C303.4 52.2713 303.235 52.501 303.174 52.787H301.913C301.948 52.371 302.091 52.0113 302.342 51.708C302.594 51.396 302.923 51.1533 303.33 50.98C303.738 50.8066 304.197 50.72 304.708 50.72C305.54 50.72 306.199 50.9366 306.685 51.37C307.179 51.7946 307.425 52.371 307.425 53.099V58H306.164V56.674H306.151C306.091 57.1246 305.866 57.48 305.476 57.74C305.086 58 304.587 58.13 303.98 58.13ZM304.331 57.129C304.851 57.129 305.28 56.999 305.618 56.739C305.965 56.4703 306.138 56.128 306.138 55.712V54.737H304.085C303.703 54.737 303.4 54.841 303.174 55.049C302.958 55.257 302.85 55.5386 302.85 55.894C302.85 56.284 302.98 56.5873 303.24 56.804C303.5 57.0206 303.863 57.129 304.331 57.129Z" fill="white"/>
<path d="M294.312 58V50.85H295.587V52.215H295.613C295.673 51.7383 295.868 51.37 296.198 51.11C296.536 50.85 296.978 50.72 297.524 50.72C298.26 50.72 298.85 50.9583 299.292 51.435C299.734 51.9116 299.955 52.553 299.955 53.359V53.879H298.655V53.463C298.655 52.9516 298.52 52.553 298.252 52.267C297.992 51.981 297.606 51.838 297.095 51.838C296.098 51.838 295.6 52.3883 295.6 53.489V58H294.312Z" fill="white"/>
<path d="M288.418 58V49.68H285.844V48.51H292.266V49.68H289.705V58H288.418Z" fill="white"/>
<path d="M272.996 58.13C272.277 58.13 271.701 57.8917 271.267 57.415C270.834 56.9297 270.617 56.2753 270.617 55.452V53.398C270.617 52.5747 270.834 51.9247 271.267 51.448C271.701 50.9627 272.277 50.72 272.996 50.72C273.516 50.72 273.945 50.8543 274.283 51.123C274.63 51.383 274.847 51.7383 274.933 52.189H274.959L274.933 50.564V48.51H276.22V58H274.946V56.648H274.933C274.847 57.116 274.63 57.48 274.283 57.74C273.945 58 273.516 58.13 272.996 58.13ZM273.438 57.012C273.898 57.012 274.262 56.869 274.53 56.583C274.799 56.297 274.933 55.894 274.933 55.374V53.476C274.933 52.956 274.799 52.553 274.53 52.267C274.262 51.981 273.898 51.838 273.438 51.838C272.962 51.838 272.585 51.981 272.307 52.267C272.039 52.5443 271.904 52.943 271.904 53.463V55.374C271.904 55.9027 272.039 56.31 272.307 56.596C272.585 56.8733 272.962 57.012 273.438 57.012Z" fill="white"/>
<path d="M265.008 58.13C264.254 58.13 263.66 57.9393 263.227 57.558C262.802 57.168 262.59 56.6436 262.59 55.985C262.59 55.309 262.811 54.7803 263.253 54.399C263.704 54.009 264.315 53.814 265.086 53.814H267.166V53.138C267.166 52.722 267.036 52.4013 266.776 52.176C266.525 51.942 266.174 51.825 265.723 51.825C265.316 51.825 264.973 51.916 264.696 52.098C264.427 52.2713 264.263 52.501 264.202 52.787H262.941C262.976 52.371 263.119 52.0113 263.37 51.708C263.621 51.396 263.951 51.1533 264.358 50.98C264.765 50.8066 265.225 50.72 265.736 50.72C266.568 50.72 267.227 50.9366 267.712 51.37C268.206 51.7946 268.453 52.371 268.453 53.099V58H267.192V56.674H267.179C267.118 57.1246 266.893 57.48 266.503 57.74C266.113 58 265.615 58.13 265.008 58.13ZM265.359 57.129C265.879 57.129 266.308 56.999 266.646 56.739C266.993 56.4703 267.166 56.128 267.166 55.712V54.737H265.112C264.731 54.737 264.427 54.841 264.202 55.049C263.985 55.257 263.877 55.5386 263.877 55.894C263.877 56.284 264.007 56.5873 264.267 56.804C264.527 57.0206 264.891 57.129 265.359 57.129Z" fill="white"/>
<path d="M257.874 58.104C256.999 58.104 256.306 57.8613 255.794 57.376C255.283 56.882 255.027 56.2103 255.027 55.361V53.489C255.027 52.6396 255.283 51.9723 255.794 51.487C256.306 50.993 256.999 50.746 257.874 50.746C258.75 50.746 259.443 50.993 259.954 51.487C260.466 51.9723 260.721 52.6353 260.721 53.476V55.361C260.721 56.2103 260.466 56.882 259.954 57.376C259.443 57.8613 258.75 58.104 257.874 58.104ZM257.874 56.973C258.36 56.973 258.741 56.8386 259.018 56.57C259.296 56.2926 259.434 55.8896 259.434 55.361V53.489C259.434 52.9603 259.296 52.5616 259.018 52.293C258.741 52.0156 258.36 51.877 257.874 51.877C257.389 51.877 257.008 52.0156 256.73 52.293C256.453 52.5616 256.314 52.9603 256.314 53.489V55.361C256.314 55.8896 256.453 56.2926 256.73 56.57C257.008 56.8386 257.389 56.973 257.874 56.973Z" fill="white"/>
<path d="M251.148 58C250.498 58 249.978 57.8093 249.588 57.428C249.198 57.0467 249.003 56.5397 249.003 55.907V49.68H246.559V48.51H250.29V55.894C250.29 56.18 250.368 56.4097 250.524 56.583C250.688 56.7477 250.909 56.83 251.187 56.83H253.358V58H251.148Z" fill="white"/>
<path d="M239.527 58V50.85H240.801V52.215H240.827C240.888 51.7383 241.083 51.37 241.412 51.11C241.742 50.85 242.179 50.72 242.725 50.72C243.436 50.72 244.004 50.9453 244.428 51.396C244.853 51.8466 245.065 52.4533 245.065 53.216V58H243.778V53.359C243.778 52.8736 243.648 52.501 243.388 52.241C243.128 51.9723 242.773 51.838 242.322 51.838C241.854 51.838 241.486 51.981 241.217 52.267C240.949 52.5443 240.814 52.943 240.814 53.463V58H239.527Z" fill="white"/>
<path d="M232.123 58L230.992 50.85H232.084L232.773 55.738C232.799 55.946 232.821 56.1756 232.838 56.427C232.864 56.6696 232.886 56.869 232.903 57.025H232.955C232.973 56.8603 232.994 56.6566 233.02 56.414C233.055 56.1713 233.09 55.946 233.124 55.738L233.878 50.85H235.1L235.854 55.738C235.889 55.9546 235.919 56.1843 235.945 56.427C235.98 56.661 236.006 56.8603 236.023 57.025H236.075C236.101 56.869 236.127 56.6696 236.153 56.427C236.179 56.1756 236.205 55.946 236.231 55.738L236.946 50.85H237.986L236.803 58H235.425L234.684 53.19C234.65 52.956 234.615 52.7133 234.58 52.462C234.546 52.202 234.52 51.994 234.502 51.838H234.45C234.433 51.994 234.407 52.202 234.372 52.462C234.346 52.7133 234.316 52.956 234.281 53.19L233.514 58H232.123Z" fill="white"/>
<path d="M226.695 58.104C225.819 58.104 225.126 57.8613 224.615 57.376C224.103 56.882 223.848 56.2103 223.848 55.361V53.489C223.848 52.6396 224.103 51.9723 224.615 51.487C225.126 50.993 225.819 50.746 226.695 50.746C227.57 50.746 228.263 50.993 228.775 51.487C229.286 51.9723 229.542 52.6353 229.542 53.476V55.361C229.542 56.2103 229.286 56.882 228.775 57.376C228.263 57.8613 227.57 58.104 226.695 58.104ZM226.695 56.973C227.18 56.973 227.561 56.8386 227.839 56.57C228.116 56.2926 228.255 55.8896 228.255 55.361V53.489C228.255 52.9603 228.116 52.5616 227.839 52.293C227.561 52.0156 227.18 51.877 226.695 51.877C226.209 51.877 225.828 52.0156 225.551 52.293C225.273 52.5616 225.135 52.9603 225.135 53.489V55.361C225.135 55.8896 225.273 56.2926 225.551 56.57C225.828 56.8386 226.209 56.973 226.695 56.973Z" fill="white"/>
<path d="M216.145 58V48.51H218.693C219.308 48.51 219.841 48.6313 220.292 48.874C220.751 49.108 221.106 49.4417 221.358 49.875C221.609 50.2997 221.735 50.8023 221.735 51.383V55.114C221.735 55.6947 221.609 56.2017 221.358 56.635C221.106 57.0683 220.751 57.4063 220.292 57.649C219.841 57.883 219.308 58 218.693 58H216.145ZM217.432 56.856H218.693C219.239 56.856 219.668 56.7 219.98 56.388C220.292 56.076 220.448 55.6513 220.448 55.114V51.383C220.448 50.8457 220.292 50.4253 219.98 50.122C219.668 49.81 219.239 49.654 218.693 49.654H217.432V56.856Z" fill="white"/>
<circle cx="200" cy="54" r="5" fill="white"/>
<path fill-rule="evenodd" clip-rule="evenodd" d="M202.066 52.4367C202.132 52.5024 202.168 52.5915 202.168 52.6844C202.168 52.7772 202.132 52.8663 202.066 52.932L199.44 55.5578C199.405 55.5925 199.364 55.6201 199.319 55.6389C199.274 55.6576 199.225 55.6673 199.176 55.6673C199.127 55.6673 199.078 55.6576 199.033 55.6389C198.987 55.6201 198.946 55.5925 198.912 55.5578L197.607 54.2535C197.573 54.2211 197.547 54.1825 197.528 54.1397C197.51 54.097 197.5 54.051 197.5 54.0045C197.5 53.958 197.508 53.9119 197.526 53.8688C197.544 53.8258 197.57 53.7867 197.603 53.7538C197.636 53.7209 197.675 53.6949 197.718 53.6772C197.761 53.6596 197.807 53.6508 197.853 53.6512C197.9 53.6516 197.946 53.6612 197.989 53.6796C198.031 53.698 198.07 53.7246 198.102 53.7581L199.176 54.8315L201.57 52.4367C201.603 52.4041 201.641 52.3783 201.684 52.3607C201.726 52.3431 201.772 52.334 201.818 52.334C201.864 52.334 201.91 52.3431 201.952 52.3607C201.995 52.3783 202.033 52.4041 202.066 52.4367Z" fill="#151515" stroke="#151515" stroke-width="0.7"/>
<path d="M382.593 82.13C382.021 82.13 381.518 82.0173 381.085 81.792C380.66 81.558 380.331 81.2373 380.097 80.83C379.863 80.414 379.746 79.9286 379.746 79.374V77.463C379.746 76.917 379.863 76.4403 380.097 76.033C380.331 75.617 380.66 75.2963 381.085 75.071C381.518 74.837 382.021 74.72 382.593 74.72C383.165 74.72 383.663 74.837 384.088 75.071C384.521 75.2963 384.855 75.617 385.089 76.033C385.323 76.4403 385.44 76.917 385.44 77.463V78.737H381.007V79.374C381.007 79.9286 381.141 80.349 381.41 80.635C381.687 80.921 382.082 81.064 382.593 81.064C383.026 81.064 383.373 80.9903 383.633 80.843C383.893 80.687 384.058 80.4573 384.127 80.154H385.401C385.314 80.7606 385.011 81.2416 384.491 81.597C383.98 81.9523 383.347 82.13 382.593 82.13ZM381.007 77.463V77.814H384.192V77.463C384.192 76.917 384.053 76.501 383.776 76.215C383.507 75.9203 383.113 75.773 382.593 75.773C382.073 75.773 381.679 75.9203 381.41 76.215C381.141 76.501 381.007 76.917 381.007 77.463Z" fill="white"/>
<path d="M371.641 82V74.85H372.746V75.734H372.824C372.876 75.4306 373.01 75.188 373.227 75.006C373.443 74.8153 373.708 74.72 374.02 74.72C374.306 74.72 374.553 74.811 374.761 74.993C374.969 75.175 375.12 75.422 375.216 75.734H375.281C375.333 75.4306 375.467 75.188 375.684 75.006C375.909 74.8153 376.182 74.72 376.503 74.72C376.927 74.72 377.274 74.8933 377.543 75.24C377.82 75.578 377.959 76.02 377.959 76.566V82H376.789V76.579C376.789 75.9896 376.546 75.695 376.061 75.695C375.818 75.695 375.632 75.773 375.502 75.929C375.372 76.0763 375.307 76.293 375.307 76.579V82H374.293V76.579C374.293 76.3016 374.223 76.085 374.085 75.929C373.955 75.773 373.773 75.695 373.539 75.695C373.053 75.695 372.811 75.9896 372.811 76.579V82H371.641Z" fill="white"/>
<path d="M364.184 82V80.83H366.693V76.02H364.444V74.85H367.98V80.83H370.333V82H364.184ZM367.213 73.589C366.918 73.589 366.684 73.5154 366.511 73.368C366.337 73.212 366.251 73.004 366.251 72.744C366.251 72.4754 366.337 72.263 366.511 72.107C366.684 71.951 366.918 71.873 367.213 71.873C367.507 71.873 367.741 71.951 367.915 72.107C368.088 72.263 368.175 72.4754 368.175 72.744C368.175 73.004 368.088 73.212 367.915 73.368C367.741 73.5154 367.507 73.589 367.213 73.589Z" fill="white"/>
<path d="M358.57 82V73.68H355.996V72.51H362.418V73.68H359.857V82H358.57Z" fill="white"/>
<path d="M342.008 84.34L343.048 81.571L340.305 74.85H341.709L343.373 79.075C343.433 79.2396 343.494 79.4346 343.555 79.66C343.615 79.8766 343.663 80.0586 343.698 80.206C343.732 80.0586 343.78 79.8766 343.841 79.66C343.91 79.4346 343.975 79.2396 344.036 79.075L345.583 74.85H346.935L343.347 84.34H342.008Z" fill="white"/>
<path d="M333.289 82V74.85H334.563V76.215H334.589C334.65 75.7383 334.845 75.37 335.174 75.11C335.512 74.85 335.954 74.72 336.5 74.72C337.237 74.72 337.826 74.9583 338.268 75.435C338.71 75.9116 338.931 76.553 338.931 77.359V77.879H337.631V77.463C337.631 76.9516 337.497 76.553 337.228 76.267C336.968 75.981 336.582 75.838 336.071 75.838C335.074 75.838 334.576 76.3883 334.576 77.489V82H333.289Z" fill="white"/>
<path d="M325.207 82V80.83H327.716V76.02H325.467V74.85H329.003V80.83H331.356V82H325.207ZM328.236 73.589C327.941 73.589 327.707 73.5154 327.534 73.368C327.361 73.212 327.274 73.004 327.274 72.744C327.274 72.4754 327.361 72.263 327.534 72.107C327.707 71.951 327.941 71.873 328.236 71.873C328.531 71.873 328.765 71.951 328.938 72.107C329.111 72.263 329.198 72.4754 329.198 72.744C329.198 73.004 329.111 73.212 328.938 73.368C328.765 73.5154 328.531 73.589 328.236 73.589Z" fill="white"/>
<path d="M317.492 84.34V74.85H318.766V76.189H318.779C318.866 75.7296 319.078 75.37 319.416 75.11C319.763 74.85 320.201 74.72 320.729 74.72C321.44 74.72 322.012 74.9626 322.445 75.448C322.879 75.9246 323.095 76.5746 323.095 77.398V79.439C323.095 80.271 322.879 80.9296 322.445 81.415C322.021 81.8916 321.449 82.13 320.729 82.13C320.209 82.13 319.776 82 319.429 81.74C319.083 81.4713 318.866 81.1073 318.779 80.648H318.753L318.779 82.273V84.34H317.492ZM320.287 81.012C320.764 81.012 321.137 80.8733 321.405 80.596C321.674 80.31 321.808 79.9026 321.808 79.374V77.463C321.808 76.943 321.674 76.5443 321.405 76.267C321.137 75.981 320.764 75.838 320.287 75.838C319.819 75.838 319.451 75.981 319.182 76.267C318.914 76.553 318.779 76.956 318.779 77.476V79.374C318.779 79.894 318.914 80.297 319.182 80.583C319.451 80.869 319.819 81.012 320.287 81.012Z" fill="white"/>
<path d="M309.137 82L311.672 78.321L309.306 74.85H310.801L312.14 76.943C312.2 77.047 312.257 77.1553 312.309 77.268C312.369 77.3806 312.417 77.4716 312.452 77.541C312.478 77.4716 312.517 77.3806 312.569 77.268C312.629 77.1553 312.69 77.047 312.751 76.943L314.103 74.85H315.585L313.219 78.334L315.741 82H314.233L312.777 79.751C312.716 79.6556 312.655 79.5473 312.595 79.426C312.534 79.296 312.486 79.192 312.452 79.114C312.408 79.192 312.356 79.296 312.296 79.426C312.235 79.5473 312.17 79.6556 312.101 79.751L310.632 82H309.137Z" fill="white"/>
<path d="M302.004 82V72.51H307.529V73.667H303.278V76.488H307.074V77.606H303.278V80.843H307.529V82H302.004Z" fill="white"/>
<path d="M289.054 82.13C288.482 82.13 287.979 82.0173 287.546 81.792C287.121 81.558 286.792 81.2373 286.558 80.83C286.324 80.414 286.207 79.9286 286.207 79.374V77.463C286.207 76.917 286.324 76.4403 286.558 76.033C286.792 75.617 287.121 75.2963 287.546 75.071C287.979 74.837 288.482 74.72 289.054 74.72C289.626 74.72 290.124 74.837 290.549 75.071C290.982 75.2963 291.316 75.617 291.55 76.033C291.784 76.4403 291.901 76.917 291.901 77.463V78.737H287.468V79.374C287.468 79.9286 287.602 80.349 287.871 80.635C288.148 80.921 288.543 81.064 289.054 81.064C289.487 81.064 289.834 80.9903 290.094 80.843C290.354 80.687 290.519 80.4573 290.588 80.154H291.862C291.775 80.7606 291.472 81.2416 290.952 81.597C290.441 81.9523 289.808 82.13 289.054 82.13ZM287.468 77.463V77.814H290.653V77.463C290.653 76.917 290.514 76.501 290.237 76.215C289.968 75.9203 289.574 75.773 289.054 75.773C288.534 75.773 288.14 75.9203 287.871 76.215C287.602 76.501 287.468 76.917 287.468 77.463Z" fill="white"/>
<path d="M279.428 84.34V83.196H281.664C282.375 83.196 282.73 82.858 282.73 82.182V81.363L282.756 80.063H282.73C282.678 80.5223 282.483 80.8863 282.145 81.155C281.807 81.4236 281.369 81.558 280.832 81.558C280.095 81.558 279.515 81.3153 279.09 80.83C278.665 80.3446 278.453 79.6903 278.453 78.867V77.398C278.453 76.5746 278.665 75.9246 279.09 75.448C279.515 74.9626 280.095 74.72 280.832 74.72C281.369 74.72 281.807 74.8543 282.145 75.123C282.483 75.383 282.678 75.747 282.73 76.215H282.743L282.73 74.85H284.004V82.195C284.004 82.8623 283.796 83.3866 283.38 83.768C282.964 84.1493 282.392 84.34 281.664 84.34H279.428ZM281.235 80.44C281.694 80.44 282.058 80.297 282.327 80.011C282.596 79.725 282.73 79.322 282.73 78.802V77.463C282.73 76.9516 282.596 76.553 282.327 76.267C282.058 75.981 281.694 75.838 281.235 75.838C280.758 75.838 280.39 75.981 280.13 76.267C279.87 76.5443 279.74 76.943 279.74 77.463V78.802C279.74 79.3306 279.87 79.738 280.13 80.024C280.39 80.3013 280.758 80.44 281.235 80.44Z" fill="white"/>
<path d="M272.801 82.13C272.047 82.13 271.453 81.9393 271.02 81.558C270.595 81.168 270.383 80.6436 270.383 79.985C270.383 79.309 270.604 78.7803 271.046 78.399C271.496 78.009 272.107 77.814 272.879 77.814H274.959V77.138C274.959 76.722 274.829 76.4013 274.569 76.176C274.317 75.942 273.966 75.825 273.516 75.825C273.108 75.825 272.766 75.916 272.489 76.098C272.22 76.2713 272.055 76.501 271.995 76.787H270.734C270.768 76.371 270.911 76.0113 271.163 75.708C271.414 75.396 271.743 75.1533 272.151 74.98C272.558 74.8066 273.017 74.72 273.529 74.72C274.361 74.72 275.019 74.9366 275.505 75.37C275.999 75.7946 276.246 76.371 276.246 77.099V82H274.985V80.674H274.972C274.911 81.1246 274.686 81.48 274.296 81.74C273.906 82 273.407 82.13 272.801 82.13ZM273.152 81.129C273.672 81.129 274.101 80.999 274.439 80.739C274.785 80.4703 274.959 80.128 274.959 79.712V78.737H272.905C272.523 78.737 272.22 78.841 271.995 79.049C271.778 79.257 271.67 79.5386 271.67 79.894C271.67 80.284 271.8 80.5873 272.06 80.804C272.32 81.0206 272.684 81.129 273.152 81.129Z" fill="white"/>
<path d="M265.437 82.104C264.683 82.104 264.064 81.9306 263.578 81.584C263.102 81.2373 262.863 80.765 262.863 80.167H264.176C264.176 80.4356 264.293 80.6436 264.527 80.791C264.77 80.9296 265.082 80.999 265.463 80.999H266.009C266.46 80.999 266.794 80.9123 267.01 80.739C267.227 80.557 267.335 80.3186 267.335 80.024C267.335 79.7293 267.231 79.4996 267.023 79.335C266.815 79.1703 266.521 79.0533 266.139 78.984L265.164 78.841C263.743 78.6156 263.032 77.9266 263.032 76.774C263.032 76.1153 263.249 75.6126 263.682 75.266C264.116 74.9193 264.735 74.746 265.541 74.746H266.035C266.781 74.746 267.379 74.915 267.829 75.253C268.28 75.5823 268.505 76.02 268.505 76.566H267.192C267.192 76.3493 267.084 76.176 266.867 76.046C266.659 75.916 266.373 75.851 266.009 75.851H265.515C265.117 75.851 264.813 75.9333 264.605 76.098C264.397 76.254 264.293 76.4793 264.293 76.774C264.293 77.2766 264.649 77.5843 265.359 77.697L266.334 77.853C267.114 77.9743 267.686 78.204 268.05 78.542C268.414 78.8713 268.596 79.348 268.596 79.972C268.596 80.6393 268.375 81.1636 267.933 81.545C267.5 81.9176 266.85 82.104 265.983 82.104H265.437Z" fill="white"/>
<path d="M257.64 82.104C256.886 82.104 256.267 81.9306 255.781 81.584C255.305 81.2373 255.066 80.765 255.066 80.167H256.379C256.379 80.4356 256.496 80.6436 256.73 80.791C256.973 80.9296 257.285 80.999 257.666 80.999H258.212C258.663 80.999 258.997 80.9123 259.213 80.739C259.43 80.557 259.538 80.3186 259.538 80.024C259.538 79.7293 259.434 79.4996 259.226 79.335C259.018 79.1703 258.724 79.0533 258.342 78.984L257.367 78.841C255.946 78.6156 255.235 77.9266 255.235 76.774C255.235 76.1153 255.452 75.6126 255.885 75.266C256.319 74.9193 256.938 74.746 257.744 74.746H258.238C258.984 74.746 259.582 74.915 260.032 75.253C260.483 75.5823 260.708 76.02 260.708 76.566H259.395C259.395 76.3493 259.287 76.176 259.07 76.046C258.862 75.916 258.576 75.851 258.212 75.851H257.718C257.32 75.851 257.016 75.9333 256.808 76.098C256.6 76.254 256.496 76.4793 256.496 76.774C256.496 77.2766 256.852 77.5843 257.562 77.697L258.537 77.853C259.317 77.9743 259.889 78.204 260.253 78.542C260.617 78.8713 260.799 79.348 260.799 79.972C260.799 80.6393 260.578 81.1636 260.136 81.545C259.703 81.9176 259.053 82.104 258.186 82.104H257.64Z" fill="white"/>
<path d="M250.081 82.13C249.509 82.13 249.007 82.0173 248.573 81.792C248.149 81.558 247.819 81.2373 247.585 80.83C247.351 80.414 247.234 79.9286 247.234 79.374V77.463C247.234 76.917 247.351 76.4403 247.585 76.033C247.819 75.617 248.149 75.2963 248.573 75.071C249.007 74.837 249.509 74.72 250.081 74.72C250.653 74.72 251.152 74.837 251.576 75.071C252.01 75.2963 252.343 75.617 252.577 76.033C252.811 76.4403 252.928 76.917 252.928 77.463V78.737H248.495V79.374C248.495 79.9286 248.63 80.349 248.898 80.635C249.176 80.921 249.57 81.064 250.081 81.064C250.515 81.064 250.861 80.9903 251.121 80.843C251.381 80.687 251.546 80.4573 251.615 80.154H252.889C252.803 80.7606 252.499 81.2416 251.979 81.597C251.468 81.9523 250.835 82.13 250.081 82.13ZM248.495 77.463V77.814H251.68V77.463C251.68 76.917 251.542 76.501 251.264 76.215C250.996 75.9203 250.601 75.773 250.081 75.773C249.561 75.773 249.167 75.9203 248.898 76.215C248.63 76.501 248.495 76.917 248.495 77.463Z" fill="white"/>
<path d="M239.309 82V72.51H240.947L241.935 75.565C242.021 75.851 242.095 76.1283 242.156 76.397C242.225 76.657 242.277 76.8563 242.312 76.995C242.338 76.8563 242.381 76.657 242.442 76.397C242.511 76.1283 242.589 75.8467 242.676 75.552L243.625 72.51H245.263V82H244.028V77.645C244.028 76.8477 244.058 76.0763 244.119 75.331C244.188 74.577 244.27 73.862 244.366 73.186L242.884 77.853H241.688L240.193 73.212C240.279 73.8533 240.357 74.5337 240.427 75.253C240.505 75.9723 240.544 76.7697 240.544 77.645V82H239.309Z" fill="white"/>
<path d="M226.695 82.104C225.819 82.104 225.126 81.8613 224.615 81.376C224.103 80.882 223.848 80.2103 223.848 79.361V77.489C223.848 76.6396 224.103 75.9723 224.615 75.487C225.126 74.993 225.819 74.746 226.695 74.746C227.57 74.746 228.263 74.993 228.775 75.487C229.286 75.9723 229.542 76.6353 229.542 77.476V79.361C229.542 80.2103 229.286 80.882 228.775 81.376C228.263 81.8613 227.57 82.104 226.695 82.104ZM226.695 80.973C227.18 80.973 227.561 80.8386 227.839 80.57C228.116 80.2926 228.255 79.8896 228.255 79.361V77.489C228.255 76.9603 228.116 76.5616 227.839 76.293C227.561 76.0156 227.18 75.877 226.695 75.877C226.209 75.877 225.828 76.0156 225.551 76.293C225.273 76.5616 225.135 76.9603 225.135 77.489V79.361C225.135 79.8896 225.273 80.2926 225.551 80.57C225.828 80.8386 226.209 80.973 226.695 80.973Z" fill="white"/>
<path d="M216.117 82V72.51H217.781L220.615 80.518C220.589 80.2927 220.563 80.0153 220.537 79.686C220.52 79.348 220.503 79.0013 220.485 78.646C220.477 78.282 220.472 77.9397 220.472 77.619V72.51H221.694V82H220.017L217.209 73.992C217.227 74.2173 217.244 74.4947 217.261 74.824C217.279 75.1447 217.292 75.4827 217.3 75.838C217.318 76.1933 217.326 76.527 217.326 76.839V82H216.117Z" fill="white"/>
<circle cx="200" cy="78" r="5" fill="white"/>
<path fill-rule="evenodd" clip-rule="evenodd" d="M202.066 76.4367C202.132 76.5024 202.168 76.5915 202.168 76.6844C202.168 76.7772 202.132 76.8663 202.066 76.932L199.44 79.5578C199.405 79.5925 199.364 79.6201 199.319 79.6389C199.274 79.6576 199.225 79.6673 199.176 79.6673C199.127 79.6673 199.078 79.6576 199.033 79.6389C198.987 79.6201 198.946 79.5925 198.912 79.5578L197.607 78.2535C197.573 78.2211 197.547 78.1825 197.528 78.1397C197.51 78.097 197.5 78.051 197.5 78.0045C197.5 77.958 197.508 77.9119 197.526 77.8688C197.544 77.8258 197.57 77.7867 197.603 77.7538C197.636 77.7209 197.675 77.6949 197.718 77.6772C197.761 77.6596 197.807 77.6508 197.853 77.6512C197.9 77.6516 197.946 77.6612 197.989 77.6796C198.031 77.698 198.07 77.7246 198.102 77.7581L199.176 78.8315L201.57 76.4367C201.603 76.4041 201.641 76.3783 201.684 76.3607C201.726 76.3431 201.772 76.334 201.818 76.334C201.864 76.334 201.91 76.3431 201.952 76.3607C201.995 76.3783 202.033 76.4041 202.066 76.4367Z" fill="#151515" stroke="#151515" stroke-width="0.7"/>
</g>
<defs>
<clipPath id="clip0_43_2421">
<rect width="428" height="155" fill="white"/>
</clipPath>
</defs>
</svg>
