<svg width="428" height="155" viewBox="0 0 428 155" fill="none" xmlns="http://www.w3.org/2000/svg">
<path d="M0 0H428V155H0V0Z" fill="#151515"/>
<rect opacity="0.1" x="15" y="107" width="398" height="1" fill="white"/>
<path d="M216.572 58V48.51H219.12C219.735 48.51 220.268 48.6313 220.719 48.874C221.178 49.108 221.533 49.4417 221.785 49.875C222.036 50.2997 222.162 50.8023 222.162 51.383V55.114C222.162 55.6947 222.036 56.2017 221.785 56.635C221.533 57.0683 221.178 57.4063 220.719 57.649C220.268 57.883 219.735 58 219.12 58H216.572ZM217.859 56.856H219.12C219.666 56.856 220.095 56.7 220.407 56.388C220.719 56.076 220.875 55.6513 220.875 55.114V51.383C220.875 50.8457 220.719 50.4253 220.407 50.122C220.095 49.81 219.666 49.654 219.12 49.654H217.859V56.856ZM227.123 58.104C226.247 58.104 225.554 57.8613 225.043 57.376C224.531 56.882 224.276 56.2103 224.276 55.361V53.489C224.276 52.6397 224.531 51.9723 225.043 51.487C225.554 50.993 226.247 50.746 227.123 50.746C227.998 50.746 228.691 50.993 229.203 51.487C229.714 51.9723 229.97 52.6353 229.97 53.476V55.361C229.97 56.2103 229.714 56.882 229.203 57.376C228.691 57.8613 227.998 58.104 227.123 58.104ZM227.123 56.973C227.608 56.973 227.989 56.8387 228.267 56.57C228.544 56.2927 228.683 55.8897 228.683 55.361V53.489C228.683 52.9603 228.544 52.5617 228.267 52.293C227.989 52.0157 227.608 51.877 227.123 51.877C226.637 51.877 226.256 52.0157 225.979 52.293C225.701 52.5617 225.563 52.9603 225.563 53.489V55.361C225.563 55.8897 225.701 56.2927 225.979 56.57C226.256 56.8387 226.637 56.973 227.123 56.973ZM232.552 58L231.421 50.85H232.513L233.202 55.738C233.228 55.946 233.249 56.1757 233.267 56.427C233.293 56.6697 233.314 56.869 233.332 57.025H233.384C233.401 56.8603 233.423 56.6567 233.449 56.414C233.483 56.1713 233.518 55.946 233.553 55.738L234.307 50.85H235.529L236.283 55.738C236.317 55.9547 236.348 56.1843 236.374 56.427C236.408 56.661 236.434 56.8603 236.452 57.025H236.504C236.53 56.869 236.556 56.6697 236.582 56.427C236.608 56.1757 236.634 55.946 236.66 55.738L237.375 50.85H238.415L237.232 58H235.854L235.113 53.19C235.078 52.956 235.043 52.7133 235.009 52.462C234.974 52.202 234.948 51.994 234.931 51.838H234.879C234.861 51.994 234.835 52.202 234.801 52.462C234.775 52.7133 234.744 52.956 234.71 53.19L233.943 58H232.552ZM239.957 58V50.85H241.231V52.215H241.257C241.317 51.7383 241.512 51.37 241.842 51.11C242.171 50.85 242.609 50.72 243.155 50.72C243.865 50.72 244.433 50.9453 244.858 51.396C245.282 51.8467 245.494 52.4533 245.494 53.216V58H244.208V53.359C244.208 52.8737 244.078 52.501 243.818 52.241C243.558 51.9723 243.202 51.838 242.752 51.838C242.284 51.838 241.915 51.981 241.647 52.267C241.378 52.5443 241.244 52.943 241.244 53.463V58H239.957ZM251.573 58C250.923 58 250.403 57.8093 250.013 57.428C249.623 57.0467 249.428 56.5397 249.428 55.907V49.68H246.984V48.51H250.715V55.894C250.715 56.18 250.793 56.4097 250.949 56.583C251.114 56.7477 251.335 56.83 251.612 56.83H253.783V58H251.573ZM258.302 58.104C257.427 58.104 256.734 57.8613 256.222 57.376C255.711 56.882 255.455 56.2103 255.455 55.361V53.489C255.455 52.6397 255.711 51.9723 256.222 51.487C256.734 50.993 257.427 50.746 258.302 50.746C259.178 50.746 259.871 50.993 260.382 51.487C260.894 51.9723 261.149 52.6353 261.149 53.476V55.361C261.149 56.2103 260.894 56.882 260.382 57.376C259.871 57.8613 259.178 58.104 258.302 58.104ZM258.302 56.973C258.788 56.973 259.169 56.8387 259.446 56.57C259.724 56.2927 259.862 55.8897 259.862 55.361V53.489C259.862 52.9603 259.724 52.5617 259.446 52.293C259.169 52.0157 258.788 51.877 258.302 51.877C257.817 51.877 257.436 52.0157 257.158 52.293C256.881 52.5617 256.742 52.9603 256.742 53.489V55.361C256.742 55.8897 256.881 56.2927 257.158 56.57C257.436 56.8387 257.817 56.973 258.302 56.973ZM265.434 58.13C264.68 58.13 264.087 57.9393 263.653 57.558C263.229 57.168 263.016 56.6437 263.016 55.985C263.016 55.309 263.237 54.7803 263.679 54.399C264.13 54.009 264.741 53.814 265.512 53.814H267.592V53.138C267.592 52.722 267.462 52.4013 267.202 52.176C266.951 51.942 266.6 51.825 266.149 51.825C265.742 51.825 265.4 51.916 265.122 52.098C264.854 52.2713 264.689 52.501 264.628 52.787H263.367C263.402 52.371 263.545 52.0113 263.796 51.708C264.048 51.396 264.377 51.1533 264.784 50.98C265.192 50.8067 265.651 50.72 266.162 50.72C266.994 50.72 267.653 50.9367 268.138 51.37C268.632 51.7947 268.879 52.371 268.879 53.099V58H267.618V56.674H267.605C267.545 57.1247 267.319 57.48 266.929 57.74C266.539 58 266.041 58.13 265.434 58.13ZM265.785 57.129C266.305 57.129 266.734 56.999 267.072 56.739C267.419 56.4703 267.592 56.128 267.592 55.712V54.737H265.538C265.157 54.737 264.854 54.841 264.628 55.049C264.412 55.257 264.303 55.5387 264.303 55.894C264.303 56.284 264.433 56.5873 264.693 56.804C264.953 57.0207 265.317 57.129 265.785 57.129ZM273.424 58.13C272.705 58.13 272.129 57.8917 271.695 57.415C271.262 56.9297 271.045 56.2753 271.045 55.452V53.398C271.045 52.5747 271.262 51.9247 271.695 51.448C272.129 50.9627 272.705 50.72 273.424 50.72C273.944 50.72 274.373 50.8543 274.711 51.123C275.058 51.383 275.275 51.7383 275.361 52.189H275.387L275.361 50.564V48.51H276.648V58H275.374V56.648H275.361C275.275 57.116 275.058 57.48 274.711 57.74C274.373 58 273.944 58.13 273.424 58.13ZM273.866 57.012C274.326 57.012 274.69 56.869 274.958 56.583C275.227 56.297 275.361 55.894 275.361 55.374V53.476C275.361 52.956 275.227 52.553 274.958 52.267C274.69 51.981 274.326 51.838 273.866 51.838C273.39 51.838 273.013 51.981 272.735 52.267C272.467 52.5443 272.332 52.943 272.332 53.463V55.374C272.332 55.9027 272.467 56.31 272.735 56.596C273.013 56.8733 273.39 57.012 273.866 57.012ZM288.845 58V49.68H286.271V48.51H292.693V49.68H290.132V58H288.845ZM294.742 58V50.85H296.016V52.215H296.042C296.103 51.7383 296.298 51.37 296.627 51.11C296.965 50.85 297.407 50.72 297.953 50.72C298.69 50.72 299.279 50.9583 299.721 51.435C300.163 51.9117 300.384 52.553 300.384 53.359V53.879H299.084V53.463C299.084 52.9517 298.95 52.553 298.681 52.267C298.421 51.981 298.035 51.838 297.524 51.838C296.527 51.838 296.029 52.3883 296.029 53.489V58H294.742ZM304.409 58.13C303.655 58.13 303.061 57.9393 302.628 57.558C302.203 57.168 301.991 56.6437 301.991 55.985C301.991 55.309 302.212 54.7803 302.654 54.399C303.105 54.009 303.716 53.814 304.487 53.814H306.567V53.138C306.567 52.722 306.437 52.4013 306.177 52.176C305.926 51.942 305.575 51.825 305.124 51.825C304.717 51.825 304.374 51.916 304.097 52.098C303.828 52.2713 303.664 52.501 303.603 52.787H302.342C302.377 52.371 302.52 52.0113 302.771 51.708C303.022 51.396 303.352 51.1533 303.759 50.98C304.166 50.8067 304.626 50.72 305.137 50.72C305.969 50.72 306.628 50.9367 307.113 51.37C307.607 51.7947 307.854 52.371 307.854 53.099V58H306.593V56.674H306.58C306.519 57.1247 306.294 57.48 305.904 57.74C305.514 58 305.016 58.13 304.409 58.13ZM304.76 57.129C305.28 57.129 305.709 56.999 306.047 56.739C306.394 56.4703 306.567 56.128 306.567 55.712V54.737H304.513C304.132 54.737 303.828 54.841 303.603 55.049C303.386 55.257 303.278 55.5387 303.278 55.894C303.278 56.284 303.408 56.5873 303.668 56.804C303.928 57.0207 304.292 57.129 304.76 57.129ZM310.111 58V50.85H311.385V52.215H311.411C311.471 51.7383 311.666 51.37 311.996 51.11C312.325 50.85 312.763 50.72 313.309 50.72C314.019 50.72 314.587 50.9453 315.012 51.396C315.436 51.8467 315.649 52.4533 315.649 53.216V58H314.362V53.359C314.362 52.8737 314.232 52.501 313.972 52.241C313.712 51.9723 313.356 51.838 312.906 51.838C312.438 51.838 312.069 51.981 311.801 52.267C311.532 52.5443 311.398 52.943 311.398 53.463V58H310.111ZM320.428 58.104C319.674 58.104 319.054 57.9307 318.569 57.584C318.092 57.2373 317.854 56.765 317.854 56.167H319.167C319.167 56.4357 319.284 56.6437 319.518 56.791C319.76 56.9297 320.072 56.999 320.454 56.999H321C321.45 56.999 321.784 56.9123 322.001 56.739C322.217 56.557 322.326 56.3187 322.326 56.024C322.326 55.7293 322.222 55.4997 322.014 55.335C321.806 55.1703 321.511 55.0533 321.13 54.984L320.155 54.841C318.733 54.6157 318.023 53.9267 318.023 52.774C318.023 52.1153 318.239 51.6127 318.673 51.266C319.106 50.9193 319.726 50.746 320.532 50.746H321.026C321.771 50.746 322.369 50.915 322.82 51.253C323.27 51.5823 323.496 52.02 323.496 52.566H322.183C322.183 52.3493 322.074 52.176 321.858 52.046C321.65 51.916 321.364 51.851 321 51.851H320.506C320.107 51.851 319.804 51.9333 319.596 52.098C319.388 52.254 319.284 52.4793 319.284 52.774C319.284 53.2767 319.639 53.5843 320.35 53.697L321.325 53.853C322.105 53.9743 322.677 54.204 323.041 54.542C323.405 54.8713 323.587 55.348 323.587 55.972C323.587 56.6393 323.366 57.1637 322.924 57.545C322.49 57.9177 321.84 58.104 320.974 58.104H320.428ZM328.509 58.13C327.633 58.13 326.931 57.8873 326.403 57.402C325.874 56.908 325.61 56.232 325.61 55.374V53.463C325.61 52.6137 325.874 51.9463 326.403 51.461C326.931 50.967 327.633 50.72 328.509 50.72C329.349 50.72 330.025 50.9453 330.537 51.396C331.048 51.838 331.317 52.4447 331.343 53.216H330.069C330.043 52.7827 329.891 52.449 329.614 52.215C329.336 51.9723 328.968 51.851 328.509 51.851C328.015 51.851 327.62 51.994 327.326 52.28C327.04 52.5573 326.897 52.9517 326.897 53.463V55.374C326.897 55.894 327.04 56.2927 327.326 56.57C327.62 56.8473 328.015 56.986 328.509 56.986C328.968 56.986 329.336 56.869 329.614 56.635C329.891 56.401 330.043 56.0673 330.069 55.634H331.343C331.317 56.4053 331.048 57.0163 330.537 57.467C330.025 57.909 329.349 58.13 328.509 58.13ZM333.717 58V50.85H334.991V52.215H335.017C335.077 51.7383 335.272 51.37 335.602 51.11C335.94 50.85 336.382 50.72 336.928 50.72C337.664 50.72 338.254 50.9583 338.696 51.435C339.138 51.9117 339.359 52.553 339.359 53.359V53.879H338.059V53.463C338.059 52.9517 337.924 52.553 337.656 52.267C337.396 51.981 337.01 51.838 336.499 51.838C335.502 51.838 335.004 52.3883 335.004 53.489V58H333.717ZM341.225 58V56.83H343.734V52.02H341.485V50.85H345.021V56.83H347.374V58H341.225ZM344.254 49.589C343.96 49.589 343.726 49.5153 343.552 49.368C343.379 49.212 343.292 49.004 343.292 48.744C343.292 48.4753 343.379 48.263 343.552 48.107C343.726 47.951 343.96 47.873 344.254 47.873C344.549 47.873 344.783 47.951 344.956 48.107C345.13 48.263 345.216 48.4753 345.216 48.744C345.216 49.004 345.13 49.212 344.956 49.368C344.783 49.5153 344.549 49.589 344.254 49.589ZM349.098 60.34V50.85H350.372V52.189H350.385C350.472 51.7297 350.684 51.37 351.022 51.11C351.369 50.85 351.807 50.72 352.335 50.72C353.046 50.72 353.618 50.9627 354.051 51.448C354.485 51.9247 354.701 52.5747 354.701 53.398V55.439C354.701 56.271 354.485 56.9297 354.051 57.415C353.627 57.8917 353.055 58.13 352.335 58.13C351.815 58.13 351.382 58 351.035 57.74C350.689 57.4713 350.472 57.1073 350.385 56.648H350.359L350.385 58.273V60.34H349.098ZM351.893 57.012C352.37 57.012 352.743 56.8733 353.011 56.596C353.28 56.31 353.414 55.9027 353.414 55.374V53.463C353.414 52.943 353.28 52.5443 353.011 52.267C352.743 51.981 352.37 51.838 351.893 51.838C351.425 51.838 351.057 51.981 350.788 52.267C350.52 52.553 350.385 52.956 350.385 53.476V55.374C350.385 55.894 350.52 56.297 350.788 56.583C351.057 56.869 351.425 57.012 351.893 57.012ZM360.416 58C359.801 58 359.311 57.8223 358.947 57.467C358.592 57.1117 358.414 56.6393 358.414 56.05V52.02H356.412V50.85H358.414V48.835H359.701V50.85H362.522V52.02H359.701V56.037C359.701 56.271 359.766 56.4617 359.896 56.609C360.035 56.7563 360.217 56.83 360.442 56.83H362.392V58H360.416Z" fill="white"/>
<circle cx="200.428" cy="54" r="5" fill="white"/>
<path fill-rule="evenodd" clip-rule="evenodd" d="M202.494 52.4367C202.559 52.5024 202.596 52.5915 202.596 52.6844C202.596 52.7772 202.559 52.8663 202.494 52.932L199.868 55.5578C199.833 55.5925 199.792 55.6201 199.747 55.6389C199.701 55.6576 199.653 55.6673 199.604 55.6673C199.554 55.6673 199.506 55.6576 199.461 55.6389C199.415 55.6201 199.374 55.5925 199.339 55.5578L198.035 54.2535C198.001 54.2211 197.975 54.1825 197.956 54.1397C197.938 54.097 197.928 54.051 197.928 54.0045C197.927 53.958 197.936 53.9119 197.954 53.8688C197.971 53.8258 197.997 53.7867 198.03 53.7538C198.063 53.7209 198.102 53.6949 198.145 53.6772C198.188 53.6596 198.235 53.6508 198.281 53.6512C198.328 53.6516 198.374 53.6612 198.416 53.6796C198.459 53.698 198.498 53.7246 198.53 53.7581L199.603 54.8315L201.998 52.4367C202.031 52.4041 202.069 52.3783 202.112 52.3607C202.154 52.3431 202.2 52.334 202.246 52.334C202.292 52.334 202.337 52.3431 202.38 52.3607C202.422 52.3783 202.461 52.4041 202.494 52.4367Z" fill="#151515" stroke="#151515" stroke-width="0.7"/>
<path d="M219.38 34.13C218.504 34.13 217.807 33.8873 217.287 33.402C216.775 32.908 216.52 32.232 216.52 31.374V27.123C216.52 26.2737 216.775 25.6063 217.287 25.121C217.807 24.627 218.504 24.38 219.38 24.38C220.246 24.38 220.935 24.627 221.447 25.121C221.967 25.615 222.227 26.2823 222.227 27.123H220.94C220.94 26.6117 220.801 26.2173 220.524 25.94C220.246 25.6627 219.865 25.524 219.38 25.524C218.886 25.524 218.5 25.6627 218.223 25.94C217.945 26.2173 217.807 26.6117 217.807 27.123V31.374C217.807 31.894 217.945 32.2927 218.223 32.57C218.5 32.8473 218.886 32.986 219.38 32.986C219.865 32.986 220.246 32.8473 220.524 32.57C220.801 32.2927 220.94 31.894 220.94 31.374H222.227C222.227 32.2233 221.967 32.895 221.447 33.389C220.935 33.883 220.246 34.13 219.38 34.13ZM224.367 34V24.51H225.654V26.85L225.641 28.215H225.667C225.727 27.7383 225.922 27.37 226.252 27.11C226.581 26.85 227.019 26.72 227.565 26.72C228.275 26.72 228.843 26.9453 229.268 27.396C229.692 27.8467 229.905 28.4533 229.905 29.216V34H228.618V29.359C228.618 28.8737 228.488 28.4967 228.228 28.228C227.968 27.9507 227.612 27.812 227.162 27.812C226.694 27.812 226.325 27.9593 226.057 28.254C225.788 28.54 225.654 28.943 225.654 29.463V34H224.367ZM234.255 34.13C233.501 34.13 232.907 33.9393 232.474 33.558C232.049 33.168 231.837 32.6437 231.837 31.985C231.837 31.309 232.058 30.7803 232.5 30.399C232.95 30.009 233.561 29.814 234.333 29.814H236.413V29.138C236.413 28.722 236.283 28.4013 236.023 28.176C235.771 27.942 235.42 27.825 234.97 27.825C234.562 27.825 234.22 27.916 233.943 28.098C233.674 28.2713 233.509 28.501 233.449 28.787H232.188C232.222 28.371 232.365 28.0113 232.617 27.708C232.868 27.396 233.197 27.1533 233.605 26.98C234.012 26.8067 234.471 26.72 234.983 26.72C235.815 26.72 236.473 26.9367 236.959 27.37C237.453 27.7947 237.7 28.371 237.7 29.099V34H236.439V32.674H236.426C236.365 33.1247 236.14 33.48 235.75 33.74C235.36 34 234.861 34.13 234.255 34.13ZM234.606 33.129C235.126 33.129 235.555 32.999 235.893 32.739C236.239 32.4703 236.413 32.128 236.413 31.712V30.737H234.359C233.977 30.737 233.674 30.841 233.449 31.049C233.232 31.257 233.124 31.5387 233.124 31.894C233.124 32.284 233.254 32.5873 233.514 32.804C233.774 33.0207 234.138 33.129 234.606 33.129ZM243.493 34C242.877 34 242.388 33.8223 242.024 33.467C241.668 33.1117 241.491 32.6393 241.491 32.05V28.02H239.489V26.85H241.491V24.835H242.778V26.85H245.599V28.02H242.778V32.037C242.778 32.271 242.843 32.4617 242.973 32.609C243.111 32.7563 243.293 32.83 243.519 32.83H245.469V34H243.493ZM250.559 34.13C249.684 34.13 248.986 33.8873 248.466 33.402C247.955 32.908 247.699 32.232 247.699 31.374V27.123C247.699 26.2737 247.955 25.6063 248.466 25.121C248.986 24.627 249.684 24.38 250.559 24.38C251.426 24.38 252.115 24.627 252.626 25.121C253.146 25.615 253.406 26.2823 253.406 27.123H252.119C252.119 26.6117 251.981 26.2173 251.703 25.94C251.426 25.6627 251.045 25.524 250.559 25.524C250.065 25.524 249.68 25.6627 249.402 25.94C249.125 26.2173 248.986 26.6117 248.986 27.123V31.374C248.986 31.894 249.125 32.2927 249.402 32.57C249.68 32.8473 250.065 32.986 250.559 32.986C251.045 32.986 251.426 32.8473 251.703 32.57C251.981 32.2927 252.119 31.894 252.119 31.374V30.269H250.273V29.112H253.406V31.374C253.406 32.2233 253.146 32.895 252.626 33.389C252.115 33.883 251.426 34.13 250.559 34.13ZM255.546 34V24.51H258.627C259.234 24.51 259.758 24.627 260.2 24.861C260.642 25.095 260.985 25.4243 261.227 25.849C261.47 26.265 261.591 26.7633 261.591 27.344C261.591 27.916 261.47 28.4143 261.227 28.839C260.985 29.255 260.638 29.58 260.187 29.814C259.745 30.048 259.225 30.165 258.627 30.165H256.833V34H255.546ZM256.833 29.021H258.627C259.13 29.021 259.529 28.8693 259.823 28.566C260.118 28.254 260.265 27.8467 260.265 27.344C260.265 26.8327 260.118 26.4253 259.823 26.122C259.529 25.81 259.13 25.654 258.627 25.654H256.833V29.021ZM265.46 34V25.68H262.886V24.51H269.308V25.68H266.747V34H265.46ZM279.1 34V32.83H281.037V25.68H279.1V24.51H284.274V25.68H282.337V32.83H284.274V34H279.1ZM286.726 34V26.85H288V28.215H288.026C288.087 27.7383 288.282 27.37 288.611 27.11C288.94 26.85 289.378 26.72 289.924 26.72C290.635 26.72 291.202 26.9453 291.627 27.396C292.052 27.8467 292.264 28.4533 292.264 29.216V34H290.977V29.359C290.977 28.8737 290.847 28.501 290.587 28.241C290.327 27.9723 289.972 27.838 289.521 27.838C289.053 27.838 288.685 27.981 288.416 28.267C288.147 28.5443 288.013 28.943 288.013 29.463V34H286.726ZM298.057 34C297.442 34 296.952 33.8223 296.588 33.467C296.233 33.1117 296.055 32.6393 296.055 32.05V28.02H294.053V26.85H296.055V24.835H297.342V26.85H300.163V28.02H297.342V32.037C297.342 32.271 297.407 32.4617 297.537 32.609C297.676 32.7563 297.858 32.83 298.083 32.83H300.033V34H298.057ZM305.072 34.13C304.5 34.13 303.997 34.0173 303.564 33.792C303.139 33.558 302.81 33.2373 302.576 32.83C302.342 32.414 302.225 31.9287 302.225 31.374V29.463C302.225 28.917 302.342 28.4403 302.576 28.033C302.81 27.617 303.139 27.2963 303.564 27.071C303.997 26.837 304.5 26.72 305.072 26.72C305.644 26.72 306.142 26.837 306.567 27.071C307 27.2963 307.334 27.617 307.568 28.033C307.802 28.4403 307.919 28.917 307.919 29.463V30.737H303.486V31.374C303.486 31.9287 303.62 32.349 303.889 32.635C304.166 32.921 304.561 33.064 305.072 33.064C305.505 33.064 305.852 32.9903 306.112 32.843C306.372 32.687 306.537 32.4573 306.606 32.154H307.88C307.793 32.7607 307.49 33.2417 306.97 33.597C306.459 33.9523 305.826 34.13 305.072 34.13ZM303.486 29.463V29.814H306.671V29.463C306.671 28.917 306.532 28.501 306.255 28.215C305.986 27.9203 305.592 27.773 305.072 27.773C304.552 27.773 304.158 27.9203 303.889 28.215C303.62 28.501 303.486 28.917 303.486 29.463ZM311.034 36.34V35.196H313.27C313.98 35.196 314.336 34.858 314.336 34.182V33.363L314.362 32.063H314.336C314.284 32.5223 314.089 32.8863 313.751 33.155C313.413 33.4237 312.975 33.558 312.438 33.558C311.701 33.558 311.12 33.3153 310.696 32.83C310.271 32.3447 310.059 31.6903 310.059 30.867V29.398C310.059 28.5747 310.271 27.9247 310.696 27.448C311.12 26.9627 311.701 26.72 312.438 26.72C312.975 26.72 313.413 26.8543 313.751 27.123C314.089 27.383 314.284 27.747 314.336 28.215H314.349L314.336 26.85H315.61V34.195C315.61 34.8623 315.402 35.3867 314.986 35.768C314.57 36.1493 313.998 36.34 313.27 36.34H311.034ZM312.841 32.44C313.3 32.44 313.664 32.297 313.933 32.011C314.201 31.725 314.336 31.322 314.336 30.802V29.463C314.336 28.9517 314.201 28.553 313.933 28.267C313.664 27.981 313.3 27.838 312.841 27.838C312.364 27.838 311.996 27.981 311.736 28.267C311.476 28.5443 311.346 28.943 311.346 29.463V30.802C311.346 31.3307 311.476 31.738 311.736 32.024C311.996 32.3013 312.364 32.44 312.841 32.44ZM318.127 34V26.85H319.401V28.215H319.427C319.487 27.7383 319.682 27.37 320.012 27.11C320.35 26.85 320.792 26.72 321.338 26.72C322.074 26.72 322.664 26.9583 323.106 27.435C323.548 27.9117 323.769 28.553 323.769 29.359V29.879H322.469V29.463C322.469 28.9517 322.334 28.553 322.066 28.267C321.806 27.981 321.42 27.838 320.909 27.838C319.912 27.838 319.414 28.3883 319.414 29.489V34H318.127ZM327.794 34.13C327.04 34.13 326.446 33.9393 326.013 33.558C325.588 33.168 325.376 32.6437 325.376 31.985C325.376 31.309 325.597 30.7803 326.039 30.399C326.489 30.009 327.1 29.814 327.872 29.814H329.952V29.138C329.952 28.722 329.822 28.4013 329.562 28.176C329.31 27.942 328.959 27.825 328.509 27.825C328.101 27.825 327.759 27.916 327.482 28.098C327.213 28.2713 327.048 28.501 326.988 28.787H325.727C325.761 28.371 325.904 28.0113 326.156 27.708C326.407 27.396 326.736 27.1533 327.144 26.98C327.551 26.8067 328.01 26.72 328.522 26.72C329.354 26.72 330.012 26.9367 330.498 27.37C330.992 27.7947 331.239 28.371 331.239 29.099V34H329.978V32.674H329.965C329.904 33.1247 329.679 33.48 329.289 33.74C328.899 34 328.4 34.13 327.794 34.13ZM328.145 33.129C328.665 33.129 329.094 32.999 329.432 32.739C329.778 32.4703 329.952 32.128 329.952 31.712V30.737H327.898C327.516 30.737 327.213 30.841 326.988 31.049C326.771 31.257 326.663 31.5387 326.663 31.894C326.663 32.284 326.793 32.5873 327.053 32.804C327.313 33.0207 327.677 33.129 328.145 33.129ZM337.032 34C336.416 34 335.927 33.8223 335.563 33.467C335.207 33.1117 335.03 32.6393 335.03 32.05V28.02H333.028V26.85H335.03V24.835H336.317V26.85H339.138V28.02H336.317V32.037C336.317 32.271 336.382 32.4617 336.512 32.609C336.65 32.7563 336.832 32.83 337.058 32.83H339.008V34H337.032ZM341.225 34V32.83H343.734V28.02H341.485V26.85H345.021V32.83H347.374V34H341.225ZM344.254 25.589C343.96 25.589 343.726 25.5153 343.552 25.368C343.379 25.212 343.292 25.004 343.292 24.744C343.292 24.4753 343.379 24.263 343.552 24.107C343.726 23.951 343.96 23.873 344.254 23.873C344.549 23.873 344.783 23.951 344.956 24.107C345.13 24.263 345.216 24.4753 345.216 24.744C345.216 25.004 345.13 25.212 344.956 25.368C344.783 25.5153 344.549 25.589 344.254 25.589ZM351.841 34.104C350.966 34.104 350.273 33.8613 349.761 33.376C349.25 32.882 348.994 32.2103 348.994 31.361V29.489C348.994 28.6397 349.25 27.9723 349.761 27.487C350.273 26.993 350.966 26.746 351.841 26.746C352.717 26.746 353.41 26.993 353.921 27.487C354.433 27.9723 354.688 28.6353 354.688 29.476V31.361C354.688 32.2103 354.433 32.882 353.921 33.376C353.41 33.8613 352.717 34.104 351.841 34.104ZM351.841 32.973C352.327 32.973 352.708 32.8387 352.985 32.57C353.263 32.2927 353.401 31.8897 353.401 31.361V29.489C353.401 28.9603 353.263 28.5617 352.985 28.293C352.708 28.0157 352.327 27.877 351.841 27.877C351.356 27.877 350.975 28.0157 350.697 28.293C350.42 28.5617 350.281 28.9603 350.281 29.489V31.361C350.281 31.8897 350.42 32.2927 350.697 32.57C350.975 32.8387 351.356 32.973 351.841 32.973ZM356.88 34V26.85H358.154V28.215H358.18C358.241 27.7383 358.436 27.37 358.765 27.11C359.095 26.85 359.532 26.72 360.078 26.72C360.789 26.72 361.357 26.9453 361.781 27.396C362.206 27.8467 362.418 28.4533 362.418 29.216V34H361.131V29.359C361.131 28.8737 361.001 28.501 360.741 28.241C360.481 27.9723 360.126 27.838 359.675 27.838C359.207 27.838 358.839 27.981 358.57 28.267C358.302 28.5443 358.167 28.943 358.167 29.463V34H356.88Z" fill="white"/>
<circle cx="200.428" cy="30" r="5" fill="white"/>
<path fill-rule="evenodd" clip-rule="evenodd" d="M202.494 28.4367C202.559 28.5024 202.596 28.5915 202.596 28.6844C202.596 28.7772 202.559 28.8663 202.494 28.932L199.868 31.5578C199.833 31.5925 199.792 31.6201 199.747 31.6389C199.701 31.6576 199.653 31.6673 199.604 31.6673C199.554 31.6673 199.506 31.6576 199.461 31.6389C199.415 31.6201 199.374 31.5925 199.339 31.5578L198.035 30.2535C198.001 30.2211 197.975 30.1825 197.956 30.1397C197.938 30.097 197.928 30.051 197.928 30.0045C197.927 29.958 197.936 29.9119 197.954 29.8688C197.971 29.8258 197.997 29.7867 198.03 29.7538C198.063 29.7209 198.102 29.6949 198.145 29.6772C198.188 29.6596 198.235 29.6508 198.281 29.6512C198.328 29.6516 198.374 29.6612 198.416 29.6796C198.459 29.698 198.498 29.7246 198.53 29.7581L199.603 30.8315L201.998 28.4367C202.031 28.4041 202.069 28.3783 202.112 28.3607C202.154 28.3431 202.2 28.334 202.246 28.334C202.292 28.334 202.337 28.3431 202.38 28.3607C202.422 28.3783 202.461 28.4041 202.494 28.4367Z" fill="#151515" stroke="#151515" stroke-width="0.7"/>
<path d="M216.546 82V72.51H218.21L221.044 80.518C221.018 80.2927 220.992 80.0153 220.966 79.686C220.948 79.348 220.931 79.0013 220.914 78.646C220.905 78.282 220.901 77.9397 220.901 77.619V72.51H222.123V82H220.446L217.638 73.992C217.655 74.2173 217.672 74.4947 217.69 74.824C217.707 75.1447 217.72 75.4827 217.729 75.838C217.746 76.1933 217.755 76.527 217.755 76.839V82H216.546ZM227.123 82.104C226.247 82.104 225.554 81.8613 225.043 81.376C224.531 80.882 224.276 80.2103 224.276 79.361V77.489C224.276 76.6397 224.531 75.9723 225.043 75.487C225.554 74.993 226.247 74.746 227.123 74.746C227.998 74.746 228.691 74.993 229.203 75.487C229.714 75.9723 229.97 76.6353 229.97 77.476V79.361C229.97 80.2103 229.714 80.882 229.203 81.376C228.691 81.8613 227.998 82.104 227.123 82.104ZM227.123 80.973C227.608 80.973 227.989 80.8387 228.267 80.57C228.544 80.2927 228.683 79.8897 228.683 79.361V77.489C228.683 76.9603 228.544 76.5617 228.267 76.293C227.989 76.0157 227.608 75.877 227.123 75.877C226.637 75.877 226.256 76.0157 225.979 76.293C225.701 76.5617 225.563 76.9603 225.563 77.489V79.361C225.563 79.8897 225.701 80.2927 225.979 80.57C226.256 80.8387 226.637 80.973 227.123 80.973ZM239.736 82V72.51H241.374L242.362 75.565C242.448 75.851 242.522 76.1283 242.583 76.397C242.652 76.657 242.704 76.8563 242.739 76.995C242.765 76.8563 242.808 76.657 242.869 76.397C242.938 76.1283 243.016 75.8467 243.103 75.552L244.052 72.51H245.69V82H244.455V77.645C244.455 76.8477 244.485 76.0763 244.546 75.331C244.615 74.577 244.697 73.862 244.793 73.186L243.311 77.853H242.115L240.62 73.212C240.706 73.8533 240.784 74.5337 240.854 75.253C240.932 75.9723 240.971 76.7697 240.971 77.645V82H239.736ZM250.507 82.13C249.935 82.13 249.433 82.0173 248.999 81.792C248.575 81.558 248.245 81.2373 248.011 80.83C247.777 80.414 247.66 79.9287 247.66 79.374V77.463C247.66 76.917 247.777 76.4403 248.011 76.033C248.245 75.617 248.575 75.2963 248.999 75.071C249.433 74.837 249.935 74.72 250.507 74.72C251.079 74.72 251.578 74.837 252.002 75.071C252.436 75.2963 252.769 75.617 253.003 76.033C253.237 76.4403 253.354 76.917 253.354 77.463V78.737H248.921V79.374C248.921 79.9287 249.056 80.349 249.324 80.635C249.602 80.921 249.996 81.064 250.507 81.064C250.941 81.064 251.287 80.9903 251.547 80.843C251.807 80.687 251.972 80.4573 252.041 80.154H253.315C253.229 80.7607 252.925 81.2417 252.405 81.597C251.894 81.9523 251.261 82.13 250.507 82.13ZM248.921 77.463V77.814H252.106V77.463C252.106 76.917 251.968 76.501 251.69 76.215C251.422 75.9203 251.027 75.773 250.507 75.773C249.987 75.773 249.593 75.9203 249.324 76.215C249.056 76.501 248.921 76.917 248.921 77.463ZM258.068 82.104C257.314 82.104 256.695 81.9307 256.209 81.584C255.733 81.2373 255.494 80.765 255.494 80.167H256.807C256.807 80.4357 256.924 80.6437 257.158 80.791C257.401 80.9297 257.713 80.999 258.094 80.999H258.64C259.091 80.999 259.425 80.9123 259.641 80.739C259.858 80.557 259.966 80.3187 259.966 80.024C259.966 79.7293 259.862 79.4997 259.654 79.335C259.446 79.1703 259.152 79.0533 258.77 78.984L257.795 78.841C256.374 78.6157 255.663 77.9267 255.663 76.774C255.663 76.1153 255.88 75.6127 256.313 75.266C256.747 74.9193 257.366 74.746 258.172 74.746H258.666C259.412 74.746 260.01 74.915 260.46 75.253C260.911 75.5823 261.136 76.02 261.136 76.566H259.823C259.823 76.3493 259.715 76.176 259.498 76.046C259.29 75.916 259.004 75.851 258.64 75.851H258.146C257.748 75.851 257.444 75.9333 257.236 76.098C257.028 76.254 256.924 76.4793 256.924 76.774C256.924 77.2767 257.28 77.5843 257.99 77.697L258.965 77.853C259.745 77.9743 260.317 78.204 260.681 78.542C261.045 78.8713 261.227 79.348 261.227 79.972C261.227 80.6393 261.006 81.1637 260.564 81.545C260.131 81.9177 259.481 82.104 258.614 82.104H258.068ZM265.863 82.104C265.109 82.104 264.49 81.9307 264.004 81.584C263.528 81.2373 263.289 80.765 263.289 80.167H264.602C264.602 80.4357 264.719 80.6437 264.953 80.791C265.196 80.9297 265.508 80.999 265.889 80.999H266.435C266.886 80.999 267.22 80.9123 267.436 80.739C267.653 80.557 267.761 80.3187 267.761 80.024C267.761 79.7293 267.657 79.4997 267.449 79.335C267.241 79.1703 266.947 79.0533 266.565 78.984L265.59 78.841C264.169 78.6157 263.458 77.9267 263.458 76.774C263.458 76.1153 263.675 75.6127 264.108 75.266C264.542 74.9193 265.161 74.746 265.967 74.746H266.461C267.207 74.746 267.805 74.915 268.255 75.253C268.706 75.5823 268.931 76.02 268.931 76.566H267.618C267.618 76.3493 267.51 76.176 267.293 76.046C267.085 75.916 266.799 75.851 266.435 75.851H265.941C265.543 75.851 265.239 75.9333 265.031 76.098C264.823 76.254 264.719 76.4793 264.719 76.774C264.719 77.2767 265.075 77.5843 265.785 77.697L266.76 77.853C267.54 77.9743 268.112 78.204 268.476 78.542C268.84 78.8713 269.022 79.348 269.022 79.972C269.022 80.6393 268.801 81.1637 268.359 81.545C267.926 81.9177 267.276 82.104 266.409 82.104H265.863ZM273.229 82.13C272.475 82.13 271.882 81.9393 271.448 81.558C271.024 81.168 270.811 80.6437 270.811 79.985C270.811 79.309 271.032 78.7803 271.474 78.399C271.925 78.009 272.536 77.814 273.307 77.814H275.387V77.138C275.387 76.722 275.257 76.4013 274.997 76.176C274.746 75.942 274.395 75.825 273.944 75.825C273.537 75.825 273.195 75.916 272.917 76.098C272.649 76.2713 272.484 76.501 272.423 76.787H271.162C271.197 76.371 271.34 76.0113 271.591 75.708C271.843 75.396 272.172 75.1533 272.579 74.98C272.987 74.8067 273.446 74.72 273.957 74.72C274.789 74.72 275.448 74.9367 275.933 75.37C276.427 75.7947 276.674 76.371 276.674 77.099V82H275.413V80.674H275.4C275.34 81.1247 275.114 81.48 274.724 81.74C274.334 82 273.836 82.13 273.229 82.13ZM273.58 81.129C274.1 81.129 274.529 80.999 274.867 80.739C275.214 80.4703 275.387 80.128 275.387 79.712V78.737H273.333C272.952 78.737 272.649 78.841 272.423 79.049C272.207 79.257 272.098 79.5387 272.098 79.894C272.098 80.284 272.228 80.5873 272.488 80.804C272.748 81.0207 273.112 81.129 273.58 81.129ZM279.854 84.34V83.196H282.09C282.801 83.196 283.156 82.858 283.156 82.182V81.363L283.182 80.063H283.156C283.104 80.5223 282.909 80.8863 282.571 81.155C282.233 81.4237 281.795 81.558 281.258 81.558C280.521 81.558 279.941 81.3153 279.516 80.83C279.091 80.3447 278.879 79.6903 278.879 78.867V77.398C278.879 76.5747 279.091 75.9247 279.516 75.448C279.941 74.9627 280.521 74.72 281.258 74.72C281.795 74.72 282.233 74.8543 282.571 75.123C282.909 75.383 283.104 75.747 283.156 76.215H283.169L283.156 74.85H284.43V82.195C284.43 82.8623 284.222 83.3867 283.806 83.768C283.39 84.1493 282.818 84.34 282.09 84.34H279.854ZM281.661 80.44C282.12 80.44 282.484 80.297 282.753 80.011C283.022 79.725 283.156 79.322 283.156 78.802V77.463C283.156 76.9517 283.022 76.553 282.753 76.267C282.484 75.981 282.12 75.838 281.661 75.838C281.184 75.838 280.816 75.981 280.556 76.267C280.296 76.5443 280.166 76.943 280.166 77.463V78.802C280.166 79.3307 280.296 79.738 280.556 80.024C280.816 80.3013 281.184 80.44 281.661 80.44ZM289.482 82.13C288.91 82.13 288.407 82.0173 287.974 81.792C287.549 81.558 287.22 81.2373 286.986 80.83C286.752 80.414 286.635 79.9287 286.635 79.374V77.463C286.635 76.917 286.752 76.4403 286.986 76.033C287.22 75.617 287.549 75.2963 287.974 75.071C288.407 74.837 288.91 74.72 289.482 74.72C290.054 74.72 290.552 74.837 290.977 75.071C291.41 75.2963 291.744 75.617 291.978 76.033C292.212 76.4403 292.329 76.917 292.329 77.463V78.737H287.896V79.374C287.896 79.9287 288.03 80.349 288.299 80.635C288.576 80.921 288.971 81.064 289.482 81.064C289.915 81.064 290.262 80.9903 290.522 80.843C290.782 80.687 290.947 80.4573 291.016 80.154H292.29C292.203 80.7607 291.9 81.2417 291.38 81.597C290.869 81.9523 290.236 82.13 289.482 82.13ZM287.896 77.463V77.814H291.081V77.463C291.081 76.917 290.942 76.501 290.665 76.215C290.396 75.9203 290.002 75.773 289.482 75.773C288.962 75.773 288.568 75.9203 288.299 76.215C288.03 76.501 287.896 76.917 287.896 77.463ZM302.433 82V72.51H307.958V73.667H303.707V76.488H307.503V77.606H303.707V80.843H307.958V82H302.433ZM309.565 82L312.1 78.321L309.734 74.85H311.229L312.568 76.943C312.628 77.047 312.685 77.1553 312.737 77.268C312.797 77.3807 312.845 77.4717 312.88 77.541C312.906 77.4717 312.945 77.3807 312.997 77.268C313.057 77.1553 313.118 77.047 313.179 76.943L314.531 74.85H316.013L313.647 78.334L316.169 82H314.661L313.205 79.751C313.144 79.6557 313.083 79.5473 313.023 79.426C312.962 79.296 312.914 79.192 312.88 79.114C312.836 79.192 312.784 79.296 312.724 79.426C312.663 79.5473 312.598 79.6557 312.529 79.751L311.06 82H309.565ZM317.919 84.34V74.85H319.193V76.189H319.206C319.292 75.7297 319.505 75.37 319.843 75.11C320.189 74.85 320.627 74.72 321.156 74.72C321.866 74.72 322.438 74.9627 322.872 75.448C323.305 75.9247 323.522 76.5747 323.522 77.398V79.439C323.522 80.271 323.305 80.9297 322.872 81.415C322.447 81.8917 321.875 82.13 321.156 82.13C320.636 82.13 320.202 82 319.856 81.74C319.509 81.4713 319.292 81.1073 319.206 80.648H319.18L319.206 82.273V84.34H317.919ZM320.714 81.012C321.19 81.012 321.563 80.8733 321.832 80.596C322.1 80.31 322.235 79.9027 322.235 79.374V77.463C322.235 76.943 322.1 76.5443 321.832 76.267C321.563 75.981 321.19 75.838 320.714 75.838C320.246 75.838 319.877 75.981 319.609 76.267C319.34 76.553 319.206 76.956 319.206 77.476V79.374C319.206 79.894 319.34 80.297 319.609 80.583C319.877 80.869 320.246 81.012 320.714 81.012ZM325.636 82V80.83H328.145V76.02H325.896V74.85H329.432V80.83H331.785V82H325.636ZM328.665 73.589C328.37 73.589 328.136 73.5153 327.963 73.368C327.789 73.212 327.703 73.004 327.703 72.744C327.703 72.4753 327.789 72.263 327.963 72.107C328.136 71.951 328.37 71.873 328.665 71.873C328.959 71.873 329.193 71.951 329.367 72.107C329.54 72.263 329.627 72.4753 329.627 72.744C329.627 73.004 329.54 73.212 329.367 73.368C329.193 73.5153 328.959 73.589 328.665 73.589ZM333.717 82V74.85H334.991V76.215H335.017C335.077 75.7383 335.272 75.37 335.602 75.11C335.94 74.85 336.382 74.72 336.928 74.72C337.664 74.72 338.254 74.9583 338.696 75.435C339.138 75.9117 339.359 76.553 339.359 77.359V77.879H338.059V77.463C338.059 76.9517 337.924 76.553 337.656 76.267C337.396 75.981 337.01 75.838 336.499 75.838C335.502 75.838 335.004 76.3883 335.004 77.489V82H333.717ZM342.434 84.34L343.474 81.571L340.731 74.85H342.135L343.799 79.075C343.86 79.2397 343.921 79.4347 343.981 79.66C344.042 79.8767 344.09 80.0587 344.124 80.206C344.159 80.0587 344.207 79.8767 344.267 79.66C344.337 79.4347 344.402 79.2397 344.462 79.075L346.009 74.85H347.361L343.773 84.34H342.434ZM358.999 82V73.68H356.425V72.51H362.847V73.68H360.286V82H358.999ZM364.61 82V80.83H367.119V76.02H364.87V74.85H368.406V80.83H370.759V82H364.61ZM367.639 73.589C367.345 73.589 367.111 73.5153 366.937 73.368C366.764 73.212 366.677 73.004 366.677 72.744C366.677 72.4753 366.764 72.263 366.937 72.107C367.111 71.951 367.345 71.873 367.639 71.873C367.934 71.873 368.168 71.951 368.341 72.107C368.515 72.263 368.601 72.4753 368.601 72.744C368.601 73.004 368.515 73.212 368.341 73.368C368.168 73.5153 367.934 73.589 367.639 73.589ZM372.067 82V74.85H373.172V75.734H373.25C373.302 75.4307 373.437 75.188 373.653 75.006C373.87 74.8153 374.134 74.72 374.446 74.72C374.732 74.72 374.979 74.811 375.187 74.993C375.395 75.175 375.547 75.422 375.642 75.734H375.707C375.759 75.4307 375.894 75.188 376.11 75.006C376.336 74.8153 376.609 74.72 376.929 74.72C377.354 74.72 377.701 74.8933 377.969 75.24C378.247 75.578 378.385 76.02 378.385 76.566V82H377.215V76.579C377.215 75.9897 376.973 75.695 376.487 75.695C376.245 75.695 376.058 75.773 375.928 75.929C375.798 76.0763 375.733 76.293 375.733 76.579V82H374.719V76.579C374.719 76.3017 374.65 76.085 374.511 75.929C374.381 75.773 374.199 75.695 373.965 75.695C373.48 75.695 373.237 75.9897 373.237 76.579V82H372.067ZM383.021 82.13C382.449 82.13 381.946 82.0173 381.513 81.792C381.088 81.558 380.759 81.2373 380.525 80.83C380.291 80.414 380.174 79.9287 380.174 79.374V77.463C380.174 76.917 380.291 76.4403 380.525 76.033C380.759 75.617 381.088 75.2963 381.513 75.071C381.946 74.837 382.449 74.72 383.021 74.72C383.593 74.72 384.091 74.837 384.516 75.071C384.949 75.2963 385.283 75.617 385.517 76.033C385.751 76.4403 385.868 76.917 385.868 77.463V78.737H381.435V79.374C381.435 79.9287 381.569 80.349 381.838 80.635C382.115 80.921 382.51 81.064 383.021 81.064C383.454 81.064 383.801 80.9903 384.061 80.843C384.321 80.687 384.486 80.4573 384.555 80.154H385.829C385.742 80.7607 385.439 81.2417 384.919 81.597C384.408 81.9523 383.775 82.13 383.021 82.13ZM381.435 77.463V77.814H384.62V77.463C384.62 76.917 384.481 76.501 384.204 76.215C383.935 75.9203 383.541 75.773 383.021 75.773C382.501 75.773 382.107 75.9203 381.838 76.215C381.569 76.501 381.435 76.917 381.435 77.463Z" fill="white"/>
<circle cx="200.428" cy="78" r="5" fill="white"/>
<path fill-rule="evenodd" clip-rule="evenodd" d="M202.494 76.4367C202.559 76.5024 202.596 76.5915 202.596 76.6844C202.596 76.7772 202.559 76.8663 202.494 76.932L199.868 79.5578C199.833 79.5925 199.792 79.6201 199.747 79.6389C199.701 79.6576 199.653 79.6673 199.604 79.6673C199.554 79.6673 199.506 79.6576 199.461 79.6389C199.415 79.6201 199.374 79.5925 199.339 79.5578L198.035 78.2535C198.001 78.2211 197.975 78.1825 197.956 78.1397C197.938 78.097 197.928 78.051 197.928 78.0045C197.927 77.958 197.936 77.9119 197.954 77.8688C197.971 77.8258 197.997 77.7867 198.03 77.7538C198.063 77.7209 198.102 77.6949 198.145 77.6772C198.188 77.6596 198.235 77.6508 198.281 77.6512C198.328 77.6516 198.374 77.6612 198.416 77.6796C198.459 77.698 198.498 77.7246 198.53 77.7581L199.603 78.8315L201.998 76.4367C202.031 76.4041 202.069 76.3783 202.112 76.3607C202.154 76.3431 202.2 76.334 202.246 76.334C202.292 76.334 202.337 76.3431 202.38 76.3607C202.422 76.3783 202.461 76.4041 202.494 76.4367Z" fill="#151515" stroke="#151515" stroke-width="0.7"/>
<rect opacity="0.2" x="154" y="15" width="1" height="77" fill="white"/>
<g opacity="0.2">
<path d="M68.828 28.6857C67.7423 27.6 66.2852 27 64.7709 27H49.9994C46.8566 27 44.3137 29.5714 44.3137 32.7143L44.2852 67C44.2852 70.1429 46.8566 72.7143 49.9994 72.7143H95.7137C98.8566 72.7143 101.428 70.1429 101.428 67V38.4286C101.428 35.2857 98.8566 32.7143 95.7137 32.7143H72.8566L68.828 28.6857Z" fill="white"/>
<circle cx="50" cy="67" r="20" fill="#151515"/>
<ellipse cx="50.0006" cy="67.0006" rx="14.2857" ry="14.2857" fill="white"/>
<path fill-rule="evenodd" clip-rule="evenodd" d="M56.026 64.4066C56.1949 64.5756 56.2898 64.8047 56.2898 65.0435C56.2898 65.2824 56.1949 65.5115 56.026 65.6804L49.274 72.4325C49.1847 72.5217 49.0788 72.5925 48.9622 72.6408C48.8456 72.6891 48.7206 72.714 48.5944 72.714C48.4682 72.714 48.3432 72.6891 48.2267 72.6408C48.1101 72.5925 48.0041 72.5217 47.9149 72.4325L44.5602 69.0784C44.4741 68.9953 44.4055 68.8959 44.3583 68.786C44.3111 68.6761 44.2862 68.5579 44.2852 68.4382C44.2842 68.3186 44.3069 68.2 44.3522 68.0893C44.3975 67.9786 44.4644 67.878 44.549 67.7934C44.6336 67.7088 44.7342 67.642 44.8449 67.5967C44.9556 67.5514 45.0742 67.5286 45.1938 67.5296C45.3134 67.5306 45.4316 67.5555 45.5415 67.6027C45.6515 67.6499 45.7509 67.7185 45.834 67.8046L48.5941 70.5648L54.7516 64.4066C54.8353 64.3229 54.9346 64.2565 55.044 64.2112C55.1533 64.1659 55.2705 64.1426 55.3888 64.1426C55.5072 64.1426 55.6244 64.1659 55.7337 64.2112C55.843 64.2565 55.9424 64.3229 56.026 64.4066Z" fill="#151515" stroke="#151515" stroke-width="0.7"/>
</g>
</svg>
