<svg width="46" height="46" viewBox="0 0 46 46" fill="none" xmlns="http://www.w3.org/2000/svg">
<rect opacity="0.1" x="0.5" y="0.5" width="45" height="45" rx="5.5" stroke="white"/>
<path d="M33 23.2727L29.3636 19.6364L29.3636 22.3636L21.1818 22.3636L21.1818 24.1818L29.3636 24.1818L29.3636 26.9091M13 28.7273L13 17.8182C13 16.8091 13.8182 16 14.8182 16L25.7273 16C26.2095 16 26.6719 16.1916 27.0129 16.5325C27.3539 16.8735 27.5455 17.336 27.5455 17.8182L27.5455 20.5455L25.7273 20.5455L25.7273 17.8182L14.8182 17.8182L14.8182 28.7273L25.7273 28.7273L25.7273 26L27.5455 26L27.5455 28.7273C27.5455 29.2095 27.3539 29.6719 27.0129 30.0129C26.6719 30.3539 26.2095 30.5455 25.7273 30.5455L14.8182 30.5455C14.336 30.5455 13.8735 30.3539 13.5325 30.0129C13.1916 29.6719 13 29.2095 13 28.7273Z" fill="white"/>
</svg>
