<svg width="46" height="46" viewBox="0 0 46 46" fill="none" xmlns="http://www.w3.org/2000/svg">
<rect x="0.5" y="0.5" width="45" height="45" rx="5.5" stroke="#CCCCCC"/>
<path d="M23.2727 13L19.6364 16.6364H22.3636V24.8182H24.1818V16.6364H26.9091M28.7273 33H17.8182C16.8091 33 16 32.1818 16 31.1818L16 20.2727C16 19.7905 16.1916 19.3281 16.5325 18.9871C16.8735 18.6461 17.336 18.4545 17.8182 18.4545H20.5455V20.2727H17.8182L17.8182 31.1818L28.7273 31.1818L28.7273 20.2727H26V18.4545H28.7273C29.2095 18.4545 29.6719 18.6461 30.0129 18.9871C30.3539 19.3281 30.5455 19.7905 30.5455 20.2727L30.5455 31.1818C30.5455 31.664 30.3539 32.1265 30.0129 32.4675C29.6719 32.8084 29.2095 33 28.7273 33Z" fill="#CCCCCC"/>
</svg>
